<svg xmlns="http://www.w3.org/2000/svg" width="29.877" height="29.395" viewBox="0 0 29.877 29.395">
  <path id="icons8_Admin_Settings_Male" d="M18.866,3c-7.71,0-10.6,1.928-10.6,7.228v2.9a3.154,3.154,0,0,0-.482,1.677,3.317,3.317,0,0,0,1.07,2.352,9.775,9.775,0,0,0,1.8,2.8l-.166,2.387L2,25.648l.212,1.282a1.926,1.926,0,0,0,1.9,1.609h9.449l.824-1.653-.824-1.239.964-.964-2.643-1.652L12,21.316a5.792,5.792,0,0,0,2.284,1.441h1.446a5.792,5.792,0,0,0,2.284-1.441l.117,1.718-2.642,1.651.964.964-.824,1.239.824,1.653h3.383c-.058-.135-.111-.27-.159-.409l-1.3-.424V25.9a1.908,1.908,0,0,1,1.306-1.8,6.643,6.643,0,0,1,.317-.761l-.469-.987-.167-2.392a9.775,9.775,0,0,0,1.8-2.8,3.317,3.317,0,0,0,1.07-2.352,3.154,3.154,0,0,0-.482-1.677v-2.9c0-1.687-.482-4.337-1.928-4.337ZM10.674,8.3a22.927,22.927,0,0,0,4.337.482A15.55,15.55,0,0,0,18.866,8.3c1.168,1,1.406,3.134,1.446,4.366v.694l0,.121c0,.017,0,.12,0,.12l0,0v.026l.164.2a1.658,1.658,0,0,1,.313.983,1.919,1.919,0,0,1-.68,1.354l-.173.13-.072.207c-.843,2.429-3.648,4.486-4.264,4.814H14.418C13.8,20.984,11,18.926,10.153,16.5l-.072-.207-.173-.13a1.9,1.9,0,0,1-.68-1.354,1.629,1.629,0,0,1,.309-.973l.173-.2V11.987C9.762,10.7,9.967,9.008,10.674,8.3ZM24.719,19.866l-.474,1.447a4.985,4.985,0,0,0-1.063.442l-.7-.379a.963.963,0,0,0-1.142.165l-.792.792.688,1.356a4.944,4.944,0,0,0-.438,1.065l-.762.225a.963.963,0,0,0-.691.924v1.12l1.447.474a4.985,4.985,0,0,0,.442,1.063l-.379.7a.963.963,0,0,0,.165,1.142l.792.792,1.356-.688a4.944,4.944,0,0,0,1.065.438l.225.762a.963.963,0,0,0,.924.691h1.12l.474-1.447a4.984,4.984,0,0,0,1.063-.442l.7.379a.963.963,0,0,0,1.142-.165l.792-.792-.688-1.356a4.945,4.945,0,0,0,.438-1.065l.762-.225a.963.963,0,0,0,.691-.924v-1.12l-1.447-.474a4.984,4.984,0,0,0-.442-1.063l.379-.7a.963.963,0,0,0-.165-1.142l-.792-.792-1.356.688a4.944,4.944,0,0,0-1.065-.438l-.225-.762a.963.963,0,0,0-.924-.691Zm.893,3.712A2.552,2.552,0,1,1,23.06,26.13,2.553,2.553,0,0,1,25.612,23.578Z" transform="translate(-2 -3)" fill="#535252"/>
</svg>
