<svg xmlns="http://www.w3.org/2000/svg" width="31.137" height="13.52" viewBox="0 0 31.137 13.52">
  <path id="arrow-growth" d="M33.006,6.7a1.42,1.42,0,0,0-.84-.608A2.077,2.077,0,0,0,31.574,6H23.792c-.86,0-1.556.5-1.556,1.126s.7,1.126,1.556,1.126h4.031l-8.7,6.295L14,10.831a2,2,0,0,0-2.21,0L2.455,17.587a.924.924,0,0,0,0,1.6,1.9,1.9,0,0,0,1.105.333,1.9,1.9,0,0,0,1.105-.333L12.9,13.218l5.12,3.716a2,2,0,0,0,2.21,0l9.79-7.094v2.917c0,.622.7,1.126,1.556,1.126s1.556-.5,1.556-1.126V7.126A.868.868,0,0,0,33.006,6.7Z" transform="translate(-1.994 -6)" fill="#06a800"/>
</svg>
