<svg id="icons8_commercial_1" xmlns="http://www.w3.org/2000/svg" width="23.133" height="22.032" viewBox="0 0 23.133 22.032">
  <path id="Path_3884" data-name="Path 3884" d="M5.3,7A3.3,3.3,0,0,0,2,10.3v4.406a3.3,3.3,0,0,0,3.3,3.3H9.711V7Z" transform="translate(-2 -1.491)" fill="#535252"/>
  <path id="Path_3885" data-name="Path 3885" d="M21.062,2.168a2.2,2.2,0,0,0-2.4.478C17.308,4,12.973,7.508,9.2,7.508A2.2,2.2,0,0,0,7,9.711V16.32a2.2,2.2,0,0,0,2.2,2.2c3.745,0,8.1,3.512,9.458,4.862a2.2,2.2,0,0,0,3.761-1.558V4.2A2.2,2.2,0,0,0,21.062,2.168Z" transform="translate(-1.492 -1.999)" fill="#535252" opacity="0.35"/>
  <path id="Path_3886" data-name="Path 3886" d="M9.406,13H5s1.1,8.068,1.1,8.262a1.652,1.652,0,1,0,3.3,0Z" transform="translate(-1.695 -0.882)" fill="#535252"/>
  <path id="Path_3887" data-name="Path 3887" d="M21,9.184v6.205a3.286,3.286,0,0,0,0-6.205Z" transform="translate(-0.07 -1.269)" fill="#535252"/>
</svg>
