<svg xmlns="http://www.w3.org/2000/svg" width="22.799" height="22.799" viewBox="0 0 22.799 22.799">
  <path id="icons8_form" d="M3.631,1A2.64,2.64,0,0,0,1,3.631V21.168A2.64,2.64,0,0,0,3.631,23.8H21.168A2.64,2.64,0,0,0,23.8,21.168V3.631A2.64,2.64,0,0,0,21.168,1Zm0,1.754H21.168a.866.866,0,0,1,.877.877V21.168a.866.866,0,0,1-.877.877H3.631a.866.866,0,0,1-.877-.877V3.631A.866.866,0,0,1,3.631,2.754Zm7.892,3.508v5.261h7.015V6.261ZM6.261,8.015V9.769H9.769V8.015Zm7.015,0h3.508V9.769H13.276Zm-1.754,5.261v5.261h7.015V13.276ZM6.261,15.03v1.754H9.769V15.03Zm7.015,0h3.508v1.754H13.276Z" transform="translate(-1 -1)" fill="#777"/>
</svg>
