<svg xmlns="http://www.w3.org/2000/svg" width="18.521" height="18.527" viewBox="0 0 18.521 18.527">
  <path id="icons8_edit" d="M14.553.25a1.624,1.624,0,0,0-1.174.474l-.723.745,4.765,4.788.723-.745a1.677,1.677,0,0,0,0-2.371L15.75.747A1.708,1.708,0,0,0,14.553.25Zm-2.71,1.874L10.714,3.208l4.968,4.968,1.152-1.061ZM9.991,4,2.177,11.745a.707.707,0,0,0-.361.452L.144,17.865a.7.7,0,0,0,.881.881l5.668-1.671a.707.707,0,0,0,.565-.474l7.7-7.633L13.9,7.906l-7.9,7.927-3.184.926-.678-.678.971-3.32,7.837-7.814Zm1.716,1.739L3.78,13.687l1.152.248L5.09,15,13.04,7.07Z" transform="translate(-0.114 -0.25)" fill="#00d61d"/>
</svg>
