<svg xmlns="http://www.w3.org/2000/svg" width="47" height="47" viewBox="0 0 47 47">
  <g id="icons8_circled_user_female_skin_type_5" transform="translate(-4 -4)">
    <path id="Path_3931" data-name="Path 3931" d="M27.5,4A23.5,23.5,0,1,0,51,27.5,23.5,23.5,0,0,0,27.5,4Z" fill="#ede7f6"/>
    <path id="Path_3932" data-name="Path 3932" d="M18,18.25H32.1V34.112H18Z" transform="translate(2.45 2.494)" fill="#4e342e"/>
    <path id="Path_3933" data-name="Path 3933" d="M26.09,46.275A23.363,23.363,0,0,0,40.119,41.6C39.4,32.928,30.789,31,30.789,31h-9.4s-8.61,1.9-9.33,10.6A23.363,23.363,0,0,0,26.09,46.275Z" transform="translate(1.41 4.725)" fill="#ff1744"/>
    <path id="Path_3934" data-name="Path 3934" d="M24.613,36.281c-1.691,0-4.113-4.406-4.113-4.406V26h8.225v5.875s-2.422,4.406-4.112,4.406" transform="translate(2.887 3.85)" fill="#c16e14"/>
    <path id="Path_3935" data-name="Path 3935" d="M33.45,24.677A8.442,8.442,0,0,1,25.225,32.9,8.441,8.441,0,0,1,17,24.677v-7.05c0-4.38,16.45-6.728,16.45,0ZM25.225,39.952c3.409,0,4.112-5.875,4.112-5.875S27.147,37.6,25.225,37.6s-4.113-3.525-4.113-3.525.7,5.875,4.113,5.875" transform="translate(2.275 1.648)" fill="#e5852e"/>
    <path id="Path_3936" data-name="Path 3936" d="M27.05,22.175a1.175,1.175,0,1,1,1.175,1.175,1.176,1.176,0,0,1-1.175-1.175m-7.05,0A1.175,1.175,0,1,0,21.175,21,1.176,1.176,0,0,0,20,22.175" transform="translate(2.8 2.975)" fill="#212121"/>
    <path id="Path_3937" data-name="Path 3937" d="M25.925,11C20.572,11,13,13.455,13,30.975l5.875,4.406V22.75L29.45,16.875l3.525,4.7v14.1L38.85,29.8c0-3.547-.3-17.038-9.4-17.038L28.275,11Z" transform="translate(1.575 1.225)" fill="#6d4c41"/>
  </g>
</svg>
