<svg xmlns="http://www.w3.org/2000/svg" width="16.082" height="16.227" viewBox="0 0 16.082 16.227">
  <g id="icons8_phone_1" transform="translate(0 0)">
    <path id="Path_3579" data-name="Path 3579" d="M0,0H4.5V1.161H0Z" transform="translate(11.918 10.231) rotate(27.54)" fill="#faefde"/>
    <path id="Path_3580" data-name="Path 3580" d="M0,0H4.916V1.161H0Z" transform="translate(3.911 1.246) rotate(69.08)" fill="#faefde"/>
    <path id="Path_3581" data-name="Path 3581" d="M8.928,7l2.032,4.936L10.379,13.1l2.613,3.484,3.194,1.452,1.161-1.161L21.7,18.9l-.581,1.742-3.194.871-5.807-2.323S7.807,15.98,6.6,12.226c-.65-2.032.871-4.355.871-4.355Z" transform="translate(-6.17 -5.581)" fill="#f9e3ae"/>
    <path id="Path_3582" data-name="Path 3582" d="M16.779,24.935a19.628,19.628,0,0,1-8.115-7.169l-.107-.157-.026-.035a10.874,10.874,0,0,1-1.678-3.319c-.07-.256-.392.136-.392.732A8.892,8.892,0,0,0,7.8,19.433l.023.029.093.134a16.845,16.845,0,0,0,6.945,6.144c3.351,1.4,4.512.92,5.151.784.267-.058.421-.351.177-.406A22.42,22.42,0,0,1,16.779,24.935Z" transform="translate(-6.182 -10.674)" fill="#f6d397"/>
    <path id="Path_3583" data-name="Path 3583" d="M21.491,16.885a1.321,1.321,0,0,0-.639-.459l-.215-.1c-.023,0-2.227-1.115-2.633-1.257a1.013,1.013,0,0,0-1.278.389l-.16.226a12.525,12.525,0,0,1-.839,1.106.543.543,0,0,1-.6.078l-.122-.049A9.224,9.224,0,0,1,12.142,15a11.472,11.472,0,0,1-2.064-2.584c-.113-.195-.067-.264.128-.494.1-.131.206-.238.311-.348a3.221,3.221,0,0,0,.253-.29l.038-.046a2.4,2.4,0,0,0,.424-.592,1.089,1.089,0,0,0-.049-.97c-.064-.134-.511-1.228-.839-2.032l-.34-.8h0c-.29-.746-.61-.81-1.074-.83-.136,0-.29-.015-.456-.015a2.149,2.149,0,0,0-1.548.56l-.032.02A4.492,4.492,0,0,0,5.5,9.961,7.6,7.6,0,0,0,7.1,14.078l.023.032.073.1a15.8,15.8,0,0,0,6.562,5.778,10.844,10.844,0,0,0,3.94,1.1A3.748,3.748,0,0,0,18.515,21,3.971,3.971,0,0,0,21.3,18.967,3.462,3.462,0,0,0,21.491,16.885ZM17.8,15.608c.311.107,2.032.952,2.572,1.231l.224.11a1.853,1.853,0,0,1,.377.209,2.245,2.245,0,0,1-.032.807l-3.9-1.954.16-.224a.444.444,0,0,1,.6-.18ZM9.474,7.06l.331.807c.441,1.08.787,1.919.854,2.056a.5.5,0,0,1,.052.465,1.864,1.864,0,0,1-.343.494V10.9L8.574,6.575H8.9C9.218,6.6,9.285,6.607,9.474,7.06Zm8.914,13.356c-.581.125-1.37.29-4.41-.976a15.1,15.1,0,0,1-6.3-5.557L7.6,13.761l-.02-.026A7.043,7.043,0,0,1,6.1,9.961,3.9,3.9,0,0,1,7.308,6.993l.035-.035A1.3,1.3,0,0,1,7.97,6.63a.29.29,0,0,0,0,.055L9.9,11.372c-.055.061-.113.128-.171.2a.894.894,0,0,0-.174,1.144,11.861,11.861,0,0,0,2.189,2.726,9.9,9.9,0,0,0,3.034,1.908l.116.046a1.1,1.1,0,0,0,1.248-.218,8.051,8.051,0,0,0,.546-.688L20.8,18.546c-.02.07-.041.139-.067.215a3.465,3.465,0,0,1-2.346,1.67Z" transform="translate(-5.503 -4.866)" fill="#8d6c9f"/>
    <path id="Path_3584" data-name="Path 3584" d="M17.356,10.54a.29.29,0,0,0-.5.29c.1.163.267.412.456.668a.291.291,0,1,0,.467-.346,7.432,7.432,0,0,1-.424-.613Zm4.428,4.152a11,11,0,0,1-2.262-1.6,12.138,12.138,0,0,1-.97-.981.291.291,0,1,0-.436.386,12.709,12.709,0,0,0,1.019,1.031,11.579,11.579,0,0,0,2.39,1.678.291.291,0,1,0,.267-.517Zm-1.643-9.95a.29.29,0,0,0,.377.16l1.614-.653a.29.29,0,0,0-.218-.537L20.3,4.365A.29.29,0,0,0,20.141,4.742ZM19.287,3.5a.29.29,0,0,0,.206-.081l.836-.807A.293.293,0,0,0,19.92,2.2L19.087,3a.29.29,0,0,0,.2.5Zm1.3,2.642a.29.29,0,0,0,0,.581h1.161a.29.29,0,1,0,0-.581Z" transform="translate(-13.542 -2.112)" fill="#8d6c9f"/>
  </g>
</svg>
