<svg xmlns="http://www.w3.org/2000/svg" width="86.662" height="96.291" viewBox="0 0 86.662 96.291">
  <g id="icons8_foundation_drilling_rig_2" transform="translate(-14 -9)">
    <path id="Path_3282" data-name="Path 3282" d="M67.96,72H24.629a9.629,9.629,0,0,0,0,19.258H67.96A9.629,9.629,0,0,0,67.96,72Z" transform="translate(0.204 12.829)" fill="#565fa1"/>
    <circle id="Ellipse_96" data-name="Ellipse 96" cx="4.213" cy="4.213" r="4.213" transform="translate(35.064 90.245)" fill="#ceccbe"/>
    <circle id="Ellipse_97" data-name="Ellipse 97" cx="4.213" cy="4.213" r="4.213" transform="translate(20.62 90.245)" fill="#ceccbe"/>
    <circle id="Ellipse_98" data-name="Ellipse 98" cx="4.213" cy="4.213" r="4.213" transform="translate(49.507 90.245)" fill="#ceccbe"/>
    <circle id="Ellipse_99" data-name="Ellipse 99" cx="4.213" cy="4.213" r="4.213" transform="translate(63.951 90.245)" fill="#ceccbe"/>
    <rect id="Rectangle_693" data-name="Rectangle 693" width="29.198" height="6.488" transform="translate(31.843 78.525)" fill="#eddc67"/>
    <path id="Path_3283" data-name="Path 3283" d="M39.073,49.815H19.815A4.815,4.815,0,0,0,15,54.629V66.665a4.815,4.815,0,0,0,4.815,4.815h52.96a4.815,4.815,0,0,0,4.815-4.815V59.914a3.614,3.614,0,0,0-1.278-2.756l-13.359-11.3A3.614,3.614,0,0,0,60.619,45H43.887A4.815,4.815,0,0,0,39.073,49.815Z" transform="translate(0.204 7.331)" fill="#f9e65c"/>
    <path id="Path_3284" data-name="Path 3284" d="M49,45V57.638h.6a4.815,4.815,0,0,0,4.815,4.815H70.665V59.914a3.614,3.614,0,0,0-1.278-2.756l-13.359-11.3A3.614,3.614,0,0,0,53.7,45Z" transform="translate(7.127 7.331)" fill="#78cdd4"/>
    <path id="Path_3285" data-name="Path 3285" d="M85.333,56.5H74.5v8.425H85.333a2.407,2.407,0,0,0,2.407-2.407V58.907A2.407,2.407,0,0,0,85.333,56.5Z" transform="translate(12.32 9.672)" fill="#78a1d1"/>
    <path id="Path_3286" data-name="Path 3286" d="M85.333,29.111H74.5V25.5H85.333a1.2,1.2,0,0,1,1.2,1.2v1.2A1.2,1.2,0,0,1,85.333,29.111Z" transform="translate(12.32 3.36)" fill="#78a1d1"/>
    <path id="Path_3287" data-name="Path 3287" d="M85.267,10a5.543,5.543,0,0,0-.779.1L66.3,13.854l0,.023a4.8,4.8,0,0,0,1.512,9.363V73.792H76.24V23.24l10.616-7.685A3,3,0,0,0,85.267,10Z" transform="translate(9.978 0.204)" fill="#eddc67"/>
    <path id="Path_3288" data-name="Path 3288" d="M68.163,92.665H24.833a10.833,10.833,0,1,1,0-21.665H68.163a10.833,10.833,0,1,1,0,21.665ZM24.833,73.407a8.425,8.425,0,0,0,0,16.851H68.163a8.425,8.425,0,1,0,0-16.851Z" transform="translate(0 12.625)" fill="#1f212b"/>
    <path id="Path_3289" data-name="Path 3289" d="M35.815,85.629a4.815,4.815,0,1,1,4.815-4.815A4.819,4.819,0,0,1,35.815,85.629Zm0-8.425a3.611,3.611,0,1,0,3.611,3.611A3.615,3.615,0,0,0,35.815,77.2Z" transform="translate(3.462 13.643)" fill="#1f212b"/>
    <path id="Path_3290" data-name="Path 3290" d="M23.815,85.629a4.815,4.815,0,1,1,4.815-4.815A4.819,4.819,0,0,1,23.815,85.629Zm0-8.425a3.611,3.611,0,1,0,3.611,3.611A3.615,3.615,0,0,0,23.815,77.2Z" transform="translate(1.018 13.643)" fill="#1f212b"/>
    <path id="Path_3291" data-name="Path 3291" d="M47.815,85.629a4.815,4.815,0,1,1,4.815-4.815A4.819,4.819,0,0,1,47.815,85.629Zm0-8.425a3.611,3.611,0,1,0,3.611,3.611A3.615,3.615,0,0,0,47.815,77.2Z" transform="translate(5.905 13.643)" fill="#1f212b"/>
    <path id="Path_3292" data-name="Path 3292" d="M59.815,85.629a4.815,4.815,0,1,1,4.815-4.815A4.819,4.819,0,0,1,59.815,85.629Zm0-8.425a3.611,3.611,0,1,0,3.611,3.611A3.615,3.615,0,0,0,59.815,77.2Z" transform="translate(8.349 13.643)" fill="#1f212b"/>
    <path id="Path_3293" data-name="Path 3293" d="M31.638,54.2H19.6a.6.6,0,1,1,0-1.2H31.638a.6.6,0,1,1,0,1.2Z" transform="translate(1.018 8.96)" fill="#1f212b"/>
    <path id="Path_3294" data-name="Path 3294" d="M26.824,57.2H19.6a.6.6,0,1,1,0-1.2h7.222a.6.6,0,0,1,0,1.2Z" transform="translate(1.018 9.571)" fill="#1f212b"/>
    <path id="Path_3295" data-name="Path 3295" d="M31.638,60.2H19.6a.6.6,0,1,1,0-1.2H31.638a.6.6,0,1,1,0,1.2Z" transform="translate(1.018 10.182)" fill="#1f212b"/>
    <path id="Path_3296" data-name="Path 3296" d="M30.62,63.2H24.6a.6.6,0,0,1,0-1.2H30.62a.6.6,0,0,1,0,1.2Z" transform="translate(2.036 10.792)" fill="#1f212b"/>
    <path id="Path_3297" data-name="Path 3297" d="M29.805,57.2H28.6a.6.6,0,0,1,0-1.2h1.2a.6.6,0,0,1,0,1.2Z" transform="translate(2.851 9.571)" fill="#1f212b"/>
    <path id="Path_3298" data-name="Path 3298" d="M22.009,63.2H19.6a.6.6,0,1,1,0-1.2h2.407a.6.6,0,0,1,0,1.2Z" transform="translate(1.018 10.792)" fill="#1f212b"/>
    <path id="Path_3299" data-name="Path 3299" d="M72.978,72.887H20.018A6.025,6.025,0,0,1,14,66.869V54.833a6.025,6.025,0,0,1,6.018-6.018H38.194A6.028,6.028,0,0,1,44.091,44H60.822a4.821,4.821,0,0,1,3.109,1.139l13.359,11.3A4.809,4.809,0,0,1,79,60.119v6.75A6.025,6.025,0,0,1,72.978,72.887ZM20.018,51.222a3.615,3.615,0,0,0-3.611,3.611V66.869a3.615,3.615,0,0,0,3.611,3.611h52.96a3.615,3.615,0,0,0,3.611-3.611v-6.75a2.4,2.4,0,0,0-.853-1.838l-13.358-11.3a2.408,2.408,0,0,0-1.555-.571H44.091a3.615,3.615,0,0,0-3.611,3.611,1.2,1.2,0,0,1-1.2,1.2Z" transform="translate(0 7.127)" fill="#1f212b"/>
    <path id="Path_3300" data-name="Path 3300" d="M71.267,61.018H54.416A5.423,5.423,0,0,1,49,55.6a.6.6,0,1,1,1.2,0,4.217,4.217,0,0,0,4.213,4.213H71.267a.6.6,0,1,1,0,1.2Z" transform="translate(7.127 9.367)" fill="#1f212b"/>
    <path id="Path_3301" data-name="Path 3301" d="M82.2,91.887a1.2,1.2,0,0,1-1.2-1.2V64.2a1.2,1.2,0,0,1,2.407,0v26.48A1.2,1.2,0,0,1,82.2,91.887Z" transform="translate(13.643 10.996)" fill="#1f212b"/>
    <path id="Path_3302" data-name="Path 3302" d="M82.2,62.905A1.2,1.2,0,0,1,81,61.7V29.2a1.2,1.2,0,0,1,2.407,0V61.7A1.2,1.2,0,0,1,82.2,62.905Z" transform="translate(13.643 3.869)" fill="#1f212b"/>
    <path id="Path_3303" data-name="Path 3303" d="M79.2,84.815a1.2,1.2,0,0,1-.38-2.346l7.222-2.407a1.2,1.2,0,0,1,.762,2.283l-7.222,2.407A1.184,1.184,0,0,1,79.2,84.815Z" transform="translate(13.032 14.458)" fill="#1f212b"/>
    <path id="Path_3304" data-name="Path 3304" d="M79.2,78.815a1.2,1.2,0,0,1-.38-2.346l7.222-2.407a1.2,1.2,0,0,1,.762,2.283l-7.222,2.407A1.184,1.184,0,0,1,79.2,78.815Z" transform="translate(13.032 13.236)" fill="#1f212b"/>
    <path id="Path_3305" data-name="Path 3305" d="M79.2,72.815a1.2,1.2,0,0,1-.38-2.346l7.222-2.407a1.2,1.2,0,0,1,.762,2.283l-7.222,2.407A1.184,1.184,0,0,1,79.2,72.815Z" transform="translate(13.032 12.014)" fill="#1f212b"/>
    <path id="Path_3306" data-name="Path 3306" d="M85.435,65.629H74V56H85.435a3.012,3.012,0,0,1,3.009,3.009V62.62A3.013,3.013,0,0,1,85.435,65.629ZM75.2,64.425H85.435A1.808,1.808,0,0,0,87.24,62.62V59.009A1.808,1.808,0,0,0,85.435,57.2H75.2Z" transform="translate(12.218 9.571)" fill="#1f212b"/>
    <path id="Path_3307" data-name="Path 3307" d="M85.435,29.815H74.6a.6.6,0,0,1-.6-.6V25.6a.6.6,0,0,1,.6-.6H85.435a1.808,1.808,0,0,1,1.805,1.805v1.2A1.808,1.808,0,0,1,85.435,29.815ZM75.2,28.611H85.435a.6.6,0,0,0,.6-.6v-1.2a.6.6,0,0,0-.6-.6H75.2Z" transform="translate(12.218 3.258)" fill="#1f212b"/>
    <path id="Path_3308" data-name="Path 3308" d="M82.1,27.74a.6.6,0,0,1-.6-.6V15.1a.6.6,0,1,1,1.2,0V27.138A.6.6,0,0,1,82.1,27.74Z" transform="translate(13.745 1.12)" fill="#1f212b"/>
    <path id="Path_3309" data-name="Path 3309" d="M39.1,52.031a.6.6,0,0,1-.472-.976l29.748-37.4a.6.6,0,0,1,.942.749L39.574,51.8A.6.6,0,0,1,39.1,52.031Z" transform="translate(4.989 0.902)" fill="#1f212b"/>
    <path id="Path_3310" data-name="Path 3310" d="M49.263,51.193a1.2,1.2,0,0,1-.954-1.934L69.9,20.973a1.2,1.2,0,1,1,1.913,1.461L50.221,50.72A1.2,1.2,0,0,1,49.263,51.193Z" transform="translate(6.936 2.342)" fill="#1f212b"/>
    <path id="Path_3311" data-name="Path 3311" d="M76.444,75.2H68.018a1.2,1.2,0,0,1-1.2-1.2V24.526A6,6,0,0,1,65.9,13.018a1.185,1.185,0,0,1,.36-.14L84.449,9.125A6.449,6.449,0,0,1,85.471,9,4.207,4.207,0,0,1,87.7,16.779L77.647,24.057V74A1.2,1.2,0,0,1,76.444,75.2Zm-7.222-2.407H75.24V23.444a1.2,1.2,0,0,1,.5-.975l10.616-7.685a1.845,1.845,0,0,0,.922-1.571,1.807,1.807,0,0,0-1.8-1.805,3.8,3.8,0,0,0-.544.078l-17.956,3.7a.727.727,0,0,1-.085.031,3.6,3.6,0,0,0,1.131,7.018,1.2,1.2,0,0,1,1.2,1.2Z" transform="translate(9.774)" fill="#1f212b"/>
    <path id="Path_3312" data-name="Path 3312" d="M49.6,54.611a.6.6,0,0,1-.6-.6V51.6a.6.6,0,0,1,1.2,0v2.407A.6.6,0,0,1,49.6,54.611Z" transform="translate(7.127 8.553)" fill="#1f212b"/>
    <path id="Path_3313" data-name="Path 3313" d="M49.6,49.407a.6.6,0,0,1-.6-.6V47.6a.6.6,0,1,1,1.2,0v1.2A.6.6,0,0,1,49.6,49.407Z" transform="translate(7.127 7.738)" fill="#1f212b"/>
    <path id="Path_3314" data-name="Path 3314" d="M59.294,74.425H28V66H59.294ZM30.407,72.018h26.48V68.407H30.407Z" transform="translate(2.851 11.607)" fill="#1f212b"/>
  </g>
</svg>
