<svg id="icons8_users" xmlns="http://www.w3.org/2000/svg" width="37.497" height="23.436" viewBox="0 0 37.497 23.436">
  <path id="Path_3869" data-name="Path 3869" d="M0,33.468C0,30.448,2.8,28,6.25,28s6.25,2.448,6.25,5.468Zm25,0C25,30.448,27.8,28,31.248,28s6.25,2.448,6.25,5.468Z" transform="translate(0 -13.157)" fill="#2196f3"/>
  <path id="Path_3870" data-name="Path 3870" d="M40.469,25.125H37.344v2.344s.256.781,1.53.781a1.6,1.6,0,0,0,1.594-.781ZM41.64,22a1.172,1.172,0,1,0,1.172,1.172A1.172,1.172,0,0,0,41.64,22Zm-5.468,0a1.172,1.172,0,1,0,1.172,1.172A1.172,1.172,0,0,0,36.172,22Z" transform="translate(-7.658 -11.844)" fill="#ef8d3c"/>
  <path id="Path_3871" data-name="Path 3871" d="M42.25,19.731c0-1.723-1.4-1.731-3.125-1.731S36,18.008,36,19.731v2.956a3.125,3.125,0,1,0,6.25,0Z" transform="translate(-7.877 -10.969)" fill="#ffb74d"/>
  <path id="Path_3872" data-name="Path 3872" d="M38.735,16A4.014,4.014,0,0,0,35,20.354v1.114l.781.781V19.906l4.929-1.719,1.32,1.719V22.25l.781-.781v-.94c0-1.886-.105-3.285-2.344-3.747L40.089,16Z" transform="translate(-7.658 -10.532)" fill="#424242"/>
  <path id="Path_3873" data-name="Path 3873" d="M8.469,25.125H5.344v2.344s.256.781,1.53.781a1.6,1.6,0,0,0,1.594-.781ZM9.64,22a1.172,1.172,0,1,0,1.172,1.172A1.172,1.172,0,0,0,9.64,22ZM4.172,22a1.172,1.172,0,1,0,1.172,1.172A1.172,1.172,0,0,0,4.172,22Z" transform="translate(-0.656 -11.844)" fill="#ef8d3c"/>
  <path id="Path_3874" data-name="Path 3874" d="M10.25,19.731c0-1.723-1.4-1.731-3.125-1.731S4,18.008,4,19.731v2.956a3.125,3.125,0,1,0,6.25,0Z" transform="translate(-0.875 -10.969)" fill="#ffb74d"/>
  <path id="Path_3875" data-name="Path 3875" d="M6.735,16A4.014,4.014,0,0,0,3,20.354v1.114l.781.781V19.906l4.929-1.719,1.32,1.719V22.25l.781-.781v-.94c0-1.886-.105-3.285-2.344-3.747L8.089,16Z" transform="translate(-0.656 -10.532)" fill="#424242"/>
  <path id="Path_3876" data-name="Path 3876" d="M28.5,20.172A1.172,1.172,0,1,1,27.327,19,1.172,1.172,0,0,1,28.5,20.172m-10.156,0a1.172,1.172,0,1,0-1.172,1.172,1.172,1.172,0,0,0,1.172-1.172" transform="translate(-3.501 -11.188)" fill="#ffa726"/>
  <path id="Path_3877" data-name="Path 3877" d="M26.25,29A3.125,3.125,0,0,1,20,29" transform="translate(-4.376 -13.376)" fill="#ff9800"/>
  <path id="Path_3878" data-name="Path 3878" d="M24.3,29h0l-2.929.6L18.445,29S12,30.193,12,36.812H30.749C30.749,30.218,24.3,29,24.3,29" transform="translate(-2.626 -13.376)" fill="#4fc3f7"/>
  <path id="Path_3879" data-name="Path 3879" d="M23.125,31.25A3.06,3.06,0,0,1,20,28.125V25h6.25v3.125A3.06,3.06,0,0,1,23.125,31.25Z" transform="translate(-4.376 -12.501)" fill="#ff9800"/>
  <path id="Path_3880" data-name="Path 3880" d="M27.937,15.875c0-4.593-10.937-2.99-10.937,0v3.43a5.469,5.469,0,0,0,10.937,0Z" transform="translate(-3.72 -9.875)" fill="#ffb74d"/>
  <path id="Path_3881" data-name="Path 3881" d="M22.7,33.7a4.686,4.686,0,0,0,4.647-4.1,9.212,9.212,0,0,0-1.526-.541,3.12,3.12,0,0,1-6.24,0,9.264,9.264,0,0,0-1.527.537A4.685,4.685,0,0,0,22.7,33.7Z" transform="translate(-3.95 -13.388)" fill="#01579b"/>
  <path id="Path_3882" data-name="Path 3882" d="M22.25,9A6.414,6.414,0,0,0,16,15.384v1.428l1.562,1.562V15.25l7.187-2.344,2.187,2.344v3.125L28.5,16.812V16.18c0-2.514-.649-5.314-3.75-5.931L24.124,9Z" transform="translate(-3.501 -9)" fill="#795548"/>
  <path id="Path_3883" data-name="Path 3883" d="M24.687,19.781a.781.781,0,1,1,.781.781.782.782,0,0,1-.781-.781m-4.687,0A.781.781,0,1,0,20.781,19a.782.782,0,0,0-.781.781" transform="translate(-4.376 -11.188)" fill="#784719"/>
</svg>
