<svg xmlns="http://www.w3.org/2000/svg" width="35.807" height="34.813" viewBox="0 0 35.807 34.813">
  <g id="icons8_rent" transform="translate(-14 -13.997)">
    <path id="Path_3912" data-name="Path 3912" d="M49.833,36.532V53.844H19V36.532L34.417,25Z" transform="translate(-2.513 -5.531)" fill="#fefdef"/>
    <path id="Path_3913" data-name="Path 3913" d="M49.833,36.533v2.487L34.417,27.487,19,39.019V36.533L34.417,25Z" transform="translate(-2.513 -5.531)" fill="#ceccbe"/>
    <path id="Path_3914" data-name="Path 3914" d="M15,27.93,32.406,15,49.812,27.93V32.9L32.406,19.973,15,32.9Z" transform="translate(-0.503 -0.504)" fill="#f15b6c"/>
    <path id="Path_3915" data-name="Path 3915" d="M73.47,17.249v1.989a.246.246,0,0,1-.249.249h-.746v8.206a.255.255,0,0,1-.139.224.271.271,0,0,1-.109.025.235.235,0,0,1-.149-.05l-2.984-2.238a.238.238,0,0,1-.1-.2V19.487h-.746A.246.246,0,0,1,68,19.238V17.249A.246.246,0,0,1,68.249,17h4.973A.246.246,0,0,1,73.47,17.249Z" transform="translate(-27.145 -1.509)" fill="#fefdef"/>
    <g id="Group_849" data-name="Group 849" transform="translate(14 13.997)">
      <path id="Path_3916" data-name="Path 3916" d="M49.608,27.028l-4.277-3.176V17.977h.746a.249.249,0,0,0,.249-.249V15.739a.249.249,0,0,0-.249-.249H41.1a.249.249,0,0,0-.249.249v1.989a.249.249,0,0,0,.249.249h.746v3.286L32.2,14.1a.492.492,0,0,0-.6,0L14.2,27.028a.5.5,0,0,0-.2.4V32.4a.491.491,0,0,0,.274.443A.5.5,0,0,0,14.8,32.8l1.194-.887v16.4a.5.5,0,0,0,.5.5H47.32a.5.5,0,0,0,.5-.5V31.91l1.194.887a.492.492,0,0,0,.522.045.491.491,0,0,0,.274-.443V27.426A.5.5,0,0,0,49.608,27.028ZM16.984,47.816V31.172L31.9,20.091,46.823,31.172V47.816M48.812,31.41,32.2,19.071a.5.5,0,0,0-.6,0L14.995,31.41V27.675L31.9,15.118l9.946,7.389v1.439a.248.248,0,0,0,.1.2l1.492,1.119a.249.249,0,1,0,.3-.4l-1.392-1.044V17.729a.249.249,0,0,0-.249-.249h-.745V15.988h4.476V17.48h-.746a.249.249,0,0,0-.249.249v7.957l-.1-.075a.249.249,0,1,0-.3.4l.5.373a.248.248,0,0,0,.149.05.253.253,0,0,0,.111-.026.25.25,0,0,0,.137-.222V25.09l3.481,2.585Z" transform="translate(-14 -13.997)" fill="#1f212b"/>
      <path id="Path_3917" data-name="Path 3917" d="M42,54.756a.8.8,0,0,1,.18-.476.5.5,0,0,1,.388-.243c.088,0,.208.078.36.233l.531.544a2.651,2.651,0,0,0,.91.544,4.017,4.017,0,0,0,1.421.272V49.975l-.512-.194-.473-.175a4.791,4.791,0,0,1-.512-.233l-.417-.234a1.494,1.494,0,0,1-.445-.291q-.123-.137-.351-.35a1.353,1.353,0,0,1-.322-.428l-.208-.486a2.443,2.443,0,0,1-.161-.593,4.693,4.693,0,0,1-.047-.69,2.936,2.936,0,0,1,.995-2.455,4.321,4.321,0,0,1,2.454-.881v-.6a.322.322,0,0,1,.136-.262.552.552,0,0,1,.346-.1.545.545,0,0,1,.326.116.321.321,0,0,1,.157.252v.561a5.832,5.832,0,0,1,1.924.377q.861.339.861.8a.954.954,0,0,1-.139.474.4.4,0,0,1-.335.242,6.273,6.273,0,0,1-.771-.339,4.007,4.007,0,0,0-1.54-.377v4.816a10.34,10.34,0,0,1,1.187.525,5.125,5.125,0,0,1,.98.709,2.887,2.887,0,0,1,.772,1.166,4.763,4.763,0,0,1,.263,1.661,3.777,3.777,0,0,1-.857,2.622,3.663,3.663,0,0,1-2.345,1.142v.781a.335.335,0,0,1-.157.261.548.548,0,0,1-.673.01.336.336,0,0,1-.136-.271v-.722a4.976,4.976,0,0,1-2.709-.723Q42,55.383,42,54.756Zm1.535-8.56a1.92,1.92,0,0,0,.578,1.529,5.38,5.38,0,0,0,1.714.91V44.143Q43.534,44.337,43.535,46.2Zm3.163,9.4A2.235,2.235,0,0,0,48.745,53.1a2.654,2.654,0,0,0-.526-1.777,4.1,4.1,0,0,0-1.52-1.04v5.3Z" transform="translate(-28.075 -28.074)" fill="#1f212b"/>
    </g>
  </g>
</svg>
