<svg xmlns="http://www.w3.org/2000/svg" width="50" height="31.667" viewBox="0 0 50 31.667">
  <path id="icons8_users_1" d="M25,6c-5.3,0-7.5,3.4-7.5,7.5a7.439,7.439,0,0,0,.661,2.767,1.47,1.47,0,0,0-.6,1.5c.2,1.6.9,2.008,1.344,2.041A6.532,6.532,0,0,0,21.25,23.5v2.236C20,29.486,10,28.917,10,37.667H40c0-8.75-10-8.18-11.25-11.93V23.5a6.523,6.523,0,0,0,2.34-3.691c.443-.033,1.139-.438,1.344-2.041a1.469,1.469,0,0,0-.6-1.5A6.6,6.6,0,0,0,32.5,13.5c0-3.035-1.192-5.625-3.75-5.625A3.976,3.976,0,0,0,25,6ZM37.5,9.33a7.008,7.008,0,0,0-2.246.374,12.292,12.292,0,0,1,.579,3.8,9.5,9.5,0,0,1-.316,2.379,5.153,5.153,0,0,1,.222,2.308A5.962,5.962,0,0,1,33.9,22.055a10.315,10.315,0,0,1-1,1.8,5.857,5.857,0,0,0,1.478,2.012v.02c3.4,1.592,8.958,4.267,8.958,11.784H50c0-8.263-8.333-7.077-9.375-10.618V25.86a6.283,6.283,0,0,0,1.95-3.486c.368-.032.95-.412,1.12-1.927a1.465,1.465,0,0,0-.495-1.416,6.915,6.915,0,0,0,.55-2.614c0-2.867-.993-5.312-3.125-5.312A3.285,3.285,0,0,0,37.5,9.33Zm-25,0A3.285,3.285,0,0,0,9.375,11.1c-2.132,0-3.125,2.449-3.125,5.316a6.877,6.877,0,0,0,.55,2.611,1.46,1.46,0,0,0-.495,1.416c.17,1.515.751,1.9,1.12,1.93a6.283,6.283,0,0,0,1.95,3.486v1.185C8.333,30.588,0,29.4,0,37.667H6.667c0-7.517,5.563-10.19,8.958-11.784V25.86A5.816,5.816,0,0,0,17.1,23.851a10.342,10.342,0,0,1-1-1.8,5.945,5.945,0,0,1-1.842-3.864,5.182,5.182,0,0,1,.228-2.337,9.354,9.354,0,0,1-.322-2.35,12.9,12.9,0,0,1,.55-3.8A6.984,6.984,0,0,0,12.5,9.333Z" transform="translate(0 -6)" fill="#ffd400"/>
</svg>
