<svg id="Group_834" data-name="Group 834" xmlns="http://www.w3.org/2000/svg" width="24.852" height="24.832" viewBox="0 0 24.852 24.832">
  <path id="Path_76" data-name="Path 76" d="M23.121,32.768l.04-.047a4.358,4.358,0,0,1-.5,1.14h0q-.174.256-.362.5l0,0a12.179,12.179,0,0,1-.947,1.1c-.02.022-.042.045-.065.067a12.4,12.4,0,0,1-5.684,3.32.2.2,0,0,1-.033.009A12.409,12.409,0,0,1,5.484,37.151a.15.15,0,0,0-.023-.016,12.583,12.583,0,0,1-1.349-1.058l-.02-.018c-.143-.13-.285-.264-.422-.4l-.019-.018a12.409,12.409,0,0,1,8.764-21.2h.058c.088,0,.175,0,.263,0h0c.228.006.454.018.679.037h.007A3.619,3.619,0,0,1,16.37,18.11a3.8,3.8,0,0,1-.4,1.707c0,.01-.009.02-.015.03a3.477,3.477,0,0,1-.247.413c-.181-.091-.366-.174-.554-.248l-.045-.018A7.275,7.275,0,0,0,12.46,19.5a7.156,7.156,0,0,0-2.561.46l-.024.008A7.3,7.3,0,0,0,5.8,29.752s0,0,0,0a4.28,4.28,0,0,0,.77,1.325s0,0,0,0a7.337,7.337,0,0,0,.6.717l.018.02.115.117c.039.039.078.078.119.116l.019.018a7.254,7.254,0,0,0,2.5,1.556l.028.012h0a7.311,7.311,0,0,0,2.485.432c.046,0,.091,0,.137,0h.053c.168,0,.337-.015.5-.03l.027,0a7.211,7.211,0,0,0,1.852-.43h0l.024-.008c.178-.069.354-.143.526-.225l.023-.012a7.347,7.347,0,0,0,3.524-3.639.267.267,0,0,0,.012-.025,7.234,7.234,0,0,0,.579-2.332.2.2,0,0,0,0-.025c0-.03.005-.119.006-.15a10.34,10.34,0,0,1,1.321.489,8.633,8.633,0,0,1,1.188.945,4.51,4.51,0,0,1,.792,1.428l.013.035a4.376,4.376,0,0,1,.1,2.615C23.134,32.722,23.127,32.745,23.121,32.768Z" transform="translate(0 -14.44)" fill="#fa0"/>
  <path id="Path_77" data-name="Path 77" d="M69.932,84.26s2.122-5.1-3.129-6.531c-2.995-.258-6.445,4.528-8.471,5.078-2.3.7-4.412.48-5.633-3.264a2.447,2.447,0,0,0,3.9.49c2.223-2.409,6.562-8.005,8.118-8.628a1.519,1.519,0,0,0,.184-.093c3.349-1.871,6.857,3.016,7.086,4.91a12.552,12.552,0,0,1-2.055,8.038Z" transform="translate(-47.185 -64.986)" fill="#fa0"/>
</svg>
