<svg xmlns="http://www.w3.org/2000/svg" xmlns:xlink="http://www.w3.org/1999/xlink" width="37" height="37" viewBox="0 0 37 37">
  <defs>
    <filter id="Ellipse_157" x="0" y="0" width="37" height="37" filterUnits="userSpaceOnUse">
      <feOffset dy="3" input="SourceAlpha"/>
      <feGaussianBlur stdDeviation="3" result="blur"/>
      <feFlood flood-opacity="0.161"/>
      <feComposite operator="in" in2="blur"/>
      <feComposite in="SourceGraphic"/>
    </filter>
  </defs>
  <g id="Group_722" data-name="Group 722" transform="translate(-189 -158)">
    <g transform="matrix(1, 0, 0, 1, 189, 158)" filter="url(#Ellipse_157)">
      <circle id="Ellipse_157-2" data-name="Ellipse 157" cx="9.5" cy="9.5" r="9.5" transform="translate(9 6)" fill="#efefef"/>
    </g>
    <path id="icons8_Camera" d="M5.991,5a.851.851,0,0,0-.7.4v.009l-.44.7H2.379A1.385,1.385,0,0,0,1,7.483V14.1a1.385,1.385,0,0,0,1.379,1.379H12.861A1.385,1.385,0,0,0,14.24,14.1V7.483A1.385,1.385,0,0,0,12.861,6.1h-2.5l-.44-.7V5.4a.851.851,0,0,0-.7-.4Zm0,.552H9.224a.28.28,0,0,1,.233.155l.526.819a.276.276,0,0,0,.233.129h2.646a.828.828,0,0,1,.828.828V14.1a.828.828,0,0,1-.828.828H2.379a.828.828,0,0,1-.828-.828V7.483a.828.828,0,0,1,.828-.828H5a.276.276,0,0,0,.233-.129l.517-.819L5.758,5.7A.294.294,0,0,1,5.991,5.552ZM3.483,7.207a.828.828,0,1,0,.828.828A.832.832,0,0,0,3.483,7.207Zm0,.552a.276.276,0,1,1-.276.276A.275.275,0,0,1,3.483,7.758Zm4.138,0a3.034,3.034,0,1,0,3.034,3.034A3.039,3.039,0,0,0,7.62,7.758Zm0,.552a2.483,2.483,0,1,1-2.483,2.483A2.479,2.479,0,0,1,7.62,8.31Z" transform="translate(200 162.515)"/>
  </g>
</svg>
