<svg xmlns="http://www.w3.org/2000/svg" xmlns:xlink="http://www.w3.org/1999/xlink" width="99" height="95" viewBox="0 0 99 95">
  <defs>
    <clipPath id="clip-path">
      <rect id="Rectangle_29" data-name="Rectangle 29" width="99" height="95" rx="25" transform="translate(-0.06 0.088)" fill="#efefef"/>
    </clipPath>
  </defs>
  <g id="Mask_Group_1" data-name="Mask Group 1" transform="translate(0.06 -0.088)" clip-path="url(#clip-path)">
    <path id="icons8_easy" d="M41.443,2.493a2.032,2.032,0,0,0-1.991,2.054V16.684a2.023,2.023,0,1,0,4.046,0V4.547a2.024,2.024,0,0,0-2.054-2.054Zm-18.2,6.084a2.018,2.018,0,0,0-1.406,3.469l8.091,8.091a2.023,2.023,0,1,0,2.86-2.86L24.7,9.185A2,2,0,0,0,23.246,8.577Zm36.394,0a1.965,1.965,0,0,0-1.391.608l-8.091,8.091a2.023,2.023,0,1,0,2.86,2.86l8.091-8.091a2.018,2.018,0,0,0,.45-2.236A2,2,0,0,0,59.64,8.577Zm20.615,2.054a7.728,7.728,0,0,0-5.476,2.252L37.887,49.775c-.608-1.114-.909-1.707-2.039-3.643-1.881-3.2-3.975-6.669-5.879-8.581A24.763,24.763,0,0,0,19.208,31.57a18.255,18.255,0,0,0-5.4-.719,6.456,6.456,0,0,0-4.528,1.644L5.657,36.121a2.031,2.031,0,0,0,0,2.868l11.1,11.1L25.4,75.984a2.05,2.05,0,0,0,.49.79L41.767,92.657a16.777,16.777,0,0,0,23.689,0l3.5-3.5h-.837a2.021,2.021,0,0,0,1.43-.592L87.754,70.359a7.783,7.783,0,0,0,0-10.952,7.521,7.521,0,0,0-4.314-2.031,7.758,7.758,0,0,0-1.754-8.083,7.521,7.521,0,0,0-4.314-2.031,7.758,7.758,0,0,0-1.754-8.083,7.519,7.519,0,0,0-3.382-1.849l13.5-13.5a7.728,7.728,0,0,0-5.476-13.2Zm0,4.014a3.714,3.714,0,0,1,2.615,6.329L64.665,39.179a2.023,2.023,0,0,0,2.86,2.86,3.7,3.7,0,0,1,5.231,5.231l-2.023,2.023a2.023,2.023,0,0,0,2.86,2.86,3.7,3.7,0,1,1,5.231,5.231L76.8,59.407a2.023,2.023,0,0,0,2.86,2.86,3.7,3.7,0,0,1,5.231,5.239L66.688,85.7,62.6,89.8a12.676,12.676,0,0,1-17.968,0L29.085,74.246,20.449,48.353a2.174,2.174,0,0,0-.49-.79L9.948,37.552l2.2-2.2a3.425,3.425,0,0,1,1.825-.458,14.682,14.682,0,0,1,4.18.585,21.39,21.39,0,0,1,8.968,4.938,55.536,55.536,0,0,1,5.239,7.751c1.825,3.121,3.287,5.871,3.287,5.871a2.023,2.023,0,0,0,3.216.482L77.64,15.743A3.683,3.683,0,0,1,80.255,14.645Z" transform="translate(1.992 -2.787)" fill="#5b5b5b"/>
  </g>
</svg>
