<svg xmlns="http://www.w3.org/2000/svg" width="38.375" height="36.417" viewBox="0 0 38.375 36.417">
  <g id="Group_1021" data-name="Group 1021" transform="translate(-1475 -3109.999)">
    <path id="icons8_women_shoe_side_view" d="M14.333,23.583C22.048,16.784,26.667,8.166,26.667,2c5.607,0,7.708,3.083,7.708,10.791L31.292,32.832H28.209V20.5l-9.25,12.333H2V31.411a4.469,4.469,0,0,1,1.542-3.2c3.174-2.493,9.25-9.25,9.25-9.25C13.256,19.994,13.816,22.445,14.333,23.583Z" transform="translate(1479 3113.584)"/>
    <path id="icons8_vintage_glasses" d="M25.261,4.106A16.753,16.753,0,0,0,20.9,8.053c-2.486,3.068-3.3,6.82-4.663,8.183S11.121,18.412,8.053,20.9A16.753,16.753,0,0,0,4.106,25.26a.935.935,0,0,0,.281,1.188c1.07,1.07,9.131,4.455,12.472,1.111,3.849-3.845-.952-8.24.757-9.949s6.1,3.092,9.945-.753c3.345-3.341-.041-11.405-1.107-12.471A.941.941,0,0,0,25.261,4.106Zm-9.5,22.306c-1.986,1.986-5.632.122-6.612-.854a2.329,2.329,0,0,1,.216-3.792c1.994-1.636,4.525-2.58,6.01-1.095C16.065,21.354,17.746,24.426,15.764,26.412ZM26.413,15.763c-1.986,1.982-5.058.3-5.742-.387-1.489-1.485-.541-4.016,1.095-6.01a2.326,2.326,0,0,1,3.788-.216C26.535,10.128,28.4,13.778,26.413,15.763Z" transform="translate(1471 3105.999)"/>
  </g>
</svg>
