<svg xmlns="http://www.w3.org/2000/svg" xmlns:xlink="http://www.w3.org/1999/xlink" width="51.064" height="51.021" viewBox="0 0 51.064 51.021">
  <defs>
    <linearGradient id="linear-gradient" x1="0.5" x2="0.5" y2="1" gradientUnits="objectBoundingBox">
      <stop offset="0" stop-color="#eee"/>
      <stop offset="1" stop-color="#d4d4d4"/>
    </linearGradient>
  </defs>
  <g id="Group_522" data-name="Group 522" transform="translate(0 0)">
    <g id="Layer_1-2" transform="translate(0 0)">
      <g id="Group_1" data-name="Group 1">
        <path id="Path_1" data-name="Path 1" d="M47.506,37.659c.028-.032.054-.062.082-.1A8.954,8.954,0,0,1,46.56,39.9v0q-.358.526-.744,1.03a.03.03,0,0,1-.006.009,25.028,25.028,0,0,1-1.946,2.266c-.041.045-.086.092-.133.138A25.485,25.485,0,0,1,32.051,50.17a.411.411,0,0,1-.069.019,25.5,25.5,0,0,1-20.714-3.524.308.308,0,0,0-.047-.032A25.856,25.856,0,0,1,8.45,44.459c-.013-.013-.028-.024-.041-.037-.295-.267-.585-.542-.866-.823-.013-.011-.026-.024-.039-.037A25.5,25.5,0,0,1,25.511,0c.039,0,.08,0,.118,0,.181,0,.359,0,.54.006h.006c.469.013.933.037,1.4.075a.042.042,0,0,0,.015,0,7.437,7.437,0,0,1,6.05,7.454,7.813,7.813,0,0,1-.821,3.507c-.009.022-.019.041-.03.062a7.145,7.145,0,0,1-.507.849c-.372-.187-.753-.357-1.137-.51-.03-.013-.062-.026-.092-.037A14.947,14.947,0,0,0,25.6,10.4a14.7,14.7,0,0,0-5.261.946.451.451,0,0,1-.049.017,15.006,15.006,0,0,0-8.37,20.1s0,0,0,.006a8.794,8.794,0,0,0,1.582,2.722s0,0,0,0a15.072,15.072,0,0,0,1.234,1.473l.037.041c.08.082.157.161.237.241s.161.161.245.239c.013.013.026.026.039.037a14.905,14.905,0,0,0,5.134,3.2l.058.024h0a15.022,15.022,0,0,0,5.106.888c.095,0,.187,0,.282,0h.11c.346-.009.692-.03,1.034-.062l.056-.006a14.816,14.816,0,0,0,3.806-.884h0l.049-.017c.366-.142.727-.295,1.081-.462.017-.009.032-.017.047-.024A15.1,15.1,0,0,0,39.31,31.4a.55.55,0,0,0,.024-.052,14.864,14.864,0,0,0,1.189-4.793.417.417,0,0,0,0-.052c.006-.062.011-.245.013-.307a21.245,21.245,0,0,1,2.713,1,17.736,17.736,0,0,1,2.44,1.942,9.267,9.267,0,0,1,1.628,2.935l.026.071a8.991,8.991,0,0,1,.2,5.373c-.011.047-.026.095-.039.142Z" transform="translate(0 0)" fill="url(#linear-gradient)"/>
        <path id="Path_2" data-name="Path 2" d="M88.108,83.918s4.36-10.486-6.429-13.419c-6.154-.531-13.242,9.3-17.4,10.434-4.722,1.436-9.065.987-11.574-6.706,0,0,3.072,5.1,8.009,1.006,4.567-4.949,13.483-16.448,16.68-17.727a3.121,3.121,0,0,0,.378-.191c6.88-3.844,14.09,6.2,14.56,10.088.538,5.014-1.019,12.468-4.223,16.515Z" transform="translate(-41.369 -44.315)" fill="url(#linear-gradient)"/>
      </g>
    </g>
  </g>
</svg>
