<svg xmlns="http://www.w3.org/2000/svg" xmlns:xlink="http://www.w3.org/1999/xlink" width="221" height="66" viewBox="0 0 221 66">
  <defs>
    <linearGradient id="linear-gradient" x1="0.92" y1="-0.963" x2="-0.377" y2="-1.639" gradientUnits="objectBoundingBox">
      <stop offset="0" stop-color="#00a0ff"/>
      <stop offset="0.007" stop-color="#00a1ff"/>
      <stop offset="0.26" stop-color="#00beff"/>
      <stop offset="0.512" stop-color="#00d2ff"/>
      <stop offset="0.76" stop-color="#00dfff"/>
      <stop offset="1" stop-color="#00e3ff"/>
    </linearGradient>
    <linearGradient id="linear-gradient-2" x1="1.076" y1="-5.2" x2="-1.312" y2="-5.2" gradientUnits="objectBoundingBox">
      <stop offset="0" stop-color="#ffe000"/>
      <stop offset="0.409" stop-color="#ffbd00"/>
      <stop offset="0.775" stop-color="orange"/>
      <stop offset="1" stop-color="#ff9c00"/>
    </linearGradient>
    <linearGradient id="linear-gradient-3" x1="0.861" y1="-3.865" x2="-0.498" y2="-5.633" gradientUnits="objectBoundingBox">
      <stop offset="0" stop-color="#ff3a44"/>
      <stop offset="1" stop-color="#c31162"/>
    </linearGradient>
    <linearGradient id="linear-gradient-4" x1="-0.185" y1="-1.153" x2="0.422" y2="-1.94" gradientUnits="objectBoundingBox">
      <stop offset="0" stop-color="#32a071"/>
      <stop offset="0.069" stop-color="#2da771"/>
      <stop offset="0.476" stop-color="#15cf74"/>
      <stop offset="0.801" stop-color="#06e775"/>
      <stop offset="1" stop-color="#00f076"/>
    </linearGradient>
  </defs>
  <g id="Group_22" data-name="Group 22" transform="translate(0.11 0.436)">
    <rect id="Rectangle_23" data-name="Rectangle 23" width="221" height="66" rx="10" transform="translate(-0.11 -0.436)" fill="#fff"/>
    <g id="Group_21" data-name="Group 21">
      <path id="Path_65" data-name="Path 65" d="M86.357,89.745a4.116,4.116,0,0,1-1.245,3.267,4.893,4.893,0,0,1-7.157,0A5.064,5.064,0,0,1,76.4,89.434a4.8,4.8,0,0,1,1.556-3.578A5.064,5.064,0,0,1,81.534,84.3a9.105,9.105,0,0,1,2.023.311A3.557,3.557,0,0,1,85.112,85.7l-.933.933a3.2,3.2,0,0,0-2.645-1.089,3.412,3.412,0,0,0-2.645,1.089,4.145,4.145,0,0,0,0,5.6,3.644,3.644,0,0,0,2.645,1.089,3.749,3.749,0,0,0,2.8-1.089,2.389,2.389,0,0,0,.778-2.023H81.534V88.967H86.2A2.082,2.082,0,0,1,86.357,89.745Zm7.468-3.889H89.313v3.267h4.2v.933h-4.2v3.112h4.512v1.089H88.068v-9.8h5.756Zm5.445,8.4H98.025v-8.4h-2.8V84.611h6.69V85.7h-2.8v8.712h.156Zm7.468,0v-9.8h1.245v9.8Zm7,0h-1.245v-8.4h-2.645V84.611h6.69V85.7h-2.8ZM129.3,93.168a5.065,5.065,0,0,1-3.578,1.556,4.8,4.8,0,0,1-3.578-1.556,5.064,5.064,0,0,1-1.556-3.578,5.36,5.36,0,0,1,1.556-3.578,4.132,4.132,0,0,1,3.423-1.711,4.8,4.8,0,0,1,3.578,1.556,5.064,5.064,0,0,1,1.556,3.578A5.876,5.876,0,0,1,129.3,93.168Zm-6.379-.933a3.756,3.756,0,0,0,5.29,0,4.145,4.145,0,0,0,0-5.6,3.756,3.756,0,0,0-5.29,0,4.145,4.145,0,0,0,0,5.6Zm9.646,2.023v-9.8h1.556l4.667,7.779V84.456h1.245v9.8h-1.245l-5.134-8.09v8.09Z" transform="translate(-8.568 -73.098)" fill="#4f5362" stroke="#4f5362" stroke-miterlimit="10" stroke-width="0.241"/>
      <path id="Path_66" data-name="Path 66" d="M120.5,102.779a6.876,6.876,0,0,0-7,7,6.972,6.972,0,0,0,7,7,7,7,0,0,0,0-14Zm0,11.046a4.213,4.213,0,1,1,3.889-4.2A3.933,3.933,0,0,1,120.5,113.825ZM105.4,102.779a6.876,6.876,0,0,0-7,7,6.972,6.972,0,0,0,7,7,6.876,6.876,0,0,0,7-7A6.967,6.967,0,0,0,105.4,102.779Zm0,11.046a4.213,4.213,0,1,1,3.889-4.2A4.027,4.027,0,0,1,105.4,113.825ZM87.2,104.8v2.956h7.157a5.622,5.622,0,0,1-1.711,3.734,7.429,7.429,0,0,1-5.445,2.178,7.707,7.707,0,0,1-7.623-7.934A7.806,7.806,0,0,1,87.2,97.8a7.234,7.234,0,0,1,5.29,2.023L94.514,97.8A11.785,11.785,0,0,0,86.891,95,10.823,10.823,0,0,0,76,105.891a11.024,11.024,0,0,0,10.891,10.89A9.592,9.592,0,0,0,97,106.824a6.974,6.974,0,0,0-.156-1.867Zm74.055,2.334c-.622-1.556-2.178-4.356-5.756-4.356s-6.534,2.8-6.534,7a6.876,6.876,0,0,0,7,7,6.791,6.791,0,0,0,5.756-2.956l-2.489-1.556a4.06,4.06,0,0,1-3.423,1.867,3.866,3.866,0,0,1-3.423-2.023l9.335-3.889Zm-9.335,2.334a4,4,0,0,1,3.578-4.2,3.011,3.011,0,0,1,2.645,1.556Zm-7.779,6.845H147.1V95.778h-2.956Zm-4.823-11.98a5.215,5.215,0,0,0-3.734-1.556,6.812,6.812,0,0,0-6.69,7,6.912,6.912,0,0,0,6.69,7,5.215,5.215,0,0,0,3.734-1.556h.156v.933c0,2.645-1.556,4.2-3.734,4.2a3.972,3.972,0,0,1-3.578-2.489l-2.645,1.089a6.707,6.707,0,0,0,6.223,4.2c3.578,0,6.534-2.023,6.534-7.312v-12.6h-2.8Zm-3.578,9.49a4.027,4.027,0,0,1-3.889-4.2,4.072,4.072,0,0,1,3.889-4.356c2.023,0,3.734,1.867,3.734,4.356A3.909,3.909,0,0,1,135.742,113.825Zm39.984-18.047h-7.312v20.536h2.956V108.38h4.356a6.471,6.471,0,0,0,6.69-6.379C182.416,98.112,178.993,95.778,175.726,95.778Zm0,9.8H171.37v-7h4.356a3.614,3.614,0,0,1,3.578,3.578A3.705,3.705,0,0,1,175.726,105.579Zm18.825-2.8a5.583,5.583,0,0,0-5.445,3.267l2.645,1.089a3.121,3.121,0,0,1,2.8-1.556,2.838,2.838,0,0,1,3.112,2.645v.156a6.911,6.911,0,0,0-3.112-.778c-2.956,0-5.756,1.711-5.756,4.667,0,2.8,2.489,4.512,5.134,4.512a4.409,4.409,0,0,0,3.889-2.023h.156v1.556h2.956V108.38C200.774,104.646,197.974,102.779,194.551,102.779Zm-.311,11.046c-.933,0-2.489-.622-2.489-1.711,0-1.556,1.711-2.178,3.112-2.178a4.975,4.975,0,0,1,2.8.778A3.291,3.291,0,0,1,194.24,113.825Zm17.269-10.735-3.578,8.868h-.156L204.2,103.09h-3.423l5.445,12.446-3.112,7h3.112l8.4-19.292h-3.112Zm-27.382,13.224h2.956V95.778h-2.956Z" transform="translate(-8.79 -67.151)" fill="#4f5362"/>
    </g>
    <path id="Path_67" data-name="Path 67" d="M44.178,85.1a3.562,3.562,0,0,0-.778,2.178v36.094a2.821,2.821,0,0,0,.778,2.178l.156.156,20.225-20.225v-.311Z" transform="translate(-26.909 -72.654)" fill="url(#linear-gradient)"/>
    <path id="Path_68" data-name="Path 68" d="M63.79,107.491,57.1,100.8v-.311l6.69-6.69h.156l8.09,4.512c2.178,1.245,2.178,3.423,0,4.667Z" transform="translate(-19.294 -67.818)" fill="url(#linear-gradient-2)"/>
    <path id="Path_69" data-name="Path 69" d="M71.282,105l-7-7L43.9,118.381a2.741,2.741,0,0,0,3.423.156Z" transform="translate(-26.631 -65.484)" fill="url(#linear-gradient-3)"/>
    <path id="Path_70" data-name="Path 70" d="M71.282,98.793,47.323,85.1c-1.245-.778-2.645-.778-3.423.156l20.381,20.381Z" transform="translate(-26.631 -72.967)" fill="url(#linear-gradient-4)"/>
    <path id="Path_71" data-name="Path 71" d="M71.071,102.5l-23.8,13.535c-1.245.778-2.489.778-3.112,0l-.156.156.156.156c.778.778,1.867.778,3.112,0Z" transform="translate(-26.575 -62.983)" opacity="0.2"/>
    <path id="Path_72" data-name="Path 72" d="M44.178,118.325a4.542,4.542,0,0,1-.778-2.178v.156a2.821,2.821,0,0,0,.778,2.178ZM79.65,100.278,71.4,104.945l.156.156,8.09-4.512A3.015,3.015,0,0,0,81.361,98.1,3.32,3.32,0,0,1,79.65,100.278Z" transform="translate(-26.909 -65.429)" opacity="0.12"/>
    <path id="Path_73" data-name="Path 73" d="M47.548,85.55l31.894,18.2c1.089.622,1.711,1.245,1.711,2.023a3.231,3.231,0,0,0-1.711-2.489l-31.894-18.2c-2.178-1.245-4.045-.156-4.045,2.489v.156C43.347,85.084,45.37,84.15,47.548,85.55Z" transform="translate(-26.856 -72.948)" fill="#fff" opacity="0.25"/>
  </g>
</svg>
