<svg xmlns="http://www.w3.org/2000/svg" width="91.941" height="49.803" viewBox="0 0 91.941 49.803">
  <path id="icons8_hyundai" d="M79.431,18.769a56.305,56.305,0,0,0-7.177-3.318,78.358,78.358,0,0,0-36.118-3.814c-11.292,1.645-22.261,4.5-30.867,12.809C1.154,28.509-1.3,34.617.718,40.479c2.626,7.133,9.629,11.878,15.873,14.638,18.467,7.938,43.586,7.66,61.471-1.427,6.126-3.289,12.983-8.746,13.828-16.561C92.617,28.693,85.616,22.368,79.431,18.769Zm-41.358,3.21c1.544-3.228,4.283-7.018,8.07-7.079a74.735,74.735,0,0,1,14.5,1.329c.176.034.352.065.527.1.5.1.988.207,1.481.312a66.819,66.819,0,0,1,7.5,2.138,1.084,1.084,0,0,1,.377.379c.234.532-.234.877-.5,1.222C64,25.456,57.1,28.275,50.046,30.75c-3.584.94-7.2,2.632-11.186,1.691a3.745,3.745,0,0,1-2.3-1.881C35.567,27.617,36.908,24.548,38.073,21.979ZM13.691,48.353a.956.956,0,0,1-1.061.282c-3.36-2.2-6.785-5.315-8.29-9.4a9.454,9.454,0,0,1-.354-1.473c-.027-.159-.056-.32-.077-.481a9.485,9.485,0,0,1-.071-1.431c0-.056.006-.111.006-.165A13.326,13.326,0,0,1,7.929,27.2c6.476-6.256,14.46-9.075,22.531-10.707.331,0,.67.04.824.349l-.117.469C23.508,26.676,18.468,37.546,13.691,48.353Zm39.123,3.6c-1.483,2.473-3.791,4.633-6.574,5.005-.109,0-.215.01-.324.01-1.036,0-2.065-.033-3.092-.071q-.9-.037-1.795-.1Q39.2,56.692,37.4,56.5c-1.061-.117-2.118-.245-3.166-.406q-1.057-.161-2.1-.352c-.935-.169-1.858-.366-2.779-.567a65.48,65.48,0,0,1-7.583-2.155,1.231,1.231,0,0,1-.3-.341,1.093,1.093,0,0,1,.349-1.128c6.438-5.608,14.1-8.208,21.673-10.933,2.825-.877,5.827-1.818,9-1.377a3.974,3.974,0,0,1,3.088,2.477C56.279,45.6,54.387,48.824,52.814,51.956ZM88.089,36.127a10.009,10.009,0,0,1-.2,1.722c-.046.211-.109.416-.167.623s-.115.423-.182.628c-1.73,5.124-6.924,8.867-11.223,11.175a59.781,59.781,0,0,1-13.747,4.848c-.4.061-.793.147-1.2.19-.234-.031-.611.031-.67-.345l.086-.439A102.276,102.276,0,0,0,73.637,33.6c1.63-3.289,3.147-6.672,4.543-9.993a1.475,1.475,0,0,1,.642-.469,2.693,2.693,0,0,1,.63.174c2.617,1.772,6.018,4.614,7.671,8.24.027.059.054.121.079.18q.21.477.374.975a10.6,10.6,0,0,1,.368,1.4c.011.061.011.125.023.184a10.05,10.05,0,0,1,.123,1.565C88.095,35.947,88.091,36.037,88.089,36.127Z" transform="translate(-0.001 -11)" fill="#0277bd"/>
</svg>
