<svg xmlns="http://www.w3.org/2000/svg" width="48.745" height="43.814" viewBox="0 0 48.745 43.814">
  <path id="icons8_attach_1" d="M37.545,2.064a7.794,7.794,0,0,0-2.218.42c-2.877.967-5.343,3.185-7.793,5.635L11.707,23.945A9.473,9.473,0,0,0,8.89,29.1a7.156,7.156,0,0,0,8.273,8.093A9.549,9.549,0,0,0,22.2,34.435L39.583,17.051a1.919,1.919,0,1,0-2.7-2.7L19.5,31.738a6.1,6.1,0,0,1-3,1.679,2.9,2.9,0,0,1-2.877-.9,2.894,2.894,0,0,1-.959-2.817A5.927,5.927,0,0,1,14.4,26.642L30.231,10.816C32.546,8.5,34.772,6.732,36.525,6.14s3.012-.465,5.036,1.559c1.514,1.506,3.117,2.87,3.537,4.256a3.516,3.516,0,0,1-.24,2.518,14.241,14.241,0,0,1-3.3,4.556L24.176,36.414c-2.945,2.945-5.732,4.916-8.213,5.455s-4.833-.037-7.913-3.117-4.159-6.07-3.837-9.172,2.211-6.467,5.7-9.951C14.12,15.417,22.917,7.339,22.917,7.339A1.918,1.918,0,1,0,20.34,4.522s-8.8,7.973-13.188,12.349C3.27,20.752.827,24.919.377,29.22s1.289,8.542,4.976,12.229,7.658,5.005,11.39,4.2,6.961-3.365,10.131-6.534L44.259,21.726a17.839,17.839,0,0,0,4.2-5.815,7.76,7.76,0,0,0,.3-5.1c-.892-2.967-3.3-4.623-4.5-5.815a9.746,9.746,0,0,0-4.436-2.638A8.04,8.04,0,0,0,37.545,2.064Z" transform="translate(-0.307 -2.061)" fill="#fa0"/>
</svg>
