<svg xmlns="http://www.w3.org/2000/svg" width="96.072" height="62.656" viewBox="0 0 96.072 62.656">
  <g id="icons8_toyota_1" transform="translate(0)">
    <path id="Path_2812" data-name="Path 2812" d="M49.036,9C22.506,9,1,23.027,1,40.328S22.506,71.656,49.036,71.656,97.072,57.629,97.072,40.328,75.567,9,49.036,9Zm0,56.39c-21.915,0-39.682-11.222-39.682-25.062S27.121,15.266,49.036,15.266,88.718,26.487,88.718,40.328,70.951,65.39,49.036,65.39Z" transform="translate(-1 -9)" fill="#b3bde2"/>
    <path id="Path_2813" data-name="Path 2813" d="M30.531,12C23.61,12,18,23.222,18,37.062s5.61,25.062,12.531,25.062S43.062,50.9,43.062,37.062,37.453,12,30.531,12Zm0,41.771c-3.461,0-6.266-7.481-6.266-16.708s2.8-16.708,6.266-16.708S36.8,27.835,36.8,37.062,33.992,53.771,30.531,53.771Z" transform="translate(17.505 -5.734)" fill="#b3bde2"/>
    <path id="Path_2814" data-name="Path 2814" d="M21.01,34.967c0-.027,0-.054,0-.081,0-9.227,2.8-16.708,6.266-16.708s6.266,7.481,6.266,16.708c0,.186-.008.368-.01.553a.078.078,0,0,1,.021,0C33.6,23.319,32.233,14,27.273,14c-5.221,0-6.289,9.6-6.28,20.969Z" transform="translate(20.763 -3.557)" fill="#7986cb"/>
    <path id="Path_2815" data-name="Path 2815" d="M41.416,10C22.96,10,8,16.545,8,24.62s14.96,14.62,33.416,14.62,33.416-6.545,33.416-14.62S59.873,10,41.416,10Zm0,22.974c-13.841,0-25.062-4.731-25.062-9.92s11.222-8.876,25.062-8.876,25.062,3.686,25.062,8.876S55.257,32.974,41.416,32.974Z" transform="translate(6.62 -7.911)" fill="#b3bde2"/>
    <path id="Path_2816" data-name="Path 2816" d="M7.177,33.555c0-5.019,2.36-9.682,6.383-13.6a6.684,6.684,0,0,1-.117-1.017,7.21,7.21,0,0,1,1.13-3.713C7.19,19.464,3,25.633,3,33.555,3,48.559,22.747,56,38.371,58.028,20.537,55.572,7.177,45.554,7.177,33.555ZM79.146,15.222a7.21,7.21,0,0,1,1.13,3.713,6.684,6.684,0,0,1-.117,1.017c4.023,3.92,6.383,8.584,6.383,13.6,0,12-13.36,22.017-31.194,24.473C70.971,56,90.718,48.559,90.718,33.555,90.718,25.633,86.528,19.464,79.146,15.222Z" transform="translate(1.177 -2.227)" fill="#7986cb"/>
  </g>
</svg>
