<svg id="icons8_condo" xmlns="http://www.w3.org/2000/svg" width="38.97" height="40.052" viewBox="0 0 38.97 40.052">
  <path id="Path_2160" data-name="Path 2160" d="M2.5,27.48V3.665H5.747V1.5H17.655V3.665H20.9V27.48Z" transform="translate(-1.959 -0.959)" fill="#b6dcfe"/>
  <path id="Path_2161" data-name="Path 2161" d="M17.155,2.082V4.247H20.4V26.98H3.082V4.247H6.33V2.082H17.155M18.237,1H5.247V3.165H2v24.9H21.485V3.165H18.237V1Z" transform="translate(-2 -1)" fill="#4788c7"/>
  <path id="Path_2162" data-name="Path 2162" d="M6,9.165h4.33V7H6Zm0,4.33h4.33V11.33H6Zm0,4.33h4.33V15.66H6Zm0,4.33h4.33V19.99H6Z" transform="translate(-1.67 -0.505)" fill="#4788c7"/>
  <path id="Path_2163" data-name="Path 2163" d="M11,27.9h4.33V25.732H11ZM18.577,3V6.247h2.165V3Z" transform="translate(-1.258 -0.835)" fill="#b6dcfe"/>
  <path id="Path_2164" data-name="Path 2164" d="M14.5,40.057V8.665h4.33V6.5H35.067V8.665H39.4V40.057Z" transform="translate(-0.969 -0.546)" fill="#dff0fe"/>
  <path id="Path_2165" data-name="Path 2165" d="M34.567,7.082V9.247H38.9v30.31H15.082V9.247h4.33V7.082H34.567M35.65,6H18.33V8.165H14V40.64H39.98V8.165H35.65V6Z" transform="translate(-1.01 -0.588)" fill="#4788c7"/>
  <path id="Path_2166" data-name="Path 2166" d="M18,14.165h4.33V12H18Zm6.495,0h4.33V12h-4.33ZM30.99,12v2.165h4.33V12ZM18,18.495h4.33V16.33H18Zm6.495,0h4.33V16.33h-4.33ZM30.99,16.33v2.165h4.33V16.33ZM18,22.825h4.33V20.66H18Zm6.495,0h4.33V20.66h-4.33ZM30.99,20.66v2.165h4.33V20.66ZM18,27.155h4.33V24.99H18Zm6.495,0h4.33V24.99h-4.33ZM30.99,24.99v2.165h4.33V24.99ZM18,31.485h4.33V29.32H18Zm6.495,0h4.33V29.32h-4.33ZM30.99,29.32v2.165h4.33V29.32ZM18,35.815h4.33V33.65H18Zm6.495,0h4.33V33.65h-4.33ZM30.99,33.65v2.165h4.33V33.65Z" transform="translate(-0.68 -0.093)" fill="#98ccfd"/>
  <path id="Path_2167" data-name="Path 2167" d="M7.541,26.815h4.33a.543.543,0,0,1,.541.541h0a.543.543,0,0,1-.541.541H7.541A.543.543,0,0,1,7,27.356H7A.543.543,0,0,1,7.541,26.815ZM17.284,3h3.247a.543.543,0,0,1,.541.541h0a.543.543,0,0,1-.541.541H17.284a.543.543,0,0,1-.541-.541h0A.543.543,0,0,1,17.284,3Z" transform="translate(-1.588 -0.835)" fill="#4788c7"/>
</svg>
