<svg xmlns="http://www.w3.org/2000/svg" xmlns:xlink="http://www.w3.org/1999/xlink" width="54.506" height="42.399" viewBox="0 0 54.506 42.399">
  <defs>
    <radialGradient id="radial-gradient" cx="0.5" cy="0.5" r="0.5" gradientUnits="objectBoundingBox">
      <stop offset="0" stop-color="#666"/>
      <stop offset="0.513" stop-color="#646464"/>
      <stop offset="0.698" stop-color="#5e5e5d"/>
      <stop offset="0.829" stop-color="#525252"/>
      <stop offset="0.935" stop-color="#424241"/>
      <stop offset="1" stop-color="#333332"/>
    </radialGradient>
    <linearGradient id="linear-gradient" x1="1.121" y1="1.082" x2="-0.209" y2="-0.165" gradientUnits="objectBoundingBox">
      <stop offset="0" stop-color="#999"/>
      <stop offset="1" stop-color="#fff"/>
    </linearGradient>
    <linearGradient id="linear-gradient-3" x1="0.5" y1="1.025" x2="0.5" y2="0.556" gradientUnits="objectBoundingBox">
      <stop offset="0" stop-color="#999"/>
      <stop offset="1" stop-color="#e0e0e0"/>
    </linearGradient>
    <linearGradient id="linear-gradient-4" x1="0.5" y1="0.981" x2="0.5" y2="-0.232" xlink:href="#linear-gradient-3"/>
    <linearGradient id="linear-gradient-5" x1="0.5" y1="0.963" x2="0.5" y2="-0.028" xlink:href="#linear-gradient-3"/>
    <linearGradient id="linear-gradient-6" y1="0.5" x2="1" y2="0.5" gradientUnits="objectBoundingBox">
      <stop offset="0" stop-color="#37474f"/>
      <stop offset="1" stop-color="#263238"/>
    </linearGradient>
    <linearGradient id="linear-gradient-7" x1="0.5" y1="-0.135" x2="0.5" y2="0.897" gradientUnits="objectBoundingBox">
      <stop offset="0" stop-color="#5ba5ea"/>
      <stop offset="1" stop-color="#315b8e"/>
    </linearGradient>
    <linearGradient id="linear-gradient-9" x1="0.624" y1="0.6" x2="1.354" y2="1.064" xlink:href="#linear-gradient-6"/>
    <linearGradient id="linear-gradient-10" x1="0.5" y1="-0.135" x2="0.5" y2="0.897" xlink:href="#linear-gradient-7"/>
    <linearGradient id="linear-gradient-11" x1="0.333" y1="0.251" x2="0.872" y2="0.647" xlink:href="#linear-gradient-6"/>
    <linearGradient id="linear-gradient-12" x1="0.5" y1="0.981" x2="0.5" y2="-0.084" xlink:href="#linear-gradient-3"/>
    <linearGradient id="linear-gradient-13" x1="0.5" y1="0.063" x2="0.5" y2="0.629" xlink:href="#linear-gradient-6"/>
    <linearGradient id="linear-gradient-14" x1="0.5" y1="0.063" x2="0.5" y2="0.629" xlink:href="#linear-gradient-6"/>
    <linearGradient id="linear-gradient-15" x1="-0.039" y1="-9.427" x2="1.006" y2="9.812" gradientUnits="objectBoundingBox">
      <stop offset="0" stop-color="#ff7448"/>
      <stop offset="1" stop-color="#e51e25"/>
    </linearGradient>
    <linearGradient id="linear-gradient-16" x1="-0.031" y1="-7.407" x2="1.006" y2="8.092" xlink:href="#linear-gradient-15"/>
    <linearGradient id="linear-gradient-17" x1="0.403" y1="0.216" x2="1.002" y2="1.973" gradientUnits="objectBoundingBox">
      <stop offset="0" stop-color="#29b6f6"/>
      <stop offset="1" stop-color="#315b8e"/>
    </linearGradient>
    <linearGradient id="linear-gradient-18" x1="0.146" y1="0.5" x2="3.636" y2="0.5" gradientUnits="objectBoundingBox">
      <stop offset="0.007" stop-opacity="0"/>
      <stop offset="0.893" stop-opacity="0.8"/>
    </linearGradient>
    <linearGradient id="linear-gradient-19" x1="0.442" y1="0.47" x2="0.016" y2="0.359" gradientUnits="objectBoundingBox">
      <stop offset="0" stop-color="#fff" stop-opacity="0"/>
      <stop offset="1" stop-color="#fff"/>
    </linearGradient>
    <linearGradient id="linear-gradient-20" x1="0.483" y1="0.497" x2="-0.295" y2="0.504" gradientUnits="objectBoundingBox">
      <stop offset="0" stop-color="#fff"/>
      <stop offset="1" stop-color="#90a4ae"/>
    </linearGradient>
  </defs>
  <g id="icons8_ambulance" transform="translate(-0.001 0)">
    <path id="Path_2931" data-name="Path 2931" d="M45.2,42.69H5V33H51.114l3.548,7.267Z" transform="translate(-0.154 -5.135)" fill="#1c1c1c"/>
    <ellipse id="Ellipse_48" data-name="Ellipse 48" cx="6.056" cy="6.056" rx="6.056" ry="6.056" transform="translate(7.268 30.287)" fill="url(#radial-gradient)"/>
    <ellipse id="Ellipse_49" data-name="Ellipse 49" cx="6.056" cy="6.056" rx="6.056" ry="6.056" transform="translate(37.55 30.287)" fill="url(#radial-gradient)"/>
    <ellipse id="Ellipse_50" data-name="Ellipse 50" cx="3.634" cy="3.634" rx="3.634" ry="3.634" transform="translate(9.691 32.71)" fill="url(#linear-gradient)"/>
    <ellipse id="Ellipse_51" data-name="Ellipse 51" cx="1.42" cy="0.61" rx="1.42" ry="0.61" transform="translate(11.905 33.306)" fill="#616161"/>
    <ellipse id="Ellipse_52" data-name="Ellipse 52" cx="1.42" cy="0.61" rx="1.42" ry="0.61" transform="translate(11.905 38.188)" fill="#616161"/>
    <ellipse id="Ellipse_53" data-name="Ellipse 53" cx="0.61" cy="1.42" rx="0.61" ry="1.42" transform="translate(10.272 34.939)" fill="#616161"/>
    <ellipse id="Ellipse_54" data-name="Ellipse 54" cx="0.61" cy="1.42" rx="0.61" ry="1.42" transform="translate(15.156 34.939)" fill="#616161"/>
    <ellipse id="Ellipse_55" data-name="Ellipse 55" cx="3.634" cy="3.634" rx="3.634" ry="3.634" transform="translate(39.972 32.71)" fill="url(#linear-gradient)"/>
    <ellipse id="Ellipse_56" data-name="Ellipse 56" cx="1.42" cy="0.61" rx="1.42" ry="0.61" transform="translate(42.186 33.306)" fill="#616161"/>
    <ellipse id="Ellipse_57" data-name="Ellipse 57" cx="1.42" cy="0.61" rx="1.42" ry="0.61" transform="translate(42.186 38.188)" fill="#616161"/>
    <ellipse id="Ellipse_58" data-name="Ellipse 58" cx="0.61" cy="1.42" rx="0.61" ry="1.42" transform="translate(40.554 34.939)" fill="#616161"/>
    <ellipse id="Ellipse_59" data-name="Ellipse 59" cx="0.61" cy="1.42" rx="0.61" ry="1.42" transform="translate(45.437 34.939)" fill="#616161"/>
    <path id="Path_2932" data-name="Path 2932" d="M54.1,11.894C53.868,9.982,51.061,10,49.511,10H20.493a20.612,20.612,0,0,0-4.853.3c-2.007.573-3.344,3.532-4.337,5.477C8.068,22.113,5.645,26.958,2.636,33.224c-.769,1.6-.625,3.407-.625,5.136v3.252a20.728,20.728,0,0,0,.051,3.76c.472,2.461,3.014,2.178,4.9,2.178-1.028-4.112,2.677-8.2,6.655-8.459a7.336,7.336,0,0,1,7.662,8.459H37.247c-.947-3.789,2.209-7.69,5.835-8.359a7.342,7.342,0,0,1,8.577,6.877l1.6-.412,2.032-.524c.019,0,.019-1.532.019-1.905v-10c0-4.531-.371-9.018-.68-13.539Q54.362,15.79,54.1,11.894Z" transform="translate(-0.799 -9.995)" fill="url(#linear-gradient-3)"/>
    <rect id="Rectangle_534" data-name="Rectangle 534" width="15.746" height="6.056" transform="translate(20.592 31.499)" fill="url(#linear-gradient-4)"/>
    <rect id="Rectangle_535" data-name="Rectangle 535" width="16.958" height="0.643" transform="translate(19.381 31.499)" fill="#dfdfdf"/>
    <path id="Path_2933" data-name="Path 2933" d="M31.532,42.9c-.947-3.789,2.209-7.69,5.835-8.359a7.342,7.342,0,0,1,8.577,6.877l1.6-.412c.133-.034.452-.079.8-.138A9.684,9.684,0,1,0,29.084,42.9Z" transform="translate(4.916 -5.346)" fill="url(#linear-gradient-5)"/>
    <path id="Path_2934" data-name="Path 2934" d="M26.958,22.5V38.524H20.744a10.182,10.182,0,0,0-8.952-4.857V27.547" transform="translate(1.281 -7.353)" fill="none" stroke="#afafaf" stroke-linecap="round" stroke-linejoin="round" stroke-width="0.5"/>
    <path id="Path_2935" data-name="Path 2935" d="M25.926,16.558H17.419a1.423,1.423,0,0,0-1.321.9L10.178,28.839a.726.726,0,0,0,.667,1.01H17.57c4.517-2.283,6.738-3.47,9.978-5.136V18.687C27.549,17.792,26.822,16.558,25.926,16.558Z" transform="translate(0.927 -8.608)" fill="url(#linear-gradient-6)"/>
    <path id="Path_2936" data-name="Path 2936" d="M25.155,17H17.421a1.323,1.323,0,0,0-1.229.833L12.445,25.02a2.579,2.579,0,0,0-.184.956v1.662a1.477,1.477,0,0,0,1.477,1.477h3c.6,0,6.188-3.054,9.747-4.959v-5.83A1.327,1.327,0,0,0,25.155,17Z" transform="translate(1.38 -8.515)" fill="url(#linear-gradient-7)"/>
    <path id="Path_2937" data-name="Path 2937" d="M14.665,26.267h-.908A.757.757,0,0,1,13,25.51V19.757A.757.757,0,0,1,13.757,19h.908a.757.757,0,0,1,.757.757V25.51A.757.757,0,0,1,14.665,26.267Z" transform="translate(1.536 -8.093)" fill="url(#linear-gradient-6)"/>
    <path id="Path_2938" data-name="Path 2938" d="M11.086,27.423a.306.306,0,0,1-.213-.092.3.3,0,0,1,.007-.428l3.693-3.573a.3.3,0,1,1,.42.435L11.3,27.338A.3.3,0,0,1,11.086,27.423Z" transform="translate(1.069 -7.196)" fill="#35444c"/>
    <path id="Path_2939" data-name="Path 2939" d="M12.967,16.558H10.084c-2.7,5.311-4.91,9.754-7.564,15.28-.01.022-.013.045-.023.065,4.7-1.57,6.531-3.55,7.911-6.418l3.639-7.252A1.186,1.186,0,0,0,12.967,16.558Z" transform="translate(-0.683 -8.608)" fill="url(#linear-gradient-9)"/>
    <path id="Path_2940" data-name="Path 2940" d="M12.571,17H9.738c-2.439,4.805-4.5,8.954-6.89,13.909l.81-.289A10.578,10.578,0,0,0,9.73,25.034l3.516-6.983A.743.743,0,0,0,12.571,17Z" transform="translate(-0.609 -8.515)" fill="url(#linear-gradient-10)"/>
    <path id="Path_2941" data-name="Path 2941" d="M7.056,42.056H3.805a2.2,2.2,0,0,1-2.089-1.515l-.684-2.1a.657.657,0,0,1-.031-.2v-1.6A.644.644,0,0,1,1.643,36H7.056Z" transform="translate(-0.999 -4.501)" fill="url(#linear-gradient-11)"/>
    <path id="Path_2942" data-name="Path 2942" d="M1,36.643H8.268V36H1.643A.644.644,0,0,0,1,36.643Z" transform="translate(-0.999 -4.501)" fill="#4f6066"/>
    <path id="Path_2943" data-name="Path 2943" d="M8.329,36H5.307A9.635,9.635,0,0,0,4,40.845a9.763,9.763,0,0,0,.073,1.136,18.088,18.088,0,0,0,2.459.075A6.554,6.554,0,0,1,8.329,36Z" transform="translate(-0.365 -4.501)" fill="#36464e"/>
    <path id="Path_2944" data-name="Path 2944" d="M13.462,32a9.679,9.679,0,0,0-8.383,4.845H8.1a7.5,7.5,0,0,1,4.857-2.4A7.336,7.336,0,0,1,20.621,42.9h2.448A9.634,9.634,0,0,0,13.462,32Z" transform="translate(-0.137 -5.346)" fill="url(#linear-gradient-12)"/>
    <path id="Path_2945" data-name="Path 2945" d="M41.415,36a7.147,7.147,0,0,1,1.907,4.575l1.6-.412,2.032-.524c.018,0,.018-1.532.018-1.905V36Z" transform="translate(7.539 -4.501)" fill="url(#linear-gradient-13)"/>
    <rect id="Rectangle_536" data-name="Rectangle 536" width="16.2" height="1.211" transform="translate(20.364 36.344)" fill="url(#linear-gradient-14)"/>
    <path id="Path_2946" data-name="Path 2946" d="M55.285,29.212c0-.07,0-.142,0-.212H2.715l-.1.21a6.471,6.471,0,0,0-.564,2.213H55.285Z" transform="translate(-0.777 -5.98)" fill="url(#linear-gradient-15)"/>
    <path id="Path_2947" data-name="Path 2947" d="M52.607,13H10.814c-.418.745-.79,1.5-1.119,2.148l-.141.275H52.773Q52.689,14.211,52.607,13Z" transform="translate(0.808 -9.36)" fill="url(#linear-gradient-16)"/>
    <path id="Path_2948" data-name="Path 2948" d="M12,12.422h7.836a.644.644,0,0,0,.643-.643V10H16.845A5.53,5.53,0,0,0,12,12.422Z" transform="translate(1.325 -9.994)" fill="url(#linear-gradient-17)"/>
    <path id="Path_2949" data-name="Path 2949" d="M29.355,22.4H27.25a.614.614,0,0,1-.614-.614V17.262a.614.614,0,0,1,.614-.614h2.105a.614.614,0,0,1,.614.614V21.79A.614.614,0,0,1,29.355,22.4Z" transform="translate(4.417 -8.589)" fill="#aeaeae"/>
    <path id="Path_2950" data-name="Path 2950" d="M43.376,22.4H41.271a.614.614,0,0,1-.614-.614V17.262a.614.614,0,0,1,.614-.614h2.105a.614.614,0,0,1,.614.614V21.79A.614.614,0,0,1,43.376,22.4Z" transform="translate(7.378 -8.589)" fill="#aeaeae"/>
    <path id="Path_2951" data-name="Path 2951" d="M28.976,21.422h-1.53A.446.446,0,0,1,27,20.976v-1.53A.446.446,0,0,1,27.447,19h1.53a.446.446,0,0,1,.446.447v1.53A.446.446,0,0,1,28.976,21.422Z" transform="translate(4.493 -8.093)" fill="#f14836"/>
    <path id="Path_2952" data-name="Path 2952" d="M28.976,19.422h-1.53A.446.446,0,0,1,27,18.976v-1.53A.446.446,0,0,1,27.447,17h1.53a.446.446,0,0,1,.446.447v1.53A.446.446,0,0,1,28.976,19.422Z" transform="translate(4.493 -8.515)" fill="#edf7f5"/>
    <path id="Path_2953" data-name="Path 2953" d="M28.681,17.952H27.64a.334.334,0,0,1-.334-.334h0a.334.334,0,0,1,.334-.334h1.04a.334.334,0,0,1,.334.334h0A.333.333,0,0,1,28.681,17.952Z" transform="translate(4.558 -8.455)" fill="#fff"/>
    <path id="Path_2954" data-name="Path 2954" d="M28.681,19.976H27.64a.334.334,0,0,1-.334-.334h0a.334.334,0,0,1,.334-.334h1.04a.334.334,0,0,1,.334.334h0A.333.333,0,0,1,28.681,19.976Z" transform="translate(4.558 -8.028)" fill="#f4989e"/>
    <path id="Path_2955" data-name="Path 2955" d="M42.976,21.422h-1.53A.446.446,0,0,1,41,20.976v-1.53A.446.446,0,0,1,41.447,19h1.53a.446.446,0,0,1,.446.447v1.53A.446.446,0,0,1,42.976,21.422Z" transform="translate(7.451 -8.093)" fill="#f14836"/>
    <path id="Path_2956" data-name="Path 2956" d="M42.976,19.422h-1.53A.446.446,0,0,1,41,18.976v-1.53A.446.446,0,0,1,41.447,17h1.53a.446.446,0,0,1,.446.447v1.53A.446.446,0,0,1,42.976,19.422Z" transform="translate(7.451 -8.515)" fill="#edf7f5"/>
    <path id="Path_2957" data-name="Path 2957" d="M42.681,17.952H41.64a.334.334,0,0,1-.334-.334h0a.334.334,0,0,1,.334-.334h1.04a.334.334,0,0,1,.334.334h0A.333.333,0,0,1,42.681,17.952Z" transform="translate(7.516 -8.455)" fill="#fff"/>
    <path id="Path_2958" data-name="Path 2958" d="M42.681,19.976H41.64a.334.334,0,0,1-.334-.334h0a.334.334,0,0,1,.334-.334h1.04a.334.334,0,0,1,.334.334h0A.333.333,0,0,1,42.681,19.976Z" transform="translate(7.516 -8.028)" fill="#f4989e"/>
    <rect id="Rectangle_537" data-name="Rectangle 537" width="2.423" height="9.69" transform="translate(39.972 9.696)" fill="#f04635"/>
    <rect id="Rectangle_538" data-name="Rectangle 538" width="2.422" height="9.69" transform="translate(36.338 15.752) rotate(-90)" fill="#f04635"/>
    <path id="Path_2959" data-name="Path 2959" d="M45.492,34.056h.719V28h-.719a.492.492,0,0,0-.492.492v5.073A.492.492,0,0,0,45.492,34.056Z" transform="translate(8.296 -6.191)" fill="#8e2809"/>
    <path id="Path_2960" data-name="Path 2960" d="M46.154,30.793V28.317H45.63c-.2,0-.359.225-.359.5v1.973Z" transform="translate(8.353 -6.124)" fill="#ff8989"/>
    <path id="Path_2961" data-name="Path 2961" d="M45.271,30.659v1.953c0,.275.161.5.359.5h.524v-2.45h-.883Z" transform="translate(8.353 -5.63)" fill="#ec9a1c"/>
    <path id="Path_2962" data-name="Path 2962" d="M46.165,19.684q-.265-3.9-.532-7.793c-.187-1.565-2.094-1.833-3.634-1.879V42.379a7.1,7.1,0,0,1,1.2,3.687l1.6-.412,2.032-.524c.018-.006.018-1.533.018-1.906v-10C46.845,28.692,46.474,24.205,46.165,19.684Z" transform="translate(7.662 -9.991)" fill="url(#linear-gradient-18)"/>
    <path id="Path_2963" data-name="Path 2963" d="M2.062,45.372a2.545,2.545,0,0,0,2.511,2.115L20.265,10a19.222,19.222,0,0,0-4.626.305c-2.007.573-3.344,3.532-4.337,5.477C8.068,22.113,5.645,26.958,2.636,33.224c-.769,1.6-.625,3.407-.625,5.136v3.252A20.727,20.727,0,0,0,2.062,45.372Z" transform="translate(-0.799 -9.995)" fill="url(#linear-gradient-19)"/>
    <path id="Path_2964" data-name="Path 2964" d="M3.4,36.334H2V30.656H6.089a.95.95,0,0,1,.832,1.377L5.429,35.059A2.266,2.266,0,0,1,3.4,36.334Z" transform="translate(-0.788 -5.63)" fill="#6f7172"/>
    <path id="Path_2965" data-name="Path 2965" d="M3.212,35.845H2V31H5.819a.634.634,0,0,1,.567.918L4.964,34.763A1.96,1.96,0,0,1,3.212,35.845Z" transform="translate(-0.788 -5.558)" fill="url(#linear-gradient-20)"/>
    <path id="Path_2966" data-name="Path 2966" d="M5.625,31H4.532L2.917,35.845h.1A1.96,1.96,0,0,0,4.77,34.763l1.422-2.845A.634.634,0,0,0,5.625,31Z" transform="translate(-0.594 -5.558)" fill="#ec9a1c"/>
  </g>
</svg>
