<svg xmlns="http://www.w3.org/2000/svg" width="40.368" height="35.322" viewBox="0 0 40.368 35.322">
  <path id="icons8_heart" d="M13.239,3.875a11.412,11.412,0,0,0-8.085,3.1A11.189,11.189,0,0,0,2,15.114c0,5.555,3.4,9.7,7.282,13.189s8.4,6.58,11.468,10.207a1.818,1.818,0,0,0,1.376.688h.115a1.819,1.819,0,0,0,1.376-.688c3.068-3.627,7.591-6.716,11.468-10.207s7.282-7.634,7.282-13.189a11.229,11.229,0,0,0-3.211-8.142,11.273,11.273,0,0,0-8.028-3.1,11.741,11.741,0,0,0-7.512,3.268,9.621,9.621,0,0,0-1.434,1.548,9.3,9.3,0,0,0-1.433-1.548A11.725,11.725,0,0,0,13.239,3.875Zm0,3.67c1.727,0,3.656,1.154,5.1,2.408a17.536,17.536,0,0,1,2.351,2.466,1.833,1.833,0,0,0,2.982,0,17.031,17.031,0,0,1,2.351-2.466c1.455-1.254,3.369-2.408,5.1-2.408a7.661,7.661,0,0,1,5.5,2.064,7.334,7.334,0,0,1,2.064,5.5c0,4.064-2.458,7.175-6.078,10.436C29.416,28.439,25.5,31.4,22.184,34.9c-3.326-3.512-7.225-6.458-10.436-9.347C8.128,22.289,5.67,19.178,5.67,15.114a7.334,7.334,0,0,1,2.064-5.5A7.649,7.649,0,0,1,13.239,7.545Z" transform="translate(-2 -3.875)" fill="#8f8f8f"/>
</svg>
