<svg xmlns="http://www.w3.org/2000/svg" width="42.859" height="42.859" viewBox="0 0 42.859 42.859">
  <g id="icons8_Plus" transform="translate(2 2)" fill="#fa0">
    <path d="M 19.42956924438477 38.85913848876953 C 16.80740928649902 38.85913848876953 14.26265907287598 38.34516906738281 11.86599922180176 37.33148956298828 C 9.552079200744629 36.35281753540039 7.474409103393555 34.95216751098633 5.690689086914062 33.16844940185547 C 3.906969308853149 31.38472938537598 2.506319284439087 29.30705833435059 1.527649283409119 26.99313926696777 C 0.5139692425727844 24.59647941589355 -7.556152468168875e-07 22.05172920227051 -7.556152468168875e-07 19.42956924438477 C -7.556152468168875e-07 16.80740928649902 0.5139692425727844 14.26265907287598 1.527649283409119 11.86599922180176 C 2.506319284439087 9.552079200744629 3.906969308853149 7.474409103393555 5.690689086914062 5.690689086914062 C 7.474409103393555 3.906969308853149 9.552079200744629 2.506319284439087 11.86599922180176 1.527649283409119 C 14.26265907287598 0.5139692425727844 16.80740928649902 -7.556152468168875e-07 19.42956924438477 -7.556152468168875e-07 C 22.05172920227051 -7.556152468168875e-07 24.59647941589355 0.5139692425727844 26.99313926696777 1.527649283409119 C 29.30705833435059 2.506319284439087 31.38472938537598 3.906969308853149 33.16844940185547 5.690689086914062 C 34.95216751098633 7.474409103393555 36.35281753540039 9.552079200744629 37.33148956298828 11.86599922180176 C 38.34516906738281 14.26265907287598 38.85913848876953 16.80740928649902 38.85913848876953 19.42956924438477 C 38.85913848876953 22.05172920227051 38.34516906738281 24.59647941589355 37.33148956298828 26.99313926696777 C 36.35281753540039 29.30705833435059 34.95216751098633 31.38472938537598 33.16844940185547 33.16844940185547 C 31.38472938537598 34.95216751098633 29.30705833435059 36.35281753540039 26.99313926696777 37.33148956298828 C 24.59647941589355 38.34516906738281 22.05172920227051 38.85913848876953 19.42956924438477 38.85913848876953 Z" stroke="none"/>
    <path d="M 19.42956924438477 2 C 9.803218841552734 2 2 9.803218841552734 2 19.42956924438477 C 2 29.0559196472168 9.803218841552734 36.85913848876953 19.42956924438477 36.85913848876953 C 29.0559196472168 36.85913848876953 36.85913848876953 29.0559196472168 36.85913848876953 19.42956924438477 C 36.85913848876953 9.803218841552734 29.0559196472168 2 19.42956924438477 2 M 28.14434814453125 21.17252922058105 L 21.17252922058105 21.17252922058105 L 21.17252922058105 28.14434814453125 L 17.68660926818848 28.14434814453125 L 17.68660926818848 21.17252922058105 L 10.71478843688965 21.17252922058105 L 10.71478843688965 17.68660926818848 L 17.68660926818848 17.68660926818848 L 17.68660926818848 10.71478843688965 L 21.17252922058105 10.71478843688965 L 21.17252922058105 17.68660926818848 L 28.14434814453125 17.68660926818848 L 28.14434814453125 21.17252922058105 M 19.42956924438477 -2 C 22.32083892822266 -2 25.12770843505859 -1.432868957519531 27.7722282409668 -0.3143692016601562 C 30.32455062866211 0.7651405334472656 32.61590957641602 2.309719085693359 34.58266067504883 4.276477813720703 C 36.54941940307617 6.243228912353516 38.09399795532227 8.534589767456055 39.17350769042969 11.0869083404541 C 40.29200744628906 13.73143005371094 40.85913848876953 16.53829956054688 40.85913848876953 19.42956924438477 C 40.85913848876953 22.32083892822266 40.29200744628906 25.12770843505859 39.17350769042969 27.7722282409668 C 38.09399795532227 30.32455062866211 36.54941940307617 32.61590957641602 34.58266067504883 34.58266067504883 C 32.61590957641602 36.54941940307617 30.32455062866211 38.09399795532227 27.7722282409668 39.17350769042969 C 25.12770843505859 40.29200744628906 22.32083892822266 40.85913848876953 19.42956924438477 40.85913848876953 C 16.53829956054688 40.85913848876953 13.73143005371094 40.29200744628906 11.0869083404541 39.17350769042969 C 8.534589767456055 38.09399795532227 6.243228912353516 36.54941940307617 4.276477813720703 34.58266067504883 C 2.309719085693359 32.61590957641602 0.7651405334472656 30.32455062866211 -0.3143692016601562 27.7722282409668 C -1.432868957519531 25.12770843505859 -2 22.32083892822266 -2 19.42956924438477 C -2 16.53829956054688 -1.432868957519531 13.73143005371094 -0.3143692016601562 11.0869083404541 C 0.7651405334472656 8.534589767456055 2.309719085693359 6.243228912353516 4.276477813720703 4.276477813720703 C 6.243228912353516 2.309719085693359 8.534589767456055 0.7651405334472656 11.0869083404541 -0.3143692016601562 C 13.73143005371094 -1.432868957519531 16.53829956054688 -2 19.42956924438477 -2 Z" stroke="none" fill="#fff"/>
  </g>
</svg>
