<svg id="icons8_farm" xmlns="http://www.w3.org/2000/svg" width="40.479" height="36.431" viewBox="0 0 40.479 36.431">
  <path id="Path_2151" data-name="Path 2151" d="M38.181,13.768,24.216,8,10.25,13.768,6,23.18H7.012V42.407H41.419V23.18h1.012Z" transform="translate(-3.976 -5.976)" fill="#f44336"/>
  <path id="Path_2152" data-name="Path 2152" d="M15,29H33.216V41.144H15Z" transform="translate(-3.868 -5.724)" fill="#ff8a80"/>
  <path id="Path_2153" data-name="Path 2153" d="M20.072,14h8.1v8.1h-8.1ZM32.216,30.192v10.12H16.024V30.192H32.216m2.024-2.024H14V42.335H34.24Z" transform="translate(-3.88 -5.904)" fill="#fff"/>
  <path id="Path_2154" data-name="Path 2154" d="M23,29h2.024V42.156H23Z" transform="translate(-3.772 -5.724)" fill="#fff"/>
  <path id="Path_2155" data-name="Path 2155" d="M31.392,41.758,24.105,30.829,16.819,41.758,15.2,40.544,23.3,28.4h1.619l8.1,12.144Z" transform="translate(-3.866 -5.732)" fill="#fff"/>
  <path id="Path_2156" data-name="Path 2156" d="M39.18,12.072,24,6V8.024l13.965,5.768Z" transform="translate(-3.76 -6)" fill="#b71c1c"/>
  <path id="Path_2157" data-name="Path 2157" d="M42.4,24.216h2.024l-5.06-12.144-1.214,1.72ZM9,12.072,24.18,6V8.024L10.214,13.792Z" transform="translate(-3.94 -6)" fill="#b71c1c"/>
  <path id="Path_2158" data-name="Path 2158" d="M6.024,24.144H4L9.06,12l1.214,1.72Z" transform="translate(-4 -5.928)" fill="#b71c1c"/>
  <path id="Path_2159" data-name="Path 2159" d="M22,16h4.048v4.048H22Z" transform="translate(-3.784 -5.88)" fill="#4e342e"/>
</svg>
