<svg xmlns="http://www.w3.org/2000/svg" width="47.277" height="45.715" viewBox="0 0 47.277 45.715">
  <g id="icons8_gears_3" transform="translate(0)">
    <path id="Path_2313" data-name="Path 2313" d="M23.012,24.357v-3.81l-.429-.128a7.856,7.856,0,0,1-3.16-1.841l-.328-.313L15.832,20.18,14.053,17.1l3.27-1.919-.1-.433a7.556,7.556,0,0,1,.014-3.7l.109-.444L14.057,8.749l1.779-3.082,3.311,1.868.322-.3a7.853,7.853,0,0,1,3.112-1.8l.431-.126V1.5h3.609V5.31l.429.128a7.831,7.831,0,0,1,3.157,1.837l.326.31,3.316-1.913,1.779,3.082-3.32,1.915.1.437a7.777,7.777,0,0,1,.224,1.823,7.892,7.892,0,0,1-.224,1.825l-.1.437,3.32,1.913-1.779,3.082-3.317-1.91-.326.31a7.852,7.852,0,0,1-3.156,1.836l-.429.126v3.81Zm1.8-15.639a4.211,4.211,0,1,0,4.211,4.211A4.215,4.215,0,0,0,24.816,8.718Z" transform="translate(2.406 -0.898)" fill="#8bb7f0"/>
    <path id="Path_2314" data-name="Path 2314" d="M26.158,2.2V5.86l.86.256a7.234,7.234,0,0,1,2.914,1.7l.652.622.78-.45,2.4-1.387,1.178,2.04-2.41,1.389-.777.449.209.873a7.341,7.341,0,0,1,.2,1.681,7.253,7.253,0,0,1-.207,1.684l-.209.873.778.449,2.41,1.388-1.178,2.04L31.36,18.079l-.78-.449-.651.621a7.249,7.249,0,0,1-2.913,1.7l-.859.255v3.656H23.752V20.2l-.86-.256a7.233,7.233,0,0,1-2.917-1.7l-.657-.627-.783.46-2.347,1.377-1.178-2.04,2.371-1.392.768-.451-.207-.866a6.956,6.956,0,0,1,.016-3.411l.219-.887-.8-.449-2.36-1.332L16.2,6.587,18.6,7.945l.77.434.645-.605A7.25,7.25,0,0,1,22.89,6.115l.861-.256V2.2h2.406m-1.2,15.639a4.812,4.812,0,1,0-4.812-4.812,4.817,4.817,0,0,0,4.812,4.812M27.361,1H22.549V4.963A8.412,8.412,0,0,0,19.2,6.9L15.752,4.953,13.371,9.077l3.418,1.93a8.158,8.158,0,0,0-.017,3.981l-3.4,2,2.381,4.124,3.393-1.991a8.412,8.412,0,0,0,3.4,1.983V25.06h4.812V21.1a8.413,8.413,0,0,0,3.4-1.977l3.448,1.986,2.381-4.124-3.453-1.989a8.15,8.15,0,0,0,0-3.927l3.451-1.991L34.207,4.953,30.761,6.94a8.4,8.4,0,0,0-3.4-1.978V1ZM24.955,16.639a3.609,3.609,0,1,1,3.609-3.609,3.609,3.609,0,0,1-3.609,3.609Z" transform="translate(2.268 -1)" fill="#4e7ab5"/>
    <path id="Path_2315" data-name="Path 2315" d="M10.012,39.357v-3.81l-.429-.128a7.856,7.856,0,0,1-3.16-1.841l-.328-.313L2.832,35.18,1.053,32.1l3.27-1.919-.1-.433a7.556,7.556,0,0,1,.014-3.7l.109-.444L1.057,23.749l1.779-3.082,3.311,1.868.322-.3a7.853,7.853,0,0,1,3.112-1.8l.431-.126V16.5h3.609v3.81l.429.128a7.831,7.831,0,0,1,3.157,1.837l.326.31,3.316-1.913,1.779,3.082-3.32,1.915.1.437a7.777,7.777,0,0,1,.224,1.823,7.892,7.892,0,0,1-.224,1.825l-.1.437,3.32,1.913-1.779,3.082-3.317-1.91-.326.31a7.852,7.852,0,0,1-3.156,1.836l-.429.126v3.81Zm1.8-15.639a4.211,4.211,0,1,0,4.211,4.211A4.215,4.215,0,0,0,11.816,23.718Z" transform="translate(-0.233 2.147)" fill="#c2e8ff"/>
    <path id="Path_2316" data-name="Path 2316" d="M13.158,17.2V20.86l.86.256a7.234,7.234,0,0,1,2.914,1.7l.652.622.78-.45,2.4-1.387,1.178,2.04-2.41,1.389-.777.449.209.873a7.34,7.34,0,0,1,.2,1.681,7.252,7.252,0,0,1-.207,1.684l-.209.873.778.449,2.41,1.388-1.178,2.04L18.36,33.079l-.78-.449-.651.621a7.249,7.249,0,0,1-2.913,1.7l-.859.255v3.656H10.752V35.2l-.86-.256a7.233,7.233,0,0,1-2.917-1.7l-.657-.627-.783.46L3.187,34.454,2.01,32.414l2.371-1.392.768-.451L4.941,29.7a6.956,6.956,0,0,1,.016-3.411l.219-.887-.8-.449-2.36-1.332L3.2,21.587,5.6,22.945l.77.434.645-.605A7.25,7.25,0,0,1,9.89,21.115l.861-.256V17.2h2.406m-1.2,15.639A4.812,4.812,0,1,0,7.143,28.03a4.817,4.817,0,0,0,4.812,4.812M14.361,16H9.549v3.963A8.412,8.412,0,0,0,6.2,21.9L2.752,19.953.371,24.077l3.418,1.93a8.158,8.158,0,0,0-.017,3.981l-3.4,2,2.381,4.124,3.393-1.991a8.412,8.412,0,0,0,3.4,1.983V40.06h4.812V36.1a8.413,8.413,0,0,0,3.4-1.977l3.448,1.986,2.381-4.124-3.453-1.989a8.151,8.151,0,0,0,0-3.927l3.451-1.991-2.381-4.124L17.761,21.94a8.413,8.413,0,0,0-3.4-1.979V16ZM11.955,31.639a3.609,3.609,0,1,1,3.609-3.609,3.609,3.609,0,0,1-3.609,3.609Z" transform="translate(-0.371 2.045)" fill="#788b9c"/>
    <g id="Group_81" data-name="Group 81" transform="translate(24.06 21.654)">
      <path id="Path_2317" data-name="Path 2317" d="M30.012,42.357v-3.81l-.429-.128a7.856,7.856,0,0,1-3.16-1.841l-.328-.313L22.832,38.18,21.053,35.1l3.27-1.919-.1-.433a7.556,7.556,0,0,1,.014-3.7l.109-.444-3.287-1.855,1.779-3.082,3.311,1.868.322-.3a7.853,7.853,0,0,1,3.112-1.8l.429-.128V19.5H33.62v3.81l.429.128a7.831,7.831,0,0,1,3.157,1.837l.326.31,3.316-1.913,1.779,3.082-3.32,1.915.1.437a7.716,7.716,0,0,1,.225,1.823,7.892,7.892,0,0,1-.224,1.825l-.1.437,3.32,1.913-1.779,3.082-3.317-1.91-.326.31a7.852,7.852,0,0,1-3.156,1.836l-.429.126v3.81Zm1.8-15.639a4.211,4.211,0,1,0,4.211,4.211A4.215,4.215,0,0,0,31.816,26.718Z" transform="translate(-20.233 -18.898)" fill="#dcd5f2"/>
      <path id="Path_2318" data-name="Path 2318" d="M33.158,20.2V23.86l.86.256a7.234,7.234,0,0,1,2.914,1.7l.652.622.78-.45,2.4-1.387,1.178,2.04-2.41,1.389-.777.449.209.873a7.34,7.34,0,0,1,.2,1.681,7.252,7.252,0,0,1-.207,1.684l-.209.873.778.449,2.41,1.388-1.178,2.04L38.36,36.079l-.78-.449-.651.621a7.249,7.249,0,0,1-2.913,1.7l-.859.255v3.656H30.752V38.2l-.86-.256a7.233,7.233,0,0,1-2.917-1.7l-.657-.627-.783.46-2.347,1.377-1.178-2.04,2.371-1.392.768-.451-.207-.866a6.956,6.956,0,0,1,.016-3.411l.219-.887-.8-.449-2.36-1.332,1.178-2.04L25.6,25.945l.77.434.645-.605a7.25,7.25,0,0,1,2.872-1.659l.861-.256V20.2h2.406m-1.2,15.639a4.812,4.812,0,1,0-4.812-4.812,4.817,4.817,0,0,0,4.812,4.812M34.361,19H29.549v3.963A8.412,8.412,0,0,0,26.2,24.9l-3.444-1.944-2.381,4.124,3.418,1.93a8.158,8.158,0,0,0-.017,3.981l-3.4,2,2.381,4.124,3.393-1.991a8.412,8.412,0,0,0,3.4,1.983V43.06h4.812V39.1a8.413,8.413,0,0,0,3.4-1.977l3.448,1.986,2.381-4.124-3.453-1.989a8.15,8.15,0,0,0,0-3.927l3.451-1.991-2.381-4.124-3.447,1.987a8.413,8.413,0,0,0-3.4-1.979V19ZM31.955,34.639a3.609,3.609,0,1,1,3.609-3.609,3.609,3.609,0,0,1-3.609,3.609Z" transform="translate(-20.371 -19)" fill="#8b75a1"/>
    </g>
  </g>
</svg>
