<svg xmlns="http://www.w3.org/2000/svg" width="19.277" height="20.883" viewBox="0 0 19.277 20.883">
  <path id="icons8_home" d="M23.938,24.883H19.119a1.338,1.338,0,0,1-1.339-1.339V18.725a1.071,1.071,0,0,0-1.071-1.071H14.567A1.071,1.071,0,0,0,13.5,18.725v4.819a1.338,1.338,0,0,1-1.339,1.339H7.339A1.338,1.338,0,0,1,6,23.544V13.324a4.017,4.017,0,0,1,1.531-3.155l7.61-6a.8.8,0,0,1,.994,0l7.611,6a4.015,4.015,0,0,1,1.53,3.154V23.544A1.338,1.338,0,0,1,23.938,24.883Z" transform="translate(-6 -4)" fill="#fa0"/>
</svg>
