<svg xmlns="http://www.w3.org/2000/svg" width="15.796" height="15.232" viewBox="0 0 15.796 15.232">
  <g id="icons8_import" transform="translate(0 0)">
    <rect id="Rectangle_875" data-name="Rectangle 875" width="15.398" height="10.586" rx="3" transform="translate(0.199 4.248)" fill="#c2cde7"/>
    <path id="Path_3590" data-name="Path 3590" d="M16.591,27.155,21.544,22.2l-.158-3.791-8.744,8.744Zm-6.488.282-.564-.282L19.694,17h1.269l.248.336L10.825,27.719Zm-1.975-.282H7L17.155,17h1.128Z" transform="translate(-6.154 -12.769)" fill="#ced9ed"/>
    <path id="Path_3591" data-name="Path 3591" d="M22.45,25.949l.35.638.637.35-.637.35-.35.637-.35-.637-.637-.35.637-.35ZM22.427,22l.24.44.443.243-.443.24-.24.443-.243-.443-.44-.24.44-.243Zm-8.962,4.513.164.3.3.166-.3.164-.164.3-.166-.3-.3-.164.3-.166Z" transform="translate(-10.461 -16.359)" fill="#edf0f4"/>
    <path id="Path_3592" data-name="Path 3592" d="M20.232,51.128h0a.282.282,0,0,1-.282.282H5.282A.282.282,0,0,1,5,51.128H5A1.128,1.128,0,0,1,6.128,50H19.1A1.128,1.128,0,0,1,20.232,51.128Z" transform="translate(-4.718 -36.46)" fill="#acb7d0"/>
    <path id="Path_3593" data-name="Path 3593" d="M18.95,16H4.846A.846.846,0,0,0,4,16.846v9.591a.846.846,0,0,0,.846.846h14.1a.846.846,0,0,0,.846-.846V16.846A.846.846,0,0,0,18.95,16Zm.282,10.437a.282.282,0,0,1-.282.282H4.846a.282.282,0,0,1-.282-.282V16.846a.282.282,0,0,1,.282-.282h14.1a.282.282,0,0,1,.282.282Z" transform="translate(-4 -12.051)" fill="#8d6c9f"/>
    <path id="Path_3594" data-name="Path 3594" d="M9.282,48A.282.282,0,0,0,9,48.282v.564a.282.282,0,0,0,.564,0v-.564A.282.282,0,0,0,9.282,48Zm1.41,0a.282.282,0,0,0-.282.282v.564a.282.282,0,0,0,.564,0v-.564A.282.282,0,0,0,10.692,48Zm1.41,0a.282.282,0,0,0-.282.282v.564a.282.282,0,0,0,.564,0v-.564A.282.282,0,0,0,12.1,48Zm1.41,0a.282.282,0,0,0-.282.282v.564a.282.282,0,0,0,.564,0v-.564A.282.282,0,0,0,13.513,48Zm1.41,0a.282.282,0,0,0-.282.282v.564a.282.282,0,0,0,.564,0v-.564A.282.282,0,0,0,14.924,48Zm1.41,0a.282.282,0,0,0-.282.282v.564a.282.282,0,0,0,.564,0v-.564A.282.282,0,0,0,16.334,48Zm1.41,0a.282.282,0,0,0-.282.282v.564a.282.282,0,0,0,.564,0v-.564A.282.282,0,0,0,17.744,48Zm1.41,0a.282.282,0,0,0-.282.282v.564a.282.282,0,0,0,.564,0v-.564A.282.282,0,0,0,19.155,48Zm1.41,0a.282.282,0,0,0-.282.282v.564a.282.282,0,0,0,.564,0v-.564A.282.282,0,0,0,20.565,48Zm1.41,0a.282.282,0,0,0-.282.282v.564a.282.282,0,0,0,.564,0v-.564A.282.282,0,0,0,21.976,48Z" transform="translate(-7.59 -35.024)" fill="#8d6c9f"/>
    <path id="Path_3595" data-name="Path 3595" d="M24.949,3v7.616l1.128-1.128,1.128,1.128-3.1,3.1-3.1-3.1,1.128-1.128,1.128,1.128V3Z" transform="translate(-16.205 -2.718)" fill="#faefde"/>
    <path id="Path_3596" data-name="Path 3596" d="M23.592,13.2l3.1-3.1a.282.282,0,0,0,0-.4L25.566,8.572a.282.282,0,0,0-.4,0l-.649.646V2.282A.282.282,0,0,0,24.238,2H22.545a.282.282,0,0,0-.282.282V9.218l-.646-.646a.282.282,0,0,0-.4,0L20.091,9.7a.282.282,0,0,0,0,.4l3.1,3.1A.282.282,0,0,0,23.592,13.2ZM20.686,9.9l.731-.731.928.928a.282.282,0,0,0,.482-.2V2.564h1.128V9.9a.282.282,0,0,0,.482.2l.928-.931L26.1,9.9,23.392,12.6Z" transform="translate(-15.493 -2)" fill="#8d6c9f"/>
  </g>
</svg>
