<svg xmlns="http://www.w3.org/2000/svg" width="42" height="42" viewBox="0 0 42 42">
  <path id="icons8_tiktok" d="M42.182,4H7.818A3.817,3.817,0,0,0,4,7.818V42.182A3.817,3.817,0,0,0,7.818,46H42.182A3.817,3.817,0,0,0,46,42.182V7.818A3.818,3.818,0,0,0,42.182,4Zm-2.5,18.087c-.248.023-.5.038-.75.038a8.153,8.153,0,0,1-6.823-3.686V30.995a9.28,9.28,0,1,1-9.28-9.282c.195,0,.384.017.573.029v4.574a4.726,4.726,0,1,0-.573,9.416,4.853,4.853,0,0,0,4.927-4.677c0-.1.046-21.325.046-21.325h4.37A8.148,8.148,0,0,0,39.679,17Z" transform="translate(-4 -4)" fill="#f69300"/>
</svg>
