<svg xmlns="http://www.w3.org/2000/svg" width="47.901" height="41.058" viewBox="0 0 47.901 41.058">
  <path id="icons8_print" d="M11.265,2V12.265H6.132A5.151,5.151,0,0,0,1,17.4V31.083a5.151,5.151,0,0,0,5.132,5.132h5.132v6.843H38.637V36.215h5.132A5.151,5.151,0,0,0,48.9,31.083V17.4a5.151,5.151,0,0,0-5.132-5.132H38.637V2Zm3.422,3.422H35.215v6.843H14.686ZM6.132,15.686H43.769A1.689,1.689,0,0,1,45.48,17.4V31.083a1.689,1.689,0,0,1-1.711,1.711H38.637V25.951H11.265v6.843H6.132a1.689,1.689,0,0,1-1.711-1.711V17.4A1.689,1.689,0,0,1,6.132,15.686Zm3.422,3.422a1.711,1.711,0,1,0,1.711,1.711A1.706,1.706,0,0,0,9.554,19.108Zm5.132,10.265H35.215V39.637H14.686Z" transform="translate(-1 -2)"/>
</svg>
