<svg xmlns="http://www.w3.org/2000/svg" width="50.816" height="43.002" viewBox="0 0 50.816 43.002">
  <path id="icons8_youtube" d="M27.408,4a120.653,120.653,0,0,0-18.8,2.05l-.027.031A7.8,7.8,0,0,0,2,13.772V37.23a7.818,7.818,0,0,0,6.6,7.707l.008.012A120.436,120.436,0,0,0,27.408,47a120.435,120.435,0,0,0,18.8-2.054l0,0a7.818,7.818,0,0,0,6.6-7.715V13.772a7.818,7.818,0,0,0-6.6-7.711l-.008-.011A120.651,120.651,0,0,0,27.408,4ZM21.545,16.505,37.18,25.5,21.545,34.493Z" transform="translate(-2 -4)" fill="#f69300"/>
</svg>
