<svg xmlns="http://www.w3.org/2000/svg" width="39.781" height="38.109" viewBox="0 0 39.781 38.109">
  <g id="Icon_feather-shopping-cart" data-name="Icon feather-shopping-cart" transform="translate(1.5 1.5)">
    <path id="Path_61" data-name="Path 61" d="M15.344,31.672A1.672,1.672,0,1,1,13.672,30,1.672,1.672,0,0,1,15.344,31.672Z" transform="translate(-0.297 1.765)" fill="none" stroke="#000" stroke-linecap="round" stroke-linejoin="round" stroke-width="3"/>
    <path id="Path_62" data-name="Path 62" d="M31.844,31.672A1.672,1.672,0,1,1,30.172,30,1.672,1.672,0,0,1,31.844,31.672Z" transform="translate(1.593 1.765)" fill="none" stroke="#000" stroke-linecap="round" stroke-linejoin="round" stroke-width="3"/>
    <path id="Path_63" data-name="Path 63" d="M1.5,1.5H8.187l4.481,22.386a3.344,3.344,0,0,0,3.344,2.692h16.25a3.344,3.344,0,0,0,3.344-2.692L38.281,9.859H9.859" transform="translate(-1.5 -1.5)" fill="none" stroke="#000" stroke-linecap="round" stroke-linejoin="round" stroke-width="3"/>
  </g>
</svg>
