<svg id="icons8_field" xmlns="http://www.w3.org/2000/svg" width="40.457" height="40.457" viewBox="0 0 40.457 40.457">
  <path id="Path_97" data-name="Path 97" d="M0,0H15.463V15.463H0Z" transform="matrix(0.707, -0.707, 0.707, 0.707, 0, 10.934)" fill="#ff9800"/>
  <path id="Path_98" data-name="Path 98" d="M8,8H23.308V23.308H8Z" transform="translate(-4.72 -4.72)" fill="#ff9800"/>
  <path id="Path_99" data-name="Path 99" d="M10,15.466A5.467,5.467,0,1,0,15.467,10,5.466,5.466,0,0,0,10,15.466" transform="translate(-4.533 -4.533)" fill="#ffeb3b"/>
  <path id="Path_100" data-name="Path 100" d="M6,23.106V44.242H45.363V18H35.522S16.052,18.7,6,23.106Z" transform="translate(-4.907 -3.786)" fill="#8bc34a"/>
  <g id="Group_53" data-name="Group 53" transform="translate(1.093 14.214)">
    <path id="Path_101" data-name="Path 101" d="M6,30.029v5.466C21.308,18,37.545,18.089,37.709,18,30.055,18,19.121,19.093,6,30.029Z" transform="translate(-6 -18)" fill="#689f38"/>
    <path id="Path_102" data-name="Path 102" d="M37.522,44.242C40.8,23.467,45.176,18,45.176,18H37.522C34.242,19.093,18.934,24.561,8,44.242h4.494C21.121,28.934,30.045,22.64,40.8,18,29.868,24.561,22.78,39.251,21.121,44.242h4.374C27.55,38.333,33.262,24.346,42.99,18c-4.663,7.317-7.845,21.1-8.747,26.242Z" transform="translate(-5.813 -18)" fill="#689f38"/>
  </g>
</svg>
