<svg xmlns="http://www.w3.org/2000/svg" width="46.614" height="43.027" viewBox="0 0 46.614 43.027">
  <g id="icons8_clothes" transform="translate(-0.001 0)">
    <path id="Path_3499" data-name="Path 3499" d="M51.392,21.361a5.4,5.4,0,0,0-2.18-2.118l-6.777-3.6A5.513,5.513,0,0,0,39.852,15H29.568a5.515,5.515,0,0,0-2.584.642l-6.777,3.6a5.4,5.4,0,0,0-2.18,2.118C17.187,22.851,12,32.928,12,32.928l6.662,4.183,3.5-4.781v24.5h25.1V32.33l3.5,4.781,6.662-4.183S52.232,22.851,51.392,21.361Z" transform="translate(-11.402 -14.402)" fill="#a9dde2"/>
    <rect id="Rectangle_766" data-name="Rectangle 766" width="24.579" height="3.352" transform="translate(11.019 39.388)" fill="#c4e7ed"/>
    <path id="Path_3500" data-name="Path 3500" d="M50.942,15H40.658a5.515,5.515,0,0,0-1.1.12h0c.281,2.447,3.021,4.362,6.238,4.362s5.956-1.916,6.237-4.362h0A5.521,5.521,0,0,0,50.942,15Z" transform="translate(-22.493 -14.402)" fill="#00a6a6"/>
    <path id="Path_3501" data-name="Path 3501" d="M44.053,22.011c-4.278,0-7.971-2.546-8.781-6.055l-.051-.224.968-.514a5.8,5.8,0,0,1,1.569-.552l.319-.064.037.323c.264,2.3,2.873,4.1,5.94,4.1s5.677-1.8,5.941-4.1l.037-.323.319.064a5.769,5.769,0,0,1,1.569.552h0l.968.514-.051.224C52.024,19.465,48.331,22.011,44.053,22.011Z" transform="translate(-20.745 -14.242)" fill="#c4e7ed"/>
    <path id="Path_3502" data-name="Path 3502" d="M82.443,43.386,75.78,47.57l-1.59-2.175,7.016-4.4C81.935,42.394,82.443,43.386,82.443,43.386Z" transform="translate(-36.426 -24.861)" fill="#c4e7ed"/>
    <path id="Path_3503" data-name="Path 3503" d="M20.253,45.394l-1.59,2.175L12,43.386s.508-.992,1.237-2.4Z" transform="translate(-11.402 -24.861)" fill="#c4e7ed"/>
    <g id="Group_392" data-name="Group 392" transform="translate(0.001 0)">
      <path id="Path_3504" data-name="Path 3504" d="M46.858,57.027h-25.1a.6.6,0,0,1-.6-.6V33.757l-2.418,3.3a.6.6,0,0,1-.8.153l-6.661-4.183a.6.6,0,0,1-.213-.78c.212-.411,5.2-10.1,6.038-11.587a6,6,0,0,1,2.42-2.352l6.776-3.6A6.119,6.119,0,0,1,29.166,14H39.449a6.123,6.123,0,0,1,2.864.712l6.777,3.6a5.992,5.992,0,0,1,2.419,2.351h0c.837,1.483,5.826,11.175,6.038,11.587a.6.6,0,0,1-.213.78l-6.661,4.183a.6.6,0,0,1-.8-.153l-2.418-3.3V56.429A.6.6,0,0,1,46.858,57.027Zm-24.5-1.2h23.9v-23.9a.6.6,0,0,1,1.08-.353l3.169,4.332,5.725-3.6c-1.048-2.034-5.046-9.784-5.765-11.059a4.794,4.794,0,0,0-1.938-1.882l-6.778-3.6a4.924,4.924,0,0,0-2.3-.572H29.166a4.924,4.924,0,0,0-2.3.572l-6.777,3.6a4.8,4.8,0,0,0-1.939,1.884c-.72,1.275-4.717,9.024-5.765,11.059l5.725,3.6,3.169-4.332a.6.6,0,0,1,1.08.353Z" transform="translate(-11.001 -14)" fill="#1f212b"/>
      <path id="Path_3505" data-name="Path 3505" d="M46.126,80.6H29.532a.3.3,0,1,1,0-.6H46.126a.3.3,0,1,1,0,.6Z" transform="translate(-18.337 -40.559)" fill="#1f212b"/>
      <path id="Path_3506" data-name="Path 3506" d="M63.494,80.6H62.3a.3.3,0,1,1,0-.6h1.2a.3.3,0,1,1,0,.6Z" transform="translate(-31.522 -40.559)" fill="#1f212b"/>
      <path id="Path_3507" data-name="Path 3507" d="M69.558,80.6H67.3a.3.3,0,1,1,0-.6h2.259a.3.3,0,1,1,0,.6Z" transform="translate(-33.534 -40.559)" fill="#1f212b"/>
      <rect id="Rectangle_767" data-name="Rectangle 767" width="8.285" height="0.598" transform="translate(37.604 20.276) rotate(-32.126)" fill="#1f212b"/>
      <rect id="Rectangle_768" data-name="Rectangle 768" width="0.598" height="8.285" transform="translate(1.676 16.378) rotate(-57.874)" fill="#1f212b"/>
      <path id="Path_3508" data-name="Path 3508" d="M44.053,22.011c-4.278,0-7.971-2.546-8.781-6.055l-.051-.224.968-.514a5.8,5.8,0,0,1,1.569-.552l.319-.064.037.323c.264,2.3,2.873,4.1,5.94,4.1s5.677-1.8,5.941-4.1l.037-.323.319.064a5.769,5.769,0,0,1,1.569.552l.968.514-.051.224A6.718,6.718,0,0,1,51.777,18.3a.3.3,0,1,1-.489-.342,6.184,6.184,0,0,0,.909-1.912l-.558-.3a5.056,5.056,0,0,0-1.1-.424c-.489,2.472-3.205,4.3-6.484,4.3s-5.994-1.826-6.483-4.3a5.072,5.072,0,0,0-1.1.424l-.558.3c.851,3.125,4.233,5.37,8.144,5.37A9.681,9.681,0,0,0,48.4,20.4a.3.3,0,1,1,.27.534A10.281,10.281,0,0,1,44.053,22.011Z" transform="translate(-20.746 -14.243)" fill="#1f212b"/>
      <path id="Path_3509" data-name="Path 3509" d="M59.3,23.307a.3.3,0,0,1-.242-.124.3.3,0,0,1,.066-.417c.2-.145.393-.3.576-.461a.3.3,0,0,1,.394.449c-.2.173-.4.339-.619.5A.3.3,0,0,1,59.3,23.307Z" transform="translate(-30.315 -17.312)" fill="#1f212b"/>
    </g>
  </g>
</svg>
