<svg xmlns="http://www.w3.org/2000/svg" width="38.41" height="40" viewBox="0 0 38.41 40">
  <path id="icons8_settings_2" d="M24,4a20.04,20.04,0,0,0-4.549.537,1.5,1.5,0,0,0-1.15,1.3l-.318,2.9a3,3,0,0,1-4.189,2.418h0L11.125,9.982a1.5,1.5,0,0,0-1.7.348A19.963,19.963,0,0,0,4.859,18.2a1.5,1.5,0,0,0,.549,1.644L7.773,21.58a3,3,0,0,1,0,4.84L5.408,28.152A1.5,1.5,0,0,0,4.859,29.8,19.957,19.957,0,0,0,9.426,37.67a1.5,1.5,0,0,0,1.7.346l2.666-1.174a3,3,0,0,1,4.191,2.42l.318,2.9a1.5,1.5,0,0,0,1.148,1.3,19.5,19.5,0,0,0,9.1,0,1.5,1.5,0,0,0,1.15-1.3l.318-2.9a3,3,0,0,1,4.189-2.42l2.668,1.174a1.5,1.5,0,0,0,1.7-.346A19.97,19.97,0,0,0,43.141,29.8a1.5,1.5,0,0,0-.549-1.645L40.227,26.42a3,3,0,0,1,0-4.84l2.365-1.732a1.5,1.5,0,0,0,.549-1.645,19.97,19.97,0,0,0-4.566-7.873,1.5,1.5,0,0,0-1.7-.346l-2.668,1.174a3,3,0,0,1-4.189-2.42l-.318-2.9a1.5,1.5,0,0,0-1.148-1.3A19.993,19.993,0,0,0,24,4Zm0,3a16.339,16.339,0,0,1,2.848.34l.188,1.725a6,6,0,0,0,8.381,4.84l1.586-.7a16.86,16.86,0,0,1,2.855,4.924l-1.406,1.031a6,6,0,0,0,0,9.676l1.406,1.031A16.86,16.86,0,0,1,37,34.793l-1.586-.7a6,6,0,0,0-8.381,4.84l-.187,1.725A16.387,16.387,0,0,1,24,41a16.344,16.344,0,0,1-2.848-.34l-.187-1.725a6,6,0,0,0-8.381-4.84l-1.586.7a16.849,16.849,0,0,1-2.855-4.924l1.406-1.031a6,6,0,0,0,0-9.678L8.143,18.129A16.851,16.851,0,0,1,11,13.205l1.584.7a6,6,0,0,0,8.381-4.838l.188-1.725A16.387,16.387,0,0,1,24,7Zm0,9a8,8,0,1,0,8,8A8.023,8.023,0,0,0,24,16Zm0,3a5,5,0,1,1-5,5A4.977,4.977,0,0,1,24,19Z" transform="translate(-4.795 -4)" fill="#535252"/>
</svg>
