<svg xmlns="http://www.w3.org/2000/svg" width="27.105" height="27.105" viewBox="0 0 27.105 27.105">
  <g id="icons8_pricing_1" transform="translate(-5 -5)">
    <path id="Path_3610" data-name="Path 3610" d="M19.266,5,5.856,18.41a2.842,2.842,0,0,0,0,4.066L14.63,31.25a2.842,2.842,0,0,0,4.066,0l13.41-13.41V7.853A2.862,2.862,0,0,0,29.252,5Zm8.56,5.706A1.427,1.427,0,1,1,29.252,9.28,1.431,1.431,0,0,1,27.826,10.706Z" fill="#4caf50"/>
    <path id="Path_3611" data-name="Path 3611" d="M26.2,30c-2.8,2.8-5.8.5-6.4,0l-1.6,1.6L17,30.4l1.6-1.6a5,5,0,0,1,.4-7.2l2.3,2.3c-.4.4-2,2-.2,3.7a1.869,1.869,0,0,0,2.9.1c2.5-2.5-3.6-6.6.4-10.6a4.692,4.692,0,0,1,6.4-.1l1.7-1.7,1.3,1.3-1.7,1.7c.7.9,2.3,3.7-.7,6.7l-2.3-2.3c.6-.6,1.7-2.1.5-3.4a1.821,1.821,0,0,0-2.8,0C24.1,21.9,30.2,26,26.2,30Z" transform="translate(-6.167 -5.171)" fill="#fff"/>
  </g>
</svg>
