<svg id="icons8_building_2" xmlns="http://www.w3.org/2000/svg" width="40.36" height="43.146" viewBox="0 0 40.36 43.146">
  <path id="Path_2218" data-name="Path 2218" d="M41.261,32.764a1.382,1.382,0,1,0,0-2.764H16.382a1.382,1.382,0,1,0,0,2.764Z" transform="translate(-14.447 -17.837)" fill="#eddc67"/>
  <path id="Path_2219" data-name="Path 2219" d="M42.221,25.082,38.9,19.553h-7.74V19H25.082v.553H22.317L19,25.082Z" transform="translate(-16.236 -12.918)" fill="#f37e98"/>
  <path id="Path_2220" data-name="Path 2220" d="M40.814,32.87H15.935a1.935,1.935,0,1,1,0-3.87H40.814a1.935,1.935,0,1,1,0,3.87ZM15.935,30.106a.829.829,0,1,0,0,1.659H40.814a.829.829,0,1,0,0-1.659Z" transform="translate(-14 -17.39)" fill="#1f212b"/>
  <rect id="Rectangle_102" data-name="Rectangle 102" width="22.772" height="28.764" transform="translate(3.596 14.382)" fill="#fdd4b2"/>
  <path id="Path_2221" data-name="Path 2221" d="M72.057,45.529,68.74,40H61v5.529Z" transform="translate(-35.015 -22.308)" fill="#ef6388"/>
  <rect id="Rectangle_103" data-name="Rectangle 103" width="22.772" height="3.596" transform="translate(3.596 39.551)" fill="#fcba7f"/>
  <path id="Path_2222" data-name="Path 2222" d="M42.221,62.749H19.553A.553.553,0,0,1,19,62.2V34.553A.553.553,0,0,1,19.553,34H42.221a.553.553,0,0,1,.553.553V62.2A.553.553,0,0,1,42.221,62.749ZM20.106,61.644H41.668V35.106H20.106Z" transform="translate(-16.236 -19.625)" fill="#1f212b"/>
  <path id="Path_2223" data-name="Path 2223" d="M35.211,20.106H33.553a.553.553,0,1,1,0-1.106h1.659a.553.553,0,1,1,0,1.106Z" transform="translate(-22.495 -12.918)" fill="#1f212b"/>
  <path id="Path_2224" data-name="Path 2224" d="M18.552,25.634a.553.553,0,0,1-.474-.838L21.4,19.268A.555.555,0,0,1,21.87,19h2.764a.553.553,0,0,1,0,1.106H22.183l-3.156,5.261A.552.552,0,0,1,18.552,25.634Z" transform="translate(-15.788 -12.918)" fill="#1f212b"/>
  <path id="Path_2225" data-name="Path 2225" d="M51.611,25.634a.552.552,0,0,1-.474-.268L47.98,20.106H40.553a.553.553,0,1,1,0-1.106h7.74a.553.553,0,0,1,.474.268L52.084,24.8a.553.553,0,0,1-.19.759A.546.546,0,0,1,51.611,25.634Z" transform="translate(-25.625 -12.918)" fill="#1f212b"/>
  <path id="Path_2226" data-name="Path 2226" d="M29.553,17.4A.553.553,0,0,1,29,16.846V8.553a.553.553,0,1,1,1.106,0v8.293A.553.553,0,0,1,29.553,17.4Z" transform="translate(-20.707 -8)" fill="#1f212b"/>
  <path id="Path_2227" data-name="Path 2227" d="M36.553,20.082A.553.553,0,0,1,36,19.529V14.553a.553.553,0,0,1,1.106,0v4.976A.553.553,0,0,1,36.553,20.082Z" transform="translate(-23.837 -10.683)" fill="#1f212b"/>
  <rect id="Rectangle_104" data-name="Rectangle 104" width="2.211" height="3.317" transform="translate(20.18 17.415)" fill="#fefdef"/>
  <rect id="Rectangle_105" data-name="Rectangle 105" width="2.211" height="3.317" transform="translate(15.757 17.415)" fill="#fefdef"/>
  <rect id="Rectangle_106" data-name="Rectangle 106" width="2.211" height="3.317" transform="translate(20.18 22.944)" fill="#fefdef"/>
  <rect id="Rectangle_107" data-name="Rectangle 107" width="2.211" height="3.317" transform="translate(15.757 22.944)" fill="#fefdef"/>
  <rect id="Rectangle_108" data-name="Rectangle 108" width="2.211" height="3.317" transform="translate(20.18 28.473)" fill="#fefdef"/>
  <rect id="Rectangle_109" data-name="Rectangle 109" width="2.211" height="3.317" transform="translate(15.757 28.473)" fill="#fefdef"/>
  <rect id="Rectangle_110" data-name="Rectangle 110" width="2.211" height="3.317" transform="translate(6.911 17.415)" fill="#fefdef"/>
  <rect id="Rectangle_111" data-name="Rectangle 111" width="2.211" height="3.317" transform="translate(6.911 22.944)" fill="#fefdef"/>
  <rect id="Rectangle_112" data-name="Rectangle 112" width="2.211" height="3.317" transform="translate(6.911 28.473)" fill="#fefdef"/>
  <rect id="Rectangle_113" data-name="Rectangle 113" width="2.211" height="3.317" transform="translate(11.334 17.415)" fill="#fefdef"/>
  <rect id="Rectangle_114" data-name="Rectangle 114" width="2.211" height="3.317" transform="translate(11.334 22.944)" fill="#fefdef"/>
  <rect id="Rectangle_115" data-name="Rectangle 115" width="2.211" height="3.317" transform="translate(11.334 28.473)" fill="#fefdef"/>
  <rect id="Rectangle_116" data-name="Rectangle 116" width="2.211" height="3.317" transform="translate(20.18 34.002)" fill="#fefdef"/>
  <rect id="Rectangle_117" data-name="Rectangle 117" width="2.211" height="3.317" transform="translate(15.757 34.002)" fill="#fefdef"/>
  <path id="Path_2228" data-name="Path 2228" d="M52.488,42.87H50.276A.277.277,0,0,1,50,42.594V39.276A.277.277,0,0,1,50.276,39h2.211a.277.277,0,0,1,.276.276v3.317A.277.277,0,0,1,52.488,42.87Zm-1.935-.553h1.659V39.553H50.553Z" transform="translate(-30.097 -21.861)" fill="#1f212b"/>
  <path id="Path_2229" data-name="Path 2229" d="M44.488,42.87H42.276A.277.277,0,0,1,42,42.594V39.276A.277.277,0,0,1,42.276,39h2.211a.277.277,0,0,1,.276.276v3.317A.277.277,0,0,1,44.488,42.87Zm-1.935-.553h1.659V39.553H42.553Z" transform="translate(-26.52 -21.861)" fill="#1f212b"/>
  <path id="Path_2230" data-name="Path 2230" d="M52.488,52.87H50.276A.277.277,0,0,1,50,52.594V49.276A.277.277,0,0,1,50.276,49h2.211a.277.277,0,0,1,.276.276v3.317A.277.277,0,0,1,52.488,52.87Zm-1.935-.553h1.659V49.553H50.553Z" transform="translate(-30.097 -26.332)" fill="#1f212b"/>
  <path id="Path_2231" data-name="Path 2231" d="M44.488,52.87H42.276A.277.277,0,0,1,42,52.594V49.276A.277.277,0,0,1,42.276,49h2.211a.277.277,0,0,1,.276.276v3.317A.277.277,0,0,1,44.488,52.87Zm-1.935-.553h1.659V49.553H42.553Z" transform="translate(-26.52 -26.332)" fill="#1f212b"/>
  <path id="Path_2232" data-name="Path 2232" d="M52.488,62.87H50.276A.277.277,0,0,1,50,62.594V59.276A.277.277,0,0,1,50.276,59h2.211a.277.277,0,0,1,.276.276v3.317A.277.277,0,0,1,52.488,62.87Zm-1.935-.553h1.659V59.553H50.553Z" transform="translate(-30.097 -30.804)" fill="#1f212b"/>
  <path id="Path_2233" data-name="Path 2233" d="M44.488,62.87H42.276A.277.277,0,0,1,42,62.594V59.276A.277.277,0,0,1,42.276,59h2.211a.277.277,0,0,1,.276.276v3.317A.277.277,0,0,1,44.488,62.87Zm-1.935-.553h1.659V59.553H42.553Z" transform="translate(-26.52 -30.804)" fill="#1f212b"/>
  <path id="Path_2234" data-name="Path 2234" d="M28.488,42.87H26.276A.277.277,0,0,1,26,42.594V39.276A.277.277,0,0,1,26.276,39h2.211a.277.277,0,0,1,.276.276v3.317A.277.277,0,0,1,28.488,42.87Zm-1.935-.553h1.659V39.553H26.553Z" transform="translate(-19.366 -21.861)" fill="#1f212b"/>
  <path id="Path_2235" data-name="Path 2235" d="M28.488,52.87H26.276A.277.277,0,0,1,26,52.594V49.276A.277.277,0,0,1,26.276,49h2.211a.277.277,0,0,1,.276.276v3.317A.277.277,0,0,1,28.488,52.87Zm-1.935-.553h1.659V49.553H26.553Z" transform="translate(-19.366 -26.332)" fill="#1f212b"/>
  <path id="Path_2236" data-name="Path 2236" d="M28.488,62.87H26.276A.277.277,0,0,1,26,62.594V59.276A.277.277,0,0,1,26.276,59h2.211a.277.277,0,0,1,.276.276v3.317A.277.277,0,0,1,28.488,62.87Zm-1.935-.553h1.659V59.553H26.553Z" transform="translate(-19.366 -30.804)" fill="#1f212b"/>
  <path id="Path_2237" data-name="Path 2237" d="M36.488,42.87H34.276A.277.277,0,0,1,34,42.594V39.276A.277.277,0,0,1,34.276,39h2.211a.277.277,0,0,1,.276.276v3.317A.277.277,0,0,1,36.488,42.87Zm-1.935-.553h1.659V39.553H34.553Z" transform="translate(-22.943 -21.861)" fill="#1f212b"/>
  <path id="Path_2238" data-name="Path 2238" d="M36.488,52.87H34.276A.277.277,0,0,1,34,52.594V49.276A.277.277,0,0,1,34.276,49h2.211a.277.277,0,0,1,.276.276v3.317A.277.277,0,0,1,36.488,52.87Zm-1.935-.553h1.659V49.553H34.553Z" transform="translate(-22.943 -26.332)" fill="#1f212b"/>
  <path id="Path_2239" data-name="Path 2239" d="M36.488,62.87H34.276A.277.277,0,0,1,34,62.594V59.276A.277.277,0,0,1,34.276,59h2.211a.277.277,0,0,1,.276.276v3.317A.277.277,0,0,1,36.488,62.87Zm-1.935-.553h1.659V59.553H34.553Z" transform="translate(-22.943 -30.804)" fill="#1f212b"/>
  <path id="Path_2240" data-name="Path 2240" d="M52.488,72.87H50.276A.277.277,0,0,1,50,72.594V69.276A.277.277,0,0,1,50.276,69h2.211a.277.277,0,0,1,.276.276v3.317A.277.277,0,0,1,52.488,72.87Zm-1.935-.553h1.659V69.553H50.553Z" transform="translate(-30.097 -35.275)" fill="#1f212b"/>
  <path id="Path_2241" data-name="Path 2241" d="M44.488,72.87H42.276A.277.277,0,0,1,42,72.594V69.276A.277.277,0,0,1,42.276,69h2.211a.277.277,0,0,1,.276.276v3.317A.277.277,0,0,1,44.488,72.87Zm-1.935-.553h1.659V69.553H42.553Z" transform="translate(-26.52 -35.275)" fill="#1f212b"/>
  <path id="Path_2242" data-name="Path 2242" d="M28,72.488a2.488,2.488,0,0,1,4.976,0v5.805H28Z" transform="translate(-20.26 -35.722)" fill="#ceccbe"/>
  <path id="Path_2243" data-name="Path 2243" d="M32.529,78.4H27.553A.553.553,0,0,1,27,77.846V72.041a3.041,3.041,0,0,1,6.082,0v5.805A.553.553,0,0,1,32.529,78.4Zm-4.423-1.106h3.87V72.041a1.935,1.935,0,0,0-3.87,0Z" transform="translate(-19.813 -35.275)" fill="#1f212b"/>
  <path id="Path_2244" data-name="Path 2244" d="M24.7,79.553H20.276a.276.276,0,1,1,0-.553H24.7a.276.276,0,0,1,0,.553Z" transform="translate(-16.683 -39.746)" fill="#1f212b"/>
  <path id="Path_2245" data-name="Path 2245" d="M38.488,79.553H36.276a.276.276,0,0,1,0-.553h2.211a.276.276,0,1,1,0,.553Z" transform="translate(-23.837 -39.746)" fill="#1f212b"/>
  <path id="Path_2246" data-name="Path 2246" d="M43.382,79.553H42.276a.276.276,0,0,1,0-.553h1.106a.276.276,0,0,1,0,.553Z" transform="translate(-26.52 -39.746)" fill="#1f212b"/>
  <path id="Path_2247" data-name="Path 2247" d="M54.464,79.553H47.276a.276.276,0,0,1,0-.553h7.187a.276.276,0,0,1,0,.553Z" transform="translate(-28.755 -39.746)" fill="#1f212b"/>
  <rect id="Rectangle_118" data-name="Rectangle 118" width="10.787" height="16.779" transform="translate(26.367 26.367)" fill="#9dc4e8"/>
  <rect id="Rectangle_119" data-name="Rectangle 119" width="10.787" height="3.596" transform="translate(26.367 39.551)" fill="#78a1d1"/>
  <path id="Path_2248" data-name="Path 2248" d="M78.935,79.553H77.276a.276.276,0,1,1,0-.553h1.659a.276.276,0,1,1,0,.553Z" transform="translate(-42.169 -39.746)" fill="#1f212b"/>
  <path id="Path_2249" data-name="Path 2249" d="M74.382,79.553H73.276a.276.276,0,0,1,0-.553h1.106a.276.276,0,0,1,0,.553Z" transform="translate(-40.381 -39.746)" fill="#1f212b"/>
  <path id="Path_2250" data-name="Path 2250" d="M67.147,79.553h-3.87a.276.276,0,0,1,0-.553h3.87a.276.276,0,1,1,0,.553Z" transform="translate(-35.909 -39.746)" fill="#1f212b"/>
  <path id="Path_2251" data-name="Path 2251" d="M71.61,71.692H60.553A.553.553,0,0,1,60,71.139V54.553A.553.553,0,0,1,60.553,54H71.61a.553.553,0,0,1,.553.553V71.139A.553.553,0,0,1,71.61,71.692Zm-10.5-1.106h9.952V55.106H61.106Z" transform="translate(-34.568 -28.568)" fill="#1f212b"/>
  <path id="Path_2252" data-name="Path 2252" d="M72.085,44.8l-3.317-5.529a.544.544,0,0,0-.47-.259S60.553,39,60.553,39a.553.553,0,1,0,0,1.106H67.98l3.156,5.261a.553.553,0,0,0,.948-.569Z" transform="translate(-34.568 -21.861)" fill="#1f212b"/>
  <rect id="Rectangle_120" data-name="Rectangle 120" width="2.211" height="3.317" transform="translate(27.92 28.473)" fill="#e9e3c9"/>
  <rect id="Rectangle_121" data-name="Rectangle 121" width="2.211" height="3.317" transform="translate(27.92 34.002)" fill="#e9e3c9"/>
  <rect id="Rectangle_122" data-name="Rectangle 122" width="2.211" height="3.317" transform="translate(32.343 28.473)" fill="#e9e3c9"/>
  <rect id="Rectangle_123" data-name="Rectangle 123" width="2.211" height="3.317" transform="translate(32.343 34.002)" fill="#e9e3c9"/>
  <path id="Path_2253" data-name="Path 2253" d="M66.488,62.87H64.276A.277.277,0,0,1,64,62.594V59.276A.277.277,0,0,1,64.276,59h2.211a.277.277,0,0,1,.276.276v3.317A.277.277,0,0,1,66.488,62.87Zm-1.935-.553h1.659V59.553H64.553Z" transform="translate(-36.356 -30.804)" fill="#1f212b"/>
  <path id="Path_2254" data-name="Path 2254" d="M66.488,72.87H64.276A.277.277,0,0,1,64,72.594V69.276A.277.277,0,0,1,64.276,69h2.211a.277.277,0,0,1,.276.276v3.317A.277.277,0,0,1,66.488,72.87Zm-1.935-.553h1.659V69.553H64.553Z" transform="translate(-36.356 -35.275)" fill="#1f212b"/>
  <path id="Path_2255" data-name="Path 2255" d="M74.488,62.87H72.276A.277.277,0,0,1,72,62.594V59.276A.277.277,0,0,1,72.276,59h2.211a.277.277,0,0,1,.276.276v3.317A.277.277,0,0,1,74.488,62.87Zm-1.935-.553h1.659V59.553H72.553Z" transform="translate(-39.933 -30.804)" fill="#1f212b"/>
  <path id="Path_2256" data-name="Path 2256" d="M74.488,72.87H72.276A.277.277,0,0,1,72,72.594V69.276A.277.277,0,0,1,72.276,69h2.211a.277.277,0,0,1,.276.276v3.317A.277.277,0,0,1,74.488,72.87Zm-1.935-.553h1.659V69.553H72.553Z" transform="translate(-39.933 -35.275)" fill="#1f212b"/>
  <path id="Path_2257" data-name="Path 2257" d="M61.5,52.764H73.11a1.382,1.382,0,0,0,0-2.764H61.5" transform="translate(-35.239 -26.779)" fill="#eddc67"/>
  <path id="Path_2258" data-name="Path 2258" d="M72.663,52.87H61.053a.553.553,0,1,1,0-1.106h11.61a.829.829,0,1,0,0-1.659H61.053a.553.553,0,1,1,0-1.106h11.61a1.935,1.935,0,0,1,0,3.87Z" transform="translate(-34.792 -26.332)" fill="#1f212b"/>
  <path id="Path_2259" data-name="Path 2259" d="M53.807,85.106H14.553a.553.553,0,0,1,0-1.106H53.807a.553.553,0,0,1,0,1.106Z" transform="translate(-14 -41.982)" fill="#1f212b"/>
</svg>
