<svg id="icons8_warehouse" xmlns="http://www.w3.org/2000/svg" width="47.851" height="39.151" viewBox="0 0 47.851 39.151">
  <path id="Path_80" data-name="Path 80" d="M25.75,8,4,18.766V44.976H47.5V18.766Z" transform="translate(-1.825 -5.825)" fill="#e8eaf6"/>
  <path id="Path_81" data-name="Path 81" d="M47.5,44.8H4V39.363H47.5ZM4.979,22.833,25.75,12.393l20.772,10.44.979.544v-2.5L25.75,10,4,20.875v2.5Z" transform="translate(-1.825 -5.65)" fill="#c5cae9"/>
  <path id="Path_82" data-name="Path 82" d="M9,24H41.626V43.575H9Z" transform="translate(-1.387 -4.425)" fill="#607d8b"/>
  <path id="Path_83" data-name="Path 83" d="M39.451,24H9V43.575h2.175v-17.4H39.451v17.4h2.175V24Z" transform="translate(-1.387 -4.425)" fill="#546e7a"/>
  <path id="Path_84" data-name="Path 84" d="M2,17.963,25.925,6,49.851,17.963v4.35L25.925,10.35,2,22.313v-4.35Z" transform="translate(-2 -6)" fill="#d32f2f"/>
  <path id="Path_85" data-name="Path 85" d="M21,17h6.525v4.35H21Z" transform="translate(-0.337 -5.037)" fill="#01579b"/>
  <path id="Path_86" data-name="Path 86" d="M41.626,32.525H9V30.35H41.626Zm0,2.175H9v2.175H41.626Zm0,4.35H9v2.175H41.626Zm0-13.05H9v2.175H41.626Z" transform="translate(-1.387 -4.25)" fill="#90a4ae"/>
  <path id="Path_87" data-name="Path 87" d="M41.626,28.175H39.451V26h2.175Zm0,2.175H39.451v2.175h2.175Zm0,4.35H39.451v2.175h2.175Zm0,4.35H39.451v2.175h2.175ZM11.175,26H9v2.175h2.175Zm0,4.35H9v2.175h2.175Zm0,4.35H9v2.175h2.175Zm0,4.35H9v2.175h2.175Z" transform="translate(-1.387 -4.25)" fill="#78909c"/>
</svg>
