<svg xmlns="http://www.w3.org/2000/svg" width="48.419" height="40.792" viewBox="0 0 48.419 40.792">
  <g id="icons8_tractor_1" transform="translate(-0.001 -0.001)">
    <path id="Path_2339" data-name="Path 2339" d="M219.862,107.149c0-1.058-.033-2.127.011-3.2.011-.415.044-.829.065-1.255l.033-.458a.372.372,0,0,1,.011-.109v-.022a.644.644,0,0,1,.022-.153c-.055,0-.109.011-.164.011a63.232,63.232,0,0,1-9.731-.567c-.327,2.105-1.4,4.069-1.931,6.12A31.75,31.75,0,0,0,207,114.666h0c.556,0,1.1-.022,1.658-.033a.571.571,0,0,1-.4-.829c.545-1.036,1.615-1.855,2.007-2.967a4.294,4.294,0,0,0-.971-.916c-.644-.415-.12-1.495.535-1.08,1.244.8,1.8,2.171,2.858,3.142.4.382.087,1.222-.513,1.036a1.341,1.341,0,0,1-.611-.36.585.585,0,0,1-.185-.338c-.12-.142-.229-.295-.338-.436-.513.851-1.244,1.549-1.713,2.444a.532.532,0,0,1-.316.284c1.887-.076,3.775-.24,5.662-.273a.824.824,0,0,1,1.233.316c.164-.109.338-.218.491-.316a8.588,8.588,0,0,1,3.469-1.429.522.522,0,0,1,.327.065C220.156,111.033,219.862,109.091,219.862,107.149Z" transform="translate(-188.142 -97.91)" fill="#d6e5e5"/>
    <path id="Path_2340" data-name="Path 2340" d="M92.793,187.305a.625.625,0,0,1-.458.327,30.814,30.814,0,0,1-6.5.2c-1.844-.044-3.7-.142-5.542-.12-.436.011-1.145-.022-1.451.36-.458.567-.229,1.582-.142,2.225a38.483,38.483,0,0,1,.665,5.9c.2-.065.393-.12.6-.175a8.079,8.079,0,0,1,3.469-.044,7.911,7.911,0,0,1-.12-1.047,18.239,18.239,0,0,1-.065-2.444,4.227,4.227,0,0,1,.284-1.844,2.27,2.27,0,0,1,1.8-.818,18.236,18.236,0,0,1,2.782-.055c.905.033,1.811,0,2.716,0,2.847-.022,5.705.044,8.564.044-.011-.022-.011-.033-.022-.055-.011-.044-.055-.1-.065-.131a.58.58,0,0,1-.055-.818,1.152,1.152,0,0,1,.175-.164.3.3,0,0,1,.011-.1,3,3,0,0,1,.927-1.571C97.844,187.033,95.324,187.295,92.793,187.305Zm23.815-1.418c0-.349-.087-.72-.12-1.047-.055-.524,0-1.036-.044-1.56a1.833,1.833,0,0,0-.535-1.353,1.892,1.892,0,0,0-.5-.327c-.011,0-.011.011-.022.011a.671.671,0,0,1-.2.033.817.817,0,0,0-.055.175,4.488,4.488,0,0,0-.076.851,9.91,9.91,0,0,0,.185,1.7.486.486,0,0,1-.131.469A8.772,8.772,0,0,1,116.608,185.887Z" transform="translate(-73.717 -169.361)" fill="#febf10"/>
    <path id="Path_2341" data-name="Path 2341" d="M343.831,110.773c-.044-.273-.1-.556-.142-.829-.164-.84-.338-1.691-.5-2.531-.174-.873-.349-1.735-.513-2.607a10.015,10.015,0,0,1-.218-1.505,10.492,10.492,0,0,1-2.684.076,33.626,33.626,0,0,0-3.775.175.664.664,0,0,1,.011.153c-.055,1.756-.109,3.491-.109,5.247,0,2.095.36,4.178.338,6.273a2.854,2.854,0,0,0,2.105-.633.472.472,0,0,1,.5-.1.494.494,0,0,1,.436-.218,11.969,11.969,0,0,1,3.895.284.455.455,0,0,1,.109.044C343.111,113.6,342.827,111.405,343.831,110.773Z" transform="translate(-302.98 -99.603)" fill="#d6e5e5"/>
    <path id="Path_2342" data-name="Path 2342" d="M67.051,276.3c-.7.316-.567,2.051.316,2.051C67.28,277.664,67.171,276.976,67.051,276.3Z" transform="translate(-63.062 -253.73)" fill="#febf10"/>
    <path id="Path_2343" data-name="Path 2343" d="M90.232,360.777a1.869,1.869,0,0,0-1.484,1.113,1.22,1.22,0,0,0,.044,1.069.526.526,0,0,1,.4.382c.044.153.022.1.087.142-.1-.065.109.022-.011-.011a1.224,1.224,0,0,0,.2.033,2.193,2.193,0,0,0,.775-.164,2.346,2.346,0,0,0,1.4-1.222C91.858,361.464,90.843,360.722,90.232,360.777Z" transform="translate(-82.698 -328.988)" fill="#bcbcbc"/>
    <path id="Path_2344" data-name="Path 2344" d="M242.3,80.128a42.174,42.174,0,0,0-4.691.207c-1.8.055-3.6.1-5.4.076-1.418-.011-2.836-.12-4.255-.164a6.652,6.652,0,0,0-2.455.229.886.886,0,0,0-.655,1,.624.624,0,0,1,.589-.305c2.335.164,4.669.5,7,.611a42.528,42.528,0,0,0,5.269-.175c.905-.065,1.822-.131,2.727-.12.6.011,1.211.087,1.811.065a3.577,3.577,0,0,0,1.08-.131c.153-.055.731-.262.7-.48C243.955,80.3,242.788,80.172,242.3,80.128Z" transform="translate(-204.032 -78.929)" fill="#febf10"/>
    <path id="Path_2345" data-name="Path 2345" d="M279.878,224.471a23.177,23.177,0,0,0-.545-2.858,5.707,5.707,0,0,1-3.066-2.247,6.758,6.758,0,0,1-1.036-3.011.457.457,0,0,1-.153-.1,6.058,6.058,0,0,0-2.64-1.538,14.617,14.617,0,0,0-3.24-.175.506.506,0,0,1-.229-.044.465.465,0,0,1-.142.153,3.99,3.99,0,0,1-3.109.807.359.359,0,0,1-.24.055,1.253,1.253,0,0,1-.775-.262.769.769,0,0,1-.164-.164.9.9,0,0,1-.142-.076.7.7,0,0,1-.142-.109,8.172,8.172,0,0,0-2.542,1.167c-.687.436-1.865,1.113-2.029,2.007a.553.553,0,0,1-.218.36,3.753,3.753,0,0,1,.447,1.484,4.729,4.729,0,0,1-.6,2.236,2.41,2.41,0,0,1-.633.7,1.263,1.263,0,0,0-.458.5.493.493,0,0,1-.7.295.413.413,0,0,1-.065.142c-.513.8-.305,2.127-.229,3.022a30.019,30.019,0,0,0,.8,3.916,1.937,1.937,0,0,1,1.222.4,6.871,6.871,0,0,1,1.145,1.418c.382.513,1.025.851,1.331,1.429a1.671,1.671,0,0,1,.12,1.451.588.588,0,0,1,.044.164c.153,1.113,1.942,1.615,2.836,1.92a13.429,13.429,0,0,0,1.833.513,2.745,2.745,0,0,0,1.593.065.582.582,0,0,1,.218-.076c.5-.916,1.953-1.353,2.847-1.658a3.342,3.342,0,0,1,1.92-.262,9.286,9.286,0,0,1,1.636.764,5.332,5.332,0,0,0,2.171-1.56,6.99,6.99,0,0,0,1.418-2.04c-.022-.044-.055-.087-.076-.142a.511.511,0,0,1-.044-.273,1.832,1.832,0,0,1-.524-.84,4.542,4.542,0,0,1,.033-2.062,3.292,3.292,0,0,1,2.095-2.847h0A5.112,5.112,0,0,0,279.878,224.471Zm-6.065,2.815c-.655,2.444-2.422,4.549-5.051,4.789a5.585,5.585,0,0,1-5.389-2.28.485.485,0,0,1-.349-.382,11.778,11.778,0,0,1-.4-3.262,5.44,5.44,0,0,1,1.156-3.022,6.006,6.006,0,0,1,7.167-2.007,5.413,5.413,0,0,1,2.651,2.52A5.247,5.247,0,0,1,273.813,227.285Z" transform="translate(-232.798 -198.672)" fill="#127274"/>
    <path id="Path_2346" data-name="Path 2346" d="M327.236,284.556a4.371,4.371,0,0,0-6.076-2.378,5.2,5.2,0,0,0-2.629,2.956,6.392,6.392,0,0,0,.153,3.447.776.776,0,0,1,.12.185c.873,2.051,3.84,2.542,5.705,1.68a4.719,4.719,0,0,0,2.335-2.564A5.1,5.1,0,0,0,327.236,284.556Z" transform="translate(-287.345 -258.561)" fill="#bcbcbc"/>
    <path id="Path_2347" data-name="Path 2347" d="M147.415,267.308h-.229c-2.585,0-5.171-.033-7.756-.044-.927,0-1.855.065-2.782.022-.785-.033-1.56-.065-2.346-.044a9.213,9.213,0,0,0-1.222.1,2.1,2.1,0,0,0-.611.164.43.43,0,0,1-.022.065,2.147,2.147,0,0,0-.065.382q-.049.425-.065.851a18.955,18.955,0,0,0,.055,2.225,9.029,9.029,0,0,0,.12.949c.011.065.044.164.065.24,0,.011,0,.011.011.022l.022.022a.479.479,0,0,1,.12.458,6.18,6.18,0,0,1,2.007,1.364,5.477,5.477,0,0,1,1.189,1.953c2.924-.011,5.836-.185,8.76-.207a.477.477,0,0,1,.36-.109.3.3,0,0,1,.1.011,12.684,12.684,0,0,1-.295-1.931c-.076-1.069-.251-2.564.36-3.524a.618.618,0,0,1,.72-.262.583.583,0,0,1,.044-.175,2.455,2.455,0,0,1,.873-.96,2.1,2.1,0,0,0,.589-1.167c.033-.142.055-.273.076-.393A.185.185,0,0,0,147.415,267.308Z" transform="translate(-121.597 -245.654)" fill="#febf10"/>
    <path id="Path_2348" data-name="Path 2348" d="M57.3,327.512a4.521,4.521,0,0,0-1.244-3.055,6.167,6.167,0,0,0-3.327-1.527,7.226,7.226,0,0,0-6.829,3.426,4.821,4.821,0,0,0-.764,3.785,4.912,4.912,0,0,0,1.691,2.564.561.561,0,0,1,.578.109c1.909,1.615,4.985,2.3,7.222.927C56.685,332.475,57.481,329.836,57.3,327.512Zm-3.349.862a3.243,3.243,0,0,1-2.215,2.356,2.479,2.479,0,0,1-2.029-.022.544.544,0,0,1-.469-.262,2.77,2.77,0,0,1-.447-2.858,3.211,3.211,0,0,1,2.182-1.735C52.387,325.614,54.121,326.825,53.947,328.374Z" transform="translate(-43.816 -295.222)" fill="#bcbcbc"/>
    <path id="Path_2349" data-name="Path 2349" d="M318.282,273.776a5.414,5.414,0,0,0-2.651-2.52,6,6,0,0,0-7.167,2.007,5.47,5.47,0,0,0-1.156,3.022,11.829,11.829,0,0,0,.4,3.262.455.455,0,0,0,.349.382,5.616,5.616,0,0,0,5.389,2.28c2.629-.251,4.4-2.356,5.051-4.789A5.119,5.119,0,0,0,318.282,273.776Zm-1.353,4.527a4.791,4.791,0,0,1-2.444,2.455c-1.909.764-4.855.142-5.629-1.942a.843.843,0,0,0-.109-.2,6.314,6.314,0,0,1,0-3.458,5.118,5.118,0,0,1,2.76-2.825,4.361,4.361,0,0,1,5.956,2.651A5.24,5.24,0,0,1,316.929,278.3Z" transform="translate(-277.496 -248.795)" fill="#010101"/>
    <path id="Path_2350" data-name="Path 2350" d="M82.442,95.255a26.4,26.4,0,0,0-.687-3.567.485.485,0,0,0-.556-.393.666.666,0,0,0-.218-.1,4.507,4.507,0,0,1-2.356-1.756,4.729,4.729,0,0,1-.8-2.16.507.507,0,0,0,.185-.251,3.788,3.788,0,0,0,.109-2.062c-.087-.72,0-1.451-.109-2.171a2.946,2.946,0,0,0-1.833-2.313c-.011-.087-.033-.175-.044-.251-.142-.84-.316-1.68-.491-2.52-.2-.96-.393-1.92-.578-2.88a11.746,11.746,0,0,1-.273-1.844.558.558,0,0,0-.12-.349c1.244-.927.491-2.487-.8-2.913a10.835,10.835,0,0,0-4.473-.164c-1.735.164-3.5.142-5.236.164-1.778.022-3.545,0-5.313-.12a9.318,9.318,0,0,0-3.644.251A2.214,2.214,0,0,0,54,73.022a.594.594,0,0,0,.8.338c-.436,1.865-1.385,3.589-1.8,5.465a38.011,38.011,0,0,0-1.211,7.833,41.262,41.262,0,0,1-6.033.055c-1.189-.033-2.367-.076-3.556-.076a19.678,19.678,0,0,0-2.269.011,2.42,2.42,0,0,0-1.625.8,3.2,3.2,0,0,0-.458,2.28c.022.371.065.742.12,1.113-2.215.545-1.735,4.756.611,4.429.022.393.033.785.022,1.178a.608.608,0,0,0,.087.327,8.894,8.894,0,0,0-4.276,4.887,5.889,5.889,0,0,0,2.88,6.818.582.582,0,0,0,.436.065,7.989,7.989,0,0,0,6.251,1.135,6.488,6.488,0,0,0,4.6-5.062,8.911,8.911,0,0,0,.185-3.567c3.044-.022,6.087-.207,9.131-.218a.3.3,0,0,0,.1-.011c.1.382.185.753.273,1.135a.337.337,0,0,1,.022.087c-.109.382.1.84.589.753a1.2,1.2,0,0,1,1.025.12,4.54,4.54,0,0,1,.764.993,7,7,0,0,0,.993,1.058c.338.305.589.567.327,1a.5.5,0,0,0,.065.644c.295,1.615,2.105,2.3,3.48,2.793,1.32.469,3.295,1.233,4.636.491h0a.461.461,0,0,0,.524-.338c.12-.338.545-.535.851-.7a12.645,12.645,0,0,1,1.309-.535,2.6,2.6,0,0,1,1.4-.251,7.77,7.77,0,0,1,1.538.764.561.561,0,0,0,.436.033.04.04,0,0,0,.033-.011,6.077,6.077,0,0,0,2.825-1.865,7.747,7.747,0,0,0,1.8-2.695.624.624,0,0,0,.131-1.135c-.349-.185-.753-.415-.84-.829a3.72,3.72,0,0,1,.087-1.385c.164-.971.513-1.887,1.615-2a.6.6,0,0,0,.491-.84A6.654,6.654,0,0,0,82.442,95.255ZM38.13,91.982c.109.687.229,1.364.316,2.051C37.573,94.033,37.431,92.3,38.13,91.982ZM75.559,81.869a.818.818,0,0,1,.055-.175.618.618,0,0,0,.2-.033c.011,0,.011-.011.022-.011a1.707,1.707,0,0,1,1.036,1.68c.033.524-.011,1.036.044,1.56.033.327.12.7.12,1.047a8.772,8.772,0,0,0-1.495-1.047.477.477,0,0,0,.131-.469,10.026,10.026,0,0,1-.185-1.7A4.489,4.489,0,0,1,75.559,81.869Zm-.72-2.116c.055.273.1.556.142.829-1,.644-.72,2.825-.535,3.829-.033-.011-.076-.033-.109-.044a12.278,12.278,0,0,0-3.895-.284,1.853,1.853,0,0,1-.938.316,2.854,2.854,0,0,1-2.105.633c.022-2.105-.338-4.178-.338-6.273,0-1.756.055-3.5.109-5.247a.671.671,0,0,0-.011-.153,31.123,31.123,0,0,1,3.775-.175,10.492,10.492,0,0,0,2.684-.076,10.015,10.015,0,0,0,.218,1.505c.164.873.338,1.735.513,2.607C74.512,78.062,74.686,78.9,74.839,79.753ZM55.606,70.971a6.2,6.2,0,0,1,2.455-.229c1.418.044,2.836.153,4.255.164,1.8.022,3.6-.022,5.4-.076a39.7,39.7,0,0,1,4.691-.207c.491.044,1.647.175,1.745.818.033.218-.545.436-.7.48a3.263,3.263,0,0,1-1.08.131c-.611.011-1.211-.065-1.811-.065-.905-.011-1.822.055-2.727.12a42.525,42.525,0,0,1-5.269.175c-2.345-.109-4.669-.458-7-.611a.613.613,0,0,0-.589.305A.85.85,0,0,1,55.606,70.971Zm-1.429,8.051c.535-2.051,1.6-4.015,1.931-6.12a64.634,64.634,0,0,0,9.731.567c.055,0,.109-.011.164-.011a.644.644,0,0,0-.022.153v.022a.371.371,0,0,1-.011.109l-.033.458c-.022.415-.055.829-.065,1.255-.044,1.058-.011,2.127-.011,3.2,0,1.953.295,3.884.338,5.836a.607.607,0,0,0-.327-.065A8.5,8.5,0,0,0,62.4,85.851c-.153.1-.327.2-.491.316a.824.824,0,0,0-1.233-.316c-1.887.033-3.775.185-5.662.273a.563.563,0,0,0,.316-.284c.469-.895,1.2-1.593,1.713-2.444.109.153.218.295.338.436a.619.619,0,0,0,.185.338,1.444,1.444,0,0,0,.611.36c.6.175.916-.665.513-1.036-1.058-.971-1.615-2.345-2.858-3.142-.655-.415-1.178.665-.535,1.08a4.077,4.077,0,0,1,.971.916c-.393,1.113-1.462,1.931-2.007,2.967a.568.568,0,0,0,.4.829c-.556.022-1.1.033-1.658.033h0A31.129,31.129,0,0,1,54.177,79.022ZM39.264,88.131c.316-.382,1.015-.349,1.451-.36,1.844-.022,3.7.076,5.542.12a31.585,31.585,0,0,0,6.5-.2.625.625,0,0,0,.458-.327c2.531-.022,5.051-.273,7.571-.316a3,3,0,0,0-.927,1.571.3.3,0,0,0-.011.1,1.2,1.2,0,0,0-.175.164.581.581,0,0,0,.055.818.49.49,0,0,1,.065.131c.011.022.011.033.022.055-2.858,0-5.705-.065-8.564-.044-.916,0-1.811.033-2.716,0a18.2,18.2,0,0,0-2.782.055c-.633.076-1.462.218-1.8.818a4.226,4.226,0,0,0-.284,1.844A18.237,18.237,0,0,0,43.737,95a7.914,7.914,0,0,0,.12,1.047,8.078,8.078,0,0,0-3.469.044c-.2.044-.393.109-.6.175a38.484,38.484,0,0,0-.665-5.9C39.035,89.7,38.806,88.687,39.264,88.131Zm5.684,19.8c-2.236,1.385-5.313.687-7.222-.927a.554.554,0,0,0-.578-.109,4.912,4.912,0,0,1-1.691-2.564,4.812,4.812,0,0,1,.764-3.785A7.226,7.226,0,0,1,43.05,97.12a6.239,6.239,0,0,1,3.327,1.527A4.52,4.52,0,0,1,47.62,101.7C47.806,104.026,47.01,106.666,44.948,107.931ZM57.733,94.022c-.622.96-.447,2.444-.36,3.524a16.155,16.155,0,0,0,.295,1.931.3.3,0,0,1-.1-.011.527.527,0,0,0-.36.109c-2.924.022-5.836.2-8.76.207a5.326,5.326,0,0,0-1.189-1.953,6.179,6.179,0,0,0-2.007-1.364.478.478,0,0,0-.12-.458l-.022-.022a.034.034,0,0,0-.011-.022,1.134,1.134,0,0,1-.065-.24,7.052,7.052,0,0,1-.12-.949,18.947,18.947,0,0,1-.055-2.225q.016-.425.065-.851c.011-.131.044-.251.065-.382.011-.033.011-.055.022-.065a2.19,2.19,0,0,1,.611-.164,9.075,9.075,0,0,1,1.222-.1c.785-.033,1.571.011,2.345.044.927.033,1.855-.033,2.782-.022,2.585.011,5.171.044,7.756.044h.305c-.022.12-.044.251-.076.393a2.137,2.137,0,0,1-.589,1.167,2.633,2.633,0,0,0-.873.96,1.021,1.021,0,0,0-.044.175A.65.65,0,0,0,57.733,94.022ZM81.188,97.84h0a3.274,3.274,0,0,0-2.095,2.847,4.543,4.543,0,0,0-.033,2.062,1.833,1.833,0,0,0,.524.84.5.5,0,0,0,.044.273A.588.588,0,0,0,79.7,104a6.99,6.99,0,0,1-1.418,2.04,5.332,5.332,0,0,1-2.171,1.56,8.941,8.941,0,0,0-1.636-.764,3.33,3.33,0,0,0-1.92.262c-.895.305-2.345.742-2.847,1.658a.655.655,0,0,0-.218.076,2.739,2.739,0,0,1-1.593-.065,13.439,13.439,0,0,1-1.833-.513c-.884-.305-2.684-.807-2.836-1.92a.91.91,0,0,0-.044-.164,1.635,1.635,0,0,0-.12-1.451c-.305-.589-.949-.916-1.331-1.429a7.176,7.176,0,0,0-1.145-1.418,2,2,0,0,0-1.222-.4,28.315,28.315,0,0,1-.8-3.916c-.076-.895-.284-2.226.229-3.022a.414.414,0,0,0,.065-.142.492.492,0,0,0,.7-.295,1.272,1.272,0,0,1,.458-.5,2.763,2.763,0,0,0,.633-.7,4.576,4.576,0,0,0,.6-2.236,3.578,3.578,0,0,0-.447-1.484.553.553,0,0,0,.218-.36c.164-.884,1.331-1.571,2.029-2.007A7.931,7.931,0,0,1,65.6,85.644a.7.7,0,0,0,.142.109c.044.022.1.055.142.076a.467.467,0,0,0,.164.164,1.324,1.324,0,0,0,.775.262.556.556,0,0,0,.24-.055,4,4,0,0,0,3.109-.807.943.943,0,0,0,.142-.153.714.714,0,0,0,.229.044,13.989,13.989,0,0,1,3.24.175A6.057,6.057,0,0,1,76.421,87a.6.6,0,0,0,.153.1,6.9,6.9,0,0,0,1.036,3.011,5.668,5.668,0,0,0,3.065,2.247,24.933,24.933,0,0,1,.545,2.858A5.111,5.111,0,0,1,81.188,97.84Z" transform="translate(-34.14 -69.412)" fill="#010101"/>
    <path id="Path_2351" data-name="Path 2351" d="M79.936,349.951a3.188,3.188,0,0,0-2.182,1.735,2.8,2.8,0,0,0,.447,2.858.5.5,0,0,0,.469.262,2.479,2.479,0,0,0,2.029.022,3.225,3.225,0,0,0,2.215-2.356C83.088,350.922,81.354,349.712,79.936,349.951Zm1.767,2.52a2.286,2.286,0,0,1-1.4,1.222,2.406,2.406,0,0,1-.775.164l-.2-.033c.12.033-.087-.054.011.011-.065-.044-.044.011-.087-.142a.5.5,0,0,0-.4-.382,1.26,1.26,0,0,1-.044-1.069A1.908,1.908,0,0,1,80.3,351.13C80.928,351.053,81.943,351.8,81.7,352.471Z" transform="translate(-72.783 -319.319)" fill="#010101"/>
  </g>
</svg>
