<svg xmlns="http://www.w3.org/2000/svg" width="43" height="43" viewBox="0 0 43 43">
  <path id="icons8_linkedin" d="M41.881,4H9.119A5.121,5.121,0,0,0,4,9.119V41.881A5.121,5.121,0,0,0,9.119,47H41.881A5.121,5.121,0,0,0,47,41.881V9.119A5.121,5.121,0,0,0,41.881,4ZM17.31,20.381V39.833H11.167V20.381Zm-6.143-5.662c0-1.433,1.229-2.529,3.071-2.529a2.77,2.77,0,0,1,3.071,2.529c0,1.433-1.147,2.59-3.071,2.59C12.4,17.31,11.167,16.153,11.167,14.719ZM39.833,39.833H33.69V29.6c0-2.048-1.024-4.1-3.583-4.136h-.082c-2.478,0-3.5,2.109-3.5,4.136V39.833H20.381V20.381h6.143V23a7.669,7.669,0,0,1,5.948-2.621c4.065,0,7.361,2.8,7.361,8.457Z" transform="translate(-4 -4)" fill="#f69300"/>
</svg>
