<svg xmlns="http://www.w3.org/2000/svg" width="54.506" height="33.052" viewBox="0 0 54.506 33.052">
  <g id="icons8_pickup" transform="translate(0 0)">
    <path id="Path_2967" data-name="Path 2967" d="M60.106,44.177H50.422L45.266,34.3H34.908V45.574H12.6V56.559H60.829l1.831-9.2a2.594,2.594,0,0,0-2.554-3.18" transform="translate(-9.71 -32.854)" fill="#ef6b6c"/>
    <path id="Path_2968" data-name="Path 2968" d="M55.739,57.8H52.848L52.8,67.773h2.939V57.8" transform="translate(-30.541 -45.032)" fill="#c2595a"/>
    <path id="Path_2969" data-name="Path 2969" d="M59.913,65.3H54.565a4.877,4.877,0,0,0-4.047,2.168l-3.373,5.155H62.514V67.9a2.591,2.591,0,0,0-2.6-2.6m-30.354,0H21.8a2.591,2.591,0,0,0-2.6,2.6v4.722H32.161V67.9a2.591,2.591,0,0,0-2.6-2.6" transform="translate(-13.13 -48.918)" fill="#b65456"/>
    <path id="Path_2970" data-name="Path 2970" d="M73.145,35.4H66.4v6.7A2.591,2.591,0,0,0,69,44.7h9.347Z" transform="translate(-37.588 -33.424)" fill="#d3e0e2"/>
    <path id="Path_2971" data-name="Path 2971" d="M72.86,44.638h-9.3a4.072,4.072,0,0,1-4.047-4.047V33.845a1.445,1.445,0,1,1,2.891,0v6.7A1.172,1.172,0,0,0,63.561,41.7h9.347a1.42,1.42,0,0,1,1.445,1.445A1.5,1.5,0,0,1,72.86,44.638Zm-2.6,12.382H58.309A2.386,2.386,0,0,1,55.9,54.611a1.42,1.42,0,0,1,1.445-1.445,1.4,1.4,0,0,1,1.349.964H70.258a1.445,1.445,0,0,1,0,2.891Z" transform="translate(-32.147 -31.87)" fill="#454b54"/>
    <path id="Path_2972" data-name="Path 2972" d="M83.267,56.45a.611.611,0,0,1-.289-.048,1.464,1.464,0,0,1-1.156-1.686l1.831-9.2v-.048a1.126,1.126,0,0,0-.241-1.012,1.258,1.258,0,0,0-.915-.434H72.86a1.519,1.519,0,0,1-1.3-.771L67.03,34.673a.91.91,0,0,0-.867-.53H58.791v13.2a1.445,1.445,0,0,1-2.891,0v-14.6A1.42,1.42,0,0,1,57.345,31.3h8.913a3.809,3.809,0,0,1,3.421,2.072l4.1,7.805h8.817a4.066,4.066,0,0,1,3.18,1.542,3.975,3.975,0,0,1,.771,3.421l-1.831,9.2A1.49,1.49,0,0,1,83.267,56.45Z" transform="translate(-32.147 -31.3)" fill="#454b54"/>
    <path id="Path_2973" data-name="Path 2973" d="M61.2,68.628H55.709a1.445,1.445,0,0,1,0-2.891H61.2a1.42,1.42,0,0,1,1.445,1.445A1.45,1.45,0,0,1,61.2,68.628Zm-28.33-.964H24.3a1.445,1.445,0,0,1,0-2.891h8.576a1.445,1.445,0,0,1,0,2.891Zm-21.826-.482A1.42,1.42,0,0,1,9.6,65.737V56.245a1.445,1.445,0,0,1,2.891,0v9.54A1.409,1.409,0,0,1,11.045,67.182Z" transform="translate(-8.155 -43.477)" fill="#454b54"/>
    <path id="Path_2974" data-name="Path 2974" d="M27.311,76.1a5.011,5.011,0,1,0,5.011,5.011A5.011,5.011,0,0,0,27.311,76.1Z" transform="translate(-14.736 -54.515)" fill="#fff"/>
    <path id="Path_2975" data-name="Path 2975" d="M25.756,86.012a6.456,6.456,0,1,1,6.456-6.456A6.457,6.457,0,0,1,25.756,86.012Zm0-10.07a3.565,3.565,0,1,0,3.565,3.565A3.653,3.653,0,0,0,25.756,75.943Z" transform="translate(-13.181 -52.96)" fill="#454b54"/>
    <path id="Path_2976" data-name="Path 2976" d="M90.611,76.1a5.011,5.011,0,1,0,5.011,5.011A5.011,5.011,0,0,0,90.611,76.1Z" transform="translate(-47.538 -54.515)" fill="#fff"/>
    <path id="Path_2977" data-name="Path 2977" d="M49.673,76.529a6.456,6.456,0,1,1,6.456-6.456A6.457,6.457,0,0,1,49.673,76.529Zm0-10.07a3.565,3.565,0,1,0,3.565,3.565A3.557,3.557,0,0,0,49.673,66.46Zm-34.112,1.2H8.045a1.445,1.445,0,0,1,0-2.891h7.516a1.445,1.445,0,0,1,0,2.891Zm14.984-9.973H8.527a1.445,1.445,0,1,1,0-2.891H30.546a1.42,1.42,0,0,1,1.445,1.445A1.45,1.45,0,0,1,30.546,57.691Z" transform="translate(-6.6 -43.477)" fill="#454b54"/>
  </g>
</svg>
