<svg xmlns="http://www.w3.org/2000/svg" width="42" height="42" viewBox="0 0 42 42">
  <path id="icons8_Telegram" d="M23,2A21,21,0,1,1,2,23,21,21,0,0,1,23,2Zm7.244,29.56c.386-1.185,2.2-13,2.42-15.324a1.253,1.253,0,0,0-.592-1.382,3.074,3.074,0,0,0-2.216.2c-1.244.448-17.141,7.2-18.06,7.589-.871.37-1.695.773-1.695,1.358,0,.411.244.642.916.882.7.249,2.461.783,3.5,1.07a3.783,3.783,0,0,0,2.781-.361c.677-.421,8.5-5.653,9.057-6.111s1.008.129.55.588-5.825,5.667-6.533,6.389A1.325,1.325,0,0,0,20.7,28.6c.658.415,5.392,3.59,6.106,4.1a3.63,3.63,0,0,0,2.1.74C29.566,33.444,29.914,32.572,30.244,31.56Z" transform="translate(-2 -2)" fill="#f69300"/>
</svg>
