<svg xmlns="http://www.w3.org/2000/svg" width="303.193" height="74.684" viewBox="0 0 303.193 74.684">
  <defs>
    <style>
      .cls-1, .cls-4 {
        fill: #e78e1e;
      }

      .cls-2, .cls-5 {
        fill: #fff;
      }

      .cls-2 {
        font-size: 29px;
      }

      .cls-2, .cls-4 {
        font-family: BerlinSansFBDemi-Bold, Berlin Sans FB;
        font-weight: 700;
      }

      .cls-3 {
        font-size: 26px;
        font-family: LilitaOne, Lilita One;
        font-weight: 400;
      }

      .cls-4 {
        font-size: 36px;
      }

      .cls-6 {
        fill: #e07814;
      }

      .cls-7 {
        fill: #e47c13;
      }

      .cls-8 {
        fill: #e68421;
      }
    </style>
  </defs>
  <g id="logo" transform="translate(0)">
    <path id="Rectangle_7" data-name="Rectangle 7" class="cls-1" d="M37.342,0H178.247a0,0,0,0,1,0,0V74.684a0,0,0,0,1,0,0H37.342A37.342,37.342,0,0,1,0,37.342v0A37.342,37.342,0,0,1,37.342,0Z" transform="translate(0 0)"/>
    <text id="Gadal_Market" data-name="Gadal
Market" class="cls-2" transform="translate(76.944 34.048)"><tspan x="0" y="0">Gadal</tspan><tspan class="cls-3"><tspan x="0" y="22">Market</tspan></tspan></text>
    <text id="_9830" data-name="9830" class="cls-4" transform="translate(224.193 48.484)"><tspan x="0" y="0">9830</tspan></text>
    <g id="Group_3" data-name="Group 3" transform="translate(10.897 8.549)">
      <g id="Group_2" data-name="Group 2" transform="translate(0 0)">
        <g id="Layer_1-2">
          <g id="Group_1" data-name="Group 1">
            <path id="Path_1" data-name="Path 1" class="cls-5" d="M55.015,43.611c.032-.037.062-.072.095-.112a10.37,10.37,0,0,1-1.19,2.712v0q-.415.609-.862,1.193a.034.034,0,0,1-.007.01A28.983,28.983,0,0,1,50.8,50.04c-.047.052-.1.107-.154.159a29.513,29.513,0,0,1-13.525,7.9.476.476,0,0,1-.08.022A29.527,29.527,0,0,1,13.05,54.041.356.356,0,0,0,12.995,54a29.944,29.944,0,0,1-3.21-2.517c-.015-.015-.032-.027-.047-.042-.341-.309-.677-.627-1-.954-.015-.012-.03-.027-.045-.042A29.528,29.528,0,0,1,29.543,0c.045,0,.092,0,.137,0,.209,0,.416,0,.625.007h.007c.543.015,1.081.042,1.616.087a.049.049,0,0,0,.017,0,8.612,8.612,0,0,1,7.007,8.633A9.047,9.047,0,0,1,38,12.793c-.01.025-.022.047-.035.072a8.275,8.275,0,0,1-.588.984c-.431-.217-.871-.413-1.317-.59-.035-.015-.072-.03-.107-.042a17.31,17.31,0,0,0-6.307-1.178,17.028,17.028,0,0,0-6.093,1.1.523.523,0,0,1-.057.02A17.378,17.378,0,0,0,13.8,36.435s0,0,0,.007a10.184,10.184,0,0,0,1.833,3.152s0,0,0,0a17.455,17.455,0,0,0,1.429,1.706c.015.017.03.032.042.047.092.095.182.187.274.279s.187.187.284.276c.015.015.03.03.045.042a17.261,17.261,0,0,0,5.946,3.7l.067.027h0a17.4,17.4,0,0,0,5.914,1.028c.11,0,.217,0,.326,0H30.1c.4-.01.8-.035,1.2-.072l.065-.007A17.158,17.158,0,0,0,35.77,45.6h0l.057-.02c.423-.164.842-.341,1.252-.535.02-.01.037-.02.055-.027a17.483,17.483,0,0,0,8.386-8.66.636.636,0,0,0,.027-.06,17.213,17.213,0,0,0,1.377-5.55.483.483,0,0,0,0-.06c.007-.072.012-.284.015-.356A24.6,24.6,0,0,1,50.09,31.5a20.54,20.54,0,0,1,2.826,2.248,10.732,10.732,0,0,1,1.885,3.4l.03.082a10.412,10.412,0,0,1,.229,6.222c-.012.055-.03.11-.045.164Z" transform="translate(0)"/>
            <path id="Path_2" data-name="Path 2" class="cls-5" d="M93.7,88.259s5.05-12.143-7.445-15.54C79.133,72.1,70.924,83.493,66.1,84.8c-5.468,1.663-10.5,1.143-13.4-7.766,0,0,3.558,5.9,9.275,1.165,5.289-5.732,15.614-19.048,19.317-20.529a3.618,3.618,0,0,0,.438-.222C89.7,53,98.047,64.627,98.592,69.134c.622,5.806-1.18,14.439-4.89,19.125Z" transform="translate(-39.578 -42.397)"/>
          </g>
        </g>
      </g>
    </g>
    <g id="Group_504" data-name="Group 504" transform="translate(187.381 16.858)">
      <path id="Path_3600" data-name="Path 3600" class="cls-6" d="M195.672,1321.814H181.35a7.022,7.022,0,0,0-.808,0,.68.68,0,0,1-.861-.673,8.723,8.723,0,0,1,.031-2.754,1.6,1.6,0,0,1,.72-.992,45.612,45.612,0,0,1,4.139-2.734c1.246-.765,2.519-1.491,3.717-2.324a1.606,1.606,0,0,1,2.1.034,11.192,11.192,0,0,0,4.05,1.89,8.724,8.724,0,0,0,7.028-1.438c1.83-1.221,1.724-1.128,3.554.031,2.145,1.359,4.252,2.785,6.452,4.048,1.572.9,1.577,2.381,1.229,3.919a1.162,1.162,0,0,1-.988.859,7.2,7.2,0,0,1-1.606.133Q202.89,1321.812,195.672,1321.814Z" transform="translate(-179.586 -1279.359)"/>
      <path id="Path_3601" data-name="Path 3601" class="cls-6" d="M206.782,1231.961a9.818,9.818,0,0,1,7.4,3.707,10.264,10.264,0,0,1,1.917,3.137c.375.966.7,1.952,1.054,2.925a3.321,3.321,0,0,1-.106,2.479c-.44,1.064-.96,2.1-1.437,3.146-.245.538-.651.452-1.067.285a25.85,25.85,0,0,1-2.94-1.337,33.443,33.443,0,0,1-6.089-4.556c-.086-.078-.171-.155-.252-.238-1.192-1.218-1.726-.826-2.368.324a9.181,9.181,0,0,1-3.976,3.587,1.755,1.755,0,0,1-2.743-1.792,14.1,14.1,0,0,1,4.236-9.113A8.77,8.77,0,0,1,206.782,1231.961Z" transform="translate(-190.06 -1228.805)"/>
      <path id="Path_3602" data-name="Path 3602" class="cls-6" d="M183.388,1243.556c0-.462-.028-.927.006-1.386a2.869,2.869,0,0,1,1.139-2.306,2.006,2.006,0,0,0,.871-1.76,17.36,17.36,0,0,1,1.475-6.144,14.269,14.269,0,0,1,10.953-8.464,6.638,6.638,0,0,1,3.529.331c6.1,2.183,9.487,6.59,10.46,12.92a7.026,7.026,0,0,0,1.633,3.984,3.294,3.294,0,0,1,.589,2.958,5.618,5.618,0,0,1-2.479,4.245,5.889,5.889,0,0,0-.966.987A7.1,7.1,0,0,1,204.59,1251a7.742,7.742,0,0,0-3.2.05,1.226,1.226,0,0,1-1.479-.818,1.368,1.368,0,0,1,.32-1.684,1.214,1.214,0,0,1,1.671-.2c.3.176.554.417.839.613a5.3,5.3,0,0,0,6.264-.1c.98-.742,1.024-1.112.244-2.054a4.477,4.477,0,0,1-.468-5.566,7.047,7.047,0,0,0,.706-6.089,13.959,13.959,0,0,0-3.93-6.683,10.6,10.6,0,0,0-7.254-2.833,8.5,8.5,0,0,0-4.579,1.4,13.53,13.53,0,0,0-6.2,9.718c-.068.418-.133.837-.18,1.258a2,2,0,0,0,.7,2.056,2.6,2.6,0,0,1,.854,1.478,8.557,8.557,0,0,1,.157,3.328,2.992,2.992,0,0,1-3.281,2.73,2.368,2.368,0,0,1-2.187-1.762A7.512,7.512,0,0,1,183.388,1243.556Z" transform="translate(-181.982 -1223.387)"/>
      <path id="Path_3603" data-name="Path 3603" class="cls-6" d="M192.828,1293.562a6.872,6.872,0,0,1-2.019-.213c-.552-.157-.74-.528-.364-.931a4.388,4.388,0,0,0,1.038-3.3,2.766,2.766,0,0,1,.771-1.764c.444-.529.893-1.056,1.363-1.562s.731-.426.964.233c.115.324.179.667.281,1a8.632,8.632,0,0,0,1.994,3.331c.209.225.443.428.646.657.579.654.52.992-.236,1.445A8.358,8.358,0,0,1,192.828,1293.562Z" transform="translate(-186.325 -1262.626)"/>
      <path id="Path_3604" data-name="Path 3604" class="cls-7" d="M244.186,1301.211a8.119,8.119,0,0,1-4.541-1.044c-.346-.184-.729-.348-.594-.845.12-.442.487-.558.9-.582.461-.027.925-.022,1.381-.081a8.982,8.982,0,0,0,3.088-.867c.591-.31,1-.135,1.108.506a2.982,2.982,0,0,0,.759,1.5c.5.578.272,1.153-.49,1.38A7.611,7.611,0,0,1,244.186,1301.211Z" transform="translate(-217.152 -1270.318)"/>
      <path id="Path_3605" data-name="Path 3605" class="cls-8" d="M247.616,1285.858a.669.669,0,0,1,.562.323c.29.327.8.582.6,1.127a1.861,1.861,0,0,1-1.383,1.087c-.456.128-.605-.2-.637-.581C246.692,1286.97,247.268,1286.441,247.616,1285.858Z" transform="translate(-222.039 -1262.87)"/>
    </g>
  </g>
</svg>
