<svg xmlns="http://www.w3.org/2000/svg" width="26.574" height="25.365" viewBox="0 0 26.574 25.365">
  <path id="icons8_commercial" d="M30.555,10a1.412,1.412,0,0,0-1.4,1.376A18.04,18.04,0,0,1,17.066,16.04H11.429a1.212,1.212,0,0,0-1.139.823A3.629,3.629,0,0,0,7,20.469v.805a3.592,3.592,0,0,0,3.221,3.542V24.9h.071a1.229,1.229,0,0,0,.805.753c1.59,1.656,2.191,4.973,2.37,7.693a2.171,2.171,0,0,0,2.839,1.911l1.4-.467A2.16,2.16,0,0,0,19.1,32.147c-.359-1.238-.93-1.749-1.293-3.223h.4A1.17,1.17,0,0,0,19.358,27.6l-.245-1.779a18.069,18.069,0,0,1,10.039,4.542,1.406,1.406,0,0,0,2.812-.033V22.8a1.967,1.967,0,0,0,1.529-1.529h.082v-.4A2.023,2.023,0,0,0,31.964,18.9v-7.49A1.415,1.415,0,0,0,30.555,10Zm0,.805a.6.6,0,0,1,.6.6V30.333a.6.6,0,1,1-1.208,0v-.346l-.131-.12a18.841,18.841,0,0,0-12.351-4.932V16.807A18.841,18.841,0,0,0,29.82,11.875l.131-.12v-.346A.6.6,0,0,1,30.555,10.805Zm-1.007,2.416a.4.4,0,1,0,.4.4A.4.4,0,0,0,29.548,13.221Zm0,1.611a.4.4,0,1,0,.4.4A.4.4,0,0,0,29.548,14.832Zm0,1.611a.4.4,0,1,0,.4.4A.4.4,0,0,0,29.548,16.442Zm-18.119.4h5.234V24.9H11.429a.4.4,0,0,1-.4-.4V17.248A.4.4,0,0,1,11.429,16.845Zm-1.208.887v6.279a2.855,2.855,0,0,1-1.891-1.126h.28v-.805H7.926a2.763,2.763,0,0,1-.121-.805h.805v-.805H7.805a2.763,2.763,0,0,1,.121-.805h.684v-.805h-.28A2.855,2.855,0,0,1,10.221,17.732Zm2.013.321v.805h1.611v-.805Zm17.314,0a.4.4,0,1,0,.4.4A.4.4,0,0,0,29.548,18.053Zm0,1.611a.4.4,0,1,0,.4.4A.4.4,0,0,0,29.548,19.663Zm2.416.165a1.078,1.078,0,0,1,0,2.086Zm-19.729.64v.805h1.611v-.805Zm17.314.805a.4.4,0,1,0,.4.4A.4.4,0,0,0,29.548,21.274ZM12.234,22.885v.805h1.611v-.805Zm17.314,0a.4.4,0,1,0,.4.4A.4.4,0,0,0,29.548,22.885Zm0,1.611a.4.4,0,1,0,.4.4A.4.4,0,0,0,29.548,24.5ZM12.091,25.7h4.6c.077,4.445,1.175,5.077,1.637,6.669a1.345,1.345,0,0,1-.876,1.653l-1.4.466a1.344,1.344,0,0,1-1.779-1.2C14.1,30.752,13.593,27.712,12.091,25.7Zm5.384.008c.272.008.544.02.816.039l.27,1.961a.351.351,0,0,1-.355.407h-.56A17.911,17.911,0,0,1,17.475,25.711Zm12.073.395a.4.4,0,1,0,.4.4A.4.4,0,0,0,29.548,26.106Zm0,1.611a.4.4,0,1,0,.4.4A.4.4,0,0,0,29.548,27.716Z" transform="translate(-7 -10)" fill="#8f8f8f"/>
</svg>
