<svg xmlns="http://www.w3.org/2000/svg" width="20.997" height="24.806" viewBox="0 0 20.997 24.806">
  <path id="notification" d="M14,0a1.9,1.9,0,0,0-1.771,2.6A5.917,5.917,0,0,0,7.809,8.57c0,3.729-.915,5.427-1.785,6.383a7.573,7.573,0,0,1-1.235,1.042,2.889,2.889,0,0,0-.506.446,1.1,1.1,0,0,0-.283.7,1.921,1.921,0,0,0,.967,1.577,6.507,6.507,0,0,0,2.2.789,26.924,26.924,0,0,0,4.166.431,2.853,2.853,0,1,0,5.52,1.012,2.813,2.813,0,0,0-.193-1.012,26.925,26.925,0,0,0,4.166-.431,6.507,6.507,0,0,0,2.2-.789A1.921,1.921,0,0,0,24,17.14a1.1,1.1,0,0,0-.283-.7,2.891,2.891,0,0,0-.506-.446,7.572,7.572,0,0,1-1.235-1.042C21.1,14,20.188,12.3,20.188,8.57A5.925,5.925,0,0,0,15.769,2.6,1.9,1.9,0,0,0,14,0Zm0,.952a.952.952,0,1,1-.952.952A.945.945,0,0,1,14,.952Zm1.116,2.47A4.891,4.891,0,0,1,19.236,8.57c0,3.889.989,5.886,2.024,7.023a8.473,8.473,0,0,0,1.384,1.175,2.713,2.713,0,0,1,.357.3c.058.065.045.06.045.074,0,.3-.138.515-.536.774a5.735,5.735,0,0,1-1.875.67A35.7,35.7,0,0,1,14,19.045a35.7,35.7,0,0,1-6.636-.461,5.735,5.735,0,0,1-1.875-.67c-.4-.259-.536-.476-.536-.774,0-.015-.013-.009.045-.074a2.71,2.71,0,0,1,.357-.3,8.474,8.474,0,0,0,1.384-1.175c1.034-1.136,2.024-3.134,2.024-7.023a4.88,4.88,0,0,1,4.121-5.133A1.871,1.871,0,0,0,14,3.809,1.851,1.851,0,0,0,15.114,3.422ZM12.362,19.967c.534.011,1.077.03,1.637.03s1.1-.019,1.637-.03a1.932,1.932,0,0,1,.268.982,1.9,1.9,0,1,1-3.541-.982Z" transform="translate(-3.5 0.5)" stroke="#000" stroke-width="1"/>
</svg>
