<svg xmlns="http://www.w3.org/2000/svg" width="66.125" height="66.125" viewBox="0 0 66.125 66.125">
  <g id="Group_415" data-name="Group 415" transform="translate(-63.209 -430.632)">
    <path id="icons8_Male_User" d="M39.063,6A33.063,33.063,0,1,0,72.125,39.063,33.1,33.1,0,0,0,39.063,6Zm0,5.087A27.96,27.96,0,0,1,56.195,61.155l-7.128-3.529-.283-4.113a19.444,19.444,0,0,0,3.872-6.291,6.26,6.26,0,0,0,2.938-5.494,6.174,6.174,0,0,0-1.272-3.88V32.523c0-3.8-1.085-9.773-4.334-9.808-.012-.012-.025-.023-.037-.035l-1.987-6.507C31.433,16.173,23.8,19.988,23.8,32.7v5.144a6.174,6.174,0,0,0-1.272,3.88,6.26,6.26,0,0,0,2.938,5.494,19.444,19.444,0,0,0,3.872,6.291l-.283,4.113L21.93,61.155A27.96,27.96,0,0,1,39.063,11.087Zm-8.9,16.531a32.663,32.663,0,0,0,8.9,1.272,19.527,19.527,0,0,0,7.63-1.272c3.815,3.269,3.815,11.445,3.815,11.445v.1l.5.546a3.7,3.7,0,0,1,.772,2.014,2.728,2.728,0,0,1-1.483,2.62l-.72.355-.246.765a17.613,17.613,0,0,1-5.362,7.637A20.6,20.6,0,0,1,41.2,55.117c-.367.22-.673.379-.862.467l-.022.01H37.806l-.022-.01c-.189-.088-.495-.247-.862-.467a20.6,20.6,0,0,1-2.764-2.012A17.613,17.613,0,0,1,28.8,45.468l-.246-.765-.72-.355a2.728,2.728,0,0,1-1.483-2.62,3.7,3.7,0,0,1,.772-2.014l.5-.546v-.1S27.436,30.343,30.161,27.618ZM32.93,56.913c.706.528,1.462,1.137,2.032,1.478a13.352,13.352,0,0,0,1.212.651c.174.081.334.149.509.211a1.611,1.611,0,0,0,.825.156h3.11a1.611,1.611,0,0,0,.825-.156c.175-.062.335-.13.509-.211a13.349,13.349,0,0,0,1.212-.651c.569-.34,1.326-.95,2.032-1.478l.507,7.362a14.9,14.9,0,0,1-6.639,1.4,14.9,14.9,0,0,1-6.639-1.4Z" transform="translate(57.209 424.632)"/>
  </g>
</svg>
