<svg xmlns="http://www.w3.org/2000/svg" xmlns:xlink="http://www.w3.org/1999/xlink" width="98" height="95" viewBox="0 0 98 95">
  <defs>
    <clipPath id="clip-path">
      <rect id="Rectangle_31" data-name="Rectangle 31" width="98" height="95" rx="25" transform="translate(0.22 -0.221)" fill="#efefef"/>
    </clipPath>
  </defs>
  <g id="Mask_Group_3" data-name="Mask Group 3" transform="translate(-0.22 0.221)" clip-path="url(#clip-path)">
    <path id="icons8_protect_4" d="M48.059,4C39.251,4,33.319,7.471,28,10.361S17.844,15.743,8.914,15.743H5v3.914C5,49.872,15.214,69.536,25.551,81.433S46.591,97.7,46.591,97.7l1.468.489,1.468-.489s10.7-4.281,21.04-16.147,20.551-31.575,20.551-61.9V15.743H87.2c-8.884,0-13.762-2.492-19.083-5.382S56.866,4,48.059,4Zm0,7.829c6.85,0,10.78,2.4,16.27,5.382a49.006,49.006,0,0,0,18.716,5.749C82.295,49.444,73.533,66.279,64.7,76.417c-8.012,9.19-14.74,12.248-16.636,13.089-1.911-.856-8.624-3.991-16.636-13.211-8.838-10.169-17.6-26.973-18.349-53.334A48.833,48.833,0,0,0,31.79,17.211C37.279,14.23,41.209,11.829,48.059,11.829ZM68.732,32.5,44.144,57.09,31.3,44.245l-5.627,5.627L41.331,65.53l2.813,2.691,2.814-2.691,27.4-27.4Z" transform="translate(7.559 -3.103)" fill="#5b5b5b"/>
  </g>
</svg>
