<svg xmlns="http://www.w3.org/2000/svg" width="97.075" height="79.425" viewBox="0 0 97.075 79.425">
  <g id="icons8_pickup_front_view_1" transform="translate(-2 -6)">
    <path id="Path_3269" data-name="Path 3269" d="M0,0H12.576V4.412H0Z" transform="matrix(0.789, -0.614, 0.614, 0.789, 81.108, 27.341)" fill="#388e3c"/>
    <path id="Path_3270" data-name="Path 3270" d="M67.224,9.647A4.358,4.358,0,0,0,63.253,7h-42.8a4.358,4.358,0,0,0-3.971,2.647L9.2,29.062H74.5Z" transform="translate(8.685 1.206)" fill="#424242"/>
    <path id="Path_3271" data-name="Path 3271" d="M12.392,30.931,8.2,29.386,15.481,9.971A6.789,6.789,0,0,1,21.658,6h42.8a6.789,6.789,0,0,1,6.177,3.971l7.281,19.415-4.192,1.544L66.445,11.516a2.317,2.317,0,0,0-1.986-1.1h-42.8a1.93,1.93,0,0,0-1.986,1.324Z" transform="translate(7.479)" fill="#388e3c"/>
    <path id="Path_3272" data-name="Path 3272" d="M0,0H4.412V12.576H0Z" transform="translate(7.197 23.273) rotate(-52.128)" fill="#388e3c"/>
    <path id="Path_3273" data-name="Path 3273" d="M17.031,54.062H8.206A2.084,2.084,0,0,1,6,51.856V32H19.237V51.856A2.084,2.084,0,0,1,17.031,54.062Zm57.362,0h8.825a2.084,2.084,0,0,0,2.206-2.206V32H72.187V51.856A2.084,2.084,0,0,0,74.393,54.062Z" transform="translate(4.825 31.362)" fill="#5d4037"/>
    <path id="Path_3274" data-name="Path 3274" d="M78.806,16H12.619A6.5,6.5,0,0,0,6,22.619V53.506a4.425,4.425,0,0,0,4.412,4.412h70.6a4.425,4.425,0,0,0,4.412-4.412V22.619A6.5,6.5,0,0,0,78.806,16Z" transform="translate(4.825 12.062)" fill="#4caf50"/>
    <path id="Path_3275" data-name="Path 3275" d="M21.444,32.237H8.206A2.084,2.084,0,0,1,6,30.031V21.206A2.084,2.084,0,0,1,8.206,19H21.444a2.084,2.084,0,0,1,2.206,2.206v8.825A2.084,2.084,0,0,1,21.444,32.237Zm48.537,0H83.218a2.084,2.084,0,0,0,2.206-2.206V21.206A2.084,2.084,0,0,0,83.218,19H69.981a2.084,2.084,0,0,0-2.206,2.206v8.825A2.084,2.084,0,0,0,69.981,32.237Z" transform="translate(4.825 15.681)" fill="#bbdefb"/>
    <path id="Path_3276" data-name="Path 3276" d="M58.125,21.206v8.825a4.425,4.425,0,0,1-4.412,4.412h-35.3A4.425,4.425,0,0,1,14,30.031V21.206A2.084,2.084,0,0,1,16.206,19H55.919A2.084,2.084,0,0,1,58.125,21.206Z" transform="translate(14.475 15.681)" fill="#424242"/>
    <path id="Path_3277" data-name="Path 3277" d="M54.919,37.856h-35.3A6.5,6.5,0,0,1,13,31.237V22.412A4.425,4.425,0,0,1,17.412,18H57.125a4.425,4.425,0,0,1,4.412,4.412v8.825A6.5,6.5,0,0,1,54.919,37.856Zm2.206-15.444H17.412v8.825a2.084,2.084,0,0,0,2.206,2.206h35.3a2.084,2.084,0,0,0,2.206-2.206Z" transform="translate(13.269 14.475)" fill="#e0e0e0"/>
    <path id="Path_3278" data-name="Path 3278" d="M10.412,19H8.206A2.084,2.084,0,0,0,6,21.206v8.825a2.084,2.084,0,0,0,2.206,2.206h2.206Zm70.6,0h2.206a2.084,2.084,0,0,1,2.206,2.206v8.825a2.084,2.084,0,0,1-2.206,2.206H81.012Z" transform="translate(4.825 15.681)" fill="#fbc02d"/>
    <path id="Path_3279" data-name="Path 3279" d="M11.928,20.825H3.1a1.042,1.042,0,0,1-1.1-1.1V13.1A1.042,1.042,0,0,1,3.1,12h8.825a1.042,1.042,0,0,1,1.1,1.1v6.619A1.042,1.042,0,0,1,11.928,20.825Zm86.043,0H89.146a1.042,1.042,0,0,1-1.1-1.1V13.1a1.042,1.042,0,0,1,1.1-1.1h8.825a1.042,1.042,0,0,1,1.1,1.1v6.619A1.042,1.042,0,0,1,97.971,20.825Z" transform="translate(0 7.237)" fill="#4caf50"/>
    <path id="Path_3280" data-name="Path 3280" d="M6,29V40.031a4.425,4.425,0,0,0,4.412,4.412h70.6a4.425,4.425,0,0,0,4.412-4.412V29Z" transform="translate(4.825 27.744)" fill="#e0e0e0"/>
    <path id="Path_3281" data-name="Path 3281" d="M74.393,35.412A4.425,4.425,0,0,0,69.981,31H21.444a4.425,4.425,0,0,0-4.412,4.412H6v2.206a4.425,4.425,0,0,0,4.412,4.412h70.6a4.425,4.425,0,0,0,4.412-4.412V35.412Z" transform="translate(4.825 30.156)" fill="#757575"/>
  </g>
</svg>
