<svg xmlns="http://www.w3.org/2000/svg" width="227.844" height="89" viewBox="0 0 227.844 89">
  <g id="Group_822" data-name="Group 822" transform="translate(-819.366 -168)">
    <g id="Group_821" data-name="Group 821" transform="translate(819.366 172.48)">
      <path id="Path_76" data-name="Path 76" d="M57.479,60c.034-.039.065-.075.1-.117a10.834,10.834,0,0,1-1.243,2.833v0q-.433.636-.9,1.246a.036.036,0,0,1-.008.01,30.279,30.279,0,0,1-2.354,2.742c-.049.055-.1.112-.161.166A30.836,30.836,0,0,1,38.78,75.143a.5.5,0,0,1-.083.023A30.85,30.85,0,0,1,13.634,70.9a.374.374,0,0,0-.057-.039,31.28,31.28,0,0,1-3.353-2.63c-.016-.016-.034-.029-.049-.044-.356-.323-.708-.656-1.048-1-.016-.013-.031-.029-.047-.044A30.851,30.851,0,0,1,30.866,14.44c.047,0,.1,0,.143,0,.219,0,.434,0,.653.008h.008c.567.016,1.129.044,1.688.091a.051.051,0,0,0,.018,0A9,9,0,0,1,40.7,23.563a9.453,9.453,0,0,1-.994,4.243c-.01.026-.023.049-.036.075a8.644,8.644,0,0,1-.614,1.028c-.45-.226-.911-.432-1.376-.617-.036-.016-.075-.031-.112-.044a18.085,18.085,0,0,0-6.59-1.23,17.791,17.791,0,0,0-6.366,1.145.546.546,0,0,1-.06.021A18.157,18.157,0,0,0,14.423,52.507s0,.005.005.008a10.64,10.64,0,0,0,1.915,3.293s0,0,0,.005A18.241,18.241,0,0,0,17.838,57.6c.016.018.031.034.044.049.1.1.19.2.286.291s.2.2.3.289c.016.016.031.031.047.044a18.034,18.034,0,0,0,6.212,3.868l.07.029h0a18.176,18.176,0,0,0,6.178,1.074c.114,0,.226,0,.341-.005h.133c.419-.01.838-.036,1.251-.075l.068-.008a17.927,17.927,0,0,0,4.6-1.069h0l.06-.021c.442-.172.879-.356,1.309-.559.021-.01.039-.021.057-.029a18.266,18.266,0,0,0,8.762-9.048.664.664,0,0,0,.029-.062,17.983,17.983,0,0,0,1.439-5.8.506.506,0,0,0,.005-.062c.008-.075.013-.3.016-.372a25.7,25.7,0,0,1,3.283,1.215A21.464,21.464,0,0,1,55.286,49.7a11.213,11.213,0,0,1,1.969,3.551l.031.086a10.879,10.879,0,0,1,.239,6.5C57.513,59.89,57.5,59.947,57.479,60Z" transform="translate(0 -14.44)" fill="#fa0"/>
      <path id="Path_77" data-name="Path 77" d="M95.541,104.124s5.276-12.687-7.778-16.236C80.317,87.245,71.74,99.144,66.7,100.513c-5.713,1.738-10.968,1.194-14-8.114,0,0,3.717,6.168,9.69,1.218,5.526-5.989,16.314-19.9,20.182-21.449a3.78,3.78,0,0,0,.458-.231c8.325-4.651,17.047,7.5,17.617,12.206.65,6.067-1.233,15.086-5.109,19.982Z" transform="translate(-38.99 -56.207)" fill="#fa0"/>
    </g>
    <text id="GADAL_MARKET_" data-name="GADAL 
MARKET
" transform="translate(890.21 202)" fill="#fa0" font-size="37" font-family="Gotham-Black, Gotham" font-weight="800" letter-spacing="0.05em"><tspan x="0" y="0">GADAL </tspan><tspan font-size="31"><tspan x="0" y="25">MARKET</tspan><tspan x="0" y="50"></tspan></tspan></text>
  </g>
</svg>
