<svg xmlns="http://www.w3.org/2000/svg" width="201.255" height="120.713" viewBox="0 0 201.255 120.713">
  <g id="logo" transform="translate(-12.672 -40)">
    <path id="Path_4003" data-name="Path 4003" d="M0,48.691Z" transform="translate(12.672 28.025)" fill="#fff"/>
    <text id="Gadal_Market" data-name="Gadal Market" transform="translate(105.928 76)" fill="#fff" font-size="39" font-family="BerlinSansFBDemi-Bold, Berlin Sans FB" font-weight="700"><tspan x="0" y="0">Gadal</tspan><tspan font-size="34" font-family="SegoeUI, Segoe UI" font-weight="400"><tspan x="0" y="29">Market</tspan></tspan></text>
    <text id="_9830" data-name="9830" transform="translate(93.624 151.713)" fill="#fff" font-size="46" font-family="BerlinSansFBDemi-Bold, Berlin Sans FB" font-weight="700"><tspan x="0" y="0">9830</tspan></text>
    <g id="Group_3" data-name="Group 3" transform="translate(25.88 41.819)">
      <g id="Group_2" data-name="Group 2" transform="translate(0 0)">
        <g id="Layer_1-2">
          <g id="Group_1" data-name="Group 1">
            <path id="Path_1" data-name="Path 1" d="M66.678,52.856c.039-.045.075-.088.115-.136a12.568,12.568,0,0,1-1.442,3.286v0q-.5.738-1.044,1.446a.042.042,0,0,1-.009.012,35.127,35.127,0,0,1-2.731,3.181c-.057.063-.121.13-.187.193a35.77,35.77,0,0,1-16.393,9.575.578.578,0,0,1-.1.027A35.786,35.786,0,0,1,15.816,65.5a.432.432,0,0,0-.066-.045A36.291,36.291,0,0,1,11.86,62.4c-.018-.018-.039-.033-.057-.051-.413-.374-.821-.76-1.216-1.156-.018-.015-.036-.033-.054-.051A35.787,35.787,0,0,1,35.806,0c.054,0,.112,0,.166,0,.253,0,.5,0,.757.009h.009C37.4.03,38.048.063,38.7.118a.059.059,0,0,0,.021,0A10.438,10.438,0,0,1,47.21,10.583a10.965,10.965,0,0,1-1.153,4.922c-.012.03-.027.057-.042.088a10.027,10.027,0,0,1-.712,1.192c-.522-.263-1.056-.5-1.6-.715-.042-.018-.088-.036-.13-.051a20.979,20.979,0,0,0-7.644-1.427,20.638,20.638,0,0,0-7.384,1.328.633.633,0,0,1-.069.024A21.062,21.062,0,0,0,16.731,44.159s0,.006.006.009a12.342,12.342,0,0,0,2.221,3.82s0,0,0,.006a21.156,21.156,0,0,0,1.732,2.067c.018.021.036.039.051.057.112.115.22.226.332.338s.226.226.344.335c.018.018.036.036.054.051a20.92,20.92,0,0,0,7.206,4.487c.027.012.051.021.081.033h0a21.084,21.084,0,0,0,7.167,1.246c.133,0,.263,0,.4-.006h.154c.486-.012.972-.042,1.452-.088l.078-.009a20.8,20.8,0,0,0,5.341-1.24h0l.069-.024c.513-.2,1.02-.413,1.518-.649.024-.012.045-.024.066-.033a21.189,21.189,0,0,0,10.164-10.5.772.772,0,0,0,.033-.072,20.862,20.862,0,0,0,1.669-6.727.586.586,0,0,0,.006-.072c.009-.088.015-.344.018-.432a29.817,29.817,0,0,1,3.808,1.409A24.894,24.894,0,0,1,64.134,40.9a13.007,13.007,0,0,1,2.284,4.119l.036.1a12.62,12.62,0,0,1,.278,7.541c-.015.066-.036.133-.054.2Z" transform="translate(0)" fill="#fff"/>
            <path id="Path_2" data-name="Path 2" d="M102.4,95s6.12-14.718-9.023-18.834c-8.637-.745-18.586,13.058-24.429,14.645C62.318,92.828,56.222,92.2,52.7,81.4c0,0,4.312,7.155,11.241,1.412,6.41-6.947,18.924-23.086,23.412-24.881a4.384,4.384,0,0,0,.531-.269c9.657-5.4,19.775,8.7,20.436,14.159.754,7.037-1.43,17.5-5.927,23.179Z" transform="translate(-36.796 -39.417)" fill="#fff"/>
          </g>
        </g>
      </g>
    </g>
    <g id="Group_504" data-name="Group 504" transform="translate(61.715 126.56)">
      <path id="Path_3600" data-name="Path 3600" d="M190.4,1318.58h-9.626a4.711,4.711,0,0,0-.543,0,.457.457,0,0,1-.579-.453,5.862,5.862,0,0,1,.021-1.851,1.076,1.076,0,0,1,.484-.667,30.667,30.667,0,0,1,2.782-1.838c.837-.514,1.693-1,2.5-1.562a1.079,1.079,0,0,1,1.413.023,7.523,7.523,0,0,0,2.722,1.27,5.863,5.863,0,0,0,4.724-.967c1.23-.821,1.159-.758,2.388.021,1.442.913,2.857,1.872,4.336,2.721,1.057.606,1.06,1.6.826,2.634a.781.781,0,0,1-.664.577,4.823,4.823,0,0,1-1.079.09Q195.249,1318.578,190.4,1318.58Z" transform="translate(-179.586 -1290.045)" fill="#fff"/>
      <path id="Path_3601" data-name="Path 3601" d="M203.3,1231.961a6.6,6.6,0,0,1,4.97,2.491,6.9,6.9,0,0,1,1.289,2.109c.252.649.468,1.312.709,1.965a2.231,2.231,0,0,1-.071,1.666c-.3.716-.645,1.409-.966,2.115-.164.362-.438.3-.717.191a17.366,17.366,0,0,1-1.976-.9,22.471,22.471,0,0,1-4.092-3.062c-.058-.052-.115-.1-.17-.16-.8-.819-1.16-.555-1.591.217a6.17,6.17,0,0,1-2.672,2.411,1.179,1.179,0,0,1-1.843-1.2,9.474,9.474,0,0,1,2.847-6.125A5.893,5.893,0,0,1,203.3,1231.961Z" transform="translate(-192.059 -1229.84)" fill="#fff"/>
      <path id="Path_3602" data-name="Path 3602" d="M183.384,1236.942c0-.311-.019-.623,0-.932a1.928,1.928,0,0,1,.765-1.55,1.348,1.348,0,0,0,.585-1.183,11.669,11.669,0,0,1,.991-4.13,9.59,9.59,0,0,1,7.361-5.689,4.46,4.46,0,0,1,2.372.223,10.22,10.22,0,0,1,7.03,8.683,4.723,4.723,0,0,0,1.1,2.678,2.214,2.214,0,0,1,.4,1.988,3.777,3.777,0,0,1-1.666,2.853,3.952,3.952,0,0,0-.649.663,4.775,4.775,0,0,1-4.038,1.4,5.2,5.2,0,0,0-2.151.033.824.824,0,0,1-.994-.55.92.92,0,0,1,.215-1.132.816.816,0,0,1,1.123-.132c.2.118.372.28.564.412a3.558,3.558,0,0,0,4.21-.069c.659-.5.688-.747.164-1.38a3.009,3.009,0,0,1-.314-3.741,4.737,4.737,0,0,0,.475-4.092,9.381,9.381,0,0,0-2.642-4.491,7.121,7.121,0,0,0-4.876-1.9,5.715,5.715,0,0,0-3.077.943,9.093,9.093,0,0,0-4.167,6.531c-.046.281-.09.563-.121.845a1.344,1.344,0,0,0,.474,1.382,1.749,1.749,0,0,1,.574.993,5.751,5.751,0,0,1,.106,2.237,2.011,2.011,0,0,1-2.205,1.835,1.591,1.591,0,0,1-1.47-1.184A5.048,5.048,0,0,1,183.384,1236.942Z" transform="translate(-182.44 -1223.387)" fill="#fff"/>
      <path id="Path_3603" data-name="Path 3603" d="M191.982,1290.909a4.621,4.621,0,0,1-1.357-.143c-.371-.105-.5-.355-.245-.626a2.949,2.949,0,0,0,.7-2.216,1.86,1.86,0,0,1,.518-1.185c.3-.356.6-.709.916-1.049s.491-.286.648.156c.077.218.12.448.189.669a5.8,5.8,0,0,0,1.34,2.239c.14.151.3.287.434.442.389.439.349.667-.159.971A5.619,5.619,0,0,1,191.982,1290.909Z" transform="translate(-187.612 -1270.117)" fill="#fff"/>
      <path id="Path_3604" data-name="Path 3604" d="M242.493,1300.041a5.458,5.458,0,0,1-3.052-.7c-.232-.124-.49-.234-.4-.568.08-.3.327-.375.6-.391.31-.018.622-.015.928-.054a6.037,6.037,0,0,0,2.076-.583c.4-.208.67-.091.745.34a2.006,2.006,0,0,0,.51,1.01c.336.388.183.775-.329.927A5.1,5.1,0,0,1,242.493,1300.041Z" transform="translate(-224.323 -1279.278)" fill="#fff"/>
      <path id="Path_3605" data-name="Path 3605" d="M247.334,1285.858a.45.45,0,0,1,.378.217c.195.22.537.391.4.757a1.251,1.251,0,0,1-.929.731c-.306.086-.407-.135-.428-.39C246.713,1286.605,247.1,1286.25,247.334,1285.858Z" transform="translate(-230.143 -1270.408)" fill="#fff"/>
    </g>
  </g>
</svg>
