<?xml version="1.0" encoding="UTF-8"?>
<!DOCTYPE svg PUBLIC "-//W3C//DTD SVG 1.1//EN" "http://www.w3.org/Graphics/SVG/1.1/DTD/svg11.dtd">
<svg xmlns="http://www.w3.org/2000/svg" version="1.1" width="77px" height="76px" style="shape-rendering:geometricPrecision; text-rendering:geometricPrecision; image-rendering:optimizeQuality; fill-rule:evenodd; clip-rule:evenodd" xmlns:xlink="http://www.w3.org/1999/xlink">
<g><path style="opacity:0.993" fill="#e79024" d="M -0.5,-0.5 C 9.83333,-0.5 20.1667,-0.5 30.5,-0.5C 16.3441,2.97942 6.0108,11.3128 -0.5,24.5C -0.5,16.1667 -0.5,7.83333 -0.5,-0.5 Z"/></g>
<g><path style="opacity:1" fill="#e78f23" d="M 40.5,-0.5 C 52.5,-0.5 64.5,-0.5 76.5,-0.5C 76.5,24.8333 76.5,50.1667 76.5,75.5C 67.1667,75.5 57.8333,75.5 48.5,75.5C 67.6342,67.1589 76.1342,52.4923 74,31.5C 66.014,16.3396 56.014,14.6729 44,26.5C 38.2852,33.4263 32.4518,40.2597 26.5,47C 20.4881,50.1159 16.3215,48.6159 14,42.5C 12.7739,30.9455 17.2739,22.6121 27.5,17.5C 32.1304,16.7705 36.7971,16.4372 41.5,16.5C 43.4352,17.1495 45.4352,17.4828 47.5,17.5C 50.5776,9.21089 48.2443,3.21089 40.5,-0.5 Z"/></g>
<g><path style="opacity:1" fill="#fefcfa" d="M 30.5,-0.5 C 33.8333,-0.5 37.1667,-0.5 40.5,-0.5C 48.2443,3.21089 50.5776,9.21089 47.5,17.5C 45.4352,17.4828 43.4352,17.1495 41.5,16.5C 39.866,15.8389 38.0326,15.5056 36,15.5C 32.8502,15.3603 30.0169,16.027 27.5,17.5C 17.2739,22.6121 12.7739,30.9455 14,42.5C 16.3215,48.6159 20.4881,50.1159 26.5,47C 32.4518,40.2597 38.2852,33.4263 44,26.5C 56.014,14.6729 66.014,16.3396 74,31.5C 76.1342,52.4923 67.6342,67.1589 48.5,75.5C 40.1667,75.5 31.8333,75.5 23.5,75.5C 12.106,70.4391 4.10602,62.1058 -0.5,50.5C -0.5,41.8333 -0.5,33.1667 -0.5,24.5C 6.0108,11.3128 16.3441,2.97942 30.5,-0.5 Z"/></g>
<g><path style="opacity:1" fill="#eda854" d="M 41.5,16.5 C 36.7971,16.4372 32.1304,16.7705 27.5,17.5C 30.0169,16.027 32.8502,15.3603 36,15.5C 38.0326,15.5056 39.866,15.8389 41.5,16.5 Z"/></g>
<g><path style="opacity:1" fill="#e89228" d="M 24.5,57.5 C 26.1667,56.8333 27.8333,56.1667 29.5,55.5C 32.0163,55.2447 34.3496,54.4114 36.5,53C 41.2114,48.6201 46.2114,44.6201 51.5,41C 53.6775,39.7978 56.0108,39.2978 58.5,39.5C 55.9267,56.1351 46.26,62.9684 29.5,60C 27.5483,59.6339 25.8816,58.8005 24.5,57.5 Z"/></g>
<g><path style="opacity:0.99" fill="#e79025" d="M -0.5,50.5 C 4.10602,62.1058 12.106,70.4391 23.5,75.5C 15.5,75.5 7.5,75.5 -0.5,75.5C -0.5,67.1667 -0.5,58.8333 -0.5,50.5 Z"/></g>
<g><path style="opacity:1" fill="#f5d1a4" d="M 29.5,55.5 C 27.8333,56.1667 26.1667,56.8333 24.5,57.5C 23.7109,57.2172 23.0442,56.7172 22.5,56C 24.8098,55.5034 27.1432,55.3367 29.5,55.5 Z"/></g>
</svg>
