<svg xmlns="http://www.w3.org/2000/svg" width="221" height="66" viewBox="0 0 221 66">
  <g id="Group_23" data-name="Group 23" transform="translate(10.093 0.436)">
    <rect id="Rectangle_24" data-name="Rectangle 24" width="221" height="66" rx="10" transform="translate(-10.093 -0.436)" fill="#fff"/>
    <g id="XMLID_22_" transform="translate(16.105 14.469)">
      <g id="XMLID_23_">
        <path id="XMLID_25_" d="M67.341,51.035a8.139,8.139,0,0,1,3.889-6.845A8.632,8.632,0,0,0,64.7,40.612c-2.8-.311-5.445,1.711-6.69,1.711-1.556,0-3.578-1.711-6.068-1.556a8.472,8.472,0,0,0-7.312,4.512c-3.112,5.445-.778,13.535,2.178,18.047,1.556,2.334,3.423,4.512,5.6,4.512,2.178-.156,3.112-1.556,5.756-1.556s3.578,1.556,5.756,1.245c2.489,0,3.889-2.334,5.445-4.356a16.217,16.217,0,0,0,2.489-5.134C72.009,58.348,67.341,56.481,67.341,51.035Z" transform="translate(-43.152 -32.21)" fill="#4f5362"/>
        <path id="XMLID_24_" d="M57.7,40.8a8.149,8.149,0,0,0,1.867-5.6,8.624,8.624,0,0,0-5.29,2.645,8.263,8.263,0,0,0-1.867,5.445A6.218,6.218,0,0,0,57.7,40.8Z" transform="translate(-38.018 -35.2)" fill="#4f5362"/>
      </g>
    </g>
    <path id="Path_74" data-name="Path 74" d="M81.713,65.6H74.09L72.223,71.05H68.8l7.468-20.381H79.69L87,71.05H83.58Zm-7-2.645h6.223l-2.956-9.024Zm28.16.778c0,4.667-2.489,7.468-6.223,7.468a5.114,5.114,0,0,1-4.667-2.645v7.312H89.025V56.114h2.956V58.6a5.426,5.426,0,0,1,4.667-2.645C100.227,55.959,102.872,58.915,102.872,63.738Zm-3.112,0c0-2.956-1.556-5.134-3.889-5.134-2.178,0-3.889,2.023-3.889,5.134s1.556,5.134,3.889,5.134C98.2,68.561,99.76,66.694,99.76,63.738Zm19.447,0c0,4.667-2.489,7.468-6.223,7.468a5.114,5.114,0,0,1-4.667-2.645v7.312h-2.956V56.114h2.8V58.6a5.426,5.426,0,0,1,4.667-2.645C116.563,55.959,119.207,58.915,119.207,63.738Zm-3.267,0c0-2.956-1.556-5.134-3.889-5.134-2.178,0-3.889,2.023-3.889,5.134s1.556,5.134,3.889,5.134C114.54,68.561,115.94,66.694,115.94,63.738Zm13.846,1.556c.156,2.023,2.178,3.423,4.823,3.423s4.512-1.245,4.512-3.267c0-1.556-1.089-2.489-3.734-3.267l-2.645-.622c-3.734-.933-5.445-2.645-5.445-5.445,0-3.578,2.956-6.068,7.312-6.068s7.312,2.489,7.312,6.068h-2.956c-.156-2.023-1.867-3.267-4.356-3.267s-4.045,1.245-4.045,2.956c0,1.556,1.089,2.334,3.734,2.956l2.178.622c4.045.933,5.756,2.645,5.756,5.6,0,3.734-2.956,6.223-7.934,6.223-4.512,0-7.468-2.334-7.623-6.068C126.831,65.6,129.787,65.293,129.787,65.293Zm19.136-12.6V56.27h2.8V58.6h-2.8v8.246a1.65,1.65,0,0,0,1.867,1.867h.933v2.489c-.311,0-.933.156-1.711.156-2.956,0-4.045-1.089-4.045-3.889V58.6h-2.178V56.114h2.023V52.536Zm4.356,11.046c0-4.667,2.8-7.468,7-7.468,4.356,0,7,2.956,7,7.468,0,4.667-2.8,7.468-7,7.468S153.279,68.4,153.279,63.738Zm11.046,0c0-3.267-1.556-5.134-3.889-5.134-2.489,0-3.889,1.867-3.889,5.134s1.556,5.134,3.889,5.134C162.769,68.716,164.325,66.849,164.325,63.738Zm5.6-7.623h2.8V58.6a3.4,3.4,0,0,1,3.578-2.645,2.648,2.648,0,0,1,1.089.156v2.8a2.675,2.675,0,0,0-1.245-.156c-1.867,0-3.112,1.245-3.112,3.423V71.05h-2.956C169.926,71.05,169.926,56.114,169.926,56.114Zm21.625,10.579c-.311,2.645-2.956,4.512-6.379,4.512-4.356,0-7-2.8-7-7.468s2.645-7.779,7-7.779c4.045,0,6.69,2.8,6.69,7.312V64.36H181.128v.311c0,2.645,1.556,4.2,3.889,4.2a3.393,3.393,0,0,0,3.423-2.023A20.851,20.851,0,0,1,191.551,66.694Zm-10.424-4.512H188.6a3.473,3.473,0,0,0-3.578-3.734C182.839,58.448,181.439,59.848,181.128,62.182ZM74.4,35.267c2.8,0,4.667,1.711,4.667,4.823s-1.711,4.823-4.667,4.823H70.823v-9.8H74.4Zm-1.867,8.4H74.4c2.023,0,3.112-1.245,3.112-3.578s-1.089-3.578-3.112-3.578H72.534ZM80.78,41.49c0-2.489,1.245-3.734,3.578-3.734a3.56,3.56,0,0,1,3.578,3.734c0,2.489-1.245,3.734-3.578,3.734A3.392,3.392,0,0,1,80.78,41.49Zm5.445,0c0-1.711-.778-2.645-2.023-2.645s-2.023.933-2.023,2.645.778,2.645,2.023,2.645A2.548,2.548,0,0,0,86.225,41.49ZM96.8,45.068H95.248l-1.556-5.445h-.156l-1.556,5.445H90.425L88.4,37.756h1.556l1.245,5.6h.156l1.556-5.6h1.245l1.556,5.6h.156l1.245-5.6h1.556C98.982,37.756,96.8,45.068,96.8,45.068Zm3.889-7.312h1.245v1.089h.156a2.163,2.163,0,0,1,2.178-1.245c1.711,0,2.645.933,2.645,2.8v4.667h-1.556V40.556a1.517,1.517,0,0,0-1.556-1.711,1.678,1.678,0,0,0-1.711,1.867v4.356h-1.711C100.694,45.068,100.694,37.756,100.694,37.756ZM109.25,34.8h1.556V45.224H109.25Zm3.423,6.69c0-2.489,1.245-3.734,3.578-3.734a3.56,3.56,0,0,1,3.578,3.734c0,2.489-1.245,3.734-3.578,3.734A3.472,3.472,0,0,1,112.673,41.49Zm5.6,0c0-1.711-.778-2.645-2.023-2.645s-2.023.933-2.023,2.645.778,2.645,2.023,2.645A2.548,2.548,0,0,0,118.274,41.49Zm2.956,1.4q0-1.867,2.8-2.334l2.023-.156v-.622c0-.778-.622-1.089-1.556-1.089a1.717,1.717,0,0,0-1.556.778h-1.556c.156-1.245,1.245-2.023,2.956-2.023,1.867,0,2.8.933,2.8,2.489v5.134H125.9V43.979h-.156a2.2,2.2,0,0,1-2.178,1.089A2.015,2.015,0,0,1,121.23,42.89Zm4.667-.467V41.8l-1.867.156c-.933,0-1.556.311-1.556,1.089a1.1,1.1,0,0,0,1.245,1.089C125.119,43.824,125.9,43.357,125.9,42.423Zm3.423-.933c0-2.334,1.089-3.734,2.956-3.734A2.619,2.619,0,0,1,134.454,39h.156V34.8h1.556V45.224h-1.245V44.135h-.156a2.312,2.312,0,0,1-2.178,1.245C130.409,45.224,129.32,43.668,129.32,41.49Zm1.4,0c0,1.556.778,2.489,2.023,2.489s2.023-.933,2.023-2.489S133.987,39,132.743,39C131.5,38.845,130.72,39.779,130.72,41.49Zm11.513,0c0-2.489,1.245-3.734,3.578-3.734a3.56,3.56,0,0,1,3.578,3.734c0,2.489-1.245,3.734-3.578,3.734A3.392,3.392,0,0,1,142.233,41.49Zm5.445,0c0-1.711-.778-2.645-2.023-2.645s-2.023.933-2.023,2.645.778,2.645,2.023,2.645A2.548,2.548,0,0,0,147.678,41.49Zm3.267-3.734h1.245v1.089h.156a2.163,2.163,0,0,1,2.178-1.245c1.711,0,2.645.933,2.645,2.8v4.667h-1.556V40.556a1.517,1.517,0,0,0-1.556-1.711,1.678,1.678,0,0,0-1.711,1.867v4.356H150.79Zm14.469-2.023V37.6h1.711v1.245h-1.711v3.734c0,.778.311,1.089,1.089,1.089h.622v1.089h-.778c-1.711,0-2.178-.622-2.178-2.023V38.845h-1.089V37.6h1.089V35.733Zm3.734-.933H170.7V39h.156a2.163,2.163,0,0,1,2.178-1.245,2.5,2.5,0,0,1,2.645,2.8v4.667h-1.556V40.868a1.517,1.517,0,0,0-1.556-1.711,1.8,1.8,0,0,0-1.867,1.867v4.356h-1.556C169.3,45.379,169.148,34.8,169.148,34.8Zm14.78,8.4a2.978,2.978,0,0,1-3.112,2.023,3.44,3.44,0,0,1-3.423-3.734c0-2.489,1.245-3.889,3.423-3.889,2.023,0,3.423,1.245,3.423,3.734v.622h-5.29a1.842,1.842,0,0,0,1.867,2.023c.933,0,1.556-.311,1.711-.933C182.528,42.89,183.928,43.2,183.928,43.2Zm-5.134-2.489h3.734a1.8,1.8,0,0,0-1.867-1.867A2,2,0,0,0,178.794,40.712Z" transform="translate(-12.792 -20.954)" fill="#4f5362"/>
  </g>
</svg>
