<svg xmlns="http://www.w3.org/2000/svg" xmlns:xlink="http://www.w3.org/1999/xlink" width="87.333" height="84.121" viewBox="0 0 87.333 84.121">
  <defs>
    <filter id="icons8_chat_3" x="0" y="0" width="87.333" height="84.121" filterUnits="userSpaceOnUse">
      <feOffset dy="3" input="SourceAlpha"/>
      <feGaussianBlur stdDeviation="3" result="blur"/>
      <feFlood flood-opacity="0.161"/>
      <feComposite operator="in" in2="blur"/>
      <feComposite in="SourceGraphic"/>
    </filter>
  </defs>
  <g id="Group_260" data-name="Group 260" transform="translate(9 6)">
    <g transform="matrix(1, 0, 0, 1, -9, -6)" filter="url(#icons8_chat_3)">
      <path id="icons8_chat_3-2" data-name="icons8_chat_3" d="M26.4,0C11.977,0,0,10.409,0,23.487a22.2,22.2,0,0,0,7.38,16.28,10.848,10.848,0,0,1-3.6,4.776c-.847.689-1.671,1.281-2.344,1.867a4.633,4.633,0,0,0-.912.955,2.268,2.268,0,0,0-.347,1.78l.174.521.478.3a8.842,8.842,0,0,0,5.036.781,30.346,30.346,0,0,0,5.774-1.085,62.645,62.645,0,0,0,6.9-2.388c3.875,8.987,13.529,14.978,24.529,14.978a37.305,37.305,0,0,0,5.514-.521c1.9.841,10.186,4.385,15.933,4.385a7.9,7.9,0,0,0,3.951-.868l.521-.3.13-.521c.407-1.487-.852-2.529-2.475-3.82s-3.793-3.023-4.732-5.427a22.413,22.413,0,0,0,7.424-16.411c0-10-7.294-19.027-17.8-22.228C48.217,6.908,38.145,0,26.4,0Zm0,2.779c10.582,0,19.412,6.111,22.4,14.457.011.033.033.054.043.087s.027.087.043.13c.19.548.342,1.085.478,1.65.1.391.146.771.217,1.172.016.1.027.2.043.3.06.369.136.754.174,1.129.005.054-.006.119,0,.174.043.526.087,1.069.087,1.606a17.679,17.679,0,0,1-.13,2.084,18.961,18.961,0,0,1-.347,2.084,18.651,18.651,0,0,1-1.389,3.864,19.8,19.8,0,0,1-2.171,3.517c-.423.548-.906,1.1-1.389,1.606s-.982,1.009-1.519,1.476-1.075.928-1.65,1.346A25.159,25.159,0,0,1,31,43.762a26.554,26.554,0,0,1-4.732.434c-.939,0-1.872-.049-2.779-.13-.043-.006-.087.005-.13,0-.119-.011-.233-.033-.347-.043-.32-.038-.651-.081-.955-.13-.412-.065-.792-.13-1.172-.217l-.434-.13-.434.174a76.64,76.64,0,0,1-9.117,3.3,28.779,28.779,0,0,1-5.253,1,6.129,6.129,0,0,1-1.52-.217c.445-.347.819-.624,1.389-1.085,1.851-1.509,4.13-3.69,4.862-6.946l.174-.825-.608-.564A19.556,19.556,0,0,1,2.779,23.487C2.779,12.113,13.307,2.779,26.4,2.779Z" transform="translate(9 6)" fill="#5b5b5b"/>
    </g>
  </g>
</svg>
