<svg id="icons8_factory" xmlns="http://www.w3.org/2000/svg" width="40.037" height="40.013" viewBox="0 0 40.037 40.013">
  <path id="Path_88" data-name="Path 88" d="M14.35,52.337H8L9.27,19h3.81l.794,20.86L27.05,33.287v6.35l12.668-6.35v19.05Z" transform="translate(-5.778 -13.277)" fill="#fff"/>
  <path id="Path_89" data-name="Path 89" d="M8.667,51.937h5.016L13.4,44H8.952Zm-.317,7.937L8,70.352h6.35L14,59.875Z" transform="translate(-5.778 -30.34)" fill="#ff697d"/>
  <path id="Path_90" data-name="Path 90" d="M38,92.587V98.62h3.175V92.587A1.572,1.572,0,0,0,39.587,91h0A1.572,1.572,0,0,0,38,92.587Zm5.4,0V98.62h3.175V92.587A1.572,1.572,0,0,0,44.985,91h0A1.572,1.572,0,0,0,43.4,92.587Zm5.4,0V98.62H51.97V92.587A1.572,1.572,0,0,0,50.382,91h0A1.572,1.572,0,0,0,48.795,92.587Zm5.4,0V98.62h3.175V92.587A1.572,1.572,0,0,0,55.78,91h0A1.572,1.572,0,0,0,54.192,92.587Z" transform="translate(-26.253 -62.417)" fill="#c3dbea"/>
  <path id="Path_91" data-name="Path 91" d="M58.146,101.9H35.952a.952.952,0,0,1,0-1.9H58.146a.952.952,0,1,1,0,1.9Z" transform="translate(-24.205 -68.56)" fill="#fff"/>
  <path id="Path_92" data-name="Path 92" d="M50.3,81.935a.936.936,0,0,1-.952-.953V63.489l-11.3,5.651a.951.951,0,0,1-.921-.032,1,1,0,0,1-.444-.826V63.489L24.87,69.362a.944.944,0,0,1-.857-1.683l13.176-6.572a.951.951,0,0,1,.921.032.873.873,0,0,1,.476.794v4.794l11.3-5.651a.951.951,0,0,1,.921.032.921.921,0,0,1,.444.825v19.05A.936.936,0,0,1,50.3,81.935Zm-25.368,0a.971.971,0,0,1-.952-.921l-.349-8.6a.953.953,0,1,1,1.9-.064l.349,8.6a.918.918,0,0,1-.921.984Z" transform="translate(-16.361 -41.923)" fill="#3f4a54"/>
  <path id="Path_93" data-name="Path 93" d="M3.222,51.242H1.952a.952.952,0,0,1,0-1.9H2.3L3.54,16.921A.971.971,0,0,1,4.492,16H8.3a.971.971,0,0,1,.952.921l.794,20.86a.953.953,0,1,1-1.9.063L7.382,17.9H5.413L4.175,50.322A.971.971,0,0,1,3.222,51.242Z" transform="translate(-1 -11.23)" fill="#3f4a54"/>
  <path id="Path_94" data-name="Path 94" d="M46.8,3.523a.865.865,0,0,1-.667-.286L46.01,3.11c-.032-.063-.063-.1-.1-.159s-.032-.127-.063-.19c0-.063-.032-.127-.032-.19A.865.865,0,0,1,46.1,1.9a.98.98,0,0,1,1.333,0,.914.914,0,0,1,.286.667.865.865,0,0,1-.286.667A.757.757,0,0,1,46.8,3.523Zm-4.762.667a3.2,3.2,0,0,1-2.254-.921,1.3,1.3,0,0,0-1.841,0,3.2,3.2,0,0,1-4.508,0,1.3,1.3,0,0,0-1.841,0,.921.921,0,0,1-1.333,0,.921.921,0,0,1,0-1.333A3.172,3.172,0,0,1,34.77,1.9a1.3,1.3,0,0,0,1.841,0,3.2,3.2,0,0,1,4.508,0,1.3,1.3,0,0,0,1.841,0,.921.921,0,0,1,1.333,0,.921.921,0,0,1,0,1.333A3.1,3.1,0,0,1,42.041,4.19Zm-22.288.54a.914.914,0,0,1-.667-.286.921.921,0,0,1,0-1.333,5.043,5.043,0,0,1,3.588-1.492h5.08a.935.935,0,0,1,.952.952.935.935,0,0,1-.952.952h-5.08a3.142,3.142,0,0,0-2.254.921A.914.914,0,0,1,19.752,4.729Z" transform="translate(-13.149 -0.975)" fill="#444b54"/>
  <g id="Group_29" data-name="Group 29" transform="translate(11.747 38.108)">
    <path id="Path_95" data-name="Path 95" d="M61.781,122.9H38.952a.952.952,0,0,1,0-1.9H61.781a.952.952,0,1,1,0,1.9Z" transform="translate(-38 -121)" fill="#3f4a54"/>
  </g>
  <g id="Group_30" data-name="Group 30" transform="translate(38.068 38.057)">
    <path id="Path_96" data-name="Path 96" d="M121.852,122.8a.4.4,0,0,1-.19-.032.451.451,0,0,1-.19-.063.692.692,0,0,1-.159-.1.248.248,0,0,1-.127-.127.914.914,0,0,1-.286-.667.4.4,0,0,1,.032-.191.451.451,0,0,1,.064-.19c.032-.064.063-.1.1-.159a.248.248,0,0,1,.127-.127l.127-.127c.064-.032.1-.063.159-.1s.127-.032.191-.063a.941.941,0,0,1,.857.254l.127.127c.032.063.063.1.1.159s.032.127.063.19c0,.064.032.127.032.19a.865.865,0,0,1-.286.667.693.693,0,0,1-.159.127c-.064.032-.1.064-.159.1s-.127.032-.19.063A.342.342,0,0,1,121.852,122.8Z" transform="translate(-120.9 -120.839)" fill="#3f4a54"/>
  </g>
</svg>
