<svg xmlns="http://www.w3.org/2000/svg" width="37.89" height="37.89" viewBox="0 0 37.89 37.89">
  <g id="icons8_favorite_1" transform="translate(-7.9 -7.9)">
    <path id="Path_3651" data-name="Path 3651" d="M7.9,26.845A18.945,18.945,0,1,1,26.845,45.79,18.947,18.947,0,0,1,7.9,26.845Z" transform="translate(0 0)" fill="#e04f5f"/>
    <path id="Path_3652" data-name="Path 3652" d="M126.834,138.993a6.8,6.8,0,0,0-9.621,0h0a6.8,6.8,0,0,0-9.621,0c-2.657,2.657-2.276,6.628,0,9.621,2.405,3.169,6.8,8.392,9.621,8.392h0c2.818,0,7.216-5.231,9.621-8.392C129.11,145.621,129.492,141.65,126.834,138.993Z" transform="translate(-90.368 -119.242)" fill="#fff"/>
  </g>
</svg>
