<svg xmlns="http://www.w3.org/2000/svg" width="380.122" height="125.53" viewBox="0 0 380.122 125.53">
  <g id="Group_259" data-name="Group 259" transform="translate(-1455.493 -3191.47)">
    <g id="Group_24" data-name="Group 24" transform="translate(1455.493 3205.47)">
      <path id="Path_76" data-name="Path 76" d="M103.845,96.759c.061-.07.117-.136.179-.211a19.574,19.574,0,0,1-2.247,5.118v0q-.783,1.149-1.626,2.251a.065.065,0,0,1-.014.019,54.7,54.7,0,0,1-4.253,4.954c-.089.1-.188.2-.291.3a55.709,55.709,0,0,1-25.53,14.913.9.9,0,0,1-.15.042,55.735,55.735,0,0,1-45.279-7.7.674.674,0,0,0-.1-.071,56.519,56.519,0,0,1-6.058-4.752c-.028-.028-.061-.052-.089-.08-.644-.583-1.278-1.184-1.894-1.8-.028-.024-.056-.052-.085-.08A55.736,55.736,0,0,1,55.765,14.44c.085,0,.174,0,.259,0,.395,0,.785,0,1.18.014h.014c1.025.028,2.04.08,3.05.164a.092.092,0,0,0,.033,0c7.478,1.213,13.226,8.056,13.226,16.295a17.078,17.078,0,0,1-1.8,7.666c-.019.047-.042.089-.066.136a15.62,15.62,0,0,1-1.109,1.856c-.813-.409-1.645-.78-2.486-1.114-.066-.028-.136-.056-.2-.08a32.674,32.674,0,0,0-11.9-2.223,32.143,32.143,0,0,0-11.5,2.068.985.985,0,0,1-.108.038,32.8,32.8,0,0,0-18.3,43.944s0,.009.009.014a19.222,19.222,0,0,0,3.459,5.95s0,0,0,.009a32.95,32.95,0,0,0,2.7,3.219c.028.033.056.061.08.089.174.179.343.353.517.526s.352.352.536.522c.028.028.056.056.085.08a32.582,32.582,0,0,0,11.223,6.989c.042.019.08.033.127.052h0a32.837,32.837,0,0,0,11.162,1.941c.207,0,.409,0,.616-.009h.24c.757-.019,1.513-.066,2.261-.136l.122-.014a32.387,32.387,0,0,0,8.319-1.932h0c.038-.014.071-.023.108-.038.8-.31,1.589-.644,2.364-1.01.038-.019.07-.038.1-.052A33,33,0,0,0,85.929,83.069a1.2,1.2,0,0,0,.052-.113,32.49,32.49,0,0,0,2.6-10.476.914.914,0,0,0,.009-.113c.014-.136.024-.536.028-.672a46.438,46.438,0,0,1,5.931,2.195,38.773,38.773,0,0,1,5.334,4.244,20.258,20.258,0,0,1,3.558,6.415l.056.155a19.654,19.654,0,0,1,.432,11.745C103.906,96.553,103.873,96.656,103.845,96.759Z" transform="translate(0 -14.44)" fill="#fa0"/>
      <path id="Path_77" data-name="Path 77" d="M130.1,130.929s9.531-22.922-14.053-29.332C102.595,100.436,87.1,121.933,78,124.405c-10.321,3.14-19.815,2.157-25.3-14.659,0,0,6.716,11.144,17.507,2.2,9.983-10.819,29.473-35.955,36.462-38.751a6.821,6.821,0,0,0,.827-.418c15.04-8.4,30.8,13.545,31.828,22.052,1.175,10.96-2.228,27.255-9.231,36.1Z" transform="translate(-27.931 -44.361)" fill="#fa0"/>
    </g>
    <g id="Group" transform="translate(1569.614 3208.47)">
      <text id="GADAL_MARKET" data-name="GADAL
MARKET" transform="translate(13 48)" fill="#fa0" font-size="60" font-family="SegoeUIBlack, Segoe UI" letter-spacing="0.15em"><tspan x="0" y="0">GADAL</tspan><tspan font-size="50"><tspan x="0" y="45">MARKET</tspan></tspan></text>
    </g>
  </g>
</svg>
