<svg xmlns="http://www.w3.org/2000/svg" width="42.082" height="42.047" viewBox="0 0 42.082 42.047">
  <g id="Group_2" data-name="Group 2" transform="translate(0 13.086)">
    <g id="Layer_1-2" transform="translate(0 -13.086)">
      <g id="Group_1" data-name="Group 1">
        <path id="Path_1" data-name="Path 1" d="M39.15,31.035c.023-.027.044-.051.067-.08a7.379,7.379,0,0,1-.847,1.93v0q-.3.433-.613.849a.024.024,0,0,1-.005.007,20.625,20.625,0,0,1-1.6,1.868c-.034.037-.071.076-.11.113a21,21,0,0,1-9.625,5.622.339.339,0,0,1-.057.016,21.012,21.012,0,0,1-17.07-2.9.254.254,0,0,0-.039-.027,21.308,21.308,0,0,1-2.284-1.791c-.011-.011-.023-.019-.034-.03-.243-.22-.482-.447-.714-.679-.011-.009-.021-.019-.032-.03A21.013,21.013,0,0,1,21.024,0c.032,0,.066,0,.1,0,.149,0,.3,0,.445.005h.005c.386.011.769.03,1.15.062a.035.035,0,0,0,.012,0A6.129,6.129,0,0,1,27.72,6.214a6.438,6.438,0,0,1-.677,2.89c-.007.018-.016.034-.025.051a5.888,5.888,0,0,1-.418.7c-.307-.154-.62-.294-.937-.42l-.076-.03A12.318,12.318,0,0,0,21.1,8.567a12.118,12.118,0,0,0-4.336.78.372.372,0,0,1-.041.014,12.367,12.367,0,0,0-6.9,16.567s0,0,0,.005a7.247,7.247,0,0,0,1.3,2.243s0,0,0,0a12.421,12.421,0,0,0,1.017,1.214l.03.034c.066.067.129.133.195.2s.133.133.2.2c.011.011.021.021.032.03a12.284,12.284,0,0,0,4.231,2.635l.048.019h0a12.38,12.38,0,0,0,4.208.732c.078,0,.154,0,.232,0h.09c.285-.007.571-.025.852-.051l.046-.005a12.21,12.21,0,0,0,3.136-.728h0l.041-.014c.3-.117.6-.243.891-.381l.039-.019A12.441,12.441,0,0,0,32.4,25.873a.453.453,0,0,0,.019-.043,12.249,12.249,0,0,0,.98-3.95.344.344,0,0,0,0-.043c.005-.051.009-.2.011-.253a17.508,17.508,0,0,1,2.236.827,14.617,14.617,0,0,1,2.011,1.6A7.637,7.637,0,0,1,39,26.431l.021.058a7.41,7.41,0,0,1,.163,4.428c-.009.039-.021.078-.032.117Z" transform="translate(0 0)" fill="#e78e1e"/>
        <path id="Path_2" data-name="Path 2" d="M81.88,79.087s3.593-8.642-5.3-11.058c-5.071-.438-10.913,7.667-14.343,8.6-3.891,1.184-7.47.813-9.538-5.527,0,0,2.532,4.2,6.6.829,3.764-4.079,11.112-13.555,13.746-14.609a2.573,2.573,0,0,0,.312-.158c5.67-3.168,11.611,5.107,12,8.314.443,4.132-.84,10.275-3.48,13.61Z" transform="translate(-43.362 -46.45)" fill="#e78e1e"/>
      </g>
    </g>
  </g>
</svg>
