<svg id="icons8_google" xmlns="http://www.w3.org/2000/svg" width="39.754" height="39.754" viewBox="0 0 39.754 39.754">
  <path id="Path_3527" data-name="Path 3527" d="M43.368,19.984h-1.6V19.9H23.877v7.951H35.111a11.936,11.936,0,1,1-3.321-12.881l5.622-5.622a19.857,19.857,0,1,0,6.343,14.528A20.013,20.013,0,0,0,43.368,19.984Z" transform="translate(-4 -4)" fill="#ffc107"/>
  <path id="Path_3528" data-name="Path 3528" d="M6.306,14.625l6.531,4.789A11.9,11.9,0,0,1,31.8,14.971l5.622-5.622a19.838,19.838,0,0,0-31.12,5.276Z" transform="translate(-4.014 -4)" fill="#ff3d00"/>
  <path id="Path_3529" data-name="Path 3529" d="M23.891,43.9a19.784,19.784,0,0,0,13.327-5.16l-6.152-5.206a11.9,11.9,0,0,1-18.388-5.482L6.2,33.048A19.862,19.862,0,0,0,23.891,43.9Z" transform="translate(-4.013 -4.148)" fill="#4caf50"/>
  <path id="Path_3530" data-name="Path 3530" d="M43.491,20.082h-1.6V20H24v7.951H35.234a11.966,11.966,0,0,1-4.062,5.537l0,0,6.152,5.206a19.228,19.228,0,0,0,6.551-14.716A20.013,20.013,0,0,0,43.491,20.082Z" transform="translate(-4.123 -4.098)" fill="#1976d2"/>
</svg>
