<svg xmlns="http://www.w3.org/2000/svg" width="43.364" height="44.479" viewBox="0 0 43.364 44.479">
  <g id="icons8_crane" transform="translate(-0.001 1)">
    <path id="Path_2319" data-name="Path 2319" d="M30,23.723V13.689h6.689V7" transform="translate(-2.128 -4.77)" fill="none" stroke="#607d8b" stroke-linejoin="bevel" stroke-width="2"/>
    <path id="Path_2320" data-name="Path 2320" d="M39,37.33a2.23,2.23,0,1,0,3.4-1.9,2.469,2.469,0,0,1-1.173-2.1V5" transform="translate(-1.095 -5)" fill="none" stroke="#607d8b" stroke-width="2"/>
    <path id="Path_2321" data-name="Path 2321" d="M42.345,30.23h-2.23A1.118,1.118,0,0,1,39,29.115h0A1.118,1.118,0,0,1,40.115,28h2.23a1.118,1.118,0,0,1,1.115,1.115h0A1.118,1.118,0,0,1,42.345,30.23Z" transform="translate(-1.095 -2.359)" fill="#37474f"/>
    <path id="Path_2322" data-name="Path 2322" d="M24,20.608,39.608,5h3.345v.139L28.459,27.3" transform="translate(-2.817 -5)" fill="none" stroke="#607d8b" stroke-width="2"/>
    <path id="Path_2323" data-name="Path 2323" d="M12,30H27.608v4.459H12Z" transform="translate(-4.196 -2.129)" fill="#fb8c00"/>
    <path id="Path_2324" data-name="Path 2324" d="M11.017,44.034a5.017,5.017,0,1,1,0-10.034H31.084a5.017,5.017,0,0,1,0,10.034Z" transform="translate(-4.885 -1.67)" fill="#37474f"/>
    <path id="Path_2325" data-name="Path 2325" d="M31.2,35.23a3.9,3.9,0,0,1,0,7.8H11.132a3.9,3.9,0,0,1,0-7.8H31.2m0-2.23H11.132A6.15,6.15,0,0,0,5,39.132H5a6.15,6.15,0,0,0,6.132,6.132H31.2a6.15,6.15,0,0,0,6.132-6.132h0A6.15,6.15,0,0,0,31.2,33Z" transform="translate(-4.999 -1.784)" fill="#607d8b"/>
    <path id="Path_2326" data-name="Path 2326" d="M10.787,39.412a1.672,1.672,0,1,0,1.672,1.672A1.677,1.677,0,0,0,10.787,39.412Zm6.689,0a1.672,1.672,0,1,0,1.672,1.672A1.677,1.677,0,0,0,17.476,39.412Zm6.689,0a1.672,1.672,0,1,0,1.672,1.672A1.677,1.677,0,0,0,24.165,39.412Zm6.689,0a1.672,1.672,0,1,0,1.672,1.672A1.677,1.677,0,0,0,30.854,39.412ZM8,18.23V30.493a2.229,2.229,0,0,0,2.23,2.23H30.3a2.229,2.229,0,0,0,2.23-2.23V27.258a3.564,3.564,0,0,0-.751-2.19l-6.1-7.84A3.183,3.183,0,0,0,23.166,16H10.23A2.229,2.229,0,0,0,8,18.23Z" transform="translate(-4.655 -3.737)" fill="#ffc107"/>
    <g id="Group_82" data-name="Group 82" transform="translate(13.219 12.263)">
      <path id="Path_2327" data-name="Path 2327" d="M21.049,27.034,18.184,17H22a2.052,2.052,0,0,1,1.63.8l6.1,7.84a2.478,2.478,0,0,1,.514,1.4Z" transform="translate(-16.705 -15.885)" fill="#bbdefb"/>
      <path id="Path_2328" data-name="Path 2328" d="M22.149,18.23a.945.945,0,0,1,.751.368l5.784,7.436H22.042l-2.23-7.8h2.337m0-2.23H16.857l3.5,12.263H31.509V27.258a3.564,3.564,0,0,0-.751-2.19l-6.1-7.84A3.183,3.183,0,0,0,22.149,16Z" transform="translate(-16.857 -16)" fill="#37474f"/>
    </g>
  </g>
</svg>
