<svg xmlns="http://www.w3.org/2000/svg" width="37.115" height="37.4" viewBox="0 0 37.115 37.4">
  <g id="icons8_brown_curly_hair_lady_with_yellow_glasses" transform="translate(-10.5 -10.6)">
    <path id="Path_3626" data-name="Path 3626" d="M20.328,42.553a.428.428,0,1,0,.428.428A.428.428,0,0,0,20.328,42.553ZM48.4,30.8a.333.333,0,1,0,.333.333A.333.333,0,0,0,48.4,30.8Z" transform="translate(-4.927 -10.588)" fill="#fff"/>
    <path id="Path_3627" data-name="Path 3627" d="M47.375,11.6a.428.428,0,1,0,.428.428A.428.428,0,0,0,47.375,11.6ZM20.728,36.153a.428.428,0,1,0,.428.428.428.428,0,0,0-.428-.428Z" transform="translate(-5.137 -0.524)" fill="#f1bc19"/>
    <path id="Path_3628" data-name="Path 3628" d="M30.644,12.2A17.844,17.844,0,1,0,48.487,30.044,17.844,17.844,0,0,0,30.644,12.2Z" transform="translate(-1.206 -0.839)" fill="#cee1f4"/>
    <path id="Path_3629" data-name="Path 3629" d="M80.5,10.6a1.9,1.9,0,1,0,1.9,1.9A1.9,1.9,0,0,0,80.5,10.6Z" transform="translate(-35.696)" fill="#f1bc19"/>
    <path id="Path_3630" data-name="Path 3630" d="M85.6,21.8a.9.9,0,1,0,.9.9.9.9,0,0,0-.9-.9Z" transform="translate(-38.893 -5.871)" fill="#78a0cf"/>
    <path id="Path_3631" data-name="Path 3631" d="M42.428,66.337a.9.9,0,1,0,.9.9A.9.9,0,0,0,42.428,66.337ZM12.4,59.2a1.9,1.9,0,1,0,1.9,1.9A1.9,1.9,0,0,0,12.4,59.2Z" transform="translate(0 -25.475)" fill="#fbcd59"/>
    <path id="Path_3632" data-name="Path 3632" d="M23.7,85.4a.9.9,0,1,0,.9.9A.9.9,0,0,0,23.7,85.4Z" transform="translate(-6.447 -39.208)" fill="#78a0cf"/>
    <path id="Path_3633" data-name="Path 3633" d="M44.535,28.2a.856.856,0,1,0,.856.856.856.856,0,0,0-.856-.856ZM16.89,37.907a1.19,1.19,0,1,0,1.19,1.19A1.19,1.19,0,0,0,16.89,37.907Z" transform="translate(-2.726 -9.225)" fill="#fff"/>
    <path id="Path_3634" data-name="Path 3634" d="M30.843,29.062a.943.943,0,0,0,.523.523l.048.048v.048a.858.858,0,0,0-.1.476v.1a.956.956,0,0,0,.19.619l.19.238-.1.1a.654.654,0,0,0-.238.381.783.783,0,0,0-.1.476v.1a1.267,1.267,0,0,0,.143.571l.238.238c.048.048.1.1.143.1l-.1.1a1.012,1.012,0,0,0-.333.714.513.513,0,0,0,.1.381.551.551,0,0,0,.238.333.854.854,0,0,0,.333.238,1.12,1.12,0,0,0,.381.1h.143a1.048,1.048,0,0,0-.238.761,1.431,1.431,0,0,0,1.427,1.19v.1a1.524,1.524,0,0,0,1.475,1.523,3.213,3.213,0,0,0,.666-.1,1.347,1.347,0,0,0,1.38.856.959.959,0,0,0,.523-.143h0l.143.238a1.123,1.123,0,0,0,.761.333,1.317,1.317,0,0,0,.428-.048.956.956,0,0,0,.381-.19c.1-.048.143-.143.19-.19a.371.371,0,0,0,.19.19.587.587,0,0,0,.381.19.672.672,0,0,0,.428.048,1.123,1.123,0,0,0,.761-.333L41.6,39.1h0a.959.959,0,0,0,.523.143,1.347,1.347,0,0,0,1.38-.856,1.405,1.405,0,0,0,.619.1,1.524,1.524,0,0,0,1.475-1.523v-.1a1.431,1.431,0,0,0,1.427-1.19,1.083,1.083,0,0,0-.19-.761h.143a.9.9,0,0,0,.381-.1.551.551,0,0,0,.333-.238,1.049,1.049,0,0,0,.285-.714.909.909,0,0,0-.333-.666l-.1-.1c.048-.048.1-.1.143-.1l.238-.238a.956.956,0,0,0,.19-.619v-.1a.858.858,0,0,0-.1-.476,1.036,1.036,0,0,0-.238-.381l-.1-.1.19-.238a1.047,1.047,0,0,0,.19-.619v-.1a1.691,1.691,0,0,0-.1-.476.047.047,0,0,0-.048-.048l.048-.048a.943.943,0,0,0,.523-.523.8.8,0,0,0-.048-.666l-.1-.19a.953.953,0,0,0-.571-.476.6.6,0,0,0-.285-.048.361.361,0,0,0-.1-.19.475.475,0,0,0-.19-.238.411.411,0,0,0-.285-.143.81.81,0,0,0-.333-.048h-.1a.959.959,0,0,0,.143-.523v-.1a.9.9,0,0,0-.1-.381.853.853,0,0,0-.238-.333.956.956,0,0,0-.381-.19.564.564,0,0,0-.381-.048l-.285.048h-.1a2.061,2.061,0,0,0-.048-.238,1.69,1.69,0,0,0-.19-.428.74.74,0,0,0-.381-.285.8.8,0,0,0-.476-.143h-.333c-.1,0-.19.048-.285.048a1.041,1.041,0,0,0-.476-.428.767.767,0,0,0-.428-.143h-.285a.633.633,0,0,0-.381.143,1.653,1.653,0,0,0-2.284-.333h0a1.494,1.494,0,0,0-1-.333,1.517,1.517,0,0,0-1.285.666,3.278,3.278,0,0,0-.381-.143h-.285a.767.767,0,0,0-.428.143.853.853,0,0,0-.333.238c-.048.048-.1.143-.143.19a.6.6,0,0,0-.285-.048h-.333a.8.8,0,0,0-.476.143.74.74,0,0,0-.381.285.6.6,0,0,0-.19.428.517.517,0,0,0-.048.238h-.1l-.285-.048a.707.707,0,0,0-.428.1.767.767,0,0,0-.333.19.854.854,0,0,0-.238.333,1.12,1.12,0,0,0-.1.381v.048a.959.959,0,0,0,.143.523h.1a.81.81,0,0,0-.333.048l-.285.143a.475.475,0,0,0-.19.238c-.048.048-.048.143-.1.19a.929.929,0,0,0-.333.048,1.111,1.111,0,0,0-.571.476l-.1.238A.711.711,0,0,0,30.843,29.062Z" transform="translate(-10.636 -6.709)" fill="#472b29"/>
    <path id="Path_3635" data-name="Path 3635" d="M48.056,35.884c.048-.714-.143-1.332-.1-1.713h0a8.855,8.855,0,0,0-1.9-2.284,11.332,11.332,0,0,0-3.236-1.332c-2.712-.666-5.377,1.285-6.233,3.854v.048c.1.476.143.952.19,1.38-.714,0-1.094.381-.856,1.142,0,0,.285,1.237.476,1.856a.717.717,0,0,0,.714.571V40.6a2.226,2.226,0,0,0,.428,1.332c.714,1.047,4.378,3.426,5.282,3.331,1.427,0,4.282-2.427,5.044-3.664a1.6,1.6,0,0,0,.238-.809V39.358a.834.834,0,0,0,.619-.571c.19-.619.476-1.856.476-1.856C49.388,36.265,48.817,35.884,48.056,35.884Z" transform="translate(-13.288 -10.391)" fill="#a3754f"/>
    <path id="Path_3636" data-name="Path 3636" d="M43.1,27.9a5.654,5.654,0,0,0-5.9,5.377,2.242,2.242,0,0,0,.19.809c.714-2.617,4-3.9,5.71-3.9s4.949,1.094,5.71,3.9a2.242,2.242,0,0,0,.19-.809A5.623,5.623,0,0,0,43.1,27.9Z" transform="translate(-13.995 -9.068)" fill="#78a0cf"/>
    <path id="Path_3637" data-name="Path 3637" d="M47.277,62.992l-.143-.048-.285-.1c-.619-.285-4.425-1.618-4.425-1.618a.715.715,0,0,1-.571-.523,4.5,4.5,0,0,1-.1-1.38,10.946,10.946,0,0,1-2,.666c-.9.1-2.474-1.094-2.474-1.094s-.048,1.427-.1,1.761a.776.776,0,0,1-.619.523l-3.664,1.237a4.039,4.039,0,0,0-1.047.428,3.968,3.968,0,0,0-1.57,2.236h0c0,.1-.048.19-.048.285a3.213,3.213,0,0,0-.1.666c0,.238-.048,3.331-.048,3.569,3.616,2.046,6.519,2.617,11.563,2.617,2.189,0,5.52-1.808,7.471-2.569C48.848,65.229,49.276,63.611,47.277,62.992Z" transform="translate(-10.274 -25.317)" fill="#895f3f"/>
    <g id="Group_534" data-name="Group 534" transform="translate(24.918 28.634)" opacity="0.3">
      <path id="Path_3638" data-name="Path 3638" d="M41.752,48.5a.952.952,0,1,0,.952.952A.952.952,0,0,0,41.752,48.5Zm7.185,0a.952.952,0,1,0,.952.952A.952.952,0,0,0,48.937,48.5Z" transform="translate(-40.8 -48.5)" fill="#f4989e" opacity="0.8"/>
    </g>
    <path id="Path_3639" data-name="Path 3639" d="M38.176,45.435a.1.1,0,0,1-.1-.1L37.7,41.533a.1.1,0,1,1,.19,0l.381,3.807c.048.048,0,.1-.1.1Zm10.706-.19h0a.1.1,0,0,1-.1-.1l.238-3.854a.1.1,0,0,1,.19,0l-.238,3.854A.1.1,0,0,1,48.882,45.245Z" transform="translate(-14.257 -16.04)" fill="#472b29"/>
    <path id="Path_3640" data-name="Path 3640" d="M46.648,54.6c0,.1-.048.143-.048.238,0,.666.714,1.19,1.665,1.19s1.665-.523,1.665-1.19a.429.429,0,0,0-.048-.238Z" transform="translate(-18.923 -23.064)" fill="#6d1b18"/>
    <path id="Path_3641" data-name="Path 3641" d="M50.013,56.975a1.173,1.173,0,0,0-.856-.285,1.11,1.11,0,0,0-.856.285,1.866,1.866,0,0,0,.856.19A4.526,4.526,0,0,0,50.013,56.975Z" transform="translate(-19.814 -24.154)" fill="#ee3e54"/>
    <path id="Path_3642" data-name="Path 3642" d="M47.7,54.548h0v.19c0,.19.238.333.523.333h1.237c.285,0,.523-.143.523-.333V54.5Z" transform="translate(-19.499 -23.011)" fill="#fdfcef"/>
    <path id="Path_3643" data-name="Path 3643" d="M48.213,56.018c-.952,0-1.713-.571-1.713-1.285a.357.357,0,0,1,.048-.238.1.1,0,0,1,.1-.1h3.236a.166.166,0,0,1,.1.048.517.517,0,0,1,.048.238A1.669,1.669,0,0,1,48.213,56.018ZM46.69,54.59v.143c0,.619.714,1.094,1.523,1.094.856,0,1.523-.476,1.523-1.094V54.59Z" transform="translate(-18.87 -22.959)" fill="#472b29"/>
    <path id="Path_3644" data-name="Path 3644" d="M38.16,64.333c-.1,4.282,8.279,4.568,7.708-.333l2.332.809.714,9.136S41.681,76.7,35.4,73.517l.333-8.375Z" transform="translate(-13.052 -27.991)" fill="#78a0cf"/>
    <path id="Path_3645" data-name="Path 3645" d="M49.012,52.223a1.2,1.2,0,0,0,.952-.428c.048-.048.048-.048,0-.1h-.1a1.3,1.3,0,0,1-1.713,0h-.1c-.048.048-.048.048,0,.1A1.466,1.466,0,0,0,49.012,52.223Zm.428,3.188h0a.066.066,0,0,0,0-.1h-.856a.047.047,0,0,0-.048.048c0,.048,0,.048.048.048h.856Z" transform="translate(-19.67 -21.543)" fill="#472b29" opacity="0.41"/>
    <path id="Path_3646" data-name="Path 3646" d="M44.116,40.249a9.784,9.784,0,0,0-3.521-.381.1.1,0,0,0,0,.19c1.047.19,2.141.381,3.188.666h.048c.048,0,.048,0,.1-.048l.285-.333v-.1A.066.066,0,0,1,44.116,40.249Zm1.9-.1a9.977,9.977,0,0,1,3.569-.19.1.1,0,0,1,0,.19,30.2,30.2,0,0,0-3.188.523h-.048c-.048,0-.048,0-.1-.048l-.285-.333v-.1A.047.047,0,0,1,46.02,40.154Z" transform="translate(-15.725 -15.326)" fill="#512c2b"/>
    <path id="Path_3647" data-name="Path 3647" d="M43.766,42.8a.618.618,0,0,0-.571.381h.1a.371.371,0,0,1,.333.428.325.325,0,0,1-.333.333.286.286,0,0,1-.19-.048.758.758,0,0,0,.666.619.877.877,0,0,0,.666-1.047.942.942,0,0,0-.666-.666ZM49,42.8a.827.827,0,0,0-.523.285c.048,0,.1-.048.143-.048a.371.371,0,0,1,.333.428.325.325,0,0,1-.333.333.261.261,0,0,1-.285-.19.71.71,0,0,0,1.38-.333A.732.732,0,0,0,49,42.8Zm-2.379,8.85a8.6,8.6,0,0,1-2.474-.809c-.048-.048-.1-.1-.048-.143s.1-.1.143-.048a6.957,6.957,0,0,0,2.427.809,6.25,6.25,0,0,0,2.046-.761.106.106,0,0,1,.1.19,6.865,6.865,0,0,1-2.141.809C46.669,51.65,46.669,51.65,46.621,51.65Z" transform="translate(-17.088 -16.878)" fill="#472b29"/>
    <path id="Path_3648" data-name="Path 3648" d="M42.791,41.54C41.7,40.256,37.7,41.16,37.7,41.16a5.533,5.533,0,0,1,.19.856c.285.048.333.714.333.952a2.3,2.3,0,0,0,2.617,2.046,2.113,2.113,0,0,0,2.141-2.046h0A2.975,2.975,0,0,0,42.791,41.54Zm-.19,1.475a1.788,1.788,0,0,1-1.761,1.761H40.46c-1.665,0-1.951-1.475-2-2.379a1,1,0,0,1,.9-1.047,7.709,7.709,0,0,1,1.047-.048c1.237,0,1.808.285,1.951.523A2.145,2.145,0,0,1,42.6,43.015Zm1.38-.048a2.054,2.054,0,0,0,2.141,2.046h0a2.269,2.269,0,0,0,2.617-2.046c.048-.238.048-.9.333-.952.048-.285.143-.571.19-.856,0,0-4.045-.9-5.091.381A2.975,2.975,0,0,0,43.981,42.968Zm.619-1.094c.143-.238.666-.523,1.951-.523A7.71,7.71,0,0,1,47.6,41.4a1.034,1.034,0,0,1,.9,1.047c-.048.9-.333,2.379-2,2.379H46.17a1.755,1.755,0,0,1-1.808-1.713v-.048A2.067,2.067,0,0,1,44.6,41.873Z" transform="translate(-14.257 -15.856)" fill="#f1bc19"/>
    <path id="Path_3649" data-name="Path 3649" d="M49.513,43.819a1.438,1.438,0,0,0-.761-.238,1.075,1.075,0,0,0-.714.238c-.1-.19-.143-.381-.238-.619h1.9C49.656,43.438,49.561,43.628,49.513,43.819Z" transform="translate(-19.552 -17.088)" fill="#f1bc19"/>
    <path id="Path_3650" data-name="Path 3650" d="M39.492,56.15a18.133,18.133,0,0,1-9.707-2.807.247.247,0,0,1-.1-.19V53.1c-.1-3.759.523-6.043,1.9-6.709a4.365,4.365,0,0,1,1.094-.428l3.664-1.237a.578.578,0,0,0,.476-.381,9.841,9.841,0,0,0,.1-1.38,12.061,12.061,0,0,1-2.76-2.236,2.079,2.079,0,0,1-.428-1.475v-.952a1.052,1.052,0,0,1-.714-.761c-.19-.571-.476-1.808-.476-1.856a1.045,1.045,0,0,1,.1-1.047,1.028,1.028,0,0,1,.761-.381v-.19a2.888,2.888,0,0,1-.238-.856A5.907,5.907,0,0,1,39.3,27.6a5.907,5.907,0,0,1,6.138,5.615,1.968,1.968,0,0,1-.238.9v.143a1.217,1.217,0,0,1,.9.476.975.975,0,0,1,.1,1h0c-.048.285-.333,1.427-.476,1.856a.9.9,0,0,1-.571.666V39.5a1.968,1.968,0,0,1-.238.9,11.584,11.584,0,0,1-3.045,2.855,4.261,4.261,0,0,0,.1,1.094.63.63,0,0,0,.428.333c.19.048,3.854,1.285,4.473,1.57l.428.143c1.808.571,1.856,2.9,1.951,6.091v.761a.247.247,0,0,1-.1.19A18.919,18.919,0,0,1,39.492,56.15Zm-9.374-3.14a17.742,17.742,0,0,0,18.51.143v-.619c-.1-3.14-.143-5.234-1.618-5.662h0l-.428-.19c-.571-.238-4.378-1.523-4.425-1.523a1.008,1.008,0,0,1-.714-.666,4.7,4.7,0,0,1-.143-1.38.247.247,0,0,1,.1-.19,10.551,10.551,0,0,0,3-2.807,1.549,1.549,0,0,0,.19-.666V38.021a.218.218,0,0,1,.19-.238c.19-.048.381-.19.381-.381a17.766,17.766,0,0,0,.476-1.856c.1-.285.1-.476-.048-.619a.937.937,0,0,0-.761-.285.286.286,0,0,1-.19-.048.247.247,0,0,1-.1-.19c0-.381,0-.571.1-.666a1.52,1.52,0,0,0,.143-.666,5.432,5.432,0,0,0-5.662-5.139,5.4,5.4,0,0,0-5.662,5.139,1.994,1.994,0,0,0,.19.714v.048a1.952,1.952,0,0,1,.048.523.286.286,0,0,1-.048.19.247.247,0,0,1-.19.1.956.956,0,0,0-.619.19c-.143.19-.048.428,0,.619,0,.048.285,1.285.476,1.856a.506.506,0,0,0,.476.428h0c.048,0,.143.048.19.048.048.048.048.1.048.19V39.21A1.784,1.784,0,0,0,34.4,40.4a12.07,12.07,0,0,0,2.76,2.189.361.361,0,0,1,.1.19c0,.333-.1,1.332-.143,1.618a1.1,1.1,0,0,1-.809.761l-3.521,1.19a4.517,4.517,0,0,0-1,.428C30.927,47.2,30.023,48.632,30.118,53.009Z" transform="translate(-10.054 -8.911)" fill="#472b29"/>
  </g>
</svg>
