<svg id="icons8_mazda" xmlns="http://www.w3.org/2000/svg" width="64.486" height="52.779" viewBox="0 0 64.486 52.779">
  <path id="Path_2837" data-name="Path 2837" d="M34.243,10.4c16.18,0,26.381,7.952,26.381,21.984S51.53,54.365,34.243,54.365,7.862,46.428,7.862,32.381,18.063,10.4,34.243,10.4Zm0-4.4c19.988,0,32.243,9.343,32.243,26.381S55.6,58.761,34.243,58.761,2,49.439,2,32.381,14.255,6,34.243,6Z" transform="translate(-2 -6)" fill="#d5d8f0" fill-rule="evenodd"/>
  <path id="Path_2838" data-name="Path 2838" d="M32.874,40.161C28.146,30.074,23.6,29.228,7.959,24.04a11.447,11.447,0,0,1-3.018-1.81l3.1-7.759c.856.352,1.543,1.477,2.845,2.241a59.649,59.649,0,0,0,7.328,2.931c7.494,2.625,12,6.148,14.656,11.725Zm0,0C37.6,30.074,42.144,29.228,57.789,24.04a6.962,6.962,0,0,0,3.018-1.81l-3.1-7.759a9.621,9.621,0,0,1-2.845,2.241,59.65,59.65,0,0,1-7.328,2.931c-7.494,2.625-12,6.148-14.656,11.725Z" transform="translate(-0.631 -2.056)" fill="#d5d8f0" fill-rule="evenodd"/>
  <path id="Path_2839" data-name="Path 2839" d="M9.752,38.984,5.424,36.053S1.6,22.323,6.889,17C15.7,19.928,33.67,27.385,33.27,38.984c-3.447-8.009-8.9-10.187-8.9-10.187C18.5,25.915,13.527,24.558,8.354,22.859l-1.011-.434C7.156,23.378,5.614,32.088,9.752,38.984Z" transform="translate(-1.027 -0.878)" fill="#7984cd" fill-rule="evenodd"/>
  <path id="Path_2840" data-name="Path 2840" d="M47.524,38.984l4.328-2.931S55.673,22.323,50.386,17c-8.808,2.928-26.781,10.385-26.379,21.984,3.447-8.009,8.9-10.187,8.9-10.187,5.873-2.881,10.844-4.239,16.017-5.937l1.011-.434C50.121,23.378,51.661,32.088,47.524,38.984Z" transform="translate(8.243 -0.878)" fill="#7984cd" fill-rule="evenodd"/>
  <path id="Path_2841" data-name="Path 2841" d="M8.589,19.095s-.72-.491-.583-2.3S13.932,8,31.455,8s23.423,8.794,23.423,8.794a3.661,3.661,0,0,1-.5,2.371c-.363-.252-5.181-9.726-22.923-9.7C13.689,9.518,8.984,18.835,8.589,19.095Z" transform="translate(0.788 -5.069)" fill="#9fa6dc" fill-rule="evenodd"/>
  <path id="Path_2842" data-name="Path 2842" d="M3,30.95A26.726,26.726,0,0,1,2.326,28l3.913,2.95C9.365,40.5,18.047,47.089,34.085,47.072,50,47.053,58.772,40.458,61.938,30.931L65.857,28a23.213,23.213,0,0,1-.721,2.947h.038c-3.317,11.43-13.755,17.587-31.088,17.587S6.308,42.391,3,30.949H3Z" transform="translate(-1.848 4.243)" fill="#7984cd" fill-rule="evenodd"/>
</svg>
