<svg xmlns="http://www.w3.org/2000/svg" width="47.46" height="40.339" viewBox="0 0 47.46 40.339">
  <g id="icons8_harvester" transform="translate(0 0)">
    <path id="Path_3510" data-name="Path 3510" d="M26.346,20.486,35.4,3.5h6.548V7.059H37.446L29.268,22.247Z" transform="translate(4.914 -2.907)" fill="#f5ce85"/>
    <path id="Path_3511" data-name="Path 3511" d="M41.484,4.186V6.559H37.216l-.336.624L29.166,21.511l-1.907-1.148L35.886,4.186h5.6M42.67,3h-7.5L25.682,20.8l3.937,2.373L37.924,7.746H42.67V3Z" transform="translate(4.79 -3)" fill="#967a44"/>
    <path id="Path_3512" data-name="Path 3512" d="M9.542,23.3,10.676,9.306A4.178,4.178,0,0,1,14.815,5.5H29.07a4.177,4.177,0,0,1,4.139,3.807l1.15,13.99Z" transform="translate(1.78 -2.534)" fill="#c2e8ff"/>
    <path id="Path_3513" data-name="Path 3513" d="M29.171,6.186a3.581,3.581,0,0,1,3.548,3.263l1.1,13.348H10.286L11.368,9.45a3.581,3.581,0,0,1,3.548-3.264H29.171m0-1.186H14.916a4.747,4.747,0,0,0-4.729,4.352L9,23.983H35.1L33.9,9.352A4.747,4.747,0,0,0,29.171,5Z" transform="translate(1.679 -2.627)" fill="#967a44"/>
    <path id="Path_3514" data-name="Path 3514" d="M5.5,26.387V20.653A4.157,4.157,0,0,1,9.653,16.5h26.1a4.157,4.157,0,0,1,4.153,4.153v5.734Z" transform="translate(1.026 -0.483)" fill="#f5ce85"/>
    <path id="Path_3515" data-name="Path 3515" d="M35.849,17.186a3.564,3.564,0,0,1,3.56,3.559v5.141H6.187V20.746a3.564,3.564,0,0,1,3.56-3.559h26.1m0-1.186H9.746A4.746,4.746,0,0,0,5,20.746v6.327H40.6V20.746A4.746,4.746,0,0,0,35.849,16Z" transform="translate(0.933 -0.576)" fill="#967a44"/>
    <path id="Path_3516" data-name="Path 3516" d="M1.916,38.737.5,34.489v-5.74L1.916,24.5H45.358l1.416,4.249v5.74l-1.416,4.249Z" transform="translate(0.094 1.009)" fill="#dcd5f2"/>
    <path id="Path_3517" data-name="Path 3517" d="M45.023,25.186l1.251,3.752v5.547l-1.251,3.753H2.437L1.187,34.486V28.939l1.251-3.753H45.023M45.879,24H1.582L0,28.746v5.932l1.582,4.746h44.3l1.583-4.746V28.746L45.879,24Z" transform="translate(0 0.916)" fill="#8b75a1"/>
    <path id="Path_3518" data-name="Path 3518" d="M34.679,38.9l1.385-4.944V29.215l-1.385-4.548M12.532,38.9l-1.385-4.944V29.215l1.385-4.548m34.012,4.548H.667m45.877,4.746H.667" transform="translate(0.125 1.04)" fill="none" stroke="#8b75a1" stroke-width="1"/>
    <path id="Path_3519" data-name="Path 3519" d="M12.373,18a2.373,2.373,0,1,0,2.373,2.373A2.373,2.373,0,0,0,12.373,18Zm18.984,0a2.373,2.373,0,1,0,2.373,2.373A2.373,2.373,0,0,0,31.357,18Z" transform="translate(1.865 -0.203)" fill="#fff"/>
  </g>
</svg>
