<svg xmlns="http://www.w3.org/2000/svg" width="76.991" height="77.043" viewBox="0 0 76.991 77.043">
  <path id="icons8_suzuki" d="M40.344,2.007a1.663,1.663,0,0,0-.889.471c-2.753,2.6-9.932,7.186-17.314,11.3S7.036,21.662,3.2,22.983a1.677,1.677,0,0,0-.471,2.877L27.109,44.325a24.724,24.724,0,0,0-6.9-1.883c-5.434-.582-11.783.8-17.68,6.172a1.669,1.669,0,0,0,.157,2.563L39.3,78.692a1.671,1.671,0,0,0,2.145-.1c3.158-2.851,10.22-7.6,17.314-11.822s14.391-8.049,17.628-9.1a1.676,1.676,0,0,0,.523-2.877L53.735,37.264c.595.164,1.19.333,1.935.471a34.267,34.267,0,0,0,7.323.575c5.5-.183,11.913-1.811,15.693-7.114a1.675,1.675,0,0,0-.366-2.3L41.6,2.321A1.687,1.687,0,0,0,40.344,2.007ZM40.6,5.721l34.21,24.742c-3.014,3.106-7.559,4.348-11.926,4.5a31.135,31.135,0,0,1-6.643-.523A19.6,19.6,0,0,1,54,33.916c-.53-.17-.85-.333-.837-.314l-.052-.052L34.433,19.531a1.678,1.678,0,0,0-1.988-.052l-2.2,1.465a1.672,1.672,0,0,0-.052,2.72L72.618,55.781a135.1,135.1,0,0,0-15.536,8.108A139.66,139.66,0,0,0,40.344,75.24L6.447,49.87a18.334,18.334,0,0,1,13.443-4.132,23.266,23.266,0,0,1,11.089,4.5L46.987,62.32a1.672,1.672,0,0,0,2.145-.1l1.779-1.622a1.669,1.669,0,0,0-.157-2.563L6.918,24.866a152.643,152.643,0,0,0,16.843-8.16C30.673,12.861,36.963,8.84,40.6,5.721Z" transform="translate(-1.999 -1.989)" fill="#5b5b5b"/>
</svg>
