<svg id="icons8_ford" xmlns="http://www.w3.org/2000/svg" width="104.398" height="43.499" viewBox="0 0 104.398 43.499">
  <path id="Path_2817" data-name="Path 2817" d="M104.079,34.236c.02.1.035.189.05.285-.013-.094-.033-.189-.05-.285M52.2,14C23.224,14,0,24.86,0,35.747,0,46.57,23.416,57.5,52.2,57.5s52.2-10.957,52.2-21.752S80.983,14,52.2,14" transform="translate(0 -14)" fill="#303f9f"/>
  <path id="Path_2818" data-name="Path 2818" d="M51.024,17.175c29.179,0,46.579,10.91,47.784,16.793l0,.03.022.1a3.005,3.005,0,0,1,.039.481c0,6.136-18.167,17.4-47.849,17.4S3.175,40.708,3.175,34.575c0-5.907,16.889-17.4,47.849-17.4m0-2.175C21.1,15,1,26.171,1,34.575,1,42.8,21.543,54.149,51.024,54.149S101.048,42.8,101.048,34.575a5.232,5.232,0,0,0-.083-.916l-.161.024.157-.039c0-.009,0-.02,0-.028l-.159.022.154-.037C99.417,25.636,79.344,15,51.024,15Z" transform="translate(1.175 -12.825)" fill="#fff"/>
  <path id="Path_2819" data-name="Path 2819" d="M59.614,21.326c-.2,0-.3.024-.387.2h0c-.3.581-3.989,6.105-4.674,7.177h0c-.115.163-.257.141-.274-.046h0a2.311,2.311,0,0,0-1.488-1.72h0a3.779,3.779,0,0,0-1.977-.228h0a7.054,7.054,0,0,0-3.243,1.525h0c-1.433,1.087-2.667,2.5-4.261,3.539h0c-.87.568-2.062,1.064-2.858.324h0c-.722-.67-.642-2.155.463-3.3h0c.117-.122.257-.022.235.087h0a1.462,1.462,0,0,0,.418,1.4h0a1.58,1.58,0,0,0,1.762.194h0a2.3,2.3,0,0,0,1.225-1.768h0a2.011,2.011,0,0,0-1.849-2.29h0a3.684,3.684,0,0,0-2.656.964h0A5.127,5.127,0,0,0,39,28.532h0c-.091.128-.231.141-.226-.05h0c.044-1.5-.579-2.347-1.82-2.375h0a4.655,4.655,0,0,0-2.8,1.14h0a25.922,25.922,0,0,0-2.473,2.523h0c-.1.109-.194.1-.222-.1h0a5.061,5.061,0,0,0-.735-2.645h0a.61.61,0,0,0-.794-.2h0a5.666,5.666,0,0,0-.933.557h0a.528.528,0,0,0-.159.594h0a6.942,6.942,0,0,1-.257,4.6h0a5.079,5.079,0,0,1-2.895,2.886h0a1.905,1.905,0,0,1-2.236-.6h0c-.735-1.02-.439-2.793.659-4.265h0a8.283,8.283,0,0,1,3.767-2.651h0a.219.219,0,0,0,.152-.309h0c-.076-.228-.2-.542-.246-.685h0c-.128-.341-.487-.4-.927-.348h0a7.843,7.843,0,0,0-2.836.95h0a9.669,9.669,0,0,0-4.076,5.037h0a5.136,5.136,0,0,1-.742,1.375h0a13.5,13.5,0,0,1-1.7,1.651h0a.3.3,0,0,0-.07.346h0a3.8,3.8,0,0,0,.659.866h0a.382.382,0,0,0,.365-.074h0a8.9,8.9,0,0,0,1.67-1.488h0c.122-.15.248-.087.313.141h0A3.683,3.683,0,0,0,22.82,37.93h0c2.173.733,4.426-.328,6.127-2.175h0a24.612,24.612,0,0,0,1.886-2.44h0a22.633,22.633,0,0,1,3.737-4.065h0c.6-.463,1.322-.813,1.679-.581h0c.289.187.383.624-.08,1.466h0c-1.681,3.073-4.156,6.679-4.611,7.556h0c-.083.15-.013.272.148.272h0c.881,0,1.753,0,2.551,0h0a.3.3,0,0,0,.259-.163h0c1.29-2.018,2.506-3.943,3.806-5.931h0c.074-.115.139-.026.144.026h0a3.3,3.3,0,0,0,.413,1.507h0a2.258,2.258,0,0,0,1.964,1.1h0a3.736,3.736,0,0,0,1.588-.333h0a5.527,5.527,0,0,0,1.307-.7h0c.194-.135.228.091.224.126h0c-.3,1.6.072,3.5,1.664,4.291h0c1.907.94,4-.383,5.211-1.575h0c.117-.115.244-.1.257.144h0a2.208,2.208,0,0,0,.609,1.377h0c1.009,1.014,3.051.611,5.1-.972h0a25.608,25.608,0,0,0,3.93-3.965h0a.174.174,0,0,0-.013-.25h0c-.189-.2-.463-.424-.65-.6h0a.231.231,0,0,0-.283,0h0a32.9,32.9,0,0,1-4.076,3.732h0c-.557.389-1.449.7-1.849.163h0a.887.887,0,0,1,.017-.883h0c.483-1.2,8.128-12.843,8.524-13.53h0c.07-.12,0-.207-.152-.207h0l-2.638,0m-12.115,14.3a1.333,1.333,0,0,1-.555-1.2h0a6.284,6.284,0,0,1,1.6-3.806h0c1.255-1.542,2.64-2.345,3.552-1.905h0c.942.448.639,1.54.22,2.395h0a.248.248,0,0,0-.017.178h0c.015.089.131.174.244.215h0c.041.015.063.043.017.137h0a11.108,11.108,0,0,1-1.031,1.7h0a6.339,6.339,0,0,1-1.309,1.416h0a3.711,3.711,0,0,1-2.1,1.018h0a1.308,1.308,0,0,1-.626-.154" transform="translate(20.457 -5.397)" fill="#fff"/>
  <path id="Path_2820" data-name="Path 2820" d="M27.7,18.078c-.731,0-1.462.028-2.2.087h0c-4.7.4-9.167,3.043-9.178,7.056h0A3.465,3.465,0,0,0,20,28.835h0c2.636-.089,4.8-2.2,5.933-4.863h0c.428-1.009-.368-1.429-.746-.848h0a6.694,6.694,0,0,1-2.66,2.364h0c-1.24.609-2.566.444-2.967-.565h0c-.565-1.42.609-3.545,3.291-4.548h0c3.871-1.433,7.923-.485,11.821.248h0c.057,0,.263.115.078.211h0A11.383,11.383,0,0,0,32.3,22.445h0a20.4,20.4,0,0,0-2.551,2.486h0c-.77.94-1.318,1.779-2.04,2.706h0a.288.288,0,0,1-.224.128h0a11.641,11.641,0,0,0-5.072,1.6h0a.693.693,0,0,0-.27.933h0a.612.612,0,0,0,.866.1h0a5.288,5.288,0,0,1,3.154-1.111h0c.05,0,.074.013.089.041h0c.013.017,0,.054-.017.083h0a46.862,46.862,0,0,1-3.478,4.448h0a25.645,25.645,0,0,1-2.062,2.09h0c-2.967,2.756-6.157,2.71-7.3.981h0a2.931,2.931,0,0,1-.144-3.03h0a5.883,5.883,0,0,1,2.593-2.39h0a.619.619,0,0,0,.1-1.016h0a1.317,1.317,0,0,0-1.146-.237h0a6.321,6.321,0,0,0-3.5,2.249h0a6.16,6.16,0,0,0-1.272,4.437h0a5.324,5.324,0,0,0,5.648,4.794h0c2.268-.02,4.406-.7,6.977-3.315h0c2.4-2.436,4.58-6.07,6.625-9.442h0c.063-.109.109-.167.42-.2h0c1.281-.159,3.175-.344,4.389-.413h0c.272-.015.326-.011.433.124h0a3.989,3.989,0,0,0,1.172.942h0a.854.854,0,0,0,.42.154h0a.529.529,0,0,0,.409-.2h0a.4.4,0,0,0,.1-.444h0c-.072-.124-.92-.594-.946-.783h0c-.02-.12.111-.148.111-.148h0a2.742,2.742,0,0,0,1.662-1.348h0a1.789,1.789,0,0,0-.259-2.277h0a1.787,1.787,0,0,0-2.3.263h0a2.79,2.79,0,0,0-.872,2.425h0c.017.144.013.194-.187.209h0c-1.122.089-2.2.12-3.406.183h0c-.08.007-.1-.048-.059-.1h0a19.567,19.567,0,0,1,5.735-5.8h0c.15-.113.1-.328.1-.509h0c4.128.9,8.115,2.566,12.4,2.529h0A10.4,10.4,0,0,0,53.672,22.4h0c1.425-.779,2.005-1.5,2.047-2.242h0a.651.651,0,0,0-.835-.733h0a36.214,36.214,0,0,1-12.758.463h0c-4.883-.592-9.568-1.81-14.427-1.81h-.013m7.464,8.669a1.739,1.739,0,0,1,.574-1.5h0a.606.606,0,0,1,.781-.094h0c.228.2.12.681-.111,1.018h0a1.866,1.866,0,0,1-1.068.77h0a.193.193,0,0,1-.033,0h0c-.061,0-.115-.048-.144-.2" transform="translate(11.74 -9.208)" fill="#fff"/>
</svg>
