<svg xmlns="http://www.w3.org/2000/svg" width="70.1" height="70.1" viewBox="0 0 70.1 70.1">
  <path id="icons8_volkswagen" d="M37.05,2A35.05,35.05,0,1,0,72.1,37.05,35.089,35.089,0,0,0,37.05,2ZM46,9.528h0l-8.95,19.9L28.1,9.528h0a28.675,28.675,0,0,1,17.9,0ZM22.178,12.253h0L33.085,35.526h7.929L51.921,12.253h0A29.14,29.14,0,0,1,60.25,19.8h0L46.732,49.242,41.1,38.574H33L27.369,49.242,13.848,19.8h0A29.162,29.162,0,0,1,22.178,12.253ZM8.1,37.05A28.753,28.753,0,0,1,9.97,26.893h0L26.6,64.024l.032.012A28.98,28.98,0,0,1,8.1,37.05Zm18.569,27L37.05,44.67,47.436,64.046a28.519,28.519,0,0,1-20.771,0Zm20.8-.011.032-.012L64.13,26.893h0A28.813,28.813,0,0,1,47.465,64.036Z" transform="translate(-2 -2)" fill="#5b5b5b"/>
</svg>
