<svg xmlns="http://www.w3.org/2000/svg" width="41.877" height="41.877" viewBox="0 0 41.877 41.877">
  <path id="icons8_Instagram" d="M19.211,7A12.229,12.229,0,0,0,7,19.216V36.664A12.23,12.23,0,0,0,19.216,48.877H36.664A12.23,12.23,0,0,0,48.877,36.661V19.211A12.229,12.229,0,0,0,36.661,7ZM40.5,13.7a1.675,1.675,0,1,1-1.675,1.675A1.676,1.676,0,0,1,40.5,13.7ZM27.938,17.05A10.888,10.888,0,1,1,17.05,27.938,10.9,10.9,0,0,1,27.938,17.05Zm0,3.35a7.538,7.538,0,1,0,7.538,7.538A7.537,7.537,0,0,0,27.938,20.4Z" transform="translate(-7 -7)" fill="#f69300"/>
</svg>
