<svg xmlns="http://www.w3.org/2000/svg" width="14.629" height="12.823" viewBox="0 0 14.629 12.823">
  <g id="icons8_paper_plane" transform="translate(0 0)">
    <path id="Path_3585" data-name="Path 3585" d="M6.843,15.37,16.746,8,3.815,12.525a.461.461,0,0,0-.1.822Zm2.533,1.152L17.207,8l-3.5,10.707a.461.461,0,0,1-.691.23Z" transform="translate(-2.67 -7.672)" fill="#faefde"/>
    <path id="Path_3586" data-name="Path 3586" d="M18,18.448,26.982,12,20.16,19.807l-.778,2.787Z" transform="translate(-13.826 -10.751)" fill="#efd8be"/>
    <path id="Path_3587" data-name="Path 3587" d="M27,47.842,27.23,46l.921.461Z" transform="translate(-20.754 -36.92)" fill="#f6d397"/>
    <path id="Path_3588" data-name="Path 3588" d="M16.418,6.705a.461.461,0,0,0-.474-.1L2.993,11.208a.691.691,0,0,0-.143,1.223l3.114,1.981,1.066,3.915a.461.461,0,0,0,.454.322h0a.461.461,0,0,0,.385-.216l.03-.014,1.552-2.073,2.695,1.7a.686.686,0,0,0,1.02-.375L16.535,7.178a.461.461,0,0,0-.117-.472ZM2.993,11.823a.23.23,0,0,1,.152-.191L15.236,7.341,6.1,13.951,3.109,12.044A.23.23,0,0,1,2.993,11.823Zm4.491,6.366L6.418,14.273l8.109-5.85L8.235,15.268h0a.677.677,0,0,0-.046.083h0Zm.691-.921.373-1.49.514.339Zm4.91-.843-.014-.012a.23.23,0,0,0-.316.078l-.23.394a.23.23,0,0,0,.318.313l-.108.345a.23.23,0,0,1-.343.124h0l-3.63-2.292L15.92,7.594Z" transform="translate(-1.929 -6.575)" fill="#8d6c9f"/>
    <path id="Path_3589" data-name="Path 3589" d="M3.427,32.636-.027,35.153a.231.231,0,0,0,.272.373L3.7,33.007a.231.231,0,0,0-.272-.373Zm-2.858.877a.23.23,0,0,0,.136-.044l1.152-.841a.231.231,0,1,0-.269-.375l-1.152.841a.23.23,0,0,0,.136.417ZM2.69,32.021l.576-.424a.231.231,0,0,0-.272-.373l-.576.419a.231.231,0,1,0,.272.373Zm1.564-2.5.23-.394a.23.23,0,0,0-.394-.23l-.23.394a.23.23,0,0,0,.394.23ZM7.589,31.6a.23.23,0,0,0,.316-.078l.23-.394a.23.23,0,1,0-.4-.219l-.23.394A.23.23,0,0,0,7.589,31.6Zm.988.6a.23.23,0,0,0,.311-.078l.23-.394a.23.23,0,1,0-.394-.23l-.23.394A.23.23,0,0,0,8.577,32.2Zm.986.594a.23.23,0,0,0,.316-.078l.23-.394a.23.23,0,0,0-.394-.23l-.23.394A.23.23,0,0,0,9.563,32.793ZM2.439,27.62a.23.23,0,0,0-.316.078l-.23.394a.23.23,0,0,0,.394.23l.23-.394A.23.23,0,0,0,2.439,27.62Zm.986.594a.23.23,0,0,0-.316.078l-.23.394a.23.23,0,0,0,.394.23l.23-.394a.23.23,0,0,0-.078-.309Z" transform="translate(0.122 -22.748)" fill="#8d6c9f"/>
  </g>
</svg>
