<svg xmlns="http://www.w3.org/2000/svg" width="35.311" height="53.978" viewBox="0 0 35.311 53.978">
  <g id="icons8_facial_mask_1" transform="translate(0)">
    <path id="Path_3428" data-name="Path 3428" d="M46.667,21.807h-.2c-8.032,0-12.783,5.632-12.979,16.652h0A2.79,2.79,0,0,1,30.7,35.667V34.54a18.311,18.311,0,0,1,8.424-15.378l.343-.2a13.488,13.488,0,0,1,14.889.2h0A18.182,18.182,0,0,1,62.388,34.3v1.42A2.79,2.79,0,0,1,59.6,38.507h0C59.45,27.439,54.7,21.807,46.667,21.807Z" transform="translate(-28.865 -15.335)" fill="#fff"/>
    <path id="Path_3429" data-name="Path 3429" d="M58.166,38.378a1.464,1.464,0,0,1-1.469-1.42c-.147-6.954-2.2-15.182-11.51-15.182H45.04a1.463,1.463,0,0,1-1.42-1.469,1.506,1.506,0,0,1,1.469-1.469h.2c8.228,0,13.322,5.534,14.3,15.28V32.8a16.718,16.718,0,0,0-7.4-13.909,12.1,12.1,0,0,0-13.273-.147l-.343.2a16.383,16.383,0,0,0-7.836,14.056v1.126a1.317,1.317,0,0,0,1.322,1.322,1.469,1.469,0,1,1,0,2.939A4.264,4.264,0,0,1,27.8,34.118V32.991a19.6,19.6,0,0,1,9.061-16.6l.343-.2a15.056,15.056,0,0,1,16.554.147A19.71,19.71,0,0,1,62.427,32.7v1.42A4.264,4.264,0,0,1,58.166,38.378Z" transform="translate(-27.385 -13.786)" fill="#454b54"/>
    <path id="Path_3430" data-name="Path 3430" d="M57.77,106.832,50.717,103.6h-9.11l-7.836,3.575a6.792,6.792,0,0,0-3.477,4.016l-.294.931H62.325a8.645,8.645,0,0,0-4.555-5.289" transform="translate(-28.508 -59.613)" fill="#f4d7cb"/>
    <path id="Path_3431" data-name="Path 3431" d="M62.812,103.6H53.8v1.126A1.461,1.461,0,0,0,54.535,106a7.75,7.75,0,0,0,7.543,0,1.368,1.368,0,0,0,.735-1.273V103.6" transform="translate(-40.651 -59.613)" fill="#c6b0a7"/>
    <path id="Path_3432" data-name="Path 3432" d="M28.445,112.074a2.155,2.155,0,0,1-.49-.1,1.461,1.461,0,0,1-.931-1.861l.294-.931a8.08,8.08,0,0,1,4.261-4.849l7.836-3.575a1.479,1.479,0,1,1,1.224,2.694L32.8,107.03a5.237,5.237,0,0,0-2.694,3.134l-.294.931A1.473,1.473,0,0,1,28.445,112.074Zm32.325,0a1.427,1.427,0,0,1-1.371-.979,7.4,7.4,0,0,0-3.771-4.408L48.575,103.5A1.479,1.479,0,1,1,49.8,100.81l7.053,3.183a10.332,10.332,0,0,1,5.339,6.171,1.461,1.461,0,0,1-.931,1.861C61.113,112.025,60.917,112.074,60.77,112.074Z" transform="translate(-26.952 -58.096)" fill="#454b54"/>
    <path id="Path_3433" data-name="Path 3433" d="M61.56,44.239C61.56,32.828,56.76,27,48.581,27S35.6,32.828,35.6,44.239c-1.518.1-.931,6.171.98,5.975C40.4,61.087,45.006,63.976,48.63,63.976s8.228-2.89,12.048-13.762C62.491,50.41,63.078,44.337,61.56,44.239Z" transform="translate(-30.926 -20.528)" fill="#f4d7cb"/>
    <path id="Path_3434" data-name="Path 3434" d="M52.03,74.279c-3.526,0-6.955-4.31-9.747-12.1l-.637-1.861L41.5,59.292v-2.3a4.406,4.406,0,0,1,3.575-4.31A32.451,32.451,0,0,1,52.03,52a34.417,34.417,0,0,1,6.955.735,4.406,4.406,0,0,1,3.575,4.31v2.3l-.147.98-.637,1.861C58.985,69.969,55.557,74.279,52.03,74.279Z" transform="translate(-34.375 -33.28)" fill="#70c7ad"/>
    <path id="Path_3435" data-name="Path 3435" d="M61.9,44.239C61.9,32.828,57.1,27,48.918,27h-.784c-7.64.392-12.2,3.036-12.2,14.056-.2,0-.392,3.33-.539,3.526,0,0,2.743-8.473,14.008-8.179C61.015,36.8,62.485,44.288,61.9,44.239Z" transform="translate(-31.263 -20.528)" fill="#fff"/>
    <path id="Path_3436" data-name="Path 3436" d="M74.9,54.077h-.1a1.475,1.475,0,0,1-1.371-1.567c0-.147.049-.245.049-.343-.294-1.322-2.694-5.583-11.167-5.828A1.416,1.416,0,0,1,60.9,44.82a1.445,1.445,0,0,1,1.518-1.42c9.061.245,12.342,4.7,13.322,6.563.441.833,1.077,2.449.441,3.428A1.42,1.42,0,0,1,74.9,54.077Z" transform="translate(-44.271 -28.896)" fill="#454b54"/>
    <path id="Path_3437" data-name="Path 3437" d="M47,63.915c-6.563,0-10.726-7.444-13.175-14.007a2.751,2.751,0,0,1-1.078-.931,7.515,7.515,0,0,1-.686-6.367,2.343,2.343,0,0,1,1.812-1.371,1.447,1.447,0,0,1,1.567,1.371,1.5,1.5,0,0,1-.784,1.42,5.763,5.763,0,0,0,.441,3.183,1.485,1.485,0,0,1,1.224.98c2.939,8.375,6.612,12.783,10.628,12.783s7.689-4.408,10.628-12.783a1.485,1.485,0,0,1,1.224-.98,5.763,5.763,0,0,0,.441-3.183,1.432,1.432,0,0,1-.784-1.322c.049-13.027-6.22-15.77-11.461-15.77A1.469,1.469,0,1,1,47,24c8.963,0,14.2,6.514,14.448,17.925a3.477,3.477,0,0,1,.49.686,7.881,7.881,0,0,1-.686,6.367,2.751,2.751,0,0,1-1.077.931C57.722,56.471,53.559,63.915,47,63.915Z" transform="translate(-29.341 -18.998)" fill="#454b54"/>
    <path id="Path_3438" data-name="Path 3438" d="M33.88,61.878a1.124,1.124,0,0,1-.686-.2,1.46,1.46,0,0,1-.588-2.008l.539-.979a1.479,1.479,0,0,1,2.6,1.42l-.539.979A1.544,1.544,0,0,1,33.88,61.878Z" transform="translate(-29.743 -36.306)" fill="#454b54"/>
    <path id="Path_3439" data-name="Path 3439" d="M60.245,84.8c-1.461,0-2.645.526-2.645,1.175s1.184,1.175,2.645,1.175,2.645-.526,2.645-1.175S61.705,84.8,60.245,84.8Z" transform="translate(-42.59 -50.021)" fill="#f0d6bf"/>
  </g>
</svg>
