<svg xmlns="http://www.w3.org/2000/svg" width="66.244" height="76.04" viewBox="0 0 66.244 76.04">
  <g id="icons8_best_seller_4" transform="matrix(0.993, 0.122, -0.122, 0.993, 3.002, -5.306)">
    <path id="Path_3613" data-name="Path 3613" d="M68.881,50.167H58.952L53.988,58.44,42.221,36.378a21.512,21.512,0,0,0,13.293-9.32L55.643,27ZM19.367,27.058,19.238,27,6,50.167h9.929l4.964,8.274L32.66,36.378A21.522,21.522,0,0,1,19.367,27.058Z" transform="translate(0 15.06)" fill="#673ab7"/>
    <path id="Path_3614" data-name="Path 3614" d="M61.952,30.476A26.476,26.476,0,1,1,35.476,4,26.477,26.477,0,0,1,61.952,30.476" transform="translate(1.964)" fill="#ffab00"/>
    <path id="Path_3615" data-name="Path 3615" d="M42.734,42.031l-1.6-3a26.482,26.482,0,0,0,13.688-9.21l1.754,3.07A29.862,29.862,0,0,1,42.734,42.031Zm-17.564,0,1.6-3a26.482,26.482,0,0,1-13.688-9.21l-1.754,3.07A29.862,29.862,0,0,0,25.171,42.031Z" transform="translate(3.488 16.907)" fill="#4527a0"/>
    <path id="Path_3616" data-name="Path 3616" d="M33.512,7A21.512,21.512,0,1,0,55.024,28.512,21.511,21.511,0,0,0,33.512,7ZM49.525,19.853a18,18,0,0,1,1.383,3.29l-3.164.975a14.779,14.779,0,0,0-1.129-2.687Zm-14.3-9.464-.311,3.3A14.96,14.96,0,0,0,32,13.7L31.667,10.4A18.438,18.438,0,0,1,35.23,10.389ZM28.548,25.743V22.788l6.313-2.55h.306V36.786h-3.31V24.625ZM21.925,14.471l2.108,2.552a15.1,15.1,0,0,0-2.059,2.068L19.413,17A18.482,18.482,0,0,1,21.925,14.471Zm-4.488,5.492,2.921,1.557a14.8,14.8,0,0,0-1.11,2.692l-3.169-.951A18.061,18.061,0,0,1,17.438,19.963Zm-2.128,8.55c0-.594.028-1.177.083-1.754l3.295.313q-.067.712-.068,1.44c0,.5.026,1,.073,1.484l-3.293.324C15.341,29.726,15.31,29.126,15.31,28.514Zm2.156,8.6a18.076,18.076,0,0,1-1.37-3.295l3.167-.961a14.636,14.636,0,0,0,1.119,2.691Zm4.506,5.479a18.308,18.308,0,0,1-2.52-2.519l2.557-2.1a14.908,14.908,0,0,0,2.063,2.062Zm6.2-31.485.97,3.164a14.781,14.781,0,0,0-2.689,1.125l-1.57-2.914A18.3,18.3,0,0,1,28.172,11.105Zm.058,34.829a18.05,18.05,0,0,1-3.3-1.367L26.5,41.652a14.9,14.9,0,0,0,2.691,1.115Zm5.282.779c-.6,0-1.2-.03-1.784-.086l.318-3.293a15.241,15.241,0,0,0,2.921,0l.319,3.293C34.7,46.684,34.111,46.714,33.512,46.714Zm5.217-35.645a18.1,18.1,0,0,1,3.3,1.352L40.48,15.347a14.873,14.873,0,0,0-2.7-1.105Zm.056,34.867-.956-3.167a14.894,14.894,0,0,0,2.692-1.114l1.557,2.919A18.056,18.056,0,0,1,38.786,45.937ZM45,14.392A18.3,18.3,0,0,1,47.528,16.9l-2.547,2.111a15.115,15.115,0,0,0-2.073-2.055Zm.045,28.2-2.1-2.557a15.235,15.235,0,0,0,2.068-2.063l2.553,2.1A18.389,18.389,0,0,1,45.044,42.6Zm4.508-5.474-2.916-1.567a14.794,14.794,0,0,0,1.122-2.691l3.167.965A18.1,18.1,0,0,1,49.552,37.122ZM48.332,30c.048-.49.073-.988.073-1.491s-.025-1-.073-1.491l3.293-.323c.058.6.089,1.2.089,1.814s-.031,1.218-.089,1.815Z" transform="translate(3.929 1.964)" fill="#ffcc80"/>
  </g>
</svg>
