<svg xmlns="http://www.w3.org/2000/svg" width="44.519" height="44.519" viewBox="0 0 44.519 44.519">
  <path id="icons8_doughnut_chart" d="M22.26,0a22.259,22.259,0,1,0,22.26,22.259A22.237,22.237,0,0,0,22.26,0ZM20.347,3.826H20.4v9.333A9.282,9.282,0,0,0,22.26,31.534a9.167,9.167,0,0,0,5.855-2.145l7.42,5.913A18.609,18.609,0,0,1,3.71,22.259,18.417,18.417,0,0,1,20.347,3.826Zm14.9,5.159A18.661,18.661,0,0,1,37.1,11.13a1.855,1.855,0,1,0,1.681,2.609c.268.529.478,1.072.7,1.623a1.885,1.885,0,0,0-.522,1.333,1.8,1.8,0,0,0,1.507,1.739,18.986,18.986,0,0,1,.348,3.826,1.841,1.841,0,0,0-.348,3.652A18.513,18.513,0,0,1,37.853,32.4l-7.42-5.913a9.036,9.036,0,0,0,1.1-4.232,9.17,9.17,0,0,0-2.2-5.913ZM33.389,14.84a1.855,1.855,0,1,0,1.855,1.855A1.859,1.859,0,0,0,33.389,14.84ZM22.26,16.695a5.565,5.565,0,1,1-5.565,5.565A5.566,5.566,0,0,1,22.26,16.695ZM37.1,18.55A1.855,1.855,0,1,0,38.954,20.4,1.858,1.858,0,0,0,37.1,18.55Zm-3.71,3.71a1.855,1.855,0,1,0,1.855,1.855A1.858,1.858,0,0,0,33.389,22.259Zm3.71,3.71a1.855,1.855,0,1,0,1.855,1.855A1.858,1.858,0,0,0,37.1,25.969Z" fill="#5b5b5b"/>
</svg>
