<svg xmlns="http://www.w3.org/2000/svg" width="18.39" height="15.322" viewBox="0 0 18.39 15.322">
  <path id="Icon_ionic-ios-share-alt" data-name="Icon ionic-ios-share-alt" d="M22.729,13.185,15.973,6.865a.345.345,0,0,0-.268-.115c-.211.01-.479.158-.479.383V10.3a.2.2,0,0,1-.172.2C8.336,11.529,5.506,16.556,4.505,21.775c-.038.206.239.4.369.235a12.211,12.211,0,0,1,10.151-5.143.237.237,0,0,1,.2.23V20.21a.411.411,0,0,0,.694.254l6.8-6.431a.529.529,0,0,0,.168-.4A.642.642,0,0,0,22.729,13.185Z" transform="translate(-4.502 -6.749)" fill="#3a3a3a"/>
</svg>
