<svg xmlns="http://www.w3.org/2000/svg" width="50.502" height="44.488" viewBox="0 0 50.502 44.488">
  <g id="icons8_fork_lift" transform="translate(-0.001 0)">
    <path id="Path_2329" data-name="Path 2329" d="M14.617,91.1A3.021,3.021,0,0,1,12,88.121V78.984A3.018,3.018,0,0,1,15.03,76h4.362v1.974a1.96,1.96,0,0,0,1.974,1.974h9.963V85.09A1.96,1.96,0,0,0,33.3,87.065h.413l-.184,4.178L14.617,91.1" transform="translate(-10.622 -53.55)" fill="#98bed8"/>
    <path id="Path_2330" data-name="Path 2330" d="M14.387,81.5H12.046a1.562,1.562,0,0,0-.046.459v2.3h2.387a1.377,1.377,0,0,0,0-2.755m0,3.581H12v2.755h2.387a1.377,1.377,0,0,0,0-2.755" transform="translate(-10.622 -56.525)" fill="#87a7be"/>
    <path id="Path_2331" data-name="Path 2331" d="M28.1,50.2h1.377a1.991,1.991,0,0,1,1.974,1.791l1.01,10.055h8.356a1.96,1.96,0,0,1,1.974,1.974h0a1.96,1.96,0,0,1-1.974,1.974h-12.3Z" transform="translate(-19.33 -39.595)" fill="#fff"/>
    <path id="Path_2332" data-name="Path 2332" d="M43.131,67.746h-.78a1.377,1.377,0,0,1,0-2.755h.78a.6.6,0,0,0,0-1.194H34.776a1.427,1.427,0,0,1-1.377-1.24L32.388,52.5a1.383,1.383,0,0,1,1.24-1.515,1.358,1.358,0,0,1,1.515,1.24l.872,8.861h7.116a3.37,3.37,0,0,1,3.352,3.352A3.331,3.331,0,0,1,43.131,67.746Z" transform="translate(-21.644 -40.016)" fill="#454b54"/>
    <path id="Path_2333" data-name="Path 2333" d="M65.779,91a6.887,6.887,0,1,0,6.979,6.887A6.933,6.933,0,0,0,65.779,91Z" transform="translate(-35.936 -61.663)" fill="#fff"/>
    <path id="Path_2334" data-name="Path 2334" d="M64.156,104.528a8.265,8.265,0,1,1,8.356-8.264A8.338,8.338,0,0,1,64.156,104.528Zm0-13.819a5.51,5.51,0,1,0,5.6,5.509A5.575,5.575,0,0,0,64.156,90.709Z" transform="translate(-34.313 -60.04)" fill="#454b54"/>
    <path id="Path_2335" data-name="Path 2335" d="M23.058,99.6a4.913,4.913,0,1,0,4.958,4.913A4.936,4.936,0,0,0,23.058,99.6Z" transform="translate(-13.921 -66.315)" fill="#fff"/>
    <path id="Path_2336" data-name="Path 2336" d="M21.436,109.18a6.29,6.29,0,1,1,6.336-6.29A6.339,6.339,0,0,1,21.436,109.18Zm0-9.871a3.535,3.535,0,1,0,3.581,3.535A3.518,3.518,0,0,0,21.436,99.309Z" transform="translate(-12.299 -64.692)" fill="#454b54"/>
    <path id="Path_2337" data-name="Path 2337" d="M40.572,67.044H31.849a1.377,1.377,0,0,1,0-2.755h8.769A1.353,1.353,0,0,1,42,65.667,1.392,1.392,0,0,1,40.572,67.044Zm26.261,0H54.9a1.377,1.377,0,0,1,0-2.755H66.833a1.377,1.377,0,0,1,0,2.755ZM50.673,59.423a1.335,1.335,0,0,1-1.331-1.1L45.026,36.789a6.559,6.559,0,0,0-6.473-5.234h-10.7V50.47a1.377,1.377,0,0,1-2.755,0V30.177A1.353,1.353,0,0,1,26.477,28.8H38.6a9.26,9.26,0,0,1,9.136,7.484L52.05,57.816a1.361,1.361,0,0,1-1.1,1.607Z" transform="translate(-17.708 -28.02)" fill="#454b54"/>
    <path id="Path_2338" data-name="Path 2338" d="M12.994,66.033h-.184A4.407,4.407,0,0,1,9,61.671V52.535a4.37,4.37,0,0,1,4.407-4.362h4.362a1.353,1.353,0,0,1,1.377,1.377v1.974a.608.608,0,0,0,.6.6h9.963A1.353,1.353,0,0,1,31.083,53.5v5.142a.608.608,0,0,0,.6.6h.413a1.377,1.377,0,0,1,0,2.755H31.68a3.37,3.37,0,0,1-3.352-3.352V54.876H19.743a3.37,3.37,0,0,1-3.352-3.352v-.6H13.407a1.637,1.637,0,0,0-1.653,1.607v9.136a1.6,1.6,0,0,0,1.423,1.607,1.383,1.383,0,0,1-.184,2.755Zm30.806-6.2a1.353,1.353,0,0,1-1.377-1.377V28.477a1.377,1.377,0,0,1,2.755,0v29.98A1.381,1.381,0,0,1,43.8,59.835Z" transform="translate(-8.999 -27.1)" fill="#454b54"/>
  </g>
</svg>
