<svg xmlns="http://www.w3.org/2000/svg" width="12.774" height="12.79" viewBox="0 0 12.774 12.79">
  <g id="icons8_sell_1" transform="translate(0 0)">
    <path id="Path_3606" data-name="Path 3606" d="M14.534,8.651h0a.854.854,0,0,0-1.279,0l-2.942,2.942H7.756a.32.32,0,1,1,0-.64H9.035a1.283,1.283,0,0,0,1.279-1.279v-.64H6.285A2.322,2.322,0,0,0,4.494,9.8L2,12.232,4.558,14.79l1.279-1.279h4.6a1.263,1.263,0,0,0,.9-.384l3.2-3.2A.972.972,0,0,0,14.534,8.651Zm-2.942-.9H7.116A1.283,1.283,0,0,1,5.837,6.477v-3.2A1.283,1.283,0,0,1,7.116,2h4.477a1.283,1.283,0,0,1,1.279,1.279v3.2A1.283,1.283,0,0,1,11.593,7.756ZM7.116,3.279v3.2h4.477v-3.2Z" transform="translate(-2 -2)" fill="#5b5b5b"/>
    <path id="Path_3607" data-name="Path 3607" d="M12,5h1.919V6.279H12Z" transform="translate(-5.605 -3.081)" fill="#5b5b5b"/>
    <path id="Path_3608" data-name="Path 3608" d="M9,3h5.4V7.2H9Z" transform="translate(-4.344 -2.221)" fill="#5b5b5b" opacity="0.3"/>
  </g>
</svg>
