<svg xmlns="http://www.w3.org/2000/svg" xmlns:xlink="http://www.w3.org/1999/xlink" width="42.925" height="47.693" viewBox="0 0 42.925 47.693">
  <defs>
    <linearGradient id="linear-gradient" x1="0.512" y1="0.355" x2="0.453" y2="1.07" gradientUnits="objectBoundingBox">
      <stop offset="0.019" stop-color="#b3b7bd"/>
      <stop offset="0.261" stop-color="#e0e0e0"/>
      <stop offset="1" stop-color="#8a929d"/>
    </linearGradient>
    <linearGradient id="linear-gradient-3" x1="0.345" y1="-0.628" x2="0.626" y2="1.414" gradientUnits="objectBoundingBox">
      <stop offset="0" stop-color="#fdd835"/>
      <stop offset="1" stop-color="#f9a825"/>
    </linearGradient>
    <linearGradient id="linear-gradient-4" x1="0.317" y1="0.13" x2="0.649" y2="0.8" gradientUnits="objectBoundingBox">
      <stop offset="0" stop-color="#666"/>
      <stop offset="0.999" stop-color="#171714"/>
    </linearGradient>
    <linearGradient id="linear-gradient-5" x1="0.26" y1="0.209" x2="0.85" y2="0.924" xlink:href="#linear-gradient-4"/>
    <linearGradient id="linear-gradient-7" x1="0.088" y1="0.001" x2="0.679" y2="0.716" xlink:href="#linear-gradient-4"/>
    <linearGradient id="linear-gradient-17" x1="0.5" y1="0.861" x2="0.5" y2="-0.957" gradientUnits="objectBoundingBox">
      <stop offset="0.007" stop-opacity="0"/>
      <stop offset="0.893" stop-opacity="0.8"/>
    </linearGradient>
    <linearGradient id="linear-gradient-18" y1="0.861" y2="-0.957" xlink:href="#linear-gradient-17"/>
    <radialGradient id="radial-gradient" cx="0.453" cy="0.407" r="0.516" gradientUnits="objectBoundingBox">
      <stop offset="0" stop-color="#fff"/>
      <stop offset="1" stop-color="#8a929d"/>
    </radialGradient>
  </defs>
  <g id="icons8_construction" transform="translate(-0.001 0)">
    <path id="Path_3456" data-name="Path 3456" d="M12.158,51.693H8.612A.612.612,0,0,1,8,51.081V4.612A.612.612,0,0,1,8.612,4h3.546a.612.612,0,0,1,.612.612V51.081A.612.612,0,0,1,12.158,51.693Z" transform="translate(-5.615 -4)" fill="url(#linear-gradient)"/>
    <path id="Path_3457" data-name="Path 3457" d="M40.158,51.693H36.612A.612.612,0,0,1,36,51.081V4.612A.612.612,0,0,1,36.612,4h3.546a.612.612,0,0,1,.612.612V51.081A.612.612,0,0,1,40.158,51.693Z" transform="translate(-0.228 -4)" fill="url(#linear-gradient)"/>
    <path id="Path_3458" data-name="Path 3458" d="M48.321,18.923H6.6a.6.6,0,0,1-.6-.6V7.6A.6.6,0,0,1,6.6,7H48.322a.6.6,0,0,1,.6.6V18.32A.6.6,0,0,1,48.321,18.923Z" transform="translate(-5.999 -3.423)" fill="url(#linear-gradient-3)"/>
    <path id="Path_3459" data-name="Path 3459" d="M31,18.923h4.769L42.924,7H38.154Z" transform="translate(-1.19 -3.423)" fill="url(#linear-gradient-4)"/>
    <path id="Path_3460" data-name="Path 3460" d="M39,17.962h2.973a.6.6,0,0,0,.6-.6V12Z" transform="translate(0.349 -2.462)" fill="url(#linear-gradient-5)"/>
    <path id="Path_3461" data-name="Path 3461" d="M23,18.923h4.769L34.924,7H30.154Z" transform="translate(-2.729 -3.423)" fill="url(#linear-gradient-4)"/>
    <path id="Path_3462" data-name="Path 3462" d="M6,7.6v5.357L9.577,7H6.6A.6.6,0,0,0,6,7.6Z" transform="translate(-5.999 -3.423)" fill="url(#linear-gradient-7)"/>
    <path id="Path_3463" data-name="Path 3463" d="M15,18.923h4.769L26.924,7H22.154Z" transform="translate(-4.268 -3.423)" fill="url(#linear-gradient-4)"/>
    <path id="Path_3464" data-name="Path 3464" d="M7,18.923h4.769L18.924,7H14.154Z" transform="translate(-5.807 -3.423)" fill="url(#linear-gradient-4)"/>
    <path id="Path_3465" data-name="Path 3465" d="M48.321,33.923H6.6a.6.6,0,0,1-.6-.6V22.6a.6.6,0,0,1,.6-.6H48.322a.6.6,0,0,1,.6.6V33.32A.6.6,0,0,1,48.321,33.923Z" transform="translate(-5.999 -0.539)" fill="url(#linear-gradient-3)"/>
    <path id="Path_3466" data-name="Path 3466" d="M31,33.923h4.769L42.924,22H38.154Z" transform="translate(-1.19 -0.539)" fill="url(#linear-gradient-4)"/>
    <path id="Path_3467" data-name="Path 3467" d="M39,32.962h2.973a.6.6,0,0,0,.6-.6V27Z" transform="translate(0.349 0.423)" fill="url(#linear-gradient-5)"/>
    <path id="Path_3468" data-name="Path 3468" d="M23,33.923h4.769L34.924,22H30.154Z" transform="translate(-2.729 -0.539)" fill="url(#linear-gradient-4)"/>
    <path id="Path_3469" data-name="Path 3469" d="M6,22.6v5.357L9.577,22H6.6A.6.6,0,0,0,6,22.6Z" transform="translate(-5.999 -0.539)" fill="url(#linear-gradient-7)"/>
    <path id="Path_3470" data-name="Path 3470" d="M15,33.923h4.769L26.924,22H22.154Z" transform="translate(-4.268 -0.539)" fill="url(#linear-gradient-4)"/>
    <path id="Path_3471" data-name="Path 3471" d="M7,33.923h4.769L18.924,22H14.154Z" transform="translate(-5.807 -0.539)" fill="url(#linear-gradient-4)"/>
    <rect id="Rectangle_762" data-name="Rectangle 762" width="4.591" height="3.06" transform="translate(3.101 16.195)" fill="url(#linear-gradient-17)"/>
    <rect id="Rectangle_763" data-name="Rectangle 763" width="4.591" height="4.59" transform="translate(3.101 33.027)" fill="url(#linear-gradient-18)"/>
    <rect id="Rectangle_764" data-name="Rectangle 764" width="4.591" height="3.06" transform="translate(35.235 16.195)" fill="url(#linear-gradient-17)"/>
    <rect id="Rectangle_765" data-name="Rectangle 765" width="4.591" height="4.59" transform="translate(35.235 33.027)" fill="url(#linear-gradient-18)"/>
    <ellipse id="Ellipse_126" data-name="Ellipse 126" cx="1.53" cy="0.765" rx="1.53" ry="0.765" transform="translate(3.101 8.545)" fill="url(#radial-gradient)"/>
    <ellipse id="Ellipse_127" data-name="Ellipse 127" cx="1.53" cy="0.765" rx="1.53" ry="0.765" transform="translate(3.101 26.906)" fill="url(#radial-gradient)"/>
    <ellipse id="Ellipse_128" data-name="Ellipse 128" cx="1.53" cy="0.765" rx="1.53" ry="0.765" transform="translate(36.765 8.545)" fill="url(#radial-gradient)"/>
    <ellipse id="Ellipse_129" data-name="Ellipse 129" cx="1.53" cy="0.765" rx="1.53" ry="0.765" transform="translate(36.765 26.906)" fill="url(#radial-gradient)"/>
  </g>
</svg>
