<svg xmlns="http://www.w3.org/2000/svg" width="20.883" height="20.883" viewBox="0 0 20.883 20.883">
  <path id="icons8_diversity_1" d="M7.641,3a4.641,4.641,0,1,0,4.641,4.641A4.658,4.658,0,0,0,7.641,3Zm9.281,0A2.338,2.338,0,0,0,14.6,5.32V9.961a2.338,2.338,0,0,0,2.32,2.32h4.641a2.338,2.338,0,0,0,2.32-2.32V5.32A2.338,2.338,0,0,0,21.563,3ZM7.641,5.32a2.32,2.32,0,1,1-2.32,2.32A2.3,2.3,0,0,1,7.641,5.32Zm9.281,0h4.641V9.961H16.922Zm1.772,8.973a1.16,1.16,0,0,0-.714.22l-3.823,2.778a1.16,1.16,0,0,0-.421,1.3L15.2,23.081a1.16,1.16,0,0,0,1.1.8h4.722a1.16,1.16,0,0,0,1.1-.8l1.462-4.494a1.16,1.16,0,0,0-.421-1.3l-3.823-2.778a1.16,1.16,0,0,0-.65-.22ZM7.65,14.6a1.16,1.16,0,0,0-1.047.641L3.122,22.2A1.16,1.16,0,0,0,4.16,23.883h6.961A1.16,1.16,0,0,0,12.159,22.2l-3.48-6.961A1.16,1.16,0,0,0,7.65,14.6Zm11.013,2.284,2.459,1.788-.94,2.889H17.142L16.2,18.674ZM7.641,18.356l1.6,3.206H6.036Z" transform="translate(-3 -3)" fill="#535252"/>
</svg>
