<svg xmlns="http://www.w3.org/2000/svg" width="19.947" height="18.301" viewBox="0 0 19.947 18.301">
  <path id="Icon_material-favorite-border" data-name="Icon material-favorite-border" d="M17.461,4.5a5.972,5.972,0,0,0-4.488,2.084A5.972,5.972,0,0,0,8.485,4.5,5.432,5.432,0,0,0,3,9.985c0,3.77,3.391,6.842,8.527,11.509L12.973,22.8l1.446-1.316c5.136-4.658,8.527-7.729,8.527-11.5A5.432,5.432,0,0,0,17.461,4.5ZM13.073,20.008l-.1.1-.1-.1c-4.747-4.3-7.879-7.141-7.879-10.023A3.409,3.409,0,0,1,8.485,6.495a3.9,3.9,0,0,1,3.56,2.354h1.865a3.874,3.874,0,0,1,3.55-2.354,3.409,3.409,0,0,1,3.491,3.491C20.952,12.868,17.82,15.71,13.073,20.008Z" transform="translate(-3 -4.5)"/>
</svg>
