<svg xmlns="http://www.w3.org/2000/svg" width="42.925" height="42.845" viewBox="0 0 42.925 42.845">
  <g id="icons8_experiment" transform="translate(-0.001)">
    <path id="Path_3472" data-name="Path 3472" d="M33.739,29.6,15.385,47.943a6.7,6.7,0,1,1-9.475-9.475L23.921,20.45a8.357,8.357,0,0,0,1.1,3.65c1.572,2.123,6.645,3.412,6.645,3.412A10.116,10.116,0,0,1,33.739,29.6Z" transform="translate(-3.197 -7.81)" fill="#72caaf"/>
    <path id="Path_3473" data-name="Path 3473" d="M13.436,52.571a2.235,2.235,0,0,1-.924,3.724,6.7,6.7,0,0,1-8.269-8.268A2.235,2.235,0,0,1,7.969,47.1Z" transform="translate(-3.253 -14.441)" fill="#68bca0"/>
    <path id="Path_3474" data-name="Path 3474" d="M34.47,29.6,16.115,47.943,6.64,38.469,24.652,20.45a8.357,8.357,0,0,0,1.1,3.65c1.572,2.123,6.645,3.412,6.645,3.412A10.116,10.116,0,0,1,34.47,29.6Z" transform="translate(-3.928 -7.81)" fill="#72caaf"/>
    <path id="Path_3475" data-name="Path 3475" d="M49.155,18.052,40.64,26.566a10.116,10.116,0,0,0-2.063-2.086s-5.073-1.289-6.645-3.412a8.357,8.357,0,0,1-1.1-3.65L39.672,8.57Z" transform="translate(-10.099 -4.779)" fill="#bbdef9"/>
    <path id="Path_3476" data-name="Path 3476" d="M52.371,17.513,41.845,6.988a1.49,1.49,0,0,1,0-2.138h0a1.49,1.49,0,0,1,2.108,0L54.509,15.413a1.49,1.49,0,0,1,0,2.1h0a1.49,1.49,0,0,1-2.138,0Z" transform="translate(-12.793 -3.718)" fill="#e3f2ff"/>
    <path id="Path_3477" data-name="Path 3477" d="M1.49,0A1.49,1.49,0,1,0,2.98,1.49,1.49,1.49,0,0,0,1.49,0Z" transform="translate(9.028 28.552) rotate(-45)" fill="#faefde"/>
    <path id="Path_3478" data-name="Path 3478" d="M2.235,0A2.235,2.235,0,1,0,4.469,2.235,2.235,2.235,0,0,0,2.235,0Z" transform="translate(17.456 24.333) rotate(-45)" fill="#faefde"/>
    <path id="Path_3479" data-name="Path 3479" d="M1.862,0A1.862,1.862,0,1,0,3.724,1.862,1.862,1.862,0,0,0,1.862,0Z" transform="translate(25.883 11.696) rotate(-45)" fill="#faefde"/>
    <path id="Path_3480" data-name="Path 3480" d="M45.214,14.646,34.681,4.113a2.287,2.287,0,0,0-3.158,0,2.235,2.235,0,0,0,0,3.158L5.183,33.61A7.448,7.448,0,1,0,15.716,44.144L42.056,17.812a2.235,2.235,0,1,0,3.158-3.158ZM14.673,43.085a5.962,5.962,0,0,1-8.44-8.425L23.195,17.7a8.939,8.939,0,0,0,5.877,5.534l.425.142c2.2.745,2.7,1.333,2.793,2.108ZM33.482,24.27c-.559-1.125-1.818-1.78-3.5-2.339l-.425-.142a7.583,7.583,0,0,1-5.214-5.169q0-.034,0-.067l8.194-8.194,8.455,8.395Zm10.675-7.516a.745.745,0,0,1-1.05,0l-.529-.529L33.1,6.75l-.529-.529a.748.748,0,0,1,1.058-1.058L44.156,15.7A.745.745,0,0,1,44.156,16.754Z" transform="translate(-2.999 -3.48)" fill="#8d6c9f"/>
    <path id="Path_3481" data-name="Path 3481" d="M14.285,43.569l-1.05,1.05a.745.745,0,1,0,1.05,1.05l1.05-1.05a.745.745,0,0,0-1.05-1.05ZM11.648,40.94,10.6,41.99a.745.745,0,1,0,1.05,1.05l1.05-1.05a.745.745,0,0,0-1.05-1.05ZM9.011,38.3l-1.05,1.05a.745.745,0,1,0,1.05,1.05l1.05-1.05a.745.745,0,0,0-1.05-1.05Zm4.745-4.737a2.235,2.235,0,0,0,3.158,3.158h0a2.236,2.236,0,0,0-3.166-3.158Zm2.108,2.108a.745.745,0,1,1,0-1.05.745.745,0,0,1,0,1.043Zm8.954-7.724a2.98,2.98,0,1,0,2.108.872A2.98,2.98,0,0,0,24.818,27.949Zm1.05,4.037a1.49,1.49,0,1,1,.437-1.054A1.49,1.49,0,0,1,25.868,31.987Zm5.006-15.538a2.607,2.607,0,1,0,3.687,0A2.607,2.607,0,0,0,30.874,16.448Zm2.637,2.637a1.112,1.112,0,1,0-.007-.007Z" transform="translate(-4.198 -6.594)" fill="#8d6c9f"/>
  </g>
</svg>
