<svg xmlns="http://www.w3.org/2000/svg" xmlns:xlink="http://www.w3.org/1999/xlink" width="59.178" height="46.313" viewBox="0 0 59.178 46.313">
  <defs>
    <linearGradient id="linear-gradient" x1="0.249" y1="0.347" x2="0.873" y2="0.645" gradientUnits="objectBoundingBox">
      <stop offset="0" stop-color="#f68381"/>
      <stop offset="1" stop-color="#e51e25"/>
    </linearGradient>
    <linearGradient id="linear-gradient-2" x1="164.427" y1="0.188" x2="163.25" y2="0.734" xlink:href="#linear-gradient"/>
    <linearGradient id="linear-gradient-3" x1="0.5" y1="0.031" x2="0.5" y2="0.875" gradientUnits="objectBoundingBox">
      <stop offset="0" stop-color="#666"/>
      <stop offset="0.331" stop-color="#636363"/>
      <stop offset="0.575" stop-color="#5a5a5a"/>
      <stop offset="0.791" stop-color="#4a4a4a"/>
      <stop offset="0.99" stop-color="#343433"/>
      <stop offset="1" stop-color="#333332"/>
    </linearGradient>
    <linearGradient id="linear-gradient-5" x1="0.5" y1="0.022" x2="0.5" y2="0.648" xlink:href="#linear-gradient"/>
    <linearGradient id="linear-gradient-6" x1="0.5" y1="-0.403" x2="0.5" y2="0.83" gradientUnits="objectBoundingBox">
      <stop offset="0" stop-color="#546e7a"/>
      <stop offset="1" stop-color="#263238"/>
    </linearGradient>
    <linearGradient id="linear-gradient-7" x1="0.5" y1="0.051" x2="0.5" y2="0.919" gradientUnits="objectBoundingBox">
      <stop offset="0" stop-color="#5ba5ea"/>
      <stop offset="1" stop-color="#315b8e"/>
    </linearGradient>
    <linearGradient id="linear-gradient-8" x1="0.5" y1="-0.054" x2="0.5" y2="0.441" xlink:href="#linear-gradient"/>
    <linearGradient id="linear-gradient-9" x1="0.5" y1="0.234" x2="0.5" y2="0.676" gradientUnits="objectBoundingBox">
      <stop offset="0" stop-color="#ad1f19" stop-opacity="0"/>
      <stop offset="1" stop-color="#a21713"/>
    </linearGradient>
    <linearGradient id="linear-gradient-10" x1="0.5" y1="0.067" x2="0.5" y2="0.942" gradientUnits="objectBoundingBox">
      <stop offset="0" stop-color="#fff"/>
      <stop offset="1" stop-color="#90a4ae"/>
    </linearGradient>
    <linearGradient id="linear-gradient-11" x1="0.5" y1="0.212" x2="0.5" y2="0.802" gradientUnits="objectBoundingBox">
      <stop offset="0" stop-color="#ffb74d"/>
      <stop offset="1" stop-color="#ed9216"/>
    </linearGradient>
    <linearGradient id="linear-gradient-12" x1="89.55" y1="0.067" x2="89.55" y2="0.942" xlink:href="#linear-gradient-10"/>
    <linearGradient id="linear-gradient-13" x1="301.897" y1="0.212" x2="301.897" y2="0.802" xlink:href="#linear-gradient-11"/>
    <linearGradient id="linear-gradient-14" x1="0.875" y1="0.625" x2="-0.542" y2="0.097" gradientUnits="objectBoundingBox">
      <stop offset="0" stop-color="#fff" stop-opacity="0"/>
      <stop offset="0.479" stop-color="#fff" stop-opacity="0.271"/>
      <stop offset="1" stop-color="#fff"/>
    </linearGradient>
    <linearGradient id="linear-gradient-15" x1="0.5" y1="0.01" x2="0.5" y2="0.632" gradientUnits="objectBoundingBox">
      <stop offset="0" stop-color="#f68381"/>
      <stop offset="1" stop-color="#c31c1c"/>
    </linearGradient>
    <linearGradient id="linear-gradient-16" x1="0.503" y1="0.959" x2="0.496" y2="-0.528" gradientUnits="objectBoundingBox">
      <stop offset="0" stop-color="#999"/>
      <stop offset="1" stop-color="#fff"/>
    </linearGradient>
    <linearGradient id="linear-gradient-17" x1="0.5" y1="-0.373" x2="0.5" y2="1.115" gradientUnits="objectBoundingBox">
      <stop offset="0" stop-color="#666"/>
      <stop offset="0.999" stop-color="#171714"/>
    </linearGradient>
    <radialGradient id="radial-gradient" cx="0.489" cy="-0.285" r="6.167" gradientTransform="translate(1.797 0.033) scale(0.092 0.772)" gradientUnits="objectBoundingBox">
      <stop offset="0" stop-color="#601808" stop-opacity="0.8"/>
      <stop offset="0.195" stop-color="#6e190b" stop-opacity="0.839"/>
      <stop offset="0.56" stop-color="#921a12" stop-opacity="0.914"/>
      <stop offset="1" stop-color="#c51c1c"/>
    </radialGradient>
  </defs>
  <g id="icons8_oncoming_automobile" transform="translate(-0.001 0)">
    <path id="Path_2843" data-name="Path 2843" d="M5.075,24.22l4.582,2.191.563-2.191-4.764-.965C4.672,23.074,4.511,23.919,5.075,24.22Z" transform="translate(0.072 -4.923)" fill="#e41e25"/>
    <path id="Path_2844" data-name="Path 2844" d="M43.886,24.22,39.3,26.411,38.74,24.22l4.764-.965C44.289,23.074,44.449,23.919,43.886,24.22Z" transform="translate(9.813 -4.923)" fill="#e41e25"/>
    <path id="Path_2845" data-name="Path 2845" d="M3.654,26.146H6.348A1.086,1.086,0,0,0,7.432,25.06V22.548A1.547,1.547,0,0,0,5.885,21H2.93A1.93,1.93,0,0,0,1,22.93v.563A2.654,2.654,0,0,0,3.654,26.146Z" transform="translate(-0.999 -5.562)" fill="url(#linear-gradient)"/>
    <path id="Path_2846" data-name="Path 2846" d="M45.78,26.146H43.086A1.086,1.086,0,0,1,42,25.06V22.548A1.548,1.548,0,0,1,43.548,21H46.5a1.93,1.93,0,0,1,1.93,1.93v.563A2.652,2.652,0,0,1,45.78,26.146Z" transform="translate(10.747 -5.562)" fill="url(#linear-gradient-2)"/>
    <path id="Path_2847" data-name="Path 2847" d="M12.628,37H7.8a.8.8,0,0,0-.8.8v8.682a.8.8,0,0,0,.8.805h4.823a.8.8,0,0,0,.805-.8V37.805A.8.8,0,0,0,12.628,37Z" transform="translate(0.72 -0.978)" fill="url(#linear-gradient-3)"/>
    <path id="Path_2848" data-name="Path 2848" d="M41.628,37H36.805a.8.8,0,0,0-.805.8v8.682a.8.8,0,0,0,.8.805h4.823a.8.8,0,0,0,.805-.8V37.805A.8.8,0,0,0,41.628,37Z" transform="translate(9.028 -0.978)" fill="url(#linear-gradient-3)"/>
    <path id="Path_2849" data-name="Path 2849" d="M50.74,30.87H7L10.211,13.4a4.7,4.7,0,0,1,4.271-3.826,181.173,181.173,0,0,1,28.786-.01,4.7,4.7,0,0,1,4.26,3.826Z" transform="translate(0.72 -8.999)" fill="url(#linear-gradient-5)"/>
    <path id="Path_2850" data-name="Path 2850" d="M44.4,27.41c-11.257-1.259-21.222-.925-32.511,0a2.259,2.259,0,0,1-2.578-2.322l1.984-11.9a2.821,2.821,0,0,1,2.551-2.128,155.78,155.78,0,0,1,28.678.027A2.8,2.8,0,0,1,45.1,13.179l2.016,11.909A2.335,2.335,0,0,1,44.4,27.41Z" transform="translate(1.377 -8.595)" fill="url(#linear-gradient-6)"/>
    <path id="Path_2851" data-name="Path 2851" d="M44.094,26.424a134.735,134.735,0,0,0-32.167,0,1.653,1.653,0,0,1-1.907-1.835l1.8-10.938a2.479,2.479,0,0,1,2.25-2.026,154.519,154.519,0,0,1,27.869.005A2.484,2.484,0,0,1,44.2,13.658L46,24.588A1.655,1.655,0,0,1,44.094,26.424Z" transform="translate(1.579 -8.427)" fill="url(#linear-gradient-7)"/>
    <path id="Path_2852" data-name="Path 2852" d="M53.684,31.824l.024-.006c-.05-.351-.134-.695-.212-1.039-.019-.081-.024-.166-.045-.247h-.006a11.5,11.5,0,0,0-2.04-4.3l-.036-.045c-2.633-3.371-41.228-3.371-43.863,0a13.649,13.649,0,0,0-1.068,1.639,10.737,10.737,0,0,0-1.024,2.711H5.4c-.01.041-.013.084-.022.125-.087.383-.162.771-.216,1.162l.009,0a13.232,13.232,0,0,0-.153,2.163,71.014,71.014,0,0,0,.9,9.843,2.626,2.626,0,0,0,2.356,2.29l13.442,1.14H37.157l13.413-1.139a2.622,2.622,0,0,0,2.357-2.309,79.382,79.382,0,0,0,.92-9.7A13.155,13.155,0,0,0,53.684,31.824Z" transform="translate(0.152 -4.801)" fill="url(#linear-gradient-8)"/>
    <path id="Path_2853" data-name="Path 2853" d="M53.709,30.024c-.005-.036-.015-.071-.022-.107H5.186c-.006.036-.015.071-.021.107l.009,0a13.232,13.232,0,0,0-.153,2.163,71.014,71.014,0,0,0,.9,9.843,2.626,2.626,0,0,0,2.356,2.29l13.442,1.14H37.157l13.413-1.139a2.622,2.622,0,0,0,2.357-2.309,79.382,79.382,0,0,0,.92-9.7,13.161,13.161,0,0,0-.163-2.284Z" transform="translate(0.152 -3.007)" fill="url(#linear-gradient-9)"/>
    <path id="Path_2854" data-name="Path 2854" d="M50.083,27.518C43.7,28.7,37.864,29.944,29.157,29.93A109.04,109.04,0,0,1,8.009,27.437L6,32.021a4.686,4.686,0,0,0,3.859,2.573H48.454a4.068,4.068,0,0,0,3.859-2.573Z" transform="translate(0.433 -3.718)" fill="#e41e25"/>
    <path id="Path_2855" data-name="Path 2855" d="M16.374,34.039H9.12c-1.855,0-3.335-1.714-3.556-3.867-.1-1.986.844-3.076,2.651-2.747L15.575,28.8c2.136.274,2.895,1.072,2.909,2.879A2.209,2.209,0,0,1,16.374,34.039Z" transform="translate(0.306 -3.738)" fill="#5c5c5c"/>
    <path id="Path_2856" data-name="Path 2856" d="M34.573,34.039h7.339c1.877,0,3.374-1.714,3.6-3.867.1-1.986-.854-3.076-2.684-2.747L35.38,28.8c-2.161.274-2.929,1.072-2.943,2.879A2.221,2.221,0,0,0,34.573,34.039Z" transform="translate(8.007 -3.738)" fill="#5c5c5c"/>
    <path id="Path_2857" data-name="Path 2857" d="M16.047,33.146H9.159a3.158,3.158,0,0,1-3.142-2.99c-.024-1.25.343-2.371,1.589-2.121l7.352,1.271c1.819.3,2.615.76,2.615,1.988v.313A1.533,1.533,0,0,1,16.047,33.146Z" transform="translate(0.438 -3.556)" fill="url(#linear-gradient-10)"/>
    <ellipse id="Ellipse_22" data-name="Ellipse 22" cx="1.961" cy="1.921" rx="1.961" ry="1.921" transform="translate(11.476 25.748)" fill="#dce3e6"/>
    <path id="Path_2858" data-name="Path 2858" d="M7.919,28.087l-.309-.053c-1.307-.21-1.716.81-1.589,2.121a3.159,3.159,0,0,0,3.142,2.988h.224A20.551,20.551,0,0,1,7.919,28.087Z" transform="translate(0.433 -3.554)" fill="url(#linear-gradient-11)"/>
    <path id="Path_2859" data-name="Path 2859" d="M34.527,33.146h6.888a3.158,3.158,0,0,0,3.142-2.99c.024-1.25-.343-2.371-1.589-2.121l-7.352,1.271c-1.819.3-2.615.76-2.615,1.988v.313A1.533,1.533,0,0,0,34.527,33.146Z" transform="translate(8.168 -3.556)" fill="url(#linear-gradient-12)"/>
    <ellipse id="Ellipse_23" data-name="Ellipse 23" cx="1.961" cy="1.921" rx="1.961" ry="1.921" transform="translate(43.782 25.748)" fill="#dce3e6"/>
    <path id="Path_2860" data-name="Path 2860" d="M40.835,28.087l.309-.053c1.307-.21,1.716.81,1.589,2.121a3.159,3.159,0,0,1-3.142,2.988h-.224A20.609,20.609,0,0,0,40.835,28.087Z" transform="translate(9.992 -3.554)" fill="url(#linear-gradient-13)"/>
    <path id="Path_2861" data-name="Path 2861" d="M10.021,22.12a1.653,1.653,0,0,0,1.907,1.835,134.8,134.8,0,0,1,32.167,0A1.653,1.653,0,0,0,46,22.118,66.114,66.114,0,0,0,10.021,22.12Z" transform="translate(1.579 -5.956)" fill="#315b8d"/>
    <path id="Path_2862" data-name="Path 2862" d="M15.545,16h4.63a1.545,1.545,0,0,1,1.544,1.545v4.42H14v-4.42A1.546,1.546,0,0,1,15.545,16Z" transform="translate(2.725 -6.994)" fill="#315b8d"/>
    <path id="Path_2863" data-name="Path 2863" d="M29.545,16h4.63a1.545,1.545,0,0,1,1.544,1.545v4.42H28v-4.42A1.546,1.546,0,0,1,29.545,16Z" transform="translate(6.736 -6.994)" fill="#315b8d"/>
    <path id="Path_2864" data-name="Path 2864" d="M28.011,11q-7.03-.008-13.94.625a2.479,2.479,0,0,0-2.25,2.026L10.02,24.59a1.653,1.653,0,0,0,1.907,1.835,135.343,135.343,0,0,1,16.085-.964Z" transform="translate(1.579 -8.426)" fill="url(#linear-gradient-14)"/>
    <path id="Path_2865" data-name="Path 2865" d="M38.513,24.294A23.275,23.275,0,0,1,29.5,29.7c5.275-.946,8.913-2.509,11.662-4.972Z" transform="translate(7.166 -4.618)" fill="#ea4244"/>
    <path id="Path_2866" data-name="Path 2866" d="M12.086,24.294A23.275,23.275,0,0,0,21.1,29.7c-5.275-.946-8.913-2.509-11.662-4.972Z" transform="translate(1.418 -4.618)" fill="#ea4244"/>
    <path id="Path_2867" data-name="Path 2867" d="M5.395,35.056a1.921,1.921,0,0,0-1.16,1.961c.19,1.581.386,1.739.652,3.594A2.706,2.706,0,0,0,7.368,42.9l14.165,1.14H37.8L51.932,42.9a2.7,2.7,0,0,0,2.484-2.309c.253-1.909.48-2.088.665-3.735a1.7,1.7,0,0,0-1.137-1.982c-.262,1.607-10.863,1.32-17.094,1.446H22.163C15.834,36.063,5.438,36.215,5.395,35.056Z" transform="translate(-0.077 -1.586)" fill="url(#linear-gradient-15)"/>
    <path id="Path_2868" data-name="Path 2868" d="M32.578,36.432H19.263a1.456,1.456,0,0,1-1.319-1.288l-.606-3.032A1.65,1.65,0,0,1,18.657,30H33.184A1.65,1.65,0,0,1,34.5,32.112L33.9,35.145A1.456,1.456,0,0,1,32.578,36.432Z" transform="translate(3.67 -2.983)" fill="url(#linear-gradient-16)"/>
    <path id="Path_2869" data-name="Path 2869" d="M43.508,40.211a78.4,78.4,0,0,1-30.349,0c-.677-.131-2.033-2.47-2.033-2.47a259.451,259.451,0,0,0,34.413,0S44.184,40.079,43.508,40.211Z" transform="translate(1.902 -0.766)" fill="#ee5a5b"/>
    <path id="Path_2870" data-name="Path 2870" d="M31.757,35.58H19.716a1.251,1.251,0,0,1-1.193-1.009L17.975,32.2a1.311,1.311,0,0,1,1.193-1.654H32.305A1.311,1.311,0,0,1,33.5,32.2l-.548,2.376A1.252,1.252,0,0,1,31.757,35.58Z" transform="translate(3.853 -2.828)" fill="url(#linear-gradient-17)"/>
    <path id="Path_2871" data-name="Path 2871" d="M43.686,39.629a98.681,98.681,0,0,1-30.634,0C12.369,39.522,11,37.635,11,37.635a327.577,327.577,0,0,0,34.735,0S44.368,39.522,43.686,39.629Z" transform="translate(1.866 -0.796)" fill="url(#radial-gradient)"/>
  </g>
</svg>
