<svg xmlns="http://www.w3.org/2000/svg" width="42.932" height="42.932" viewBox="0 0 42.932 42.932">
  <path id="icons8_bicycle_crunkset" d="M23.409,5.051l-.64.061c-.436.042-.875.1-1.341.177l-.635.1.137.631a1.221,1.221,0,0,1-2.357.628l-.2-.614-.6.227c-.4.15-.81.32-1.249.52l-.585.267.295.572a1.221,1.221,0,0,1-2.111,1.222l-.349-.541-.524.374c-.418.3-.759.56-1.075.82l-.5.41.433.476a1.22,1.22,0,0,1-1.725,1.724l-.476-.433-.409.5c-.261.316-.522.658-.82,1.076l-.374.523.539.349a1.22,1.22,0,0,1-1.22,2.111l-.573-.294-.267.586c-.2.439-.37.847-.52,1.249l-.227.6.614.2a1.221,1.221,0,0,1-.628,2.357l-.631-.135-.1.635c-.077.466-.135.906-.177,1.341l-.061.64.641.031a1.22,1.22,0,0,1,0,2.438l-.643.031.061.64c.042.436.1.875.177,1.341l.105.635.629-.137a1.221,1.221,0,0,1,.628,2.357l-.614.2.227.6c.15.4.32.81.52,1.249l.267.585.572-.294A1.221,1.221,0,0,1,8.846,35.2l-.541.349.374.523c.3.419.56.761.821,1.076l.409.5.476-.433a1.221,1.221,0,0,1,1.725,1.725l-.433.476.5.409c.313.258.665.527,1.075.82l.523.374.349-.539a1.22,1.22,0,0,1,2.111,1.22l-.294.572.585.267c.439.2.847.37,1.249.52l.6.227.2-.614a1.221,1.221,0,0,1,2.357.628l-.137.629.637.106c.466.077.906.135,1.341.177l.64.061.031-.643a1.22,1.22,0,0,1,2.438,0l.031.643.64-.061c.436-.042.875-.1,1.341-.177l.635-.105L28.39,43.3a1.221,1.221,0,0,1,2.357-.628l.2.614.6-.227c.4-.15.81-.32,1.249-.52l.586-.267-.295-.572a1.221,1.221,0,0,1,.231-1.432l-.865-.866a2.445,2.445,0,0,0-.676,2.245l-.14.059a2.447,2.447,0,0,0-4.5,1.2l-.151.02a2.447,2.447,0,0,0-4.656,0l-.15-.02a2.447,2.447,0,0,0-4.5-1.2l-.139-.058a2.447,2.447,0,0,0-4.03-2.33l-.121-.092A2.447,2.447,0,0,0,10.1,35.928c-.031-.039-.062-.079-.092-.121a2.447,2.447,0,0,0-2.33-4.03c-.02-.047-.039-.094-.058-.14a2.447,2.447,0,0,0-1.2-4.5l-.02-.151a2.447,2.447,0,0,0,0-4.656c.007-.05.013-.1.02-.15a2.447,2.447,0,0,0,1.2-4.5l.058-.139a2.447,2.447,0,0,0,2.33-4.03l.092-.122A2.447,2.447,0,0,0,13.392,10.1l.121-.091a2.447,2.447,0,0,0,4.03-2.33l.14-.059a2.447,2.447,0,0,0,4.5-1.2l.151-.02a2.447,2.447,0,0,0,4.656,0l.15.02a2.447,2.447,0,0,0,4.5,1.2l.139.058a2.447,2.447,0,0,0,4.03,2.33l.122.092a2.447,2.447,0,0,0,3.292,3.292l.091.121a2.447,2.447,0,0,0,2.33,4.03l.059.14a2.447,2.447,0,0,0,1.2,4.5l.02.151a2.447,2.447,0,0,0,0,4.656c-.007.05-.013.1-.02.15a2.447,2.447,0,0,0-1.2,4.5l-.058.139a2.443,2.443,0,0,0-2.246.676l.867.867a1.223,1.223,0,0,1,1.432-.231l.572.294.267-.585c.2-.439.37-.847.52-1.249l.227-.6-.614-.2A1.221,1.221,0,0,1,43.3,28.39l.629.137.105-.637c.077-.466.135-.906.177-1.341l.061-.64-.643-.031a1.22,1.22,0,0,1,0-2.437l.643-.031-.061-.64c-.042-.436-.1-.875-.177-1.341l-.105-.635-.629.137a1.221,1.221,0,0,1-.628-2.357l.614-.2-.227-.6c-.15-.4-.32-.81-.52-1.249l-.267-.586-.572.295a1.221,1.221,0,0,1-1.222-2.111l.541-.349-.374-.524c-.3-.418-.56-.759-.82-1.075l-.41-.5-.476.433a1.22,1.22,0,0,1-1.724-1.725l.433-.476-.5-.409c-.316-.261-.658-.522-1.076-.82l-.523-.374-.349.539a1.22,1.22,0,0,1-2.111-1.22l.294-.572L32.8,6.787c-.439-.2-.847-.37-1.249-.52l-.6-.228-.2.614a1.221,1.221,0,0,1-2.357-.628l.137-.631-.637-.1c-.466-.077-.906-.135-1.341-.177l-.64-.061-.031.641a1.22,1.22,0,0,1-2.438,0Zm1.25,4.265a.614.614,0,1,0,.614.614A.614.614,0,0,0,24.66,9.316Zm-3.813.5a.614.614,0,1,0,.614.614A.614.614,0,0,0,20.846,9.818Zm7.626,0a.614.614,0,1,0,.614.614A.614.614,0,0,0,28.473,9.818ZM17.295,11.289a.614.614,0,1,0,.614.614A.614.614,0,0,0,17.295,11.289Zm14.73,0a.614.614,0,1,0,.614.614A.614.614,0,0,0,32.025,11.289Zm-8.593.544a12.91,12.91,0,0,0-10.582,7.7l7.673,2.5a4.7,4.7,0,0,1,.859-1.013L14.6,18.807A11.681,11.681,0,0,1,22.2,13.267v7.146a5.016,5.016,0,0,1,1.228-.5Zm2.455,0v8.073a5.016,5.016,0,0,1,1.228.5v-7.14a11.682,11.682,0,0,1,7.611,5.533l-6.782,2.208c.061.055.129.11.191.171.11.11.386.393.791.8l7.552-2.455A12.912,12.912,0,0,0,25.887,11.836ZM14.244,13.63a.614.614,0,1,0,.614.614A.614.614,0,0,0,14.244,13.63Zm20.832,0a.614.614,0,1,0,.614.614A.614.614,0,0,0,35.075,13.63ZM11.9,16.681a.614.614,0,1,0,.614.614A.614.614,0,0,0,11.9,16.681Zm25.514,0a.614.614,0,1,0,.614.614A.614.614,0,0,0,37.417,16.681ZM10.432,20.233a.614.614,0,1,0,.614.614A.614.614,0,0,0,10.432,20.233Zm28.455,0a.614.614,0,1,0,.614.614A.614.614,0,0,0,38.887,20.233Zm-14.228.744a3.683,3.683,0,0,0-2.6,6.286h0L41.695,46.9h0A3.683,3.683,0,0,0,46.9,41.7h0L27.264,22.056h0A3.676,3.676,0,0,0,24.66,20.977Zm12.575.887L30.878,23.93c.3.307.632.638.97.976l4.41-1.432a11.371,11.371,0,0,1-.657,5.183l.955.955a12.759,12.759,0,0,0,.679-7.747Zm-25.146,0A12.755,12.755,0,0,0,16.137,34.3l4.736-6.519h-.006a5.984,5.984,0,0,1-.362-.515c-.012-.018-.025-.043-.037-.061a4.771,4.771,0,0,1-.295-.553l-4.188,5.77A11.583,11.583,0,0,1,13,24.66a11.3,11.3,0,0,1,.065-1.187l6.8,2.206a4.629,4.629,0,0,1-.11-1.019c0-.1.006-.2.012-.3ZM24.66,22.2a2.427,2.427,0,0,1,1.737.719l19.639,19.64a2.455,2.455,0,1,1-3.472,3.472h0L22.924,26.4h0A2.455,2.455,0,0,1,24.66,22.2Zm0,1.228a1.228,1.228,0,1,0,1.228,1.228A1.228,1.228,0,0,0,24.66,23.432Zm-14.73.614a.614.614,0,1,0,.614.614A.614.614,0,0,0,9.93,24.046Zm29.46,0A.614.614,0,1,0,40,24.66.614.614,0,0,0,39.39,24.046ZM10.432,27.859a.614.614,0,1,0,.614.614A.614.614,0,0,0,10.432,27.859Zm28.455,0a.614.614,0,1,0,.614.614A.614.614,0,0,0,38.887,27.859Zm-16.272,1.7-4.494,6.19a12.8,12.8,0,0,0,11.49.808l-.955-.955a11.467,11.467,0,0,1-8.7-.286l3.536-4.873C23.174,30.116,22.88,29.828,22.616,29.558ZM11.9,31.411a.614.614,0,1,0,.614.614A.614.614,0,0,0,11.9,31.411Zm2.341,3.051a.614.614,0,1,0,.614.614A.614.614,0,0,0,14.244,34.462ZM17.295,36.8a.614.614,0,1,0,.614.614A.614.614,0,0,0,17.295,36.8Zm3.552,1.471a.614.614,0,1,0,.614.614A.614.614,0,0,0,20.846,38.274Zm7.626,0a.614.614,0,1,0,.614.614A.614.614,0,0,0,28.473,38.274Zm-3.813.5a.614.614,0,1,0,.614.614A.614.614,0,0,0,24.66,38.776Zm19.64,4.3A1.228,1.228,0,1,0,45.527,44.3,1.228,1.228,0,0,0,44.3,43.072Z" transform="translate(-5.051 -5.051)" fill="#5b5b5b"/>
</svg>
