<svg id="icons8_chevrolet" xmlns="http://www.w3.org/2000/svg" width="130.498" height="43.499" viewBox="0 0 130.498 43.499">
  <path id="Path_2821" data-name="Path 2821" d="M16,16H59.5V59.5H16Z" transform="translate(27.499 -16)" fill="#cfd8dc"/>
  <path id="Path_2822" data-name="Path 2822" d="M13.594,19H130.5L116.9,46.187H0Z" transform="translate(0 -10.844)" fill="#cfd8dc"/>
  <path id="Path_2823" data-name="Path 2823" d="M108.311,26.156H72.968V18H40.343v8.156H13.156L5,42.468H40.343v8.156H72.968V42.468h27.187Z" transform="translate(8.594 -12.563)" fill="#ffd54f"/>
  <path id="Path_2824" data-name="Path 2824" d="M56.655,50.624V18H40.343v8.156H13.156L5,42.468H40.343v8.156Z" transform="translate(8.594 -12.563)" fill="#ffc107"/>
  <path id="Path_2825" data-name="Path 2825" d="M16,16l5.437,5.437v8.156L16,24.156Z" transform="translate(27.499 -16)" fill="#90a4ae"/>
  <path id="Path_2826" data-name="Path 2826" d="M16,16H37.75v5.437H21.437Z" transform="translate(27.499 -16)" fill="#b0bec5"/>
  <path id="Path_2827" data-name="Path 2827" d="M0,46.187,13.594,40.75,21.75,24.437,13.594,19Z" transform="translate(0 -10.844)" fill="#90a4ae"/>
  <path id="Path_2828" data-name="Path 2828" d="M5,19l8.156,5.437H40.343L34.906,19Z" transform="translate(8.594 -10.844)" fill="#b0bec5"/>
  <path id="Path_2829" data-name="Path 2829" d="M37.75,30v5.437H16L21.437,30Z" transform="translate(27.499 8.062)" fill="#90a4ae"/>
  <path id="Path_2830" data-name="Path 2830" d="M13.594,27,0,32.437H43.5v8.156l5.437-5.437V27Z" transform="translate(0 2.906)" fill="#607d8b"/>
  <path id="Path_2831" data-name="Path 2831" d="M35.437,16,30,21.437v8.156l5.437-5.437Z" transform="translate(51.561 -16)" fill="#eceff1"/>
  <path id="Path_2832" data-name="Path 2832" d="M48.156,24.437,61.75,19,48.156,46.187,40,40.75Z" transform="translate(68.748 -10.844)" fill="#cfd8dc"/>
  <path id="Path_2833" data-name="Path 2833" d="M30,27v8.156l5.437,5.437V32.437Z" transform="translate(51.561 2.906)" fill="#90a4ae"/>
  <path id="Path_2834" data-name="Path 2834" d="M30,27l5.437,5.437H65.343L57.187,27Z" transform="translate(51.561 2.906)" fill="#90a4ae"/>
  <path id="Path_2835" data-name="Path 2835" d="M45.75,35.437,40.312,30H24v5.437Z" transform="translate(41.249 8.062)" fill="#b0bec5"/>
  <path id="Path_2836" data-name="Path 2836" d="M35.437,19,30,24.437H65.343L78.937,19Z" transform="translate(51.561 -10.844)" fill="#eceff1"/>
</svg>
