<svg xmlns="http://www.w3.org/2000/svg" width="27.578" height="32.592" viewBox="0 0 27.578 32.592">
  <path id="icons8_password" d="M15.789,0C12.43,0,9.766,1.043,8.072,2.938A10.186,10.186,0,0,0,5.761,9.911v1.371H9.521V9.911a6.514,6.514,0,0,1,1.332-4.466c.881-.984,2.3-1.684,4.936-1.684s4.059.671,4.936,1.645a6.6,6.6,0,0,1,1.332,4.5v1.371h3.761V9.911A10.231,10.231,0,0,0,23.506,2.9C21.807,1.009,19.143,0,15.789,0ZM5.761,12.535A3.762,3.762,0,0,0,2,16.3V28.831a3.762,3.762,0,0,0,3.761,3.761H25.817a3.761,3.761,0,0,0,3.761-3.761V16.3a3.762,3.762,0,0,0-3.761-3.761Zm2.507,7.521a2.507,2.507,0,1,1-2.507,2.507A2.506,2.506,0,0,1,8.268,20.057Zm7.521,0a2.507,2.507,0,1,1-2.507,2.507A2.506,2.506,0,0,1,15.789,20.057Zm7.521,0A2.507,2.507,0,1,1,20.8,22.564,2.506,2.506,0,0,1,23.31,20.057Z" transform="translate(-2)" fill="#8f8f8f"/>
</svg>
