<svg xmlns="http://www.w3.org/2000/svg" width="52.498" height="42.001" viewBox="0 0 52.498 42.001">
  <path id="icons8_Twitter" d="M54.5,4a34.539,34.539,0,0,1-8.57,3.349c-.071.018-.129.042-.2.06a11.807,11.807,0,0,0-20.107,8.4c0,.344-.029.976,0,1.312-8.8,0-15.5-4.609-20.3-10.5a15.983,15.983,0,0,0-.751,5.334c0,3.677,2.874,7.289,7.35,9.528a10.759,10.759,0,0,1-2.677.365,7.05,7.05,0,0,1-4.617-1.62v.134c0,5.14,5.455,8.639,10.305,9.612a9.4,9.4,0,0,1-3.937.638c-.682,0-3.1-.312-3.743-.433C8.6,34.4,13.466,36.763,18.1,36.847c-3.628,2.845-6.145,3.9-13.573,3.9H2A31.818,31.818,0,0,0,18.66,46c19.5,0,30.588-14.865,30.588-28.876,0-.226-.005-.7-.013-1.173,0-.047.013-.092.013-.139,0-.071-.021-.139-.021-.21-.008-.357-.016-.69-.024-.864A21.569,21.569,0,0,0,54.5,9.249a21.183,21.183,0,0,1-6.09,1.669C50.6,9.606,53.708,6.477,54.5,4Z" transform="translate(-2 -3.999)" fill="#f69300"/>
</svg>
