<svg xmlns="http://www.w3.org/2000/svg" width="10.339" height="10.339" viewBox="0 0 10.339 10.339">
  <path id="icons8_tune" d="M6.136,2a.517.517,0,0,0-.517.517v.517H2V4.068H5.619v.517a.517.517,0,0,0,.517.517h.517a.517.517,0,0,0,.517-.517V2.517A.517.517,0,0,0,6.653,2ZM8.2,3.034V4.068h4.136V3.034Zm.517,2.585a.517.517,0,0,0-.517.517v.517H2V7.687H8.2V8.2a.517.517,0,0,0,.517.517h.517A.517.517,0,0,0,9.755,8.2V6.136a.517.517,0,0,0-.517-.517Zm2.068,1.034V7.687h1.551V6.653ZM3.551,9.238a.517.517,0,0,0-.517.517v.517H2v1.034H3.034v.517a.517.517,0,0,0,.517.517h.517a.517.517,0,0,0,.517-.517V9.755a.517.517,0,0,0-.517-.517Zm2.068,1.034v1.034h6.721V10.271Z" transform="translate(-2 -2)" fill="#535252"/>
</svg>
