<svg xmlns="http://www.w3.org/2000/svg" width="18.599" height="19.374" viewBox="0 0 18.599 19.374">
  <path id="Icon_material-add-shopping-cart" data-name="Icon material-add-shopping-cart" d="M10.726,8.881h1.845V6.113h2.768V4.268H12.571V1.5H10.726V4.268H7.958V6.113h2.768Zm-3.69,8.3a1.845,1.845,0,1,0,1.845,1.845A1.843,1.843,0,0,0,7.035,17.184Zm9.226,0a1.845,1.845,0,1,0,1.845,1.845A1.843,1.843,0,0,0,16.261,17.184Zm-9.069-3,.028-.111.83-1.5h6.873a1.836,1.836,0,0,0,1.614-.95L20.1,5.153l-1.605-.886h-.009L17.47,6.113l-2.546,4.613H8.447l-.12-.249L6.26,6.113,5.384,4.268,4.517,2.423H1.5V4.268H3.345l3.321,7L5.421,13.53a1.784,1.784,0,0,0-.231.886,1.851,1.851,0,0,0,1.845,1.845H18.106V14.416H7.423A.234.234,0,0,1,7.192,14.185Z" transform="translate(-1.5 -1.5)" fill="#fff"/>
</svg>
