<svg id="icons8_nft_collection" xmlns="http://www.w3.org/2000/svg" width="45.887" height="45.225" viewBox="0 0 45.887 45.225">
  <path id="Path_3520" data-name="Path 3520" d="M14.925,55.36l-9.1,5.255A3.648,3.648,0,0,0,4,63.769v8.409a3.648,3.648,0,0,0,1.821,3.154L13.1,79.538a3.635,3.635,0,0,0,3.642,0l9.1-5.255V61.668Z" transform="translate(-2.907 -35.894)" fill="#fff"/>
  <path id="Path_3521" data-name="Path 3521" d="M74.925,55.36,64,61.668V74.283l9.1,5.255a3.635,3.635,0,0,0,3.642,0l7.284-4.206a3.648,3.648,0,0,0,1.821-3.154V63.769a3.648,3.648,0,0,0-1.821-3.154Z" transform="translate(-41.057 -35.894)" fill="#fff"/>
  <path id="Path_3522" data-name="Path 3522" d="M43.1,5.4,35.821,9.6A3.648,3.648,0,0,0,34,12.753V23.267l9.1,5.255a3.635,3.635,0,0,0,3.642,0l9.1-5.255V12.753A3.648,3.648,0,0,0,54.03,9.6L46.746,5.4A3.635,3.635,0,0,0,43.1,5.4Z" transform="translate(-21.982 -3.815)" fill="#fff"/>
  <g id="Group_393" data-name="Group 393">
    <path id="Path_3523" data-name="Path 3523" d="M52.669,6.745,45.385,2.538a4.756,4.756,0,0,0-4.734,0L33.367,6.745A4.746,4.746,0,0,0,31,10.845v5.415a1.093,1.093,0,1,0,2.185,0V10.845a1.785,1.785,0,0,1,.015-.2l8.726,5.037v6.883a1.093,1.093,0,0,0,2.185,0V15.685l8.726-5.04c0,.066.015.131.015.2v5.415a1.093,1.093,0,1,0,2.185,0V10.845A4.75,4.75,0,0,0,52.669,6.745ZM41.743,4.432a2.55,2.55,0,0,1,2.549,0l7.284,4.206a2.009,2.009,0,0,1,.171.117L43.018,13.8l-8.729-5.04c.058-.04.113-.08.171-.117Z" transform="translate(-20.075 -1.907)" fill="#71c2ff"/>
    <path id="Path_3524" data-name="Path 3524" d="M44.52,57.758l-9.1-5.255a1.085,1.085,0,0,0-1.093,0L23.943,58.5,13.564,52.5a1.085,1.085,0,0,0-1.093,0l-9.1,5.255A4.75,4.75,0,0,0,1,61.858v8.409a4.75,4.75,0,0,0,2.367,4.1l7.284,4.206a4.738,4.738,0,0,0,4.734,0l8.558-4.942L32.5,78.574a4.738,4.738,0,0,0,4.734,0l7.284-4.206a4.746,4.746,0,0,0,2.367-4.1V61.858A4.75,4.75,0,0,0,44.52,57.758ZM4.46,59.651l8.558-4.942,8.744,5.048-8.744,5.051-8.729-5.04A2.01,2.01,0,0,1,4.46,59.651Zm0,12.826a2.557,2.557,0,0,1-1.275-2.207V61.858a1.786,1.786,0,0,1,.015-.2L11.925,66.7V76.772a1.7,1.7,0,0,1-.182-.091Zm18.391-.736-8.558,4.942c-.058.033-.12.062-.182.091V66.7l8.74-5.048Zm10.925,5.029a1.7,1.7,0,0,1-.182-.091l-8.558-4.938V61.654l8.74,5.048ZM26.125,59.761l8.744-5.051,8.558,4.942a2.01,2.01,0,0,1,.171.117l-8.729,5.04ZM44.7,70.271a2.553,2.553,0,0,1-1.275,2.207l-7.284,4.206c-.058.033-.12.062-.182.091V66.7l8.726-5.04c0,.066.015.131.015.2Z" transform="translate(-1 -33.983)" fill="#444b54"/>
  </g>
</svg>
