<svg xmlns="http://www.w3.org/2000/svg" width="58.787" height="58.787" viewBox="0 0 58.787 58.787">
  <g id="icons8_circled_user_male_skin_type_7" transform="translate(-4 -4)">
    <path id="Path_3891" data-name="Path 3891" d="M33.394,4A29.394,29.394,0,1,0,62.787,33.394,29.394,29.394,0,0,0,33.394,4Z" fill="#ede7f6"/>
    <path id="Path_3892" data-name="Path 3892" d="M29.589,50.106a28.8,28.8,0,0,0,17.489-5.879C46.2,33.058,35.027,31,35.027,31l-5.438,1.176L24.151,31S12.982,33.058,12.1,44.227A28.8,28.8,0,0,0,29.589,50.106Z" transform="translate(3.804 12.681)" fill="#673ab7"/>
    <path id="Path_3893" data-name="Path 3893" d="M26.865,39.818a8.641,8.641,0,0,0,8.671-7.789A17.917,17.917,0,0,0,32.6,31a5.772,5.772,0,0,1-5.879,5.732A5.867,5.867,0,0,1,20.839,31,17.917,17.917,0,0,0,17.9,32.029,9.152,9.152,0,0,0,26.865,39.818Z" transform="translate(6.529 12.681)" fill="#311b92"/>
    <path id="Path_3894" data-name="Path 3894" d="M39.515,23.2a2.2,2.2,0,1,1-2.2-2.2,2.26,2.26,0,0,1,2.2,2.2m-19.106,0a2.2,2.2,0,1,0-2.2,2.2,2.26,2.26,0,0,0,2.2-2.2" transform="translate(5.636 7.985)" fill="#edbd28"/>
    <path id="Path_3895" data-name="Path 3895" d="M25.879,38.757C20,38.757,20,32.879,20,32.879V27H31.757v5.879S31.757,38.757,25.879,38.757Z" transform="translate(7.515 10.803)" fill="#edb405"/>
    <path id="Path_3896" data-name="Path 3896" d="M37.576,20.428c0-8.671-20.576-5.585-20.576,0v6.467a10.289,10.289,0,0,0,20.576,0Z" transform="translate(6.106 5.176)" fill="#ffca28"/>
    <path id="Path_3897" data-name="Path 3897" d="M27.757,11C20.556,11,16,17.32,16,23.051V25.7l2.939,2.939V22.757L32.46,18.348l4.115,4.409v5.879L39.515,25.7V24.521c0-4.7-1.176-9.994-7.054-11.17L31.285,11Z" transform="translate(5.636 3.288)" fill="#795548"/>
    <path id="Path_3898" data-name="Path 3898" d="M28.818,22.47a1.47,1.47,0,1,1,1.47,1.47,1.389,1.389,0,0,1-1.47-1.47M20,22.47A1.47,1.47,0,1,0,21.47,21,1.389,1.389,0,0,0,20,22.47" transform="translate(7.515 7.985)" fill="#784719"/>
  </g>
</svg>
