<svg id="Group_274" data-name="Group 274" xmlns="http://www.w3.org/2000/svg" width="52.013" height="52.013" viewBox="0 0 52.013 52.013">
  <path id="Icon_awesome-user-circle" data-name="Icon awesome-user-circle" d="M26.007.563A26.007,26.007,0,1,0,52.013,26.569,26,26,0,0,0,26.007.563Zm0,10.067a9.228,9.228,0,1,1-9.228,9.228A9.228,9.228,0,0,1,26.007,10.63Zm0,36.074a20.1,20.1,0,0,1-15.363-7.152,11.692,11.692,0,0,1,10.329-6.271,2.566,2.566,0,0,1,.745.115,13.884,13.884,0,0,0,4.289.724A13.832,13.832,0,0,0,30.3,33.4a2.566,2.566,0,0,1,.745-.115,11.692,11.692,0,0,1,10.329,6.271A20.1,20.1,0,0,1,26.007,46.7Z" transform="translate(0 -0.562)"/>
</svg>
