<svg xmlns="http://www.w3.org/2000/svg" width="84.101" height="78.432" viewBox="0 0 84.101 78.432">
  <g id="icons8_property" transform="translate(-12.6 -20.1)">
    <path id="Path_9" data-name="Path 9" d="M92.514,86.362,75.929,92a4.584,4.584,0,0,0,.735-2.778,4.475,4.475,0,0,0-4.575-4H60.243C55.668,78.6,43.167,78.6,43.167,78.6H33.2V98.535l23.53,7.353s7.108,2.043,12.173,0c4.33-1.716,21.732-10.866,27.206-13.807,1.062-.571,2.533-2.205,1.716-4.085-.735-1.552-2.042-2.614-5.31-1.634" transform="translate(-3.77 -10.705)" fill="#f7ebde"/>
    <path id="Path_10" data-name="Path 10" d="M41.37,78.7H33.2V98.553l8.02,2.507a13.6,13.6,0,0,0,.15-1.69V78.7" transform="translate(-3.77 -10.724)" fill="#d2c8bd"/>
    <path id="Path_11" data-name="Path 11" d="M76.571,98.332H59.251a2.451,2.451,0,0,1,0-4.9h17.32a1.919,1.919,0,0,0,1.961-1.879,2.451,2.451,0,1,1,4.9,0A6.834,6.834,0,0,1,76.571,98.332Z" transform="translate(-8.088 -12.627)" fill="#454b54"/>
    <path id="Path_12" data-name="Path 12" d="M62.88,108.707a33.935,33.935,0,0,1-7.435-.98l-23.53-7.353A2.451,2.451,0,0,1,30.2,98V78.151A2.407,2.407,0,0,1,32.651,75.7h9.967c.572,0,12.582.082,18.219,6.618h10.7a7.009,7.009,0,0,1,7.026,6.209A6.637,6.637,0,0,1,77.5,92.775a2.531,2.531,0,0,1-2.7,1.144h0a2.448,2.448,0,0,1-1.471-3.758,2.2,2.2,0,0,0,.327-1.225A2.059,2.059,0,0,0,71.54,87.22H59.694a2.555,2.555,0,0,1-2.043-1.062C54.465,81.582,45.723,80.6,42.618,80.6H35.1V96.288l21.814,6.781s6.291,1.8,10.539.082c3.35-1.389,16.095-8.007,26.961-13.726.082-.082.735-.572.572-.9-.163-.408-.327-.817-2.288-.327l-9.4,3.186a2.454,2.454,0,1,1-1.552-4.657l9.477-3.186h.082c5.392-1.471,7.435,1.307,8.17,3.1a5.652,5.652,0,0,1-2.86,7.19c-6.781,3.595-23.121,12.173-27.37,13.889A19.2,19.2,0,0,1,62.88,108.707Z" transform="translate(-3.221 -10.175)" fill="#454b54"/>
    <path id="Path_13" data-name="Path 13" d="M27.514,101.126a2.407,2.407,0,0,0,2.451-2.451V77.433A2.564,2.564,0,0,0,27.351,74.9H15.667c-.327,0,0,26.307,0,26.307H27.514Z" transform="translate(-0.535 -10.028)" fill="#c7d7e2"/>
    <path id="Path_14" data-name="Path 14" d="M26.979,103.028H15.051a2.451,2.451,0,0,1,0-4.9H26.9V76.884c0-.082-.082-.082-.163-.082h-11.6a2.451,2.451,0,0,1,0-4.9H26.816a5.075,5.075,0,0,1,5.065,4.984V98.126A4.864,4.864,0,0,1,26.979,103.028Z" transform="translate(0 -9.479)" fill="#454b54"/>
    <path id="Path_15" data-name="Path 15" d="M85.378,38.388v20.67H57.6V38.388L71.489,23.6Z" transform="translate(-8.235 -0.64)" fill="#fff"/>
    <path id="Path_16" data-name="Path 16" d="M84.829,61.564H57.051A2.407,2.407,0,0,1,54.6,59.113V38.443a2.451,2.451,0,0,1,4.9,0V56.662H82.378V38.443a2.451,2.451,0,1,1,4.9,0v20.67A2.407,2.407,0,0,1,84.829,61.564ZM80.744,35.256a2.407,2.407,0,0,1-2.451-2.451V26.351a2.451,2.451,0,1,1,4.9,0v6.454A2.407,2.407,0,0,1,80.744,35.256Z" transform="translate(-7.686 -0.695)" fill="#454b54"/>
    <path id="Path_17" data-name="Path 17" d="M87.807,43.466a2.534,2.534,0,0,1-1.8-.735L70.078,25.982,54.064,42.731a2.427,2.427,0,1,1-3.513-3.35L68.28,20.835a2.466,2.466,0,0,1,3.513,0L89.522,39.381a2.441,2.441,0,0,1-.082,3.431A2.281,2.281,0,0,1,87.807,43.466Z" transform="translate(-6.823 0)" fill="#454b54"/>
  </g>
</svg>
