<svg xmlns="http://www.w3.org/2000/svg" width="129.758" height="96.928" viewBox="0 0 129.758 96.928">
  <g id="icons8_browse_folder" transform="translate(-9 -21)">
    <path id="Path_3617" data-name="Path 3617" d="M121,109.548V40.76a3.126,3.126,0,0,0-3.127-3.127H74.1a3.126,3.126,0,0,1-3.127-3.127V31.38A9.38,9.38,0,0,0,61.591,22H19.38A9.38,9.38,0,0,0,10,31.38v78.168Z" transform="translate(0.563 0.563)" fill="#ceccbe"/>
    <path id="Path_3618" data-name="Path 3618" d="M10.179,99.4,25.63,39h111l-16.145,63.108a5.47,5.47,0,0,1-5.3,4.116h-99.7A5.472,5.472,0,0,1,10.179,99.4Z" transform="translate(0.567 10.14)" fill="#fefdef"/>
    <path id="Path_3619" data-name="Path 3619" d="M10.563,111.674A1.564,1.564,0,0,1,9,110.111V31.943A10.955,10.955,0,0,1,19.943,21h42.21A10.955,10.955,0,0,1,73.1,31.943V35.07a1.566,1.566,0,0,0,1.563,1.563h43.774a4.7,4.7,0,0,1,4.69,4.69V49.14a1.563,1.563,0,0,1-3.127,0V41.324a1.566,1.566,0,0,0-1.563-1.563H74.661a4.7,4.7,0,0,1-4.69-4.69V31.943a7.826,7.826,0,0,0-7.817-7.817H19.943a7.826,7.826,0,0,0-7.817,7.817v78.168A1.564,1.564,0,0,1,10.563,111.674Z" fill="#1f212b"/>
    <path id="Path_3620" data-name="Path 3620" d="M115.747,108.351h-99.7a7.036,7.036,0,0,1-6.816-8.78l15.451-60.4A1.566,1.566,0,0,1,26.194,38h111a1.564,1.564,0,0,1,1.515,1.951l-16.145,63.108A7.03,7.03,0,0,1,115.747,108.351ZM27.407,41.127,12.258,100.348h0a3.908,3.908,0,0,0,3.786,4.876h99.7a3.906,3.906,0,0,0,3.786-2.939l15.644-61.158ZM10.743,99.96h0Z" transform="translate(0.003 9.577)" fill="#1f212b"/>
    <path id="Path_3621" data-name="Path 3621" d="M41.359,29.563H14.782a.782.782,0,0,1,0-1.563H41.359a.782.782,0,0,1,0,1.563Z" transform="translate(2.817 3.943)" fill="#1f212b"/>
    <g id="Group_532" data-name="Group 532" transform="translate(49.647 58.52)">
      <circle id="Ellipse_147" data-name="Ellipse 147" cx="17.197" cy="17.197" r="17.197" transform="translate(0.782 0.782)" fill="#a3a3cd"/>
      <circle id="Ellipse_148" data-name="Ellipse 148" cx="12.507" cy="12.507" r="12.507" transform="translate(5.472 5.472)" fill="#78cdd4"/>
      <path id="Path_3622" data-name="Path 3622" d="M67.443,80.57a3.112,3.112,0,0,1-2.211-.916l-7.817-7.817a3.126,3.126,0,0,1,4.421-4.421l7.817,7.817a3.127,3.127,0,0,1-2.211,5.337Z" transform="translate(-22.888 -32.888)" fill="#fcba7f"/>
      <path id="Path_3623" data-name="Path 3623" d="M52.979,80.957A17.979,17.979,0,1,1,70.957,62.979,18,18,0,0,1,52.979,80.957Zm0-34.394A16.415,16.415,0,1,0,69.394,62.979,16.433,16.433,0,0,0,52.979,46.563Z" transform="translate(-35 -45)" fill="#1f212b"/>
      <path id="Path_3624" data-name="Path 3624" d="M51.288,74.577A13.288,13.288,0,1,1,64.577,61.288,13.3,13.3,0,0,1,51.288,74.577Zm0-25.014A11.725,11.725,0,1,0,63.014,61.288,11.737,11.737,0,0,0,51.288,49.563Z" transform="translate(-33.31 -43.31)" fill="#1f212b"/>
      <rect id="Rectangle_912" data-name="Rectangle 912" width="1.563" height="5.528" transform="matrix(0.707, -0.707, 0.707, 0.707, 29.93, 31.037)" fill="#1f212b"/>
      <path id="Path_3625" data-name="Path 3625" d="M67.725,81.619a3.883,3.883,0,0,1-2.764-1.144l-7.817-7.817a3.911,3.911,0,0,1,0-5.526,4,4,0,0,1,5.528,0l7.817,7.817a3.908,3.908,0,0,1-2.764,6.671Zm-7.817-14.07a2.344,2.344,0,0,0-1.657,4l7.817,7.817a2.4,2.4,0,0,0,3.316,0,2.347,2.347,0,0,0,0-3.316l-7.817-7.817A2.333,2.333,0,0,0,59.908,67.549Z" transform="translate(-23.169 -33.156)" fill="#1f212b"/>
      <rect id="Rectangle_913" data-name="Rectangle 913" width="6.633" height="1.563" transform="matrix(0.707, -0.707, 0.707, 0.707, 34.621, 39.312)" fill="#1f212b"/>
    </g>
  </g>
</svg>
