<svg xmlns="http://www.w3.org/2000/svg" viewBox="0 0 103.96 22.26"><defs><style>.cls-1,.cls-3,.cls-7{fill:#e78e1e;}.cls-2{fill:#f5a846;}.cls-3{font-size:12.2px;font-family:Gilroy-Bold;font-weight:700;}.cls-4{letter-spacing:-0.04em;}.cls-5{letter-spacing:-0.01em;}.cls-6{letter-spacing:0em;}.cls-7{font-size:7.41px;font-family:Arial-Black, Arial Black;font-weight:800;}.cls-8{fill:none;}</style></defs><g id="Layer_2" data-name="Layer 2"><g id="Layer_1-2" data-name="Layer 1"><path class="cls-1" d="M20.73,16.43l0,0a4.06,4.06,0,0,1-.45,1h0q-.16.24-.33.45h0c-.26.34-.55.67-.85,1l-.06.06a11.11,11.11,0,0,1-5.09,3h0a11.16,11.16,0,0,1-9-1.54h0a11.25,11.25,0,0,1-1.21-1l0,0L3.29,19l0,0A11.13,11.13,0,0,1,11.13,0h.29L12,0h0a3.25,3.25,0,0,1,2.64,3.25,3.41,3.41,0,0,1-.36,1.53v0a2.85,2.85,0,0,1-.23.37A4.31,4.31,0,0,0,13.59,5l0,0a6.57,6.57,0,0,0-2.38-.44A6.5,6.5,0,0,0,8.88,5h0A6.55,6.55,0,0,0,5.2,13.73h0a4,4,0,0,0,.69,1.19h0a8.3,8.3,0,0,0,.54.64l0,0,.1.11.11.1,0,0A6.38,6.38,0,0,0,8.92,17.2h0a6.46,6.46,0,0,0,2.23.39h.17l.45,0h0a6.69,6.69,0,0,0,1.66-.39h0c.16-.07.32-.13.47-.21h0a6.4,6.4,0,0,0,1.8-1.27,6.65,6.65,0,0,0,1.36-2v0a6.24,6.24,0,0,0,.52-2.09v0a.53.53,0,0,0,0-.13,8.33,8.33,0,0,1,1.18.44,8.57,8.57,0,0,1,1.07.84A4.06,4.06,0,0,1,20.65,14v0a3.8,3.8,0,0,1,.23,1.31,3.94,3.94,0,0,1-.14,1S20.74,16.41,20.73,16.43Z"/><path class="cls-2" d="M20.4,17.28s1.9-4.57-2.81-5.85C14.91,11.2,11.81,15.49,10,16c-2.06.63-4,.43-5-2.93a2.19,2.19,0,0,0,3.49.44c2-2.16,5.88-7.17,7.28-7.73l.16-.09c3-1.67,6.15,2.71,6.36,4.41A11.31,11.31,0,0,1,20.4,17.28Z"/><text class="cls-3" transform="translate(25.95 11.06)">Gadal Mar<tspan class="cls-4" x="60.45" y="0">k</tspan><tspan class="cls-5" x="66.42" y="0">e</tspan><tspan class="cls-6" x="73.32" y="0">t</tspan></text><text class="cls-7" transform="translate(32.66 19.17)">9830</text><path class="cls-8" d="M30.53,17.43l-.33-.21a.38.38,0,0,0-.42,0l-.17.12a.21.21,0,0,1-.23,0,1.31,1.31,0,0,1-.68-.67.22.22,0,0,1,0-.22l.13-.18a.38.38,0,0,0,0-.42,3.53,3.53,0,0,0-.21-.32.19.19,0,0,0-.17-.1h-.12a.45.45,0,0,0-.4.45,1.79,1.79,0,0,0,.13.59,2.59,2.59,0,0,0,.76,1,2.1,2.1,0,0,0,1.18.56.6.6,0,0,0,.32,0,.51.51,0,0,0,.25-.5A.16.16,0,0,0,30.53,17.43Z"/><path class="cls-1" d="M31.46,15.69a1.94,1.94,0,0,0,0-.24,1.07,1.07,0,0,0-1-.83H28.08A1.07,1.07,0,0,0,27,15.68V18a1.07,1.07,0,0,0,1.07,1.06h2.48A1,1,0,0,0,31.46,18Zm-1.1,2.39a.6.6,0,0,1-.32,0,2.1,2.1,0,0,1-1.18-.56,2.59,2.59,0,0,1-.76-1,1.79,1.79,0,0,1-.13-.59.45.45,0,0,1,.4-.45h.12a.19.19,0,0,1,.17.1,3.53,3.53,0,0,1,.21.32.38.38,0,0,1,0,.42l-.13.18a.22.22,0,0,0,0,.22,1.31,1.31,0,0,0,.68.67.21.21,0,0,0,.23,0l.17-.12a.38.38,0,0,1,.42,0l.33.21a.16.16,0,0,1,.08.15A.51.51,0,0,1,30.36,18.08Z"/></g></g></svg>