<svg xmlns="http://www.w3.org/2000/svg" viewBox="0 0 64.54 22.26"><defs><style>.cls-1,.cls-3{fill:#e78e1e;}.cls-2{fill:#f5a846;}.cls-3{font-size:11.04px;font-family:Arial-Black, Arial Black;font-weight:800;}.cls-4{fill:none;}</style></defs><g id="Layer_2" data-name="Layer 2"><g id="Layer_1-2" data-name="Layer 1"><path class="cls-1" d="M20.73,16.43l0,0a4.06,4.06,0,0,1-.45,1h0q-.16.24-.33.45h0c-.26.34-.55.67-.85,1l-.06.06a11.11,11.11,0,0,1-5.09,3h0a11.16,11.16,0,0,1-9-1.54h0a11.25,11.25,0,0,1-1.21-1l0,0L3.29,19l0,0A11.13,11.13,0,0,1,11.13,0h.29L12,0h0a3.25,3.25,0,0,1,2.64,3.25,3.41,3.41,0,0,1-.36,1.53v0a2.85,2.85,0,0,1-.23.37A4.31,4.31,0,0,0,13.59,5l0,0a6.57,6.57,0,0,0-2.38-.44A6.5,6.5,0,0,0,8.88,5h0A6.55,6.55,0,0,0,5.2,13.73h0a4,4,0,0,0,.69,1.19h0a8.3,8.3,0,0,0,.54.64l0,0,.1.11.11.1,0,0A6.38,6.38,0,0,0,8.92,17.2h0a6.46,6.46,0,0,0,2.23.39h.17l.45,0h0a6.69,6.69,0,0,0,1.66-.39h0c.16-.07.32-.13.47-.21h0a6.4,6.4,0,0,0,1.8-1.27,6.65,6.65,0,0,0,1.36-2v0a6.24,6.24,0,0,0,.52-2.09v0a.53.53,0,0,0,0-.13,8.33,8.33,0,0,1,1.18.44,8.57,8.57,0,0,1,1.07.84A4.06,4.06,0,0,1,20.65,14v0a3.8,3.8,0,0,1,.23,1.31,3.94,3.94,0,0,1-.14,1S20.74,16.41,20.73,16.43Z"/><path class="cls-2" d="M20.4,17.28s1.9-4.57-2.81-5.85C14.91,11.2,11.81,15.49,10,16c-2.06.63-4,.43-5-2.93a2.19,2.19,0,0,0,3.49.44c2-2.16,5.88-7.17,7.28-7.73l.16-.09c3-1.67,6.15,2.71,6.36,4.41A11.31,11.31,0,0,1,20.4,17.28Z"/><text class="cls-3" transform="translate(35.09 15.16)">9830</text><path class="cls-4" d="M31.91,12.57l-.49-.31a.54.54,0,0,0-.62,0l-.26.18a.32.32,0,0,1-.34,0,2,2,0,0,1-1-1,.32.32,0,0,1,0-.33l.19-.26a.56.56,0,0,0,0-.63c-.09-.17-.2-.32-.3-.48a.3.3,0,0,0-.26-.14h-.17a.67.67,0,0,0-.6.67,2.66,2.66,0,0,0,.18.89,4.1,4.1,0,0,0,1.14,1.53,3.1,3.1,0,0,0,1.75.82.73.73,0,0,0,.48,0,.78.78,0,0,0,.38-.75A.29.29,0,0,0,31.91,12.57Z"/><path class="cls-1" d="M33.3,10a1.47,1.47,0,0,0,0-.36A1.54,1.54,0,0,0,31.74,8.4H28.26A1.57,1.57,0,0,0,26.69,10v3.46A1.59,1.59,0,0,0,28.28,15h3.44L32,15a1.56,1.56,0,0,0,1.32-1.57C33.31,12.27,33.31,11.13,33.3,10Zm-1.64,3.56a.73.73,0,0,1-.48,0,3.1,3.1,0,0,1-1.75-.82,4.1,4.1,0,0,1-1.14-1.53,2.66,2.66,0,0,1-.18-.89.67.67,0,0,1,.6-.67h.17a.3.3,0,0,1,.26.14c.1.16.21.31.3.48a.56.56,0,0,1,0,.63l-.19.26a.32.32,0,0,0,0,.33,2,2,0,0,0,1,1,.32.32,0,0,0,.34,0l.26-.18a.54.54,0,0,1,.62,0l.49.31a.29.29,0,0,1,.13.22A.78.78,0,0,1,31.66,13.54Z"/></g></g></svg>